<svg width="16" height="16" viewBox="0 0 16 16" fill="none" xmlns="http://www.w3.org/2000/svg">
<path d="M6.63531 13.5984C6.28731 13.5984 5.95771 13.436 5.74651 13.156L2.88811 9.37917C2.79974 9.26253 2.73522 9.12962 2.69824 8.98803C2.66127 8.84644 2.65256 8.69896 2.67262 8.554C2.69268 8.40905 2.74112 8.26947 2.81515 8.14324C2.88919 8.01702 2.98738 7.90662 3.10411 7.81837C3.2208 7.72975 3.35382 7.66503 3.49557 7.62791C3.63732 7.5908 3.785 7.58202 3.93014 7.60209C4.07528 7.62216 4.21504 7.67067 4.3414 7.74485C4.46776 7.81903 4.57824 7.91741 4.66651 8.03437L6.54731 10.5176L11.2761 2.92397C11.4329 2.67325 11.6828 2.49497 11.9709 2.42823C12.259 2.36149 12.5618 2.41174 12.8129 2.56797C13.3353 2.89277 13.4961 3.58077 13.1697 4.10397L7.58251 13.072C7.48713 13.2257 7.35567 13.3539 7.19953 13.4454C7.04339 13.5368 6.86729 13.5888 6.68651 13.5968C6.66891 13.5984 6.65291 13.5984 6.63531 13.5984Z" fill="#7CAC0F"/>
</svg>
