<svg width="8" height="5" viewBox="0 0 8 5" fill="none" xmlns="http://www.w3.org/2000/svg">
<path d="M4.2986 0.392625C4.30297 0.397875 4.30472 0.404874 4.3091 0.410124L7.36372 3.785C7.53435 3.97487 7.53435 4.28288 7.36372 4.47275C7.36197 4.4745 7.36022 4.47537 7.35847 4.47625C7.32051 4.52223 7.27297 4.55936 7.21916 4.58505C7.16536 4.61074 7.10659 4.62438 7.04697 4.625H0.936849C0.876134 4.62402 0.816376 4.60972 0.761795 4.58311C0.707213 4.5565 0.659141 4.51823 0.620974 4.471L0.619224 4.47275C0.53665 4.37721 0.491211 4.25515 0.491211 4.12888C0.491211 4.0026 0.53665 3.88054 0.619224 3.785L3.68085 0.392625C3.71896 0.347947 3.76632 0.312069 3.81964 0.287467C3.87297 0.262865 3.931 0.250125 3.98972 0.250125C4.04845 0.250125 4.10648 0.262865 4.1598 0.287467C4.21313 0.312069 4.26048 0.347947 4.2986 0.392625Z" fill="white"/>
</svg>
