<svg width="8" height="5" viewBox="0 0 8 5" fill="none" xmlns="http://www.w3.org/2000/svg">
<path d="M4.2986 4.60738C4.30297 4.60213 4.30472 4.59513 4.3091 4.58988L7.36372 1.215C7.53435 1.02513 7.53435 0.717125 7.36372 0.52725C7.36197 0.5255 7.36022 0.524625 7.35847 0.52375C7.32051 0.477774 7.27297 0.440641 7.21916 0.414948C7.16536 0.389255 7.10659 0.375622 7.04697 0.375H0.936849C0.876134 0.375981 0.816376 0.390282 0.761795 0.416892C0.707213 0.443502 0.659141 0.481773 0.620974 0.529L0.619224 0.52725C0.53665 0.622787 0.491211 0.744848 0.491211 0.871125C0.491211 0.997402 0.53665 1.11946 0.619224 1.215L3.68085 4.60738C3.71896 4.65205 3.76632 4.68793 3.81964 4.71253C3.87297 4.73713 3.931 4.74988 3.98972 4.74988C4.04845 4.74988 4.10648 4.73713 4.1598 4.71253C4.21313 4.68793 4.26048 4.65205 4.2986 4.60738Z" fill="white"/>
</svg>
