<svg width="41" height="35" viewBox="0 0 41 35" fill="none" xmlns="http://www.w3.org/2000/svg">
<path fill-rule="evenodd" clip-rule="evenodd" d="M4.59676 2.72048C5.53378 1.47715 7.06155 0.574219 9.2575 0.574219H23.3432C24.3321 0.574219 25.8972 0.889968 27.2445 1.99962C29.5001 3.85751 31.7327 6.4043 34.655 6.4043H36.9431C38.8209 6.4043 40.3431 7.92674 40.3431 9.80476V31.1791C40.3431 33.0572 38.8209 34.5796 36.9431 34.5796H3.91464C2.03687 34.5796 0.514648 33.0572 0.514648 31.1791V9.80476C0.514648 8.17135 1.66616 6.80693 3.20157 6.4792C3.33112 6.45155 3.42896 6.34034 3.42896 6.20787C3.42896 5.26469 3.71265 3.89362 4.59676 2.72048ZM25.3918 4.24957C26.3939 5.07497 25.381 6.4043 24.0827 6.4043H6.53965C6.43117 6.4043 6.34323 6.31636 6.34323 6.20787C6.34323 5.75896 6.49668 5.04188 6.92398 4.47489C7.29839 3.9781 7.95632 3.48893 9.2575 3.48893H23.3432C23.8113 3.48893 24.6748 3.65897 25.3918 4.24957ZM3.91464 9.31898C3.64638 9.31898 3.42892 9.53647 3.42892 9.80476V31.1791C3.42892 31.4474 3.64638 31.6649 3.91464 31.6649H36.9431C37.2113 31.6649 37.4288 31.4474 37.4288 31.1791V27.3179L37.4286 27.2926C37.4286 27.0245 37.2112 26.8071 36.9431 26.8071H21.4C20.5953 26.8071 19.9429 26.1546 19.9429 25.3498V14.6624C19.9429 13.8576 20.5953 13.2051 21.4 13.2051H36.9426C37.211 13.2051 37.4286 12.9875 37.4286 12.7191L37.4288 12.6939V9.80476C37.4288 9.53647 37.2113 9.31898 36.9431 9.31898H3.91464ZM26.7434 16.1198C24.5971 16.1198 22.8571 17.8598 22.8571 20.0061C22.8571 22.1524 24.5971 23.8924 26.7434 23.8924H33.5422C35.6885 23.8924 37.4285 22.1524 37.4285 20.0061C37.4285 17.8598 35.6885 16.1198 33.5422 16.1198H26.7434ZM31.1146 20.006C31.1146 20.8107 30.4622 21.4631 29.6575 21.4631C28.8527 21.4631 28.2003 20.8107 28.2003 20.006C28.2003 19.2012 28.8527 18.5488 29.6575 18.5488C30.4622 18.5488 31.1146 19.2012 31.1146 20.006Z" fill="url(#paint0_linear_1075_31378)"/>
<defs>
<linearGradient id="paint0_linear_1075_31378" x1="0.514648" y1="0.574219" x2="44.1678" y2="6.52562" gradientUnits="userSpaceOnUse">
<stop stop-color="#2D7EFA"/>
<stop offset="1" stop-color="#0C57C7"/>
</linearGradient>
</defs>
</svg>
