<svg width="55" height="35" viewBox="0 0 55 35" fill="none" xmlns="http://www.w3.org/2000/svg">
<path fill-rule="evenodd" clip-rule="evenodd" d="M42.6998 0.574219H12.4776H2.40354H2.40353C1.36033 0.574219 0.514648 1.42002 0.514648 2.46337V2.46338V12.5388V22.6138V32.6892V32.6899C0.514648 33.7333 1.36033 34.5791 2.40354 34.5791H52.774C53.8172 34.5791 54.6628 33.7333 54.6628 32.6899V12.5388V2.46338C54.6628 1.68086 54.1871 1.00947 53.5092 0.722678C53.2832 0.627082 53.0348 0.574219 52.774 0.574219H42.6998ZM44.8077 4.35252L50.8851 4.35254L50.885 10.4306C47.8815 9.72104 45.5172 7.35651 44.8077 4.35252ZM50.8851 14.2797C45.7908 13.4716 41.7672 9.44744 40.9592 4.35254H14.2182C13.4101 9.44743 9.38658 13.4715 4.29243 14.2797V20.8729C9.38683 21.6811 13.4105 25.7055 14.2183 30.8008H40.9591C41.7668 25.7055 45.7906 21.681 50.8851 20.8729V14.2797ZM4.29243 24.722V30.8001H10.3697C9.66018 27.7961 7.29598 25.4316 4.29243 24.722ZM4.29243 10.4306V4.35254H10.3697C9.66017 7.35651 7.29597 9.72103 4.29243 10.4306ZM50.885 30.8001H44.8077C45.5172 27.7961 47.8814 25.4315 50.885 24.722V30.8001ZM27.5887 8.13086C22.7604 8.13086 19.4036 12.697 19.4036 17.5767C19.4036 22.4563 22.7604 27.0225 27.5887 27.0225C32.4171 27.0225 35.7739 22.4563 35.7739 17.5767C35.7739 12.697 32.4171 8.13086 27.5887 8.13086ZM23.1813 17.5767C23.1813 14.1095 25.4625 11.9092 27.5887 11.9092C29.715 11.9092 31.9961 14.1095 31.9961 17.5767C31.9961 21.0438 29.715 23.2441 27.5887 23.2441C25.4625 23.2441 23.1813 21.0438 23.1813 17.5767Z" fill="url(#paint0_linear_1075_31388)"/>
<defs>
<linearGradient id="paint0_linear_1075_31388" x1="-2.00387" y1="-1.94466" x2="74.8171" y2="45.9042" gradientUnits="userSpaceOnUse">
<stop stop-color="#2D7EFA"/>
<stop offset="1" stop-color="#0C57C7" stop-opacity="0"/>
</linearGradient>
</defs>
</svg>
