<svg width="18" height="18" viewBox="0 0 18 18" fill="none" xmlns="http://www.w3.org/2000/svg">
<path d="M11.2054 3.8925C11.4889 3.56571 11.7051 3.18613 11.8415 2.77555C11.9779 2.36498 12.0319 1.9315 12.0004 1.5C11.1299 1.57027 10.3219 1.97967 9.75036 2.64C9.47668 2.95648 9.26929 3.32466 9.14047 3.72273C9.01164 4.12081 8.964 4.54068 9.00036 4.9575C9.42497 4.96104 9.8447 4.86682 10.2271 4.68214C10.6094 4.49747 10.9442 4.22728 11.2054 3.8925ZM13.0954 9.4725C13.1004 8.8978 13.2518 8.33387 13.5352 7.8339C13.8187 7.33394 14.2248 6.91444 14.7154 6.615C14.4058 6.16893 13.9965 5.80113 13.52 5.54076C13.0436 5.28039 12.513 5.13462 11.9704 5.115C10.8004 4.995 9.72036 5.7975 9.09786 5.7975C8.47536 5.7975 7.59786 5.13 6.62286 5.145C5.98546 5.166 5.36438 5.35184 4.8202 5.68439C4.27602 6.01694 3.82732 6.48486 3.51786 7.0425C2.19786 9.3375 3.18036 12.75 4.50036 14.6025C5.10036 15.51 5.85036 16.5375 6.84036 16.5C7.83036 16.4625 8.15286 15.885 9.30036 15.885C10.4479 15.885 10.8004 16.5 11.7754 16.4775C12.7504 16.455 13.4404 15.5475 14.0704 14.64C14.5166 13.9811 14.8653 13.2612 15.1054 12.5025C14.511 12.249 14.0038 11.827 13.6466 11.2885C13.2894 10.75 13.0978 10.1187 13.0954 9.4725Z" fill="white"/>
</svg>
