<svg width="18" height="18" viewBox="0 0 18 18" fill="none" xmlns="http://www.w3.org/2000/svg">
<path d="M16.2104 14.4525C15.6826 14.2363 15.4568 13.9494 15.4786 13.5214C15.5011 13.0218 15.2176 12.6558 15.083 12.5112C15.1644 12.2005 15.402 11.1258 15.0833 10.1924C14.7407 9.19322 13.695 7.66722 12.6159 6.16719C12.1741 5.55118 12.1533 4.88157 12.1291 4.10621C12.106 3.36667 12.0799 2.5284 11.6675 1.59652C11.2191 0.581846 10.3193 0 9.19876 0C8.53216 0 7.84792 0.208329 7.32137 0.571519C6.24313 1.31566 6.38566 2.93809 6.47997 4.01167C6.49289 4.15868 6.50505 4.29754 6.51213 4.41611C6.57493 5.46755 6.5178 6.02172 6.44308 6.19015C6.39475 6.30022 6.15679 6.61348 5.90497 6.94515C5.64453 7.28816 5.34927 7.67696 5.10724 8.03927C4.81847 8.47522 4.58535 9.14158 4.35991 9.78599C4.19496 10.2575 4.03915 10.7029 3.88748 10.9691C3.60001 11.4811 3.67154 11.9586 3.73126 12.1792C3.62243 12.2548 3.46521 12.4037 3.33248 12.6842C3.17208 13.0265 2.8466 13.2105 2.16979 13.3406C1.85877 13.4042 1.64431 13.535 1.53218 13.7293C1.36899 14.0121 1.45787 14.3673 1.53896 14.6101C1.65877 14.9671 1.58411 15.193 1.44837 15.6032C1.41709 15.6978 1.38162 15.805 1.34568 15.9232C1.28908 16.1098 1.3095 16.2794 1.40623 16.4273C1.66184 16.8181 2.40769 16.9559 3.1755 17.0465C3.63394 17.1009 4.1357 17.2843 4.621 17.4617C5.0965 17.6355 5.58817 17.8152 6.0351 17.8697C6.10303 17.8783 6.17031 17.8826 6.23517 17.8826C6.90997 17.8826 7.21485 17.4348 7.31152 17.2508C7.5539 17.2014 8.38987 17.043 9.25146 17.0217C10.1117 16.9972 10.944 17.167 11.1798 17.2199C11.2539 17.3617 11.4493 17.6858 11.7608 17.8528C11.932 17.9464 12.1703 18 12.4143 18C12.4143 18 12.4143 18 12.4143 18C12.675 18 13.1708 17.9384 13.5632 17.5256C13.9546 17.1108 14.9325 16.5813 15.6466 16.1947C15.8059 16.1084 15.955 16.0277 16.0857 15.9548C16.4869 15.7324 16.7058 15.4147 16.6862 15.083C16.6699 14.8076 16.4876 14.566 16.2104 14.4525ZM7.33017 14.3727C7.28024 14.0209 6.82776 13.6721 6.30374 13.2682C5.87528 12.9378 5.38963 12.5635 5.25584 12.2465C4.97935 11.5924 5.1973 10.4424 5.57731 9.85026C5.7651 9.55375 5.91848 9.10411 6.06685 8.66927C6.22702 8.19973 6.39268 7.71426 6.57794 7.50174C6.87131 7.16995 7.14243 6.52436 7.19047 6.01558C7.4652 6.27785 7.89136 6.61065 8.28506 6.61065C8.34567 6.61065 8.40451 6.60274 8.46075 6.58686C8.7301 6.50908 9.12628 6.28015 9.50942 6.05884C9.83974 5.86798 10.2471 5.63262 10.4003 5.6112C10.6631 5.98855 12.1902 9.36791 12.3462 10.4532C12.4697 11.3119 12.3393 12.0217 12.2737 12.2997C12.221 12.2925 12.158 12.2867 12.0919 12.2867C11.6666 12.2867 11.554 12.5189 11.5247 12.6575C11.4492 13.0177 11.4413 14.1694 11.4405 14.4282C11.2867 14.6236 10.5089 15.5438 9.39221 15.7092C8.93737 15.7753 8.51263 15.8088 8.12984 15.8088C7.80265 15.8088 7.59385 15.7836 7.50716 15.7704L6.94603 15.1284C7.16728 15.0191 7.38847 14.7886 7.33017 14.3727ZM8.0422 3.78587C8.02468 3.79342 8.00744 3.80151 7.99051 3.81012C7.98879 3.77212 7.98484 3.73358 7.97876 3.69492C7.9175 3.3423 7.68368 3.08634 7.42288 3.08634C7.40358 3.08634 7.38417 3.08782 7.36286 3.09106C7.20771 3.11691 7.08601 3.23347 7.01932 3.39872C7.07781 3.03612 7.28325 2.76765 7.52699 2.76765C7.81322 2.76765 8.05501 3.15338 8.05501 3.60994C8.05501 3.66748 8.05082 3.72473 8.0422 3.78587ZM10.2663 4.05776C10.2925 3.97431 10.3067 3.88401 10.3067 3.79029C10.3067 3.37635 10.0441 3.05205 9.70878 3.05205C9.38112 3.05205 9.11454 3.3832 9.11454 3.79029C9.11454 3.81803 9.1159 3.84583 9.11849 3.87357C9.10114 3.8669 9.08421 3.86041 9.06768 3.85415C9.02997 3.73995 9.01091 3.6208 9.01091 3.49916C9.01091 3.00419 9.32724 2.60146 9.71616 2.60146C10.105 2.60146 10.4214 3.00419 10.4214 3.49916C10.4214 3.70507 10.3646 3.9016 10.2663 4.05776ZM9.97955 5.02115C9.97394 5.04617 9.96202 5.05727 9.83018 5.12584C9.76361 5.16049 9.68075 5.20363 9.57705 5.26678L9.50777 5.30874C9.22933 5.47752 8.57737 5.87288 8.40038 5.89607C8.28016 5.91224 8.2058 5.86562 8.0386 5.75201C8.00089 5.72634 7.96076 5.69907 7.91797 5.67163C7.61657 5.47387 7.4227 5.25603 7.40081 5.17087C7.49907 5.09492 7.74263 4.90483 7.86734 4.79228C8.12046 4.55692 8.37518 4.39876 8.50124 4.39876C8.50791 4.39876 8.51393 4.39923 8.52018 4.40041C8.66831 4.42655 9.03369 4.57238 9.30056 4.67885C9.42391 4.72807 9.53043 4.77056 9.60538 4.79747C9.84151 4.87856 9.96462 4.98232 9.97955 5.02115ZM12.101 16.0201C12.2342 15.4193 12.3877 14.6019 12.3628 14.12C12.3571 14.0105 12.3474 13.8914 12.338 13.7762C12.3205 13.5608 12.2945 13.2406 12.3213 13.1456C12.3266 13.1432 12.3326 13.141 12.3391 13.1392C12.3402 13.4147 12.4001 13.9642 12.8395 14.1558C12.9705 14.213 13.1201 14.2419 13.2843 14.2419C13.7245 14.2419 14.2129 14.0259 14.413 13.8259C14.5308 13.7081 14.6299 13.5639 14.6993 13.4498C14.7145 13.4942 14.7238 13.5523 14.7189 13.6272C14.6928 14.0335 14.8902 14.5725 15.266 14.7712L15.3208 14.7999C15.4546 14.8702 15.8101 15.0568 15.8158 15.1454C15.8158 15.1454 15.8128 15.1558 15.793 15.1742C15.7039 15.2556 15.3905 15.4157 15.0874 15.5705C14.5497 15.845 13.9402 16.1562 13.6665 16.4441C13.2811 16.8496 12.8452 17.1221 12.582 17.1221C12.5503 17.1221 12.5215 17.1181 12.4958 17.1099C12.2099 17.0208 11.9746 16.6083 12.101 16.0201ZM2.3567 14.4873C2.32754 14.3508 2.30453 14.2431 2.32926 14.1388C2.3472 14.0615 2.72886 13.9786 2.89186 13.9432C3.12103 13.8935 3.35804 13.8421 3.51302 13.748C3.72258 13.6211 3.83607 13.387 3.93617 13.1804C4.00864 13.031 4.08347 12.8766 4.17253 12.8259C4.17755 12.8229 4.18522 12.8195 4.19985 12.8195C4.36669 12.8195 4.71678 13.1702 4.9185 13.4842C4.96967 13.5633 5.06445 13.7219 5.1741 13.9055C5.50206 14.4542 5.95112 15.2058 6.18565 15.4577C6.39699 15.6841 6.73911 16.1195 6.65495 16.4929C6.59334 16.7826 6.26533 17.0182 6.18795 17.0703C6.15986 17.0767 6.1251 17.0799 6.0842 17.0799C5.63532 17.0799 4.74676 16.7065 4.26938 16.5058L4.19873 16.4761C3.93215 16.3644 3.49696 16.2939 3.07611 16.2258C2.74125 16.1716 2.28269 16.0974 2.20668 16.0304C2.14506 15.9613 2.21653 15.7366 2.27956 15.5384C2.32495 15.3959 2.37181 15.2486 2.39748 15.0944C2.43389 14.8484 2.39105 14.6481 2.3567 14.4873Z" fill="white"/>
</svg>
