<svg width="19" height="18" viewBox="0 0 19 18" fill="none" xmlns="http://www.w3.org/2000/svg">
<path fill-rule="evenodd" clip-rule="evenodd" d="M7.26465 0.9375C5.33417 0.9375 3.8365 1.32015 2.83565 2.321C1.8348 3.32185 1.45215 4.81952 1.45215 6.75V11.25C1.45215 13.1805 1.8348 14.6781 2.83565 15.679C3.8365 16.6798 5.33417 17.0625 7.26465 17.0625H11.7646C13.6951 17.0625 15.1928 16.6798 16.1936 15.679C17.1945 14.6781 17.5771 13.1805 17.5771 11.25V6.75C17.5771 4.81952 17.1945 3.32185 16.1936 2.321C15.1928 1.32015 13.6951 0.9375 11.7646 0.9375H7.26465ZM2.57715 6.75C2.57715 4.93048 2.9445 3.80315 3.63115 3.1165C4.31779 2.42985 5.44513 2.0625 7.26465 2.0625H11.7646C13.5842 2.0625 14.7115 2.42985 15.3982 3.1165C16.0848 3.80315 16.4521 4.93048 16.4521 6.75V11.25C16.4521 13.0695 16.0848 14.1969 15.3982 14.8835C14.7115 15.5702 13.5842 15.9375 11.7646 15.9375H7.26465C5.44513 15.9375 4.31779 15.5702 3.63115 14.8835C2.9445 14.1969 2.57715 13.0695 2.57715 11.25V6.75ZM8.94544 4.3877C8.16226 4.3877 7.52795 5.02207 7.52795 5.80521V7.7998H6.1095C5.32636 7.7998 4.69202 8.43409 4.69202 9.21727V13.0573C4.69202 13.3679 4.94386 13.6198 5.25452 13.6198H8.097C8.12736 13.6198 8.15715 13.6174 8.18621 13.6127H10.933L10.9355 13.6127L10.9381 13.6127H13.7806C14.0913 13.6127 14.3431 13.3609 14.3431 13.0502V10.4927H14.3432L14.343 10.4838C14.3308 9.71252 13.7061 9.0752 12.9256 9.0752H11.4955V5.80521C11.4955 5.02854 10.8751 4.3877 10.0855 4.3877H8.94544ZM7.52795 8.9248V12.4948H5.81702V9.21727C5.81702 9.05545 5.94765 8.9248 6.1095 8.9248H7.52795ZM8.6595 12.4877H10.3705V5.80521C10.3705 5.63687 10.2408 5.5127 10.0855 5.5127H8.94544C8.78362 5.5127 8.65295 5.64335 8.65295 5.80521V8.3623H8.6595V12.4877ZM11.5006 10.2002V12.4877H13.2181V10.4983C13.2136 10.3262 13.0741 10.2002 12.9256 10.2002H11.5006Z" fill="#ffffff"/>
</svg>
