<svg width="53" height="1356" viewBox="0 0 53 1356" fill="none" xmlns="http://www.w3.org/2000/svg">
<path fill-rule="evenodd" clip-rule="evenodd" d="M52.6299 2C52.6299 0.89543 51.7344 0 50.6299 0C49.5253 0 48.6299 0.89543 48.6299 2C48.6299 29.4463 37.0542 43.0731 25.1066 57.1152L25.0797 57.1468C13.0356 71.3024 0.629883 85.883 0.629883 114.83C0.629883 143.777 13.0356 158.358 25.0797 172.513L25.1066 172.545C37.0542 186.587 48.6299 200.214 48.6299 227.66C48.6299 255.106 37.0541 268.736 25.1066 282.779L25.078 282.813C13.0345 296.969 0.629883 311.549 0.629883 340.49C0.629883 369.431 13.0345 384.011 25.078 398.167L25.1066 398.201C37.0541 412.244 48.6299 425.874 48.6299 453.32C48.6299 480.766 37.0541 494.396 25.1065 508.44L25.0795 508.472C13.0354 522.63 0.629883 537.213 0.629883 566.16C0.629883 595.106 13.0344 609.686 25.078 623.842L25.1066 623.876C36.9081 637.748 48.3469 651.215 48.6247 678C48.3469 704.779 36.9082 718.245 25.1066 732.115L25.0797 732.147C13.0356 746.302 0.629883 760.883 0.629883 789.83C0.629883 818.777 13.0356 833.358 25.0797 847.513L25.1066 847.545C37.0542 861.587 48.6299 875.214 48.6299 902.66C48.6299 930.106 37.0541 943.736 25.1066 957.779L25.078 957.813C13.0345 971.969 0.629883 986.549 0.629883 1015.49C0.629883 1044.43 13.0345 1059.01 25.078 1073.17L25.1066 1073.2C37.0541 1087.24 48.6299 1100.87 48.6299 1128.32C48.6299 1155.77 37.0541 1169.4 25.1065 1183.44L25.0795 1183.47C13.0354 1197.63 0.629883 1212.21 0.629883 1241.16C0.629883 1270.11 13.0344 1284.69 25.078 1298.84L25.1066 1298.88C37.0541 1312.92 48.6299 1326.55 48.6299 1354C48.6299 1355.1 49.5253 1356 50.6299 1356C51.7344 1356 52.6299 1355.1 52.6299 1354C52.6299 1325.05 40.2253 1310.47 28.1818 1296.32L28.1532 1296.28C16.2057 1282.24 4.62988 1268.61 4.62988 1241.16C4.62988 1213.71 16.2058 1200.08 28.1532 1186.03L28.1834 1186C40.2263 1171.84 52.6299 1157.26 52.6299 1128.32C52.6299 1099.38 40.2253 1084.8 28.1818 1070.64L28.1532 1070.61C16.2056 1056.57 4.62988 1042.94 4.62988 1015.49C4.62988 988.044 16.2056 974.414 28.1532 960.371L28.1818 960.337C40.2253 946.181 52.6299 931.601 52.6299 902.66C52.6299 873.72 40.2263 859.142 28.1833 844.988L28.1531 844.953C16.2057 830.911 4.62988 817.281 4.62988 789.83C4.62988 762.379 16.2057 748.749 28.1531 734.707L28.1833 734.672C39.8985 720.903 51.955 706.733 52.6026 679.331C52.6205 679.224 52.6299 679.113 52.6299 679C52.6299 678.665 52.6282 678.331 52.6249 678C52.6282 677.668 52.6299 677.335 52.6299 677C52.6299 676.887 52.6205 676.777 52.6026 676.669C51.9551 649.261 39.8976 635.089 28.1818 621.318L28.1532 621.284C16.2057 607.241 4.62988 593.611 4.62988 566.16C4.62988 538.708 16.2058 525.077 28.1532 511.032L28.1834 510.997C40.2263 496.84 52.6299 482.259 52.6299 453.32C52.6299 424.379 40.2253 409.799 28.1818 395.643L28.1532 395.609C16.2056 381.566 4.62988 367.936 4.62988 340.49C4.62988 313.044 16.2056 299.414 28.1532 285.371L28.1818 285.337C40.2253 271.181 52.6299 256.601 52.6299 227.66C52.6299 198.72 40.2263 184.142 28.1833 169.988L28.1531 169.953C16.2057 155.911 4.62988 142.281 4.62988 114.83C4.62988 87.3786 16.2057 73.7493 28.1531 59.7073L28.1833 59.6718C40.2263 45.5176 52.6299 30.9395 52.6299 2Z" fill="white"/>
</svg>
