<svg width="36" height="45" viewBox="0 0 36 45" fill="none" xmlns="http://www.w3.org/2000/svg">
<path fill-rule="evenodd" clip-rule="evenodd" d="M1.53821 11.9946H8.92565V17.601L6.18824 20.3384C6.05275 20.4724 5.97473 20.6538 5.97067 20.8443V30.4581C5.97009 30.5429 5.98556 30.627 6.01622 30.7061L9.66437 40.9371V43.7656C9.66437 43.9616 9.74223 44.1494 9.88077 44.288C10.0193 44.4265 10.2072 44.5044 10.4031 44.5044H19.2731C19.469 44.5044 19.6569 44.4265 19.7955 44.288C19.934 44.1494 20.0118 43.9616 20.0118 43.7656V32.6845C20.0117 32.5852 19.9911 32.487 19.9511 32.3961L18.1852 28.252H25.9319C26.0289 28.252 26.125 28.2329 26.2146 28.1958C26.3042 28.1587 26.3857 28.1042 26.4543 28.0357C26.5229 27.9671 26.5773 27.8856 26.6144 27.796C26.6515 27.7064 26.6707 27.6103 26.6707 27.5133V11.9946H34.0631V6.07962H35.5406V0.169678H0.0556641V6.07962H1.53821V11.9946ZM18.5344 43.0319H11.1419V41.5544H18.5344V43.0319ZM18.5344 40.077H10.9192L7.44817 30.3418V21.1682L8.92565 19.6856V27.5082C8.92565 27.6052 8.94476 27.7013 8.98189 27.7909C9.01902 27.8806 9.07342 27.962 9.14202 28.0306C9.21062 28.0992 9.29204 28.1536 9.38167 28.1907C9.4713 28.2278 9.56736 28.247 9.66437 28.247H12.6194V31.2019H14.0968V23.8145C14.0968 23.7171 14.1161 23.6206 14.1536 23.5306C14.191 23.4407 14.2459 23.359 14.315 23.2903C14.3841 23.2217 14.4662 23.1674 14.5564 23.1305C14.6466 23.0937 14.7432 23.0751 14.8407 23.0758H15.5794C15.6764 23.0758 15.7725 23.0949 15.8621 23.132C15.9517 23.1691 16.0332 23.2235 16.1018 23.2921C16.1704 23.3607 16.2248 23.4422 16.2619 23.5318C16.299 23.6214 16.3181 23.7175 16.3181 23.8145V27.5082C16.319 27.6086 16.3378 27.708 16.3738 27.8017L18.5344 32.8312V40.077ZM25.1831 26.7695H17.7956V23.8145C17.7956 23.2267 17.5621 22.663 17.1465 22.2474C16.7309 21.8318 16.1672 21.5983 15.5794 21.5983H14.8407C14.2928 21.5991 13.7646 21.8027 13.3581 22.17V20.8545H11.8806V25.292H12.6194V26.7695H10.4031V9.05989H11.8806V19.3821H13.3581V12.197C13.9109 12.8296 14.5927 13.3367 15.3576 13.6841C16.1225 14.0315 16.9529 14.2112 17.7931 14.2112C18.6332 14.2112 19.4636 14.0315 20.2286 13.6841C20.9935 13.3367 21.6753 12.8296 22.2281 12.197V19.3821H23.7055V9.05989H25.1831V26.7695ZM13.4239 9.05989H22.1674C21.9944 10.0943 21.4602 11.0339 20.6597 11.7116C19.8593 12.3893 18.8444 12.7612 17.7956 12.7612C16.7468 12.7612 15.732 12.3893 14.9315 11.7116C14.1311 11.0339 13.5969 10.0943 13.4239 9.05989ZM32.5755 10.5374H26.6605V9.05989H28.138V7.54193H7.44817V9.05989H8.92565V10.5374H3.00558V6.09987H32.5654L32.5755 10.5374ZM1.53821 1.64715H34.053V4.60214H1.53821V1.64715ZM4.49316 7.54199H5.97064V9.05996H4.49316V7.54199ZM31.0976 7.54199H29.6201V9.05996H31.0976V7.54199ZM22.2328 23.8195H19.2778V25.297H23.7103V20.8595H22.2328V23.8195ZM19.6385 16.6732C19.8821 17.0377 20.012 17.4661 20.012 17.9045C20.012 18.4922 19.7786 19.056 19.3629 19.4716C18.9473 19.8872 18.3836 20.1207 17.7958 20.1207C17.3575 20.1207 16.929 19.9907 16.5646 19.7472C16.2001 19.5037 15.916 19.1575 15.7483 18.7526C15.5806 18.3476 15.5367 17.902 15.6222 17.4721C15.7077 17.0422 15.9188 16.6473 16.2287 16.3374C16.5387 16.0274 16.9335 15.8163 17.3635 15.7308C17.7934 15.6453 18.239 15.6892 18.6439 15.8569C19.0489 16.0247 19.395 16.3088 19.6385 16.6732ZM17.3854 18.5187C17.5069 18.5999 17.6497 18.6432 17.7958 18.6432C17.8928 18.6432 17.9889 18.6241 18.0785 18.587C18.1681 18.5498 18.2496 18.4954 18.3182 18.4268C18.3868 18.3582 18.4412 18.2768 18.4783 18.1872C18.5155 18.0975 18.5346 18.0015 18.5346 17.9045C18.5346 17.7583 18.4913 17.6155 18.4101 17.4941C18.3289 17.3726 18.2135 17.2779 18.0785 17.222C17.9435 17.1661 17.795 17.1514 17.6517 17.1799C17.5084 17.2084 17.3768 17.2788 17.2735 17.3821C17.1701 17.4854 17.0998 17.6171 17.0713 17.7604C17.0428 17.9037 17.0574 18.0522 17.1133 18.1872C17.1692 18.3221 17.2639 18.4375 17.3854 18.5187Z" fill="url(#paint0_linear_1315_143)"/>
<defs>
<linearGradient id="paint0_linear_1315_143" x1="2.58416" y1="-0.013804" x2="43.6893" y2="35.3468" gradientUnits="userSpaceOnUse">
<stop stop-color="#94FF59"/>
<stop offset="1" stop-color="#5EE276"/>
</linearGradient>
</defs>
</svg>
