<svg width="387" height="155" viewBox="0 0 387 155" fill="none" xmlns="http://www.w3.org/2000/svg">
<g style="mix-blend-mode:screen">
<path style="mix-blend-mode:screen" d="M385.65 16.6499H385.15V30.8299H385.65V16.6499Z" fill="url(#paint0_linear_1075_25530)"/>
<path style="mix-blend-mode:screen" d="M377.77 12.5601H377.27V25.5201H377.77V12.5601Z" fill="url(#paint1_linear_1075_25530)"/>
<path style="mix-blend-mode:screen" d="M369.9 12.5498H369.4V30.6398H369.9V12.5498Z" fill="url(#paint2_linear_1075_25530)"/>
<path style="mix-blend-mode:screen" d="M362.03 20.3999H361.53V46.5599H362.03V20.3999Z" fill="url(#paint3_linear_1075_25530)"/>
<path style="mix-blend-mode:screen" d="M354.16 16.3101H353.66V42.1001H354.16V16.3101Z" fill="url(#paint4_linear_1075_25530)"/>
<path style="mix-blend-mode:screen" d="M346.28 15.6299H345.78V50.5899H346.28V15.6299Z" fill="url(#paint5_linear_1075_25530)"/>
<path style="mix-blend-mode:screen" d="M338.41 35.4697H337.91V62.5997H338.41V35.4697Z" fill="url(#paint6_linear_1075_25530)"/>
<path style="mix-blend-mode:screen" d="M330.54 44.3501H330.04V67.3101H330.54V44.3501Z" fill="url(#paint7_linear_1075_25530)"/>
<path style="mix-blend-mode:screen" d="M322.67 50.5698H322.17V68.0498H322.67V50.5698Z" fill="url(#paint8_linear_1075_25530)"/>
<path style="mix-blend-mode:screen" d="M314.8 51.1201H314.3V74.5901H314.8V51.1201Z" fill="url(#paint9_linear_1075_25530)"/>
<path style="mix-blend-mode:screen" d="M306.92 31.1201H306.42V82.2101H306.92V31.1201Z" fill="url(#paint10_linear_1075_25530)"/>
<path style="mix-blend-mode:screen" d="M299.05 41.6201H298.55V68.7501H299.05V41.6201Z" fill="url(#paint11_linear_1075_25530)"/>
<path style="mix-blend-mode:screen" d="M291.18 53.8901H290.68V73.1001H291.18V53.8901Z" fill="url(#paint12_linear_1075_25530)"/>
<path style="mix-blend-mode:screen" d="M283.31 57.6499H282.81V80.1899H283.31V57.6499Z" fill="url(#paint13_linear_1075_25530)"/>
<path style="mix-blend-mode:screen" d="M275.44 48.6201H274.94V101.57H275.44V48.6201Z" fill="url(#paint14_linear_1075_25530)"/>
<path style="mix-blend-mode:screen" d="M267.56 57.5498H267.06V82.9698H267.56V57.5498Z" fill="url(#paint15_linear_1075_25530)"/>
<path style="mix-blend-mode:screen" d="M259.69 60.8799H259.19V95.0099H259.69V60.8799Z" fill="url(#paint16_linear_1075_25530)"/>
<path style="mix-blend-mode:screen" d="M251.82 62.9302H251.32V102.94H251.82V62.9302Z" fill="url(#paint17_linear_1075_25530)"/>
<path style="mix-blend-mode:screen" d="M243.95 56.2598H243.45V97.4798H243.95V56.2598Z" fill="url(#paint18_linear_1075_25530)"/>
<path style="mix-blend-mode:screen" d="M236.08 34.3999H235.58V82.1399H236.08V34.3999Z" fill="url(#paint19_linear_1075_25530)"/>
<path style="mix-blend-mode:screen" d="M228.2 47.3198H227.7V92.4198H228.2V47.3198Z" fill="url(#paint20_linear_1075_25530)"/>
<path style="mix-blend-mode:screen" d="M220.33 63.4102H219.83V104.11H220.33V63.4102Z" fill="url(#paint21_linear_1075_25530)"/>
<path style="mix-blend-mode:screen" d="M212.46 85.9199H211.96V108.56H212.46V85.9199Z" fill="url(#paint22_linear_1075_25530)"/>
<path style="mix-blend-mode:screen" d="M204.59 30.5303H204.09V119.81H204.59V30.5303Z" fill="url(#paint23_linear_1075_25530)"/>
<path style="mix-blend-mode:screen" d="M196.72 4.25977H196.22V88.8398H196.72V4.25977Z" fill="url(#paint24_linear_1075_25530)"/>
<path style="mix-blend-mode:screen" d="M188.84 26.2402H188.34V44.5702H188.84V26.2402Z" fill="url(#paint25_linear_1075_25530)"/>
<path style="mix-blend-mode:screen" d="M180.97 22.8799H180.47V61.2599H180.97V22.8799Z" fill="url(#paint26_linear_1075_25530)"/>
<path style="mix-blend-mode:screen" d="M173.1 16.6699H172.6V59.6899H173.1V16.6699Z" fill="url(#paint27_linear_1075_25530)"/>
<path style="mix-blend-mode:screen" d="M165.23 16.8901H164.73V35.4701H165.23V16.8901Z" fill="url(#paint28_linear_1075_25530)"/>
<path style="mix-blend-mode:screen" d="M157.35 21.8901H156.85V52.6901H157.35V21.8901Z" fill="url(#paint29_linear_1075_25530)"/>
<path style="mix-blend-mode:screen" d="M149.48 37.5698H148.98V55.8998H149.48V37.5698Z" fill="url(#paint30_linear_1075_25530)"/>
<path style="mix-blend-mode:screen" d="M141.61 23.6802H141.11V55.9502H141.61V23.6802Z" fill="url(#paint31_linear_1075_25530)"/>
<path style="mix-blend-mode:screen" d="M133.74 33.1201H133.24V60.6201H133.74V33.1201Z" fill="url(#paint32_linear_1075_25530)"/>
<path style="mix-blend-mode:screen" d="M125.87 34.6802H125.37V72.5702H125.87V34.6802Z" fill="url(#paint33_linear_1075_25530)"/>
<path style="mix-blend-mode:screen" d="M117.99 59.4702H117.49V70.1002H117.99V59.4702Z" fill="url(#paint34_linear_1075_25530)"/>
<path style="mix-blend-mode:screen" d="M110.12 50.7197H109.62V82.0697H110.12V50.7197Z" fill="url(#paint35_linear_1075_25530)"/>
<path style="mix-blend-mode:screen" d="M102.25 53.75H101.75V85.65H102.25V53.75Z" fill="url(#paint36_linear_1075_25530)"/>
<path style="mix-blend-mode:screen" d="M94.3799 64.75H93.8799V88.22H94.3799V64.75Z" fill="url(#paint37_linear_1075_25530)"/>
<path style="mix-blend-mode:screen" d="M86.51 55.96H86.01V72.28H86.51V55.96Z" fill="url(#paint38_linear_1075_25530)"/>
<path style="mix-blend-mode:screen" d="M78.6299 53.6699H78.1299V87.3999H78.6299V53.6699Z" fill="url(#paint39_linear_1075_25530)"/>
<path style="mix-blend-mode:screen" d="M70.76 76.9702H70.26V86.4102H70.76V76.9702Z" fill="url(#paint40_linear_1075_25530)"/>
<path style="mix-blend-mode:screen" d="M62.8899 79.0601H62.3899V90.7001H62.8899V79.0601Z" fill="url(#paint41_linear_1075_25530)"/>
<path style="mix-blend-mode:screen" d="M55.02 69.3599H54.52V124.85H55.02V69.3599Z" fill="url(#paint42_linear_1075_25530)"/>
<path style="mix-blend-mode:screen" d="M47.15 100.42H46.65V116.31H47.15V100.42Z" fill="url(#paint43_linear_1075_25530)"/>
<path style="mix-blend-mode:screen" d="M39.27 107.14H38.77V122.05H39.27V107.14Z" fill="url(#paint44_linear_1075_25530)"/>
<path style="mix-blend-mode:screen" d="M31.4 101.66H30.9V127.82H31.4V101.66Z" fill="url(#paint45_linear_1075_25530)"/>
<path style="mix-blend-mode:screen" d="M23.53 108.04H23.03V130.65H23.53V108.04Z" fill="url(#paint46_linear_1075_25530)"/>
<path style="mix-blend-mode:screen" d="M15.66 122.46H15.16V152.28H15.66V122.46Z" fill="url(#paint47_linear_1075_25530)"/>
<path style="mix-blend-mode:screen" d="M7.79004 125.95H7.29004V147.46H7.79004V125.95Z" fill="url(#paint48_linear_1075_25530)"/>
<path style="mix-blend-mode:screen" d="M387.9 21.5898H382.9V25.8898H387.9V21.5898Z" fill="url(#paint49_linear_1075_25530)"/>
<path style="mix-blend-mode:screen" d="M380.02 17.0698H375.02V20.9998H380.02V17.0698Z" fill="url(#paint50_linear_1075_25530)"/>
<path style="mix-blend-mode:screen" d="M372.15 18.8501H367.15V24.3301H372.15V18.8501Z" fill="url(#paint51_linear_1075_25530)"/>
<path style="mix-blend-mode:screen" d="M364.28 29.52H359.28V37.45H364.28V29.52Z" fill="url(#paint52_linear_1075_25530)"/>
<path style="mix-blend-mode:screen" d="M356.41 25.29H351.41V33.1H356.41V25.29Z" fill="url(#paint53_linear_1075_25530)"/>
<path style="mix-blend-mode:screen" d="M348.53 27.8101H343.53V38.4001H348.53V27.8101Z" fill="url(#paint54_linear_1075_25530)"/>
<path style="mix-blend-mode:screen" d="M340.66 44.9199H335.66V53.1399H340.66V44.9199Z" fill="url(#paint55_linear_1075_25530)"/>
<path style="mix-blend-mode:screen" d="M332.79 52.3501H327.79V59.3101H332.79V52.3501Z" fill="url(#paint56_linear_1075_25530)"/>
<path style="mix-blend-mode:screen" d="M324.92 56.6602H319.92V61.9602H324.92V56.6602Z" fill="url(#paint57_linear_1075_25530)"/>
<path style="mix-blend-mode:screen" d="M317.05 59.29H312.05V66.4H317.05V59.29Z" fill="url(#paint58_linear_1075_25530)"/>
<path style="mix-blend-mode:screen" d="M309.17 48.9199H304.17V64.3999H309.17V48.9199Z" fill="url(#paint59_linear_1075_25530)"/>
<path style="mix-blend-mode:screen" d="M301.3 51.0698H296.3V59.2898H301.3V51.0698Z" fill="url(#paint60_linear_1075_25530)"/>
<path style="mix-blend-mode:screen" d="M293.43 60.5801H288.43V66.4001H293.43V60.5801Z" fill="url(#paint61_linear_1075_25530)"/>
<path style="mix-blend-mode:screen" d="M285.56 65.5H280.56V72.33H285.56V65.5Z" fill="url(#paint62_linear_1075_25530)"/>
<path style="mix-blend-mode:screen" d="M277.69 67.0698H272.69V83.1198H277.69V67.0698Z" fill="url(#paint63_linear_1075_25530)"/>
<path style="mix-blend-mode:screen" d="M269.81 66.4102H264.81V74.1102H269.81V66.4102Z" fill="url(#paint64_linear_1075_25530)"/>
<path style="mix-blend-mode:screen" d="M261.94 72.7798H256.94V83.1198H261.94V72.7798Z" fill="url(#paint65_linear_1075_25530)"/>
<path style="mix-blend-mode:screen" d="M254.07 76.8701H249.07V89.0001H254.07V76.8701Z" fill="url(#paint66_linear_1075_25530)"/>
<path style="mix-blend-mode:screen" d="M246.2 70.6299H241.2V83.1199H246.2V70.6299Z" fill="url(#paint67_linear_1075_25530)"/>
<path style="mix-blend-mode:screen" d="M238.33 51.04H233.33V65.51H238.33V51.04Z" fill="url(#paint68_linear_1075_25530)"/>
<path style="mix-blend-mode:screen" d="M230.45 63.04H225.45V76.71H230.45V63.04Z" fill="url(#paint69_linear_1075_25530)"/>
<path style="mix-blend-mode:screen" d="M222.58 77.5898H217.58V89.9198H222.58V77.5898Z" fill="url(#paint70_linear_1075_25530)"/>
<path style="mix-blend-mode:screen" d="M214.71 93.8101H209.71V100.67H214.71V93.8101Z" fill="url(#paint71_linear_1075_25530)"/>
<path style="mix-blend-mode:screen" d="M206.84 61.6499H201.84V88.7099H206.84V61.6499Z" fill="url(#paint72_linear_1075_25530)"/>
<path style="mix-blend-mode:screen" d="M198.97 33.7402H193.97V59.3702H198.97V33.7402Z" fill="url(#paint73_linear_1075_25530)"/>
<path style="mix-blend-mode:screen" d="M191.09 32.6299H186.09V38.1899H191.09V32.6299Z" fill="url(#paint74_linear_1075_25530)"/>
<path style="mix-blend-mode:screen" d="M183.22 36.2598H178.22V47.8898H183.22V36.2598Z" fill="url(#paint75_linear_1075_25530)"/>
<path style="mix-blend-mode:screen" d="M175.35 31.6602H170.35V44.7002H175.35V31.6602Z" fill="url(#paint76_linear_1075_25530)"/>
<path style="mix-blend-mode:screen" d="M167.48 23.3701H162.48V29.0001H167.48V23.3701Z" fill="url(#paint77_linear_1075_25530)"/>
<path style="mix-blend-mode:screen" d="M159.6 32.6299H154.6V41.9599H159.6V32.6299Z" fill="url(#paint78_linear_1075_25530)"/>
<path style="mix-blend-mode:screen" d="M151.73 43.96H146.73V49.52H151.73V43.96Z" fill="url(#paint79_linear_1075_25530)"/>
<path style="mix-blend-mode:screen" d="M143.86 34.9199H138.86V44.6999H143.86V34.9199Z" fill="url(#paint80_linear_1075_25530)"/>
<path style="mix-blend-mode:screen" d="M135.99 42.7002H130.99V51.0302H135.99V42.7002Z" fill="url(#paint81_linear_1075_25530)"/>
<path style="mix-blend-mode:screen" d="M128.12 47.8901H123.12V59.3701H128.12V47.8901Z" fill="url(#paint82_linear_1075_25530)"/>
<path style="mix-blend-mode:screen" d="M120.24 63.1699H115.24V66.3899H120.24V63.1699Z" fill="url(#paint83_linear_1075_25530)"/>
<path style="mix-blend-mode:screen" d="M112.37 61.6499H107.37V71.1499H112.37V61.6499Z" fill="url(#paint84_linear_1075_25530)"/>
<path style="mix-blend-mode:screen" d="M104.5 64.8701H99.5V74.5401H104.5V64.8701Z" fill="url(#paint85_linear_1075_25530)"/>
<path style="mix-blend-mode:screen" d="M96.6299 72.9199H91.6299V80.0299H96.6299V72.9199Z" fill="url(#paint86_linear_1075_25530)"/>
<path style="mix-blend-mode:screen" d="M88.76 61.6499H83.76V66.5899H88.76V61.6499Z" fill="url(#paint87_linear_1075_25530)"/>
<path style="mix-blend-mode:screen" d="M80.8799 65.4199H75.8799V75.6399H80.8799V65.4199Z" fill="url(#paint88_linear_1075_25530)"/>
<path style="mix-blend-mode:screen" d="M73.01 80.2598H68.01V83.1198H73.01V80.2598Z" fill="url(#paint89_linear_1075_25530)"/>
<path style="mix-blend-mode:screen" d="M65.1399 83.1201H60.1399V86.6501H65.1399V83.1201Z" fill="url(#paint90_linear_1075_25530)"/>
<path style="mix-blend-mode:screen" d="M57.27 88.7002H52.27V105.51H57.27V88.7002Z" fill="url(#paint91_linear_1075_25530)"/>
<path style="mix-blend-mode:screen" d="M49.4 105.96H44.4V110.77H49.4V105.96Z" fill="url(#paint92_linear_1075_25530)"/>
<path style="mix-blend-mode:screen" d="M41.52 112.33H36.52V116.85H41.52V112.33Z" fill="url(#paint93_linear_1075_25530)"/>
<path style="mix-blend-mode:screen" d="M33.65 110.78H28.65V118.71H33.65V110.78Z" fill="url(#paint94_linear_1075_25530)"/>
<path style="mix-blend-mode:screen" d="M25.78 115.92H20.78V122.77H25.78V115.92Z" fill="url(#paint95_linear_1075_25530)"/>
<path style="mix-blend-mode:screen" d="M17.91 132.85H12.91V141.89H17.91V132.85Z" fill="url(#paint96_linear_1075_25530)"/>
<path style="mix-blend-mode:screen" d="M10.04 133.44H5.04004V139.96H10.04V133.44Z" fill="url(#paint97_linear_1075_25530)"/>
<path style="mix-blend-mode:screen" d="M2.16003 120.92H-2.83997V136.7H2.16003V120.92Z" fill="url(#paint98_linear_1075_25530)"/>
</g>
<defs>
<linearGradient id="paint0_linear_1075_25530" x1="385.4" y1="30.8299" x2="385.4" y2="16.6499" gradientUnits="userSpaceOnUse">
<stop stop-color="#FF2A00"/>
<stop offset="1" stop-color="#FF6A00"/>
</linearGradient>
<linearGradient id="paint1_linear_1075_25530" x1="377.52" y1="25.5101" x2="377.52" y2="12.5601" gradientUnits="userSpaceOnUse">
<stop stop-color="#FF2A00"/>
<stop offset="1" stop-color="#FF6A00"/>
</linearGradient>
<linearGradient id="paint2_linear_1075_25530" x1="369.65" y1="30.6398" x2="369.65" y2="12.5498" gradientUnits="userSpaceOnUse">
<stop stop-color="#007C87"/>
<stop offset="1" stop-color="#00C795"/>
</linearGradient>
<linearGradient id="paint3_linear_1075_25530" x1="361.78" y1="46.5599" x2="361.78" y2="20.3999" gradientUnits="userSpaceOnUse">
<stop stop-color="#007C87"/>
<stop offset="1" stop-color="#00C795"/>
</linearGradient>
<linearGradient id="paint4_linear_1075_25530" x1="353.91" y1="42.1001" x2="353.91" y2="16.3101" gradientUnits="userSpaceOnUse">
<stop stop-color="#FF2A00"/>
<stop offset="1" stop-color="#FF6A00"/>
</linearGradient>
<linearGradient id="paint5_linear_1075_25530" x1="346.03" y1="50.5899" x2="346.03" y2="15.6299" gradientUnits="userSpaceOnUse">
<stop stop-color="#FF2A00"/>
<stop offset="1" stop-color="#FF6A00"/>
</linearGradient>
<linearGradient id="paint6_linear_1075_25530" x1="338.16" y1="62.5997" x2="338.16" y2="35.4697" gradientUnits="userSpaceOnUse">
<stop stop-color="#007C87"/>
<stop offset="1" stop-color="#00C795"/>
</linearGradient>
<linearGradient id="paint7_linear_1075_25530" x1="330.29" y1="67.3201" x2="330.29" y2="44.3501" gradientUnits="userSpaceOnUse">
<stop stop-color="#FF2A00"/>
<stop offset="1" stop-color="#FF6A00"/>
</linearGradient>
<linearGradient id="paint8_linear_1075_25530" x1="322.42" y1="68.0498" x2="322.42" y2="50.5698" gradientUnits="userSpaceOnUse">
<stop stop-color="#FF2A00"/>
<stop offset="1" stop-color="#FF6A00"/>
</linearGradient>
<linearGradient id="paint9_linear_1075_25530" x1="314.55" y1="74.5801" x2="314.55" y2="51.1201" gradientUnits="userSpaceOnUse">
<stop stop-color="#007C87"/>
<stop offset="1" stop-color="#00C795"/>
</linearGradient>
<linearGradient id="paint10_linear_1075_25530" x1="306.67" y1="82.2101" x2="306.67" y2="31.1201" gradientUnits="userSpaceOnUse">
<stop stop-color="#FF2A00"/>
<stop offset="1" stop-color="#FF6A00"/>
</linearGradient>
<linearGradient id="paint11_linear_1075_25530" x1="298.8" y1="68.7501" x2="298.8" y2="41.6201" gradientUnits="userSpaceOnUse">
<stop stop-color="#007C87"/>
<stop offset="1" stop-color="#00C795"/>
</linearGradient>
<linearGradient id="paint12_linear_1075_25530" x1="290.93" y1="73.1001" x2="290.93" y2="53.8901" gradientUnits="userSpaceOnUse">
<stop stop-color="#007C87"/>
<stop offset="1" stop-color="#00C795"/>
</linearGradient>
<linearGradient id="paint13_linear_1075_25530" x1="283.06" y1="80.1799" x2="283.06" y2="57.6499" gradientUnits="userSpaceOnUse">
<stop stop-color="#007C87"/>
<stop offset="1" stop-color="#00C795"/>
</linearGradient>
<linearGradient id="paint14_linear_1075_25530" x1="275.19" y1="101.57" x2="275.19" y2="48.6201" gradientUnits="userSpaceOnUse">
<stop stop-color="#FF2A00"/>
<stop offset="1" stop-color="#FF6A00"/>
</linearGradient>
<linearGradient id="paint15_linear_1075_25530" x1="267.31" y1="82.9698" x2="267.31" y2="57.5498" gradientUnits="userSpaceOnUse">
<stop stop-color="#007C87"/>
<stop offset="1" stop-color="#00C795"/>
</linearGradient>
<linearGradient id="paint16_linear_1075_25530" x1="259.44" y1="95.0099" x2="259.44" y2="60.8799" gradientUnits="userSpaceOnUse">
<stop stop-color="#007C87"/>
<stop offset="1" stop-color="#00C795"/>
</linearGradient>
<linearGradient id="paint17_linear_1075_25530" x1="251.57" y1="102.94" x2="251.57" y2="62.9302" gradientUnits="userSpaceOnUse">
<stop stop-color="#FF2A00"/>
<stop offset="1" stop-color="#FF6A00"/>
</linearGradient>
<linearGradient id="paint18_linear_1075_25530" x1="243.7" y1="97.4798" x2="243.7" y2="56.2598" gradientUnits="userSpaceOnUse">
<stop stop-color="#FF2A00"/>
<stop offset="1" stop-color="#FF6A00"/>
</linearGradient>
<linearGradient id="paint19_linear_1075_25530" x1="235.83" y1="82.1399" x2="235.83" y2="34.3999" gradientUnits="userSpaceOnUse">
<stop stop-color="#FF2A00"/>
<stop offset="1" stop-color="#FF6A00"/>
</linearGradient>
<linearGradient id="paint20_linear_1075_25530" x1="227.95" y1="92.4198" x2="227.95" y2="47.3198" gradientUnits="userSpaceOnUse">
<stop stop-color="#007C87"/>
<stop offset="1" stop-color="#00C795"/>
</linearGradient>
<linearGradient id="paint21_linear_1075_25530" x1="220.08" y1="104.11" x2="220.08" y2="63.4102" gradientUnits="userSpaceOnUse">
<stop stop-color="#007C87"/>
<stop offset="1" stop-color="#00C795"/>
</linearGradient>
<linearGradient id="paint22_linear_1075_25530" x1="212.21" y1="108.56" x2="212.21" y2="85.9199" gradientUnits="userSpaceOnUse">
<stop stop-color="#FF2A00"/>
<stop offset="1" stop-color="#FF6A00"/>
</linearGradient>
<linearGradient id="paint23_linear_1075_25530" x1="204.34" y1="119.82" x2="204.34" y2="30.5303" gradientUnits="userSpaceOnUse">
<stop stop-color="#FF2A00"/>
<stop offset="1" stop-color="#FF6A00"/>
</linearGradient>
<linearGradient id="paint24_linear_1075_25530" x1="196.47" y1="88.8398" x2="196.47" y2="4.25977" gradientUnits="userSpaceOnUse">
<stop stop-color="#FF2A00"/>
<stop offset="1" stop-color="#FF6A00"/>
</linearGradient>
<linearGradient id="paint25_linear_1075_25530" x1="188.59" y1="44.5702" x2="188.59" y2="26.2402" gradientUnits="userSpaceOnUse">
<stop stop-color="#FF2A00"/>
<stop offset="1" stop-color="#FF6A00"/>
</linearGradient>
<linearGradient id="paint26_linear_1075_25530" x1="180.72" y1="61.2599" x2="180.72" y2="22.8799" gradientUnits="userSpaceOnUse">
<stop stop-color="#007C87"/>
<stop offset="1" stop-color="#00C795"/>
</linearGradient>
<linearGradient id="paint27_linear_1075_25530" x1="172.85" y1="59.6899" x2="172.85" y2="16.6699" gradientUnits="userSpaceOnUse">
<stop stop-color="#FF2A00"/>
<stop offset="1" stop-color="#FF6A00"/>
</linearGradient>
<linearGradient id="paint28_linear_1075_25530" x1="164.98" y1="35.4701" x2="164.98" y2="16.8901" gradientUnits="userSpaceOnUse">
<stop stop-color="#007C87"/>
<stop offset="1" stop-color="#00C795"/>
</linearGradient>
<linearGradient id="paint29_linear_1075_25530" x1="157.1" y1="52.6901" x2="157.1" y2="21.8901" gradientUnits="userSpaceOnUse">
<stop stop-color="#007C87"/>
<stop offset="1" stop-color="#00C795"/>
</linearGradient>
<linearGradient id="paint30_linear_1075_25530" x1="149.23" y1="55.9098" x2="149.23" y2="37.5698" gradientUnits="userSpaceOnUse">
<stop stop-color="#007C87"/>
<stop offset="1" stop-color="#00C795"/>
</linearGradient>
<linearGradient id="paint31_linear_1075_25530" x1="141.36" y1="55.9502" x2="141.36" y2="23.6802" gradientUnits="userSpaceOnUse">
<stop stop-color="#FF2A00"/>
<stop offset="1" stop-color="#FF6A00"/>
</linearGradient>
<linearGradient id="paint32_linear_1075_25530" x1="133.49" y1="60.6201" x2="133.49" y2="33.1201" gradientUnits="userSpaceOnUse">
<stop stop-color="#007C87"/>
<stop offset="1" stop-color="#00C795"/>
</linearGradient>
<linearGradient id="paint33_linear_1075_25530" x1="125.62" y1="72.5702" x2="125.62" y2="34.6802" gradientUnits="userSpaceOnUse">
<stop stop-color="#FF2A00"/>
<stop offset="1" stop-color="#FF6A00"/>
</linearGradient>
<linearGradient id="paint34_linear_1075_25530" x1="117.74" y1="70.1002" x2="117.74" y2="59.4702" gradientUnits="userSpaceOnUse">
<stop stop-color="#007C87"/>
<stop offset="1" stop-color="#00C795"/>
</linearGradient>
<linearGradient id="paint35_linear_1075_25530" x1="109.87" y1="82.0697" x2="109.87" y2="50.7197" gradientUnits="userSpaceOnUse">
<stop stop-color="#FF2A00"/>
<stop offset="1" stop-color="#FF6A00"/>
</linearGradient>
<linearGradient id="paint36_linear_1075_25530" x1="102" y1="85.65" x2="102" y2="53.75" gradientUnits="userSpaceOnUse">
<stop stop-color="#007C87"/>
<stop offset="1" stop-color="#00C795"/>
</linearGradient>
<linearGradient id="paint37_linear_1075_25530" x1="94.1299" y1="88.21" x2="94.1299" y2="64.75" gradientUnits="userSpaceOnUse">
<stop stop-color="#FF2A00"/>
<stop offset="1" stop-color="#FF6A00"/>
</linearGradient>
<linearGradient id="paint38_linear_1075_25530" x1="86.26" y1="72.28" x2="86.26" y2="55.96" gradientUnits="userSpaceOnUse">
<stop stop-color="#007C87"/>
<stop offset="1" stop-color="#00C795"/>
</linearGradient>
<linearGradient id="paint39_linear_1075_25530" x1="78.3799" y1="87.3999" x2="78.3799" y2="53.6699" gradientUnits="userSpaceOnUse">
<stop stop-color="#007C87"/>
<stop offset="1" stop-color="#00C795"/>
</linearGradient>
<linearGradient id="paint40_linear_1075_25530" x1="70.51" y1="86.4102" x2="70.51" y2="76.9702" gradientUnits="userSpaceOnUse">
<stop stop-color="#007C87"/>
<stop offset="1" stop-color="#00C795"/>
</linearGradient>
<linearGradient id="paint41_linear_1075_25530" x1="62.6399" y1="90.7001" x2="62.6399" y2="79.0601" gradientUnits="userSpaceOnUse">
<stop stop-color="#FF2A00"/>
<stop offset="1" stop-color="#FF6A00"/>
</linearGradient>
<linearGradient id="paint42_linear_1075_25530" x1="54.77" y1="124.85" x2="54.77" y2="69.3599" gradientUnits="userSpaceOnUse">
<stop stop-color="#007C87"/>
<stop offset="1" stop-color="#00C795"/>
</linearGradient>
<linearGradient id="paint43_linear_1075_25530" x1="46.9" y1="116.31" x2="46.9" y2="100.42" gradientUnits="userSpaceOnUse">
<stop stop-color="#007C87"/>
<stop offset="1" stop-color="#00C795"/>
</linearGradient>
<linearGradient id="paint44_linear_1075_25530" x1="39.02" y1="122.05" x2="39.02" y2="107.14" gradientUnits="userSpaceOnUse">
<stop stop-color="#007C87"/>
<stop offset="1" stop-color="#00C795"/>
</linearGradient>
<linearGradient id="paint45_linear_1075_25530" x1="31.15" y1="127.82" x2="31.15" y2="101.66" gradientUnits="userSpaceOnUse">
<stop stop-color="#FF2A00"/>
<stop offset="1" stop-color="#FF6A00"/>
</linearGradient>
<linearGradient id="paint46_linear_1075_25530" x1="23.28" y1="130.66" x2="23.28" y2="108.04" gradientUnits="userSpaceOnUse">
<stop stop-color="#007C87"/>
<stop offset="1" stop-color="#00C795"/>
</linearGradient>
<linearGradient id="paint47_linear_1075_25530" x1="15.41" y1="152.28" x2="15.41" y2="122.46" gradientUnits="userSpaceOnUse">
<stop stop-color="#007C87"/>
<stop offset="1" stop-color="#00C795"/>
</linearGradient>
<linearGradient id="paint48_linear_1075_25530" x1="7.54004" y1="147.46" x2="7.54004" y2="125.95" gradientUnits="userSpaceOnUse">
<stop stop-color="#FF2A00"/>
<stop offset="1" stop-color="#FF6A00"/>
</linearGradient>
<linearGradient id="paint49_linear_1075_25530" x1="385.4" y1="25.8898" x2="385.4" y2="21.5898" gradientUnits="userSpaceOnUse">
<stop stop-color="#FF2A00"/>
<stop offset="1" stop-color="#FF6A00"/>
</linearGradient>
<linearGradient id="paint50_linear_1075_25530" x1="377.52" y1="20.9998" x2="377.52" y2="17.0698" gradientUnits="userSpaceOnUse">
<stop stop-color="#FF2A00"/>
<stop offset="1" stop-color="#FF6A00"/>
</linearGradient>
<linearGradient id="paint51_linear_1075_25530" x1="369.65" y1="24.3301" x2="369.65" y2="18.8501" gradientUnits="userSpaceOnUse">
<stop stop-color="#007C87"/>
<stop offset="1" stop-color="#00C795"/>
</linearGradient>
<linearGradient id="paint52_linear_1075_25530" x1="361.78" y1="37.44" x2="361.78" y2="29.52" gradientUnits="userSpaceOnUse">
<stop stop-color="#007C87"/>
<stop offset="1" stop-color="#00C795"/>
</linearGradient>
<linearGradient id="paint53_linear_1075_25530" x1="353.91" y1="33.11" x2="353.91" y2="25.29" gradientUnits="userSpaceOnUse">
<stop stop-color="#FF2A00"/>
<stop offset="1" stop-color="#FF6A00"/>
</linearGradient>
<linearGradient id="paint54_linear_1075_25530" x1="346.03" y1="38.4101" x2="346.03" y2="27.8101" gradientUnits="userSpaceOnUse">
<stop stop-color="#FF2A00"/>
<stop offset="1" stop-color="#FF6A00"/>
</linearGradient>
<linearGradient id="paint55_linear_1075_25530" x1="338.16" y1="53.1499" x2="338.16" y2="44.9199" gradientUnits="userSpaceOnUse">
<stop stop-color="#007C87"/>
<stop offset="1" stop-color="#00C795"/>
</linearGradient>
<linearGradient id="paint56_linear_1075_25530" x1="330.29" y1="59.3101" x2="330.29" y2="52.3501" gradientUnits="userSpaceOnUse">
<stop stop-color="#FF2A00"/>
<stop offset="1" stop-color="#FF6A00"/>
</linearGradient>
<linearGradient id="paint57_linear_1075_25530" x1="322.42" y1="61.9602" x2="322.42" y2="56.6602" gradientUnits="userSpaceOnUse">
<stop stop-color="#FF2A00"/>
<stop offset="1" stop-color="#FF6A00"/>
</linearGradient>
<linearGradient id="paint58_linear_1075_25530" x1="314.55" y1="66.41" x2="314.55" y2="59.29" gradientUnits="userSpaceOnUse">
<stop stop-color="#007C87"/>
<stop offset="1" stop-color="#00C795"/>
</linearGradient>
<linearGradient id="paint59_linear_1075_25530" x1="306.67" y1="64.4099" x2="306.67" y2="48.9199" gradientUnits="userSpaceOnUse">
<stop stop-color="#FF2A00"/>
<stop offset="1" stop-color="#FF6A00"/>
</linearGradient>
<linearGradient id="paint60_linear_1075_25530" x1="298.8" y1="59.2898" x2="298.8" y2="51.0698" gradientUnits="userSpaceOnUse">
<stop stop-color="#007C87"/>
<stop offset="1" stop-color="#00C795"/>
</linearGradient>
<linearGradient id="paint61_linear_1075_25530" x1="290.93" y1="66.4101" x2="290.93" y2="60.5801" gradientUnits="userSpaceOnUse">
<stop stop-color="#007C87"/>
<stop offset="1" stop-color="#00C795"/>
</linearGradient>
<linearGradient id="paint62_linear_1075_25530" x1="283.06" y1="72.33" x2="283.06" y2="65.5" gradientUnits="userSpaceOnUse">
<stop stop-color="#007C87"/>
<stop offset="1" stop-color="#00C795"/>
</linearGradient>
<linearGradient id="paint63_linear_1075_25530" x1="275.19" y1="83.1198" x2="275.19" y2="67.0698" gradientUnits="userSpaceOnUse">
<stop stop-color="#FF2A00"/>
<stop offset="1" stop-color="#FF6A00"/>
</linearGradient>
<linearGradient id="paint64_linear_1075_25530" x1="267.31" y1="74.1102" x2="267.31" y2="66.4102" gradientUnits="userSpaceOnUse">
<stop stop-color="#007C87"/>
<stop offset="1" stop-color="#00C795"/>
</linearGradient>
<linearGradient id="paint65_linear_1075_25530" x1="259.44" y1="83.1198" x2="259.44" y2="72.7798" gradientUnits="userSpaceOnUse">
<stop stop-color="#007C87"/>
<stop offset="1" stop-color="#00C795"/>
</linearGradient>
<linearGradient id="paint66_linear_1075_25530" x1="251.57" y1="89.0001" x2="251.57" y2="76.8701" gradientUnits="userSpaceOnUse">
<stop stop-color="#FF2A00"/>
<stop offset="1" stop-color="#FF6A00"/>
</linearGradient>
<linearGradient id="paint67_linear_1075_25530" x1="243.7" y1="83.1199" x2="243.7" y2="70.6299" gradientUnits="userSpaceOnUse">
<stop stop-color="#FF2A00"/>
<stop offset="1" stop-color="#FF6A00"/>
</linearGradient>
<linearGradient id="paint68_linear_1075_25530" x1="235.83" y1="65.5" x2="235.83" y2="51.04" gradientUnits="userSpaceOnUse">
<stop stop-color="#FF2A00"/>
<stop offset="1" stop-color="#FF6A00"/>
</linearGradient>
<linearGradient id="paint69_linear_1075_25530" x1="227.95" y1="76.7" x2="227.95" y2="63.04" gradientUnits="userSpaceOnUse">
<stop stop-color="#007C87"/>
<stop offset="1" stop-color="#00C795"/>
</linearGradient>
<linearGradient id="paint70_linear_1075_25530" x1="220.08" y1="89.9198" x2="220.08" y2="77.5898" gradientUnits="userSpaceOnUse">
<stop stop-color="#007C87"/>
<stop offset="1" stop-color="#00C795"/>
</linearGradient>
<linearGradient id="paint71_linear_1075_25530" x1="212.21" y1="100.67" x2="212.21" y2="93.8101" gradientUnits="userSpaceOnUse">
<stop stop-color="#FF2A00"/>
<stop offset="1" stop-color="#FF6A00"/>
</linearGradient>
<linearGradient id="paint72_linear_1075_25530" x1="204.34" y1="88.6999" x2="204.34" y2="61.6499" gradientUnits="userSpaceOnUse">
<stop stop-color="#FF2A00"/>
<stop offset="1" stop-color="#FF6A00"/>
</linearGradient>
<linearGradient id="paint73_linear_1075_25530" x1="196.47" y1="59.3702" x2="196.47" y2="33.7402" gradientUnits="userSpaceOnUse">
<stop stop-color="#FF2A00"/>
<stop offset="1" stop-color="#FF6A00"/>
</linearGradient>
<linearGradient id="paint74_linear_1075_25530" x1="188.59" y1="38.1799" x2="188.59" y2="32.6299" gradientUnits="userSpaceOnUse">
<stop stop-color="#FF2A00"/>
<stop offset="1" stop-color="#FF6A00"/>
</linearGradient>
<linearGradient id="paint75_linear_1075_25530" x1="180.72" y1="47.8898" x2="180.72" y2="36.2598" gradientUnits="userSpaceOnUse">
<stop stop-color="#007C87"/>
<stop offset="1" stop-color="#00C795"/>
</linearGradient>
<linearGradient id="paint76_linear_1075_25530" x1="172.85" y1="44.7002" x2="172.85" y2="31.6602" gradientUnits="userSpaceOnUse">
<stop stop-color="#FF2A00"/>
<stop offset="1" stop-color="#FF6A00"/>
</linearGradient>
<linearGradient id="paint77_linear_1075_25530" x1="164.98" y1="29.0001" x2="164.98" y2="23.3701" gradientUnits="userSpaceOnUse">
<stop stop-color="#007C87"/>
<stop offset="1" stop-color="#00C795"/>
</linearGradient>
<linearGradient id="paint78_linear_1075_25530" x1="157.1" y1="41.9599" x2="157.1" y2="32.6299" gradientUnits="userSpaceOnUse">
<stop stop-color="#007C87"/>
<stop offset="1" stop-color="#00C795"/>
</linearGradient>
<linearGradient id="paint79_linear_1075_25530" x1="149.23" y1="49.52" x2="149.23" y2="43.96" gradientUnits="userSpaceOnUse">
<stop stop-color="#007C87"/>
<stop offset="1" stop-color="#00C795"/>
</linearGradient>
<linearGradient id="paint80_linear_1075_25530" x1="141.36" y1="44.6999" x2="141.36" y2="34.9199" gradientUnits="userSpaceOnUse">
<stop stop-color="#FF2A00"/>
<stop offset="1" stop-color="#FF6A00"/>
</linearGradient>
<linearGradient id="paint81_linear_1075_25530" x1="133.49" y1="51.0402" x2="133.49" y2="42.7002" gradientUnits="userSpaceOnUse">
<stop stop-color="#007C87"/>
<stop offset="1" stop-color="#00C795"/>
</linearGradient>
<linearGradient id="paint82_linear_1075_25530" x1="125.62" y1="59.3701" x2="125.62" y2="47.8901" gradientUnits="userSpaceOnUse">
<stop stop-color="#FF2A00"/>
<stop offset="1" stop-color="#FF6A00"/>
</linearGradient>
<linearGradient id="paint83_linear_1075_25530" x1="117.74" y1="66.3999" x2="117.74" y2="63.1699" gradientUnits="userSpaceOnUse">
<stop stop-color="#007C87"/>
<stop offset="1" stop-color="#00C795"/>
</linearGradient>
<linearGradient id="paint84_linear_1075_25530" x1="109.87" y1="71.1499" x2="109.87" y2="61.6499" gradientUnits="userSpaceOnUse">
<stop stop-color="#FF2A00"/>
<stop offset="1" stop-color="#FF6A00"/>
</linearGradient>
<linearGradient id="paint85_linear_1075_25530" x1="102" y1="74.5401" x2="102" y2="64.8701" gradientUnits="userSpaceOnUse">
<stop stop-color="#007C87"/>
<stop offset="1" stop-color="#00C795"/>
</linearGradient>
<linearGradient id="paint86_linear_1075_25530" x1="94.1299" y1="80.0399" x2="94.1299" y2="72.9199" gradientUnits="userSpaceOnUse">
<stop stop-color="#FF2A00"/>
<stop offset="1" stop-color="#FF6A00"/>
</linearGradient>
<linearGradient id="paint87_linear_1075_25530" x1="86.26" y1="66.5899" x2="86.26" y2="61.6499" gradientUnits="userSpaceOnUse">
<stop stop-color="#007C87"/>
<stop offset="1" stop-color="#00C795"/>
</linearGradient>
<linearGradient id="paint88_linear_1075_25530" x1="78.3799" y1="75.6499" x2="78.3799" y2="65.4199" gradientUnits="userSpaceOnUse">
<stop stop-color="#007C87"/>
<stop offset="1" stop-color="#00C795"/>
</linearGradient>
<linearGradient id="paint89_linear_1075_25530" x1="70.51" y1="83.1198" x2="70.51" y2="80.2598" gradientUnits="userSpaceOnUse">
<stop stop-color="#007C87"/>
<stop offset="1" stop-color="#00C795"/>
</linearGradient>
<linearGradient id="paint90_linear_1075_25530" x1="62.6399" y1="86.6501" x2="62.6399" y2="83.1201" gradientUnits="userSpaceOnUse">
<stop stop-color="#FF2A00"/>
<stop offset="1" stop-color="#FF6A00"/>
</linearGradient>
<linearGradient id="paint91_linear_1075_25530" x1="54.77" y1="105.52" x2="54.77" y2="88.7002" gradientUnits="userSpaceOnUse">
<stop stop-color="#007C87"/>
<stop offset="1" stop-color="#00C795"/>
</linearGradient>
<linearGradient id="paint92_linear_1075_25530" x1="46.9" y1="110.78" x2="46.9" y2="105.96" gradientUnits="userSpaceOnUse">
<stop stop-color="#007C87"/>
<stop offset="1" stop-color="#00C795"/>
</linearGradient>
<linearGradient id="paint93_linear_1075_25530" x1="39.02" y1="116.85" x2="39.02" y2="112.33" gradientUnits="userSpaceOnUse">
<stop stop-color="#007C87"/>
<stop offset="1" stop-color="#00C795"/>
</linearGradient>
<linearGradient id="paint94_linear_1075_25530" x1="31.15" y1="118.7" x2="31.15" y2="110.78" gradientUnits="userSpaceOnUse">
<stop stop-color="#FF2A00"/>
<stop offset="1" stop-color="#FF6A00"/>
</linearGradient>
<linearGradient id="paint95_linear_1075_25530" x1="23.28" y1="122.78" x2="23.28" y2="115.92" gradientUnits="userSpaceOnUse">
<stop stop-color="#007C87"/>
<stop offset="1" stop-color="#00C795"/>
</linearGradient>
<linearGradient id="paint96_linear_1075_25530" x1="15.41" y1="141.89" x2="15.41" y2="132.85" gradientUnits="userSpaceOnUse">
<stop stop-color="#007C87"/>
<stop offset="1" stop-color="#00C795"/>
</linearGradient>
<linearGradient id="paint97_linear_1075_25530" x1="7.54004" y1="139.96" x2="7.54004" y2="133.44" gradientUnits="userSpaceOnUse">
<stop stop-color="#FF2A00"/>
<stop offset="1" stop-color="#FF6A00"/>
</linearGradient>
<linearGradient id="paint98_linear_1075_25530" x1="-0.339966" y1="136.7" x2="-0.339966" y2="120.92" gradientUnits="userSpaceOnUse">
<stop stop-color="#FF2A00"/>
<stop offset="1" stop-color="#FF6A00"/>
</linearGradient>
</defs>
</svg>
