<svg width="30" height="30" viewBox="0 0 30 30" fill="none" xmlns="http://www.w3.org/2000/svg">
<path d="M28.739 4.93776C28.7392 4.71697 28.6808 4.50008 28.5699 4.30919C28.4589 4.1183 28.2994 3.96022 28.1074 3.85105C27.9155 3.74188 27.6981 3.68552 27.4773 3.68771C27.2566 3.68991 27.0403 3.75057 26.8506 3.86353C26.119 4.29901 25.3313 4.63251 24.5093 4.85478C23.3356 3.84757 21.8385 3.29641 20.2918 3.30204C18.5951 3.304 16.9655 3.96529 15.7471 5.14627C14.5288 6.32726 13.8171 7.9355 13.7623 9.63139C10.4173 9.09797 7.3856 7.35205 5.24537 4.72657C5.11642 4.57011 4.95173 4.44696 4.7652 4.3675C4.57867 4.28804 4.37576 4.2546 4.1736 4.27001C3.97155 4.28664 3.77659 4.35225 3.60559 4.46115C3.43458 4.57004 3.29268 4.71896 3.19215 4.89501C2.67656 5.79477 2.38044 6.80345 2.32783 7.83914C2.27523 8.87483 2.46763 9.90832 2.88941 10.8557L2.88697 10.8581C2.6974 10.9749 2.54096 11.1383 2.4326 11.3328C2.32425 11.5273 2.2676 11.7463 2.26807 11.969C2.26578 12.1526 2.27679 12.3362 2.30103 12.5183C2.42871 14.0911 3.12576 15.5634 4.26148 16.6589C4.18444 16.8057 4.13742 16.9664 4.12316 17.1315C4.10891 17.2967 4.12771 17.463 4.17847 17.6208C4.67362 19.1635 5.7266 20.4659 7.13136 21.2732C5.70416 21.8251 4.16313 22.0175 2.64405 21.8335C2.36289 21.7982 2.07808 21.8595 1.83636 22.0074C1.59463 22.1552 1.41033 22.3809 1.31369 22.6472C1.21705 22.9136 1.21381 23.2049 1.3045 23.4734C1.39519 23.7419 1.57442 23.9715 1.8128 24.1247C4.42542 25.8074 7.46739 26.7021 10.575 26.7017C14.0991 26.7413 17.5375 25.6152 20.3553 23.4985C23.1731 21.3818 25.2125 18.3931 26.156 14.9975C26.5973 13.5183 26.8227 11.9831 26.825 10.4395C26.825 10.3577 26.825 10.2734 26.8238 10.1892C27.4764 9.48538 27.982 8.65835 28.3109 7.75659C28.6397 6.85483 28.7853 5.8965 28.739 4.93776ZM24.6057 8.95264C24.3993 9.19683 24.2948 9.51114 24.314 9.83033C24.3262 10.0366 24.325 10.2441 24.325 10.4395C24.3224 11.7439 24.1312 13.0411 23.7573 14.2908C22.9867 17.18 21.2688 19.7271 18.8787 21.524C16.4886 23.321 13.5646 24.2639 10.575 24.2017C9.50111 24.202 8.43091 24.0758 7.38654 23.8257C8.7183 23.3965 9.96352 22.7348 11.0645 21.8713C11.2673 21.7117 11.4157 21.4932 11.4894 21.2458C11.563 20.9985 11.5584 20.7344 11.476 20.4898C11.3936 20.2452 11.2375 20.0321 11.0292 19.8797C10.8209 19.7273 10.5706 19.6431 10.3125 19.6387C9.27355 19.6225 8.28142 19.2037 7.54517 18.4705C7.73195 18.4351 7.9175 18.3911 8.10182 18.3386C8.37184 18.2618 8.60813 18.0963 8.77265 17.8688C8.93717 17.6413 9.02035 17.3651 9.00879 17.0846C8.99723 16.8041 8.89161 16.5356 8.70893 16.3225C8.52625 16.1093 8.27714 15.9638 8.00172 15.9094C7.39864 15.7903 6.83115 15.5338 6.34337 15.1597C5.85558 14.7856 5.46063 14.304 5.18922 13.7524C5.41513 13.7833 5.64249 13.8024 5.87037 13.8098C6.1411 13.8139 6.40612 13.7318 6.62709 13.5753C6.84807 13.4189 7.01356 13.1962 7.09962 12.9395C7.1821 12.6804 7.17785 12.4015 7.08753 12.1451C6.99722 11.8887 6.82575 11.6687 6.59913 11.5186C6.04932 11.1523 5.59894 10.6553 5.28833 10.0723C4.97772 9.48917 4.81658 8.83815 4.81935 8.17751C4.81935 8.09451 4.82178 8.01149 4.82667 7.92971C7.62825 10.5425 11.2621 12.0828 15.0879 12.2791C15.281 12.2867 15.4734 12.2503 15.6504 12.1727C15.8274 12.0951 15.9844 11.9783 16.1097 11.8311C16.2336 11.6824 16.3214 11.5071 16.3661 11.3188C16.4108 11.1305 16.4111 10.9343 16.3672 10.7459C16.2957 10.4476 16.2592 10.142 16.2585 9.83522C16.2597 8.76589 16.685 7.74068 17.4411 6.98455C18.1972 6.22842 19.2224 5.80314 20.2918 5.80201C20.8419 5.80053 21.3864 5.91313 21.8909 6.13269C22.3953 6.35225 22.8488 6.67401 23.2227 7.07764C23.3668 7.23275 23.5483 7.34839 23.7498 7.41356C23.9513 7.47874 24.1661 7.49129 24.3738 7.45001C24.8872 7.35008 25.3934 7.2155 25.8887 7.04718C25.5508 7.7384 25.1191 8.37962 24.6057 8.95264Z" fill="white"/>
</svg>
