<svg width="384" height="445" viewBox="0 0 384 445" fill="none" xmlns="http://www.w3.org/2000/svg">
<rect x="1.01465" y="0.5" width="382" height="444" rx="19.5" fill="#1E1F24" stroke="#3A3B42"/>
<rect x="30.5146" y="348" width="323" height="47" rx="6" fill="url(#paint0_linear_1075_30448)"/>
<path d="M163.519 377V366.818H167.337C168.119 366.818 168.776 366.964 169.306 367.256C169.839 367.547 170.242 367.948 170.514 368.459C170.789 368.966 170.927 369.543 170.927 370.189C170.927 370.842 170.789 371.422 170.514 371.929C170.239 372.436 169.833 372.835 169.296 373.127C168.759 373.415 168.098 373.56 167.312 373.56H164.782V372.043H167.064C167.521 372.043 167.896 371.964 168.187 371.805C168.479 371.646 168.694 371.427 168.834 371.148C168.976 370.87 169.047 370.55 169.047 370.189C169.047 369.828 168.976 369.509 168.834 369.234C168.694 368.959 168.477 368.746 168.182 368.593C167.891 368.437 167.514 368.359 167.054 368.359H165.363V377H163.519ZM174.51 377.154C174.026 377.154 173.59 377.068 173.202 376.896C172.818 376.72 172.513 376.461 172.288 376.12C172.065 375.779 171.954 375.358 171.954 374.857C171.954 374.426 172.034 374.07 172.193 373.788C172.352 373.507 172.569 373.281 172.844 373.112C173.119 372.943 173.429 372.816 173.774 372.729C174.122 372.64 174.482 372.575 174.853 372.536C175.3 372.489 175.663 372.448 175.942 372.411C176.22 372.371 176.422 372.312 176.548 372.232C176.677 372.149 176.742 372.022 176.742 371.849V371.82C176.742 371.445 176.631 371.155 176.409 370.95C176.187 370.744 175.867 370.641 175.449 370.641C175.009 370.641 174.659 370.737 174.4 370.93C174.145 371.122 173.973 371.349 173.883 371.611L172.203 371.372C172.336 370.908 172.554 370.52 172.859 370.209C173.164 369.894 173.537 369.659 173.978 369.503C174.419 369.344 174.906 369.264 175.44 369.264C175.807 369.264 176.174 369.307 176.538 369.393C176.903 369.48 177.236 369.622 177.538 369.821C177.839 370.017 178.081 370.283 178.263 370.621C178.449 370.96 178.542 371.382 178.542 371.889V377H176.812V375.951H176.752C176.643 376.163 176.489 376.362 176.29 376.548C176.094 376.73 175.847 376.877 175.549 376.99C175.254 377.099 174.908 377.154 174.51 377.154ZM174.977 375.832C175.338 375.832 175.652 375.76 175.917 375.618C176.182 375.472 176.386 375.28 176.528 375.041C176.674 374.803 176.747 374.542 176.747 374.261V373.361C176.691 373.407 176.595 373.45 176.459 373.49C176.326 373.53 176.177 373.565 176.011 373.594C175.846 373.624 175.681 373.651 175.519 373.674C175.357 373.697 175.216 373.717 175.097 373.734C174.828 373.77 174.588 373.83 174.376 373.913C174.164 373.996 173.996 374.112 173.873 374.261C173.751 374.406 173.69 374.595 173.69 374.827C173.69 375.159 173.811 375.409 174.052 375.578C174.294 375.747 174.603 375.832 174.977 375.832ZM181.197 379.864C180.951 379.864 180.724 379.844 180.516 379.804C180.31 379.768 180.146 379.724 180.023 379.675L180.441 378.273C180.703 378.349 180.936 378.385 181.142 378.382C181.347 378.379 181.528 378.314 181.684 378.188C181.843 378.066 181.977 377.86 182.087 377.572L182.241 377.159L179.472 369.364H181.381L183.141 375.131H183.22L184.985 369.364H186.899L183.842 377.925C183.699 378.329 183.51 378.675 183.275 378.964C183.039 379.255 182.751 379.478 182.41 379.63C182.072 379.786 181.667 379.864 181.197 379.864ZM200.064 366.818V377H198.423L193.626 370.065H193.541V377H191.697V366.818H193.347L198.14 373.759H198.229V366.818H200.064ZM205.325 377.149C204.579 377.149 203.933 376.985 203.386 376.657C202.839 376.329 202.415 375.87 202.113 375.28C201.815 374.69 201.666 374 201.666 373.212C201.666 372.423 201.815 371.732 202.113 371.138C202.415 370.545 202.839 370.085 203.386 369.756C203.933 369.428 204.579 369.264 205.325 369.264C206.071 369.264 206.717 369.428 207.264 369.756C207.811 370.085 208.233 370.545 208.532 371.138C208.833 371.732 208.984 372.423 208.984 373.212C208.984 374 208.833 374.69 208.532 375.28C208.233 375.87 207.811 376.329 207.264 376.657C206.717 376.985 206.071 377.149 205.325 377.149ZM205.335 375.707C205.739 375.707 206.077 375.596 206.349 375.374C206.621 375.149 206.823 374.847 206.956 374.469C207.092 374.092 207.16 373.671 207.16 373.207C207.16 372.739 207.092 372.317 206.956 371.939C206.823 371.558 206.621 371.254 206.349 371.029C206.077 370.804 205.739 370.691 205.335 370.691C204.921 370.691 204.576 370.804 204.301 371.029C204.029 371.254 203.825 371.558 203.689 371.939C203.557 372.317 203.491 372.739 203.491 373.207C203.491 373.671 203.557 374.092 203.689 374.469C203.825 374.847 204.029 375.149 204.301 375.374C204.576 375.596 204.921 375.707 205.335 375.707ZM211.869 377L209.711 369.364H211.546L212.888 374.733H212.958L214.33 369.364H216.144L217.517 374.703H217.591L218.914 369.364H220.753L218.59 377H216.716L215.284 371.839H215.18L213.748 377H211.869Z" fill="white"/>
<rect x="30.5146" y="50" width="323" height="64" rx="8" fill="#141518"/>
<rect x="30.5146" y="254" width="323" height="64" rx="8" fill="#141518"/>
<path d="M171.307 281.609V279.909H181.439V281.609H177.354V293H175.385V281.609H171.307ZM186.236 293.198C185.315 293.198 184.512 292.987 183.826 292.565C183.14 292.143 182.607 291.553 182.228 290.795C181.849 290.036 181.659 289.15 181.659 288.136C181.659 287.117 181.849 286.227 182.228 285.464C182.607 284.701 183.14 284.109 183.826 283.687C184.512 283.265 185.315 283.054 186.236 283.054C187.156 283.054 187.96 283.265 188.646 283.687C189.332 284.109 189.864 284.701 190.244 285.464C190.623 286.227 190.813 287.117 190.813 288.136C190.813 289.15 190.623 290.036 190.244 290.795C189.864 291.553 189.332 292.143 188.646 292.565C187.96 292.987 187.156 293.198 186.236 293.198ZM186.242 291.594C186.839 291.594 187.333 291.436 187.725 291.121C188.117 290.805 188.407 290.386 188.595 289.862C188.786 289.337 188.882 288.76 188.882 288.129C188.882 287.503 188.786 286.928 188.595 286.403C188.407 285.875 188.117 285.451 187.725 285.131C187.333 284.812 186.839 284.652 186.242 284.652C185.641 284.652 185.143 284.812 184.747 285.131C184.354 285.451 184.063 285.875 183.871 286.403C183.683 286.928 183.59 287.503 183.59 288.129C183.59 288.76 183.683 289.337 183.871 289.862C184.063 290.386 184.354 290.805 184.747 291.121C185.143 291.436 185.641 291.594 186.242 291.594ZM197.529 283.182V284.716H192.166V283.182H197.529ZM193.604 280.83H195.516V290.117C195.516 290.488 195.571 290.767 195.682 290.955C195.793 291.138 195.935 291.263 196.11 291.332C196.289 291.396 196.483 291.428 196.692 291.428C196.845 291.428 196.979 291.417 197.094 291.396C197.209 291.374 197.299 291.357 197.363 291.344L197.708 292.923C197.597 292.966 197.44 293.009 197.235 293.051C197.03 293.098 196.775 293.124 196.468 293.128C195.965 293.136 195.496 293.047 195.062 292.859C194.627 292.672 194.275 292.382 194.007 291.99C193.739 291.598 193.604 291.106 193.604 290.513V280.83ZM202.5 293.217C201.878 293.217 201.316 293.102 200.813 292.872C200.31 292.638 199.912 292.299 199.618 291.856C199.328 291.413 199.183 290.869 199.183 290.226C199.183 289.672 199.29 289.216 199.503 288.858C199.716 288.5 200.003 288.217 200.366 288.008C200.728 287.799 201.133 287.641 201.58 287.535C202.027 287.428 202.483 287.347 202.948 287.292C203.536 287.224 204.013 287.168 204.38 287.126C204.746 287.079 205.013 287.004 205.179 286.902C205.345 286.8 205.428 286.634 205.428 286.403V286.359C205.428 285.8 205.27 285.368 204.955 285.061C204.644 284.754 204.179 284.601 203.562 284.601C202.918 284.601 202.411 284.744 202.04 285.029C201.674 285.31 201.42 285.624 201.28 285.969L199.483 285.56C199.696 284.963 200.008 284.482 200.417 284.115C200.83 283.744 201.305 283.476 201.842 283.31C202.379 283.139 202.944 283.054 203.536 283.054C203.928 283.054 204.343 283.101 204.782 283.195C205.226 283.284 205.639 283.45 206.022 283.693C206.41 283.936 206.728 284.283 206.975 284.735C207.222 285.183 207.346 285.764 207.346 286.48V293H205.479V291.658H205.402C205.279 291.905 205.093 292.148 204.846 292.386C204.599 292.625 204.282 292.823 203.894 292.981C203.506 293.138 203.042 293.217 202.5 293.217ZM202.916 291.683C203.444 291.683 203.896 291.579 204.271 291.37C204.65 291.161 204.938 290.888 205.134 290.552C205.334 290.211 205.434 289.847 205.434 289.459V288.193C205.366 288.261 205.234 288.325 205.038 288.385C204.846 288.44 204.627 288.489 204.38 288.532C204.133 288.57 203.892 288.607 203.657 288.641C203.423 288.67 203.227 288.696 203.069 288.717C202.699 288.764 202.36 288.843 202.053 288.954C201.75 289.065 201.508 289.224 201.324 289.433C201.145 289.638 201.056 289.911 201.056 290.251C201.056 290.724 201.231 291.082 201.58 291.325C201.929 291.564 202.375 291.683 202.916 291.683ZM211.802 279.909V293H209.891V279.909H211.802Z" fill="#36393F"/>
<path d="M147.814 90.6364V74.2727H148.862V90.6364H147.814ZM151.093 79.348C151.025 78.7429 150.743 78.2741 150.249 77.9418C149.755 77.6051 149.133 77.4368 148.383 77.4368C147.846 77.4368 147.381 77.522 146.989 77.6925C146.597 77.8587 146.292 78.0888 146.075 78.3828C145.862 78.6726 145.755 79.0028 145.755 79.3736C145.755 79.6847 145.828 79.9531 145.973 80.179C146.122 80.4048 146.316 80.5945 146.554 80.7479C146.797 80.897 147.057 81.0227 147.334 81.125C147.611 81.223 147.878 81.304 148.133 81.3679L149.412 81.7003C149.829 81.8026 150.258 81.9411 150.696 82.1158C151.135 82.2905 151.542 82.5206 151.917 82.8061C152.292 83.0916 152.595 83.4453 152.825 83.8672C153.059 84.2891 153.177 84.794 153.177 85.3821C153.177 86.1236 152.985 86.782 152.601 87.3572C152.222 87.9325 151.67 88.3864 150.946 88.7188C150.226 89.0511 149.354 89.2173 148.331 89.2173C147.351 89.2173 146.503 89.0618 145.787 88.7507C145.071 88.4396 144.511 87.9986 144.106 87.4276C143.701 86.8523 143.478 86.1705 143.435 85.3821H145.417C145.455 85.8551 145.608 86.2493 145.877 86.5646C146.15 86.8757 146.497 87.108 146.919 87.2614C147.345 87.4105 147.812 87.4851 148.319 87.4851C148.877 87.4851 149.373 87.3977 149.808 87.223C150.247 87.044 150.592 86.7969 150.843 86.4815C151.095 86.1619 151.221 85.7891 151.221 85.3629C151.221 84.9751 151.11 84.6577 150.888 84.4105C150.671 84.1634 150.375 83.9588 150 83.7969C149.629 83.6349 149.209 83.4922 148.741 83.3686L147.194 82.9467C146.145 82.6612 145.314 82.2415 144.701 81.6875C144.091 81.1335 143.787 80.4006 143.787 79.4886C143.787 78.7344 143.991 78.076 144.4 77.5135C144.809 76.951 145.363 76.5142 146.062 76.2031C146.761 75.8878 147.549 75.7301 148.427 75.7301C149.314 75.7301 150.096 75.8857 150.773 76.1967C151.455 76.5078 151.992 76.9361 152.384 77.4815C152.776 78.0227 152.981 78.6449 152.998 79.348H151.093ZM155.358 89V87.5682L159.788 82.9787C160.261 82.4801 160.65 82.0433 160.957 81.6683C161.268 81.2891 161.501 80.929 161.654 80.5881C161.807 80.2472 161.884 79.8849 161.884 79.5014C161.884 79.0668 161.782 78.6918 161.577 78.3764C161.373 78.0568 161.094 77.8118 160.74 77.6413C160.386 77.4666 159.988 77.3793 159.545 77.3793C159.076 77.3793 158.667 77.4751 158.317 77.6669C157.968 77.8587 157.699 78.1293 157.512 78.4787C157.324 78.8281 157.231 79.2372 157.231 79.706H155.345C155.345 78.9091 155.528 78.2124 155.895 77.6158C156.261 77.0192 156.764 76.5568 157.403 76.2287C158.043 75.8963 158.769 75.7301 159.583 75.7301C160.405 75.7301 161.13 75.8942 161.756 76.2223C162.387 76.5462 162.879 76.9893 163.233 77.5518C163.587 78.1101 163.763 78.7408 163.763 79.4439C163.763 79.9297 163.672 80.4048 163.489 80.8693C163.31 81.3338 162.996 81.8516 162.549 82.4226C162.101 82.9893 161.479 83.6776 160.682 84.4872L158.081 87.2102V87.3061H163.974V89H155.358ZM170.718 89.179C169.917 89.179 169.197 89.0256 168.557 88.7188C167.922 88.4077 167.415 87.9815 167.036 87.4403C166.657 86.8991 166.454 86.2812 166.429 85.5866H168.347C168.393 86.1491 168.643 86.6115 169.094 86.9737C169.546 87.3359 170.087 87.517 170.718 87.517C171.221 87.517 171.666 87.402 172.054 87.1719C172.446 86.9375 172.753 86.6158 172.974 86.2067C173.2 85.7976 173.313 85.331 173.313 84.8068C173.313 84.2741 173.198 83.799 172.968 83.3814C172.738 82.9638 172.42 82.6357 172.016 82.397C171.615 82.1584 171.155 82.0369 170.635 82.0327C170.239 82.0327 169.84 82.1009 169.44 82.2372C169.039 82.3736 168.715 82.5526 168.468 82.7741L166.659 82.5057L167.394 75.9091H174.592V77.603H169.037L168.621 81.2656H168.698C168.954 81.0185 169.293 80.8118 169.714 80.6456C170.141 80.4794 170.597 80.3963 171.082 80.3963C171.879 80.3963 172.589 80.5859 173.211 80.9652C173.837 81.3445 174.329 81.8622 174.687 82.5185C175.05 83.1705 175.229 83.9205 175.224 84.7685C175.229 85.6165 175.037 86.3729 174.649 87.0376C174.266 87.7024 173.733 88.2266 173.051 88.6101C172.373 88.9893 171.596 89.179 170.718 89.179ZM179.597 87.2102L179.501 87.907C179.437 88.4183 179.328 88.951 179.175 89.505C179.025 90.0632 178.87 90.581 178.708 91.0582C178.55 91.5355 178.42 91.9148 178.318 92.196H176.963C177.018 91.9318 177.095 91.5739 177.193 91.1222C177.291 90.6747 177.387 90.174 177.481 89.62C177.574 89.0661 177.645 88.5014 177.692 87.9261L177.756 87.2102H179.597ZM186.353 89.2173C185.343 89.2131 184.48 88.9467 183.764 88.4183C183.048 87.8899 182.501 87.1207 182.121 86.1108C181.742 85.1009 181.552 83.8842 181.552 82.4609C181.552 81.0419 181.742 79.8295 182.121 78.8239C182.505 77.8182 183.055 77.0511 183.771 76.5227C184.491 75.9943 185.351 75.7301 186.353 75.7301C187.354 75.7301 188.213 75.9964 188.929 76.5291C189.645 77.0575 190.192 77.8246 190.572 78.8303C190.955 79.8317 191.147 81.0419 191.147 82.4609C191.147 83.8885 190.957 85.1072 190.578 86.1172C190.199 87.1229 189.651 87.892 188.935 88.4247C188.219 88.9531 187.359 89.2173 186.353 89.2173ZM186.353 87.5107C187.239 87.5107 187.932 87.0781 188.43 86.2131C188.933 85.348 189.185 84.0973 189.185 82.4609C189.185 81.3743 189.07 80.456 188.839 79.706C188.614 78.9517 188.288 78.3807 187.861 77.9929C187.44 77.6009 186.937 77.4048 186.353 77.4048C185.471 77.4048 184.778 77.8395 184.275 78.7088C183.773 79.5781 183.519 80.8288 183.515 82.4609C183.515 83.5518 183.628 84.4744 183.854 85.2287C184.084 85.9787 184.41 86.5476 184.832 86.9354C185.253 87.3189 185.761 87.5107 186.353 87.5107ZM197.972 89.2173C196.962 89.2131 196.099 88.9467 195.383 88.4183C194.667 87.8899 194.12 87.1207 193.741 86.1108C193.361 85.1009 193.172 83.8842 193.172 82.4609C193.172 81.0419 193.361 79.8295 193.741 78.8239C194.124 77.8182 194.674 77.0511 195.39 76.5227C196.11 75.9943 196.971 75.7301 197.972 75.7301C198.973 75.7301 199.832 75.9964 200.548 76.5291C201.264 77.0575 201.812 77.8246 202.191 78.8303C202.574 79.8317 202.766 81.0419 202.766 82.4609C202.766 83.8885 202.576 85.1072 202.197 86.1172C201.818 87.1229 201.27 87.892 200.554 88.4247C199.839 88.9531 198.978 89.2173 197.972 89.2173ZM197.972 87.5107C198.858 87.5107 199.551 87.0781 200.049 86.2131C200.552 85.348 200.804 84.0973 200.804 82.4609C200.804 81.3743 200.689 80.456 200.459 79.706C200.233 78.9517 199.907 78.3807 199.481 77.9929C199.059 77.6009 198.556 77.4048 197.972 77.4048C197.09 77.4048 196.397 77.8395 195.895 78.7088C195.392 79.5781 195.138 80.8288 195.134 82.4609C195.134 83.5518 195.247 84.4744 195.473 85.2287C195.703 85.9787 196.029 86.5476 196.451 86.9354C196.873 87.3189 197.38 87.5107 197.972 87.5107ZM209.591 89.2173C208.581 89.2131 207.718 88.9467 207.002 88.4183C206.286 87.8899 205.739 87.1207 205.36 86.1108C204.98 85.1009 204.791 83.8842 204.791 82.4609C204.791 81.0419 204.98 79.8295 205.36 78.8239C205.743 77.8182 206.293 77.0511 207.009 76.5227C207.729 75.9943 208.59 75.7301 209.591 75.7301C210.593 75.7301 211.451 75.9964 212.167 76.5291C212.883 77.0575 213.431 77.8246 213.81 78.8303C214.193 79.8317 214.385 81.0419 214.385 82.4609C214.385 83.8885 214.196 85.1072 213.816 86.1172C213.437 87.1229 212.889 87.892 212.174 88.4247C211.458 88.9531 210.597 89.2173 209.591 89.2173ZM209.591 87.5107C210.478 87.5107 211.17 87.0781 211.669 86.2131C212.171 85.348 212.423 84.0973 212.423 82.4609C212.423 81.3743 212.308 80.456 212.078 79.706C211.852 78.9517 211.526 78.3807 211.1 77.9929C210.678 77.6009 210.175 77.4048 209.591 77.4048C208.709 77.4048 208.017 77.8395 207.514 78.7088C207.011 79.5781 206.757 80.8288 206.753 82.4609C206.753 83.5518 206.866 84.4744 207.092 85.2287C207.322 85.9787 207.648 86.5476 208.07 86.9354C208.492 87.3189 208.999 87.5107 209.591 87.5107ZM217.463 89.1214C217.114 89.1214 216.813 88.9979 216.562 88.7507C216.31 88.4993 216.185 88.1967 216.185 87.843C216.185 87.4936 216.31 87.1953 216.562 86.9482C216.813 86.6967 217.114 86.571 217.463 86.571C217.812 86.571 218.113 86.6967 218.364 86.9482C218.616 87.1953 218.741 87.4936 218.741 87.843C218.741 88.0774 218.682 88.2926 218.562 88.4886C218.447 88.6804 218.294 88.8338 218.102 88.9489C217.91 89.0639 217.697 89.1214 217.463 89.1214ZM221.383 89L227.097 77.6989V77.603H220.488V75.9091H229.143V77.6605L223.448 89H221.383ZM235.511 89.179C234.71 89.179 233.99 89.0256 233.35 88.7188C232.715 88.4077 232.208 87.9815 231.829 87.4403C231.45 86.8991 231.247 86.2812 231.222 85.5866H233.139C233.186 86.1491 233.436 86.6115 233.887 86.9737C234.339 87.3359 234.88 87.517 235.511 87.517C236.014 87.517 236.459 87.402 236.847 87.1719C237.239 86.9375 237.546 86.6158 237.767 86.2067C237.993 85.7976 238.106 85.331 238.106 84.8068C238.106 84.2741 237.991 83.799 237.761 83.3814C237.531 82.9638 237.213 82.6357 236.809 82.397C236.408 82.1584 235.948 82.0369 235.428 82.0327C235.032 82.0327 234.633 82.1009 234.233 82.2372C233.832 82.3736 233.508 82.5526 233.261 82.7741L231.452 82.5057L232.187 75.9091H239.384V77.603H233.83L233.414 81.2656H233.491C233.747 81.0185 234.085 80.8118 234.507 80.6456C234.934 80.4794 235.389 80.3963 235.875 80.3963C236.672 80.3963 237.382 80.5859 238.004 80.9652C238.63 81.3445 239.122 81.8622 239.48 82.5185C239.843 83.1705 240.022 83.9205 240.017 84.7685C240.022 85.6165 239.83 86.3729 239.442 87.0376C239.059 87.7024 238.526 88.2266 237.844 88.6101C237.166 88.9893 236.389 89.179 235.511 89.179Z" fill="white"/>
<path d="M55.5147 72.4287C53.5368 72.4287 51.6034 73.0153 49.9589 74.1142C48.3145 75.2132 47.0327 76.7752 46.2759 78.6027C45.519 80.4302 45.3209 82.4411 45.7068 84.3812C46.0927 86.3213 47.0451 88.1034 48.4436 89.5021C49.8421 90.9008 51.6239 91.8533 53.5637 92.2392C55.5036 92.6251 57.5142 92.4271 59.3415 91.6701C61.1687 90.9131 62.7305 89.6312 63.8293 87.9865C64.9282 86.3418 65.5146 84.4081 65.5146 82.4301C65.5146 81.1167 65.256 79.8161 64.7534 78.6027C64.2509 77.3893 63.5143 76.2867 62.5857 75.358C61.6571 74.4293 60.5547 73.6926 59.3415 73.19C58.1282 72.6874 56.8279 72.4287 55.5147 72.4287ZM55.5147 90.4311C53.9324 90.4311 52.3857 89.9619 51.0701 89.0827C49.7545 88.2035 48.7291 86.9539 48.1236 85.4919C47.5181 84.0299 47.3597 82.4212 47.6684 80.8691C47.9771 79.3171 48.739 77.8914 49.8578 76.7724C50.9766 75.6535 52.4021 74.8914 53.9539 74.5827C55.5058 74.274 57.1143 74.4324 58.5761 75.038C60.0379 75.6436 61.2874 76.6691 62.1664 77.9849C63.0455 79.3007 63.5146 80.8476 63.5146 82.4301C63.5146 84.5521 62.6718 86.5872 61.1715 88.0877C59.6712 89.5882 57.6364 90.4311 55.5147 90.4311ZM59.5147 81.4299H51.5147C51.2494 81.4299 50.9951 81.5353 50.8075 81.7228C50.62 81.9104 50.5147 82.1648 50.5147 82.4301C50.5147 82.6953 50.62 82.9497 50.8075 83.1373C50.9951 83.3248 51.2494 83.4302 51.5147 83.4302H59.5147C59.7799 83.4302 60.0342 83.3248 60.2218 83.1373C60.4093 82.9497 60.5147 82.6953 60.5147 82.4301C60.5147 82.1648 60.4093 81.9104 60.2218 81.7228C60.0342 81.5353 59.7799 81.4299 59.5147 81.4299Z" fill="#DFDFDF"/>
<path d="M328.515 72.4287C326.537 72.4287 324.603 73.0153 322.959 74.1142C321.314 75.2132 320.033 76.7752 319.276 78.6027C318.519 80.4302 318.321 82.4411 318.707 84.3812C319.093 86.3213 320.045 88.1034 321.444 89.5021C322.842 90.9008 324.624 91.8533 326.564 92.2392C328.504 92.6251 330.514 92.4271 332.341 91.6701C334.169 90.9131 335.731 89.6312 336.829 87.9865C337.928 86.3418 338.515 84.4081 338.515 82.4301C338.515 81.1167 338.256 79.8161 337.753 78.6027C337.251 77.3893 336.514 76.2867 335.586 75.358C334.657 74.4293 333.555 73.6926 332.341 73.19C331.128 72.6874 329.828 72.4287 328.515 72.4287ZM328.515 90.4311C326.932 90.4311 325.386 89.9619 324.07 89.0827C322.754 88.2035 321.729 86.9539 321.124 85.4919C320.518 84.0299 320.36 82.4212 320.668 80.8691C320.977 79.3171 321.739 77.8914 322.858 76.7724C323.977 75.6535 325.402 74.8914 326.954 74.5827C328.506 74.274 330.114 74.4324 331.576 75.038C333.038 75.6436 334.287 76.6691 335.166 77.9849C336.045 79.3007 336.515 80.8476 336.515 82.4301C336.515 84.5521 335.672 86.5872 334.172 88.0877C332.671 89.5882 330.636 90.4311 328.515 90.4311ZM332.515 81.4299H329.515V78.4295C329.515 78.1643 329.409 77.9099 329.222 77.7223C329.034 77.5348 328.78 77.4294 328.515 77.4294C328.249 77.4294 327.995 77.5348 327.808 77.7223C327.62 77.9099 327.515 78.1643 327.515 78.4295V81.4299H324.515C324.249 81.4299 323.995 81.5353 323.808 81.7228C323.62 81.9104 323.515 82.1648 323.515 82.4301C323.515 82.6953 323.62 82.9497 323.808 83.1373C323.995 83.3248 324.249 83.4302 324.515 83.4302H327.515V86.4306C327.515 86.6958 327.62 86.9502 327.808 87.1378C327.995 87.3254 328.249 87.4307 328.515 87.4307C328.78 87.4307 329.034 87.3254 329.222 87.1378C329.409 86.9502 329.515 86.6958 329.515 86.4306V83.4302H332.515C332.78 83.4302 333.034 83.3248 333.222 83.1373C333.409 82.9497 333.515 82.6953 333.515 82.4301C333.515 82.1648 333.409 81.9104 333.222 81.7228C333.034 81.5353 332.78 81.4299 332.515 81.4299Z" fill="#DFDFDF"/>
<rect x="51.5146" y="144" width="2" height="80" fill="#3C3F48"/>
<rect x="156.515" y="154" width="2" height="10" fill="#3C3F48"/>
<rect x="261.515" y="144" width="2" height="20" fill="#3C3F48"/>
<rect x="86.5146" y="144" width="2" height="20" fill="#3C3F48"/>
<rect x="191.515" y="144" width="2" height="30" fill="#2C7CF8"/>
<rect x="296.515" y="144" width="2" height="30" fill="#3C3F48"/>
<rect x="121.515" y="144" width="2" height="40" fill="#3C3F48"/>
<rect x="226.515" y="144" width="2" height="60" fill="#2C7CF8"/>
<rect x="331.515" y="144" width="2" height="80" fill="#3C3F48"/>
<defs>
<linearGradient id="paint0_linear_1075_30448" x1="30.5146" y1="348" x2="250.402" y2="523.899" gradientUnits="userSpaceOnUse">
<stop stop-color="#2D7EFA"/>
<stop offset="1" stop-color="#0C57C7"/>
</linearGradient>
</defs>
</svg>
