<svg width="40" height="40" viewBox="0 0 40 40" fill="none" xmlns="http://www.w3.org/2000/svg">
<path d="M25.0002 37.9173H15.0002C5.95016 37.9173 2.0835 34.0507 2.0835 25.0007V15.0007C2.0835 5.95065 5.95016 2.08398 15.0002 2.08398H25.0002C34.0502 2.08398 37.9168 5.95065 37.9168 15.0007V25.0007C37.9168 34.0507 34.0502 37.9173 25.0002 37.9173ZM15.0002 4.58398C7.31683 4.58398 4.5835 7.31732 4.5835 15.0007V25.0007C4.5835 32.684 7.31683 35.4173 15.0002 35.4173H25.0002C32.6835 35.4173 35.4168 32.684 35.4168 25.0007V15.0007C35.4168 7.31732 32.6835 4.58398 25.0002 4.58398H15.0002Z" fill="#2878F2"/>
<path d="M19.9998 27.0827C16.0998 27.0827 12.9165 23.8993 12.9165 19.9993C12.9165 16.0993 16.0998 12.916 19.9998 12.916C23.8998 12.916 27.0832 16.0993 27.0832 19.9993C27.0832 23.8993 23.8998 27.0827 19.9998 27.0827ZM19.9998 15.416C17.4665 15.416 15.4165 17.466 15.4165 19.9993C15.4165 22.5327 17.4665 24.5827 19.9998 24.5827C22.5332 24.5827 24.5832 22.5327 24.5832 19.9993C24.5832 17.466 22.5332 15.416 19.9998 15.416Z" fill="#2878F2"/>
<path d="M28.3332 12.4998C28.1165 12.4998 27.8998 12.4498 27.6998 12.3665C27.4998 12.2832 27.3165 12.1665 27.1498 12.0165C26.9998 11.8498 26.8665 11.6665 26.7832 11.4665C26.6998 11.2665 26.6665 11.0498 26.6665 10.8332C26.6665 10.6165 26.6998 10.3998 26.7832 10.1998C26.8832 9.98317 26.9998 9.81651 27.1498 9.64984C27.2332 9.58317 27.3165 9.49984 27.3998 9.44984C27.4998 9.38317 27.5998 9.33317 27.6998 9.29984C27.7998 9.24984 27.8998 9.21651 28.0165 9.19984C28.5498 9.08317 29.1165 9.26651 29.5165 9.64984C29.6665 9.81651 29.7832 9.98317 29.8665 10.1998C29.9498 10.3998 29.9998 10.6165 29.9998 10.8332C29.9998 11.0498 29.9498 11.2665 29.8665 11.4665C29.7832 11.6665 29.6665 11.8498 29.5165 12.0165C29.3498 12.1665 29.1665 12.2832 28.9665 12.3665C28.7665 12.4498 28.5498 12.4998 28.3332 12.4998Z" fill="#2878F2"/>
</svg>
