<svg width="708" height="619" viewBox="0 0 708 619" fill="none" xmlns="http://www.w3.org/2000/svg">
<path style="mix-blend-mode:screen" d="M267.389 510.309C414.998 510.309 534.66 396.263 534.66 255.58C534.66 114.897 414.998 0.851562 267.389 0.851562C119.78 0.851562 0.11853 114.897 0.11853 255.58C0.11853 396.263 119.78 510.309 267.389 510.309Z" fill="url(#paint0_radial_1647_5663)"/>
<path style="mix-blend-mode:screen" d="M486.941 603.078C601.809 603.078 694.928 514.577 694.928 405.406C694.928 296.234 601.809 207.733 486.941 207.733C372.072 207.733 278.953 296.234 278.953 405.406C278.953 514.577 372.072 603.078 486.941 603.078Z" fill="url(#paint1_radial_1647_5663)"/>
<path style="mix-blend-mode:screen" d="M377 504.475C478.098 504.475 560.053 426.584 560.053 330.5C560.053 234.417 478.098 156.525 377 156.525C275.902 156.525 193.947 234.417 193.947 330.5C193.947 426.584 275.902 504.475 377 504.475Z" fill="url(#paint2_radial_1647_5663)"/>
<path d="M377 489.06C469.14 489.06 543.834 418.07 543.834 330.5C543.834 242.93 469.14 171.94 377 171.94C284.86 171.94 210.166 242.93 210.166 330.5C210.166 418.07 284.86 489.06 377 489.06Z" fill="#1B75BC"/>
<path d="M377 479.778C463.746 479.778 534.068 412.944 534.068 330.5C534.068 248.057 463.746 181.223 377 181.223C290.254 181.223 219.932 248.057 219.932 330.5C219.932 412.944 290.254 479.778 377 479.778Z" fill="#0A3B5B"/>
<g style="mix-blend-mode:overlay">
<path d="M378.58 477.96V476.603C379.722 476.603 380.874 476.571 382.007 476.535L382.05 477.892C380.893 477.919 379.732 477.96 378.58 477.96ZM375.125 477.96C373.973 477.96 372.812 477.924 371.674 477.887L371.722 476.53C372.85 476.567 374.002 476.594 375.144 476.607L375.125 477.96ZM385.491 477.752L385.415 476.395C386.547 476.336 387.694 476.263 388.832 476.182L388.941 477.539C387.794 477.616 386.633 477.684 385.491 477.743V477.752ZM368.219 477.752C367.067 477.693 365.911 477.616 364.773 477.535L364.883 476.178C366.011 476.263 367.158 476.336 368.3 476.395L368.219 477.752ZM392.382 477.268L392.244 475.911C393.372 475.807 394.519 475.689 395.647 475.558L395.819 476.915C394.681 477.019 393.524 477.141 392.382 477.245V477.268ZM361.328 477.241C360.185 477.132 359.029 477.01 357.896 476.879L358.067 475.522C359.195 475.653 360.338 475.775 361.475 475.879L361.328 477.241ZM399.245 476.481L399.041 475.124C400.169 474.97 401.311 474.802 402.424 474.622L402.662 475.979C401.534 476.15 400.383 476.304 399.245 476.458V476.481ZM354.469 476.44C353.337 476.286 352.185 476.114 351.052 475.933L351.29 474.576C352.413 474.757 353.551 474.929 354.674 475.083L354.469 476.44ZM406.065 475.4L405.799 474.043C406.908 473.843 408.04 473.626 409.13 473.4L409.43 474.735C408.326 474.956 407.189 475.178 406.065 475.377V475.4ZM347.654 475.35C346.526 475.146 345.389 474.925 344.265 474.698L344.565 473.341C345.679 473.568 346.807 473.794 347.921 473.988L347.654 475.35ZM412.828 474.033L412.495 472.708C413.599 472.459 414.718 472.197 415.827 471.921L416.184 473.242C415.075 473.495 413.937 473.762 412.828 474.011V474.033ZM340.891 473.97C339.777 473.717 338.649 473.45 337.559 473.174L337.921 471.853C339.021 472.129 340.139 472.392 341.253 472.645L340.891 473.97ZM419.515 472.378L419.125 471.066C420.215 470.772 421.319 470.465 422.409 470.162L422.832 471.464C421.738 471.745 420.619 472.079 419.515 472.355V472.378ZM334.209 472.306C333.114 472.007 332.001 471.69 330.877 471.365L331.306 470.062C332.4 470.388 333.505 470.7 334.585 470.994L334.209 472.306ZM426.135 470.437L425.66 469.144C426.73 468.805 427.825 468.443 428.905 468.076L429.381 469.356C428.32 469.709 427.221 470.071 426.135 470.415V470.437ZM327.617 470.352C326.542 470.008 325.442 469.646 324.352 469.275L324.828 467.99C325.904 468.361 326.994 468.723 328.06 469.062L327.617 470.352ZM432.684 468.189L432.17 466.914C433.232 466.525 434.307 466.122 435.359 465.711L435.906 466.973C434.821 467.384 433.741 467.796 432.684 468.189ZM321.121 468.103C320.055 467.71 318.974 467.298 317.908 466.882L318.455 465.625C319.512 466.036 320.583 466.443 321.635 466.828L321.121 468.103ZM439.1 465.683L438.524 464.435C439.566 464.005 440.618 463.553 441.656 463.078L442.255 464.313C441.194 464.792 440.133 465.249 439.081 465.683H439.1ZM314.743 465.602C313.701 465.15 312.644 464.697 311.602 464.245L312.206 463.006C313.239 463.458 314.286 463.91 315.319 464.363L314.743 465.602ZM445.382 462.888L444.749 461.667C445.777 461.187 446.805 460.694 447.814 460.197L448.476 461.404C447.438 461.929 446.401 462.431 445.363 462.911L445.382 462.888ZM308.494 462.816C307.471 462.336 306.438 461.839 305.42 461.332L306.081 460.124C307.09 460.622 308.113 461.12 309.127 461.59L308.494 462.816ZM451.531 459.853L450.841 458.659C451.841 458.139 452.845 457.6 453.83 457.058L454.549 458.238C453.535 458.808 452.521 459.351 451.512 459.867L451.531 459.853ZM302.378 459.785C301.374 459.26 300.365 458.722 299.375 458.175L300.094 456.994C301.074 457.537 302.074 458.071 303.069 458.591L302.378 459.785ZM457.533 456.56L456.786 455.398C457.737 454.832 458.737 454.253 459.694 453.67L460.469 454.819C459.475 455.429 458.489 456.017 457.509 456.583L457.533 456.56ZM296.415 456.501C295.435 455.931 294.449 455.348 293.488 454.764L294.264 453.615C295.216 454.194 296.191 454.773 297.162 455.339L296.415 456.501ZM463.363 453.018L462.563 451.887C463.515 451.281 464.467 450.662 465.39 450.042L466.214 451.155C465.252 451.806 464.296 452.43 463.339 453.041L463.363 453.018ZM290.599 452.964C289.647 452.362 288.695 451.734 287.743 451.105L288.567 449.992C289.519 450.616 290.471 451.236 291.384 451.833L290.599 452.964ZM469.017 449.232L468.165 448.133C469.084 447.495 470.002 446.835 470.902 446.174L471.777 447.251C470.849 447.939 469.921 448.608 468.998 449.255L469.017 449.232ZM284.955 449.187C284.036 448.54 283.108 447.875 282.204 447.21L283.079 446.129C283.979 446.79 284.897 447.45 285.806 448.092L284.955 449.187ZM474.49 445.216L473.591 444.153C474.481 443.47 475.366 442.796 476.232 442.076L477.155 443.117C476.265 443.845 475.371 444.546 474.471 445.238L474.49 445.216ZM279.496 445.175C278.601 444.487 277.706 443.786 276.83 443.081L277.782 442.04C278.648 442.737 279.538 443.433 280.419 444.112L279.496 445.175ZM479.773 440.968L478.821 439.95C479.673 439.236 480.525 438.498 481.363 437.766L482.315 438.765C481.472 439.512 480.611 440.272 479.754 440.991L479.773 440.968ZM274.222 440.932C273.366 440.213 272.504 439.471 271.662 438.729L272.614 437.73C273.451 438.467 274.308 439.2 275.15 439.91L274.222 440.932ZM484.847 436.508L483.852 435.527C484.671 434.776 485.489 434.007 486.289 433.265L487.307 434.219C486.465 434.988 485.656 435.771 484.828 436.531L484.847 436.508ZM269.149 436.472C268.325 435.712 267.497 434.934 266.693 434.161L267.711 433.202C268.511 433.971 269.33 434.74 270.148 435.49L269.149 436.472ZM489.711 431.84L488.668 430.904C489.444 430.121 490.229 429.321 490.996 428.516L492.057 429.42C491.267 430.266 490.477 431.076 489.692 431.863L489.711 431.84ZM264.27 431.822C263.48 431.031 262.69 430.221 261.924 429.411L262.985 428.507C263.747 429.307 264.532 430.112 265.313 430.895L264.27 431.822ZM494.327 426.996L493.247 426.091C493.985 425.277 494.732 424.445 495.455 423.612L496.559 424.481C495.826 425.331 495.079 426.172 494.327 426.996ZM259.63 426.95C258.878 426.123 258.126 425.281 257.398 424.44L258.502 423.572C259.226 424.404 259.973 425.241 260.715 426.059L259.63 426.95ZM498.734 421.939L497.611 421.093C498.316 420.247 499.039 419.379 499.701 418.519L500.847 419.342C500.157 420.211 499.443 421.084 498.734 421.939V421.939ZM255.223 421.871C254.514 421.02 253.795 420.143 253.11 419.27L254.252 418.451C254.937 419.315 255.647 420.184 256.346 421.025L255.223 421.871ZM502.899 416.692L501.737 415.891C502.399 415.018 503.061 414.122 503.708 413.236L504.888 414.009C504.236 414.919 503.57 415.819 502.899 416.705V416.692ZM251.054 416.624C250.383 415.742 249.716 414.842 249.06 413.937L250.245 413.163C250.892 414.068 251.554 414.973 252.215 415.828L251.054 416.624ZM506.811 411.286L505.612 410.54C506.24 409.635 506.859 408.731 507.458 407.803L508.672 408.527C508.067 409.454 507.444 410.386 506.811 411.3V411.286ZM247.132 411.205C246.504 410.3 245.876 409.359 245.266 408.432L246.485 407.713C247.089 408.618 247.708 409.554 248.331 410.459L247.132 411.205ZM510.466 405.727L509.238 405.031C509.819 404.099 510.395 403.153 510.947 402.222L512.198 402.891C511.637 403.845 511.056 404.8 510.466 405.741V405.727ZM243.467 405.623C242.877 404.682 242.297 403.723 241.735 402.773L242.982 402.104C243.539 403.045 244.119 403.995 244.7 404.927L243.467 405.623ZM513.86 400.019L512.594 399.376C513.131 398.422 513.664 397.454 514.174 396.495L515.454 397.115C514.935 398.096 514.402 399.073 513.86 400.032V400.019ZM240.069 399.888C239.527 398.929 238.989 397.947 238.47 396.97L239.75 396.355C240.264 397.323 240.797 398.295 241.33 399.245L240.069 399.888ZM516.977 394.175L515.687 393.587C516.163 392.614 516.639 391.624 517.115 390.647L518.419 391.207C517.962 392.207 517.472 393.207 516.977 394.188V394.175ZM236.942 394.012C236.466 393.035 235.957 392.031 235.481 391.026L236.79 390.466C237.266 391.461 237.742 392.456 238.218 393.424L236.942 394.012ZM519.818 388.208L518.5 387.675C518.942 386.689 519.38 385.68 519.799 384.676L521.132 385.182C520.732 386.209 520.256 387.227 519.818 388.222V388.208ZM234.092 388.009C233.644 387.001 233.202 385.978 232.773 384.961L234.106 384.459C234.529 385.463 234.967 386.481 235.41 387.476L234.092 388.009ZM522.379 382.129L521.037 381.65C521.436 380.636 521.827 379.61 522.198 378.592L523.554 379.044C523.178 380.071 522.783 381.111 522.379 382.134V382.129ZM231.531 381.894C231.126 380.872 230.736 379.827 230.355 378.791L231.712 378.339C232.083 379.365 232.478 380.401 232.873 381.414L231.531 381.894ZM524.654 375.923L523.288 375.503C523.64 374.471 523.983 373.426 524.306 372.395L525.682 372.789C525.353 373.829 525.015 374.887 524.654 375.928V375.923ZM229.256 375.665C228.909 374.63 228.566 373.571 228.238 372.526L229.613 372.137C229.937 373.173 230.275 374.218 230.622 375.245L229.256 375.665ZM526.634 369.627L525.249 369.269C525.553 368.225 525.843 367.166 526.12 366.103L527.509 366.433C527.233 367.51 526.919 368.582 526.634 369.631V369.627ZM227.271 369.364C226.972 368.315 226.676 367.243 226.4 366.198L227.79 365.868C228.066 366.917 228.357 367.98 228.656 369.034L227.271 369.364ZM528.295 363.253L526.895 362.955C527.148 361.901 527.371 360.829 527.614 359.789L529.042 360.06C528.823 361.118 528.566 362.195 528.314 363.258L528.295 363.253ZM225.601 362.987C225.349 361.924 225.125 360.843 224.877 359.775L226.305 359.508C226.529 360.562 226.781 361.634 227.019 362.674L225.601 362.987ZM529.67 356.817L528.242 356.577C528.442 355.514 528.637 354.438 528.813 353.366L530.241 353.578C530.089 354.664 529.894 355.754 529.694 356.821L529.67 356.817ZM224.235 356.545C224.035 355.478 223.84 354.388 223.664 353.307L225.092 353.099C225.268 354.166 225.458 355.247 225.653 356.31L224.235 356.545ZM530.736 350.326L529.308 350.145C529.456 349.082 529.599 347.992 529.722 346.915L531.15 347.065C531.06 348.141 530.917 349.258 530.765 350.33L530.736 350.326ZM223.169 350.054C223.017 348.973 222.879 347.879 222.755 346.793L224.183 346.644C224.306 347.72 224.444 348.806 224.597 349.878L223.169 350.054ZM531.507 343.799L530.079 343.677C530.184 342.6 530.274 341.51 530.351 340.433L531.778 340.524C531.726 341.614 531.636 342.713 531.536 343.803L531.507 343.799ZM222.412 343.527C222.312 342.442 222.227 341.338 222.15 340.248L223.578 340.162C223.654 341.239 223.74 342.333 223.84 343.405L222.412 343.527ZM531.969 337.244L530.541 337.181C530.593 336.109 530.631 335.015 530.655 333.929L532.083 333.961C532.088 335.06 532.05 336.163 531.997 337.249L531.969 337.244ZM221.96 336.969C221.912 335.883 221.874 334.775 221.851 333.685L223.278 333.658C223.278 334.739 223.34 335.833 223.388 336.91L221.96 336.969ZM532.154 330.677H530.727V330.5C530.727 329.419 530.727 328.325 530.689 327.243L532.116 327.216C532.145 328.302 532.154 329.406 532.154 330.5V330.677ZM223.274 330.405H221.846C221.846 329.315 221.846 328.211 221.884 327.121L223.312 327.153C223.274 328.239 223.274 329.324 223.274 330.405ZM530.57 323.991C530.517 322.919 530.455 321.825 530.379 320.744L531.807 320.653C531.883 321.748 531.945 322.851 531.997 323.932L530.57 323.991ZM223.426 323.905L221.998 323.846C222.05 322.761 222.112 321.657 222.188 320.567L223.616 320.658C223.545 321.734 223.483 322.811 223.431 323.905H223.426ZM530.117 317.496C530.017 316.415 529.903 315.325 529.779 314.257L531.207 314.108C531.336 315.184 531.45 316.284 531.55 317.378L530.117 317.496ZM223.883 317.41L222.455 317.292C222.555 316.207 222.669 315.107 222.798 314.022L224.225 314.171C224.102 315.248 223.987 316.338 223.888 317.41H223.883ZM529.37 311.05C529.218 309.983 529.056 308.897 528.894 307.829L530.322 307.617C530.498 308.698 530.665 309.793 530.798 310.869L529.37 311.05ZM224.644 310.964L223.216 310.783C223.369 309.707 223.535 308.612 223.716 307.531L225.144 307.744C224.958 308.788 224.792 309.874 224.644 310.942V310.964ZM528.314 304.632C528.114 303.564 527.895 302.487 527.671 301.434L529.099 301.167C529.323 302.225 529.541 303.311 529.746 304.392L528.314 304.632ZM225.701 304.546L224.273 304.306C224.473 303.234 224.692 302.148 224.92 301.081L226.348 301.352C226.129 302.374 225.901 303.451 225.701 304.509V304.546ZM526.967 298.254C526.719 297.204 526.453 296.137 526.177 295.087L527.566 294.757C527.847 295.82 528.114 296.892 528.366 297.951L526.967 298.254ZM227.081 298.132L225.682 297.833C225.934 296.77 226.205 295.698 226.486 294.635L227.876 294.965C227.581 296.019 227.314 297.082 227.081 298.132ZM525.32 291.898C525.02 290.863 524.706 289.809 524.368 288.768L525.744 288.379C526.072 289.429 526.391 290.492 526.695 291.546L525.32 291.898ZM228.742 291.817L227.362 291.455C227.662 290.406 227.985 289.343 228.314 288.289L229.689 288.678C229.342 289.723 229.023 290.772 228.723 291.817H228.742ZM523.369 285.661C523.016 284.625 522.65 283.585 522.274 282.562L523.63 282.11C524.006 283.141 524.378 284.195 524.73 285.24L523.369 285.661ZM230.698 285.579L229.337 285.163C229.689 284.123 230.06 283.073 230.432 282.047L231.788 282.499C231.398 283.512 231.031 284.548 230.679 285.579H230.698ZM521.113 279.491C520.713 278.478 520.299 277.451 519.875 276.442L521.208 275.94C521.636 276.958 522.055 277.994 522.455 279.016L521.113 279.491ZM232.949 279.432L231.607 278.957C232.007 277.931 232.426 276.899 232.849 275.891L234.182 276.397C233.744 277.397 233.33 278.419 232.93 279.432H232.949ZM518.571 273.425C518.124 272.43 517.662 271.426 517.191 270.435L518.5 269.875C518.976 270.874 519.452 271.887 519.89 272.892L518.571 273.425ZM235.481 273.398L234.163 272.864C234.61 271.865 235.072 270.856 235.543 269.865L236.852 270.426C236.367 271.408 235.905 272.408 235.462 273.398H235.481ZM238.294 267.486L236.999 266.894C237.475 265.917 238.004 264.926 238.522 263.958L239.803 264.573C239.27 265.532 238.76 266.514 238.275 267.486H238.294ZM515.763 267.486C515.287 266.514 514.759 265.528 514.245 264.56L515.525 263.944C516.044 264.922 516.558 265.912 517.058 266.898L515.763 267.486ZM241.359 261.696L240.093 261.05C240.631 260.095 241.192 259.127 241.754 258.177L243.006 258.847C242.444 259.788 241.892 260.747 241.359 261.696ZM512.641 261.66C512.108 260.71 511.551 259.747 510.99 258.801L512.237 258.132C512.803 259.086 513.365 260.059 513.907 261.013L512.641 261.66ZM244.733 256.038L243.501 255.341C244.086 254.405 244.691 253.464 245.295 252.541L246.509 253.26C245.895 254.174 245.295 255.11 244.714 256.038H244.733ZM509.267 255.979C508.686 255.047 508.086 254.111 507.482 253.197L508.7 252.473C509.31 253.378 509.914 254.342 510.499 255.282L509.267 255.979ZM248.35 250.524L247.151 249.778C247.779 248.873 248.427 247.968 249.055 247.064L250.235 247.837C249.597 248.719 248.974 249.624 248.331 250.524H248.35ZM505.635 250.451C505.012 249.547 504.369 248.642 503.732 247.738L504.912 246.964C505.569 247.869 506.216 248.773 506.844 249.678L505.635 250.451ZM252.21 245.168L251.044 244.372C251.715 243.468 252.405 242.599 253.096 241.735L254.238 242.554C253.557 243.413 252.872 244.295 252.21 245.168ZM501.728 245.082C501.062 244.209 500.376 243.327 499.691 242.463L500.833 241.64C501.528 242.518 502.218 243.404 502.889 244.286L501.728 245.082ZM256.332 239.98L255.204 239.134C255.913 238.284 256.632 237.424 257.374 236.583L258.483 237.452C257.755 238.284 257.032 239.13 256.332 239.98ZM497.592 239.885C496.888 239.044 496.164 238.189 495.436 237.357L496.54 236.488C497.273 237.329 498.006 238.189 498.715 239.039L497.592 239.885ZM260.691 234.968L259.606 234.064C260.358 233.24 261.125 232.413 261.896 231.603L262.957 232.508C262.195 233.331 261.434 234.154 260.691 234.968ZM493.218 234.873C492.481 234.059 491.714 233.24 490.948 232.435L492.009 231.531C492.785 232.34 493.556 233.168 494.303 233.987L493.218 234.873ZM265.284 230.142L264.242 229.206C265.032 228.414 265.836 227.618 266.645 226.844L267.664 227.803C266.864 228.572 266.065 229.359 265.284 230.142V230.142ZM488.621 230.047C487.845 229.269 487.041 228.482 486.241 227.708L487.264 226.749C488.073 227.527 488.883 228.324 489.644 229.111L488.621 230.047ZM270.096 225.524L269.101 224.542C269.925 223.787 270.767 223.027 271.609 222.28L272.561 223.28C271.752 224.008 270.915 224.764 270.096 225.515V225.524ZM483.79 225.433C482.971 224.678 482.134 223.927 481.301 223.199L482.253 222.194C483.095 222.932 483.938 223.692 484.766 224.456L483.79 225.433ZM275.107 221.1L274.156 220.082C275.012 219.354 275.893 218.63 276.768 217.929L277.692 218.969C276.849 219.679 275.978 220.372 275.122 221.091L275.107 221.1ZM478.759 221.014C477.912 220.304 477.041 219.585 476.17 218.888L477.098 217.848C477.974 218.553 478.855 219.272 479.711 219.992L478.759 221.014ZM280.338 216.893L279.434 215.835C280.328 215.147 281.242 214.478 282.147 213.795L283.027 214.871C282.142 215.523 281.238 216.201 280.352 216.884L280.338 216.893ZM473.534 216.816C472.648 216.138 471.749 215.459 470.849 214.799L471.725 213.722C472.629 214.387 473.543 215.079 474.433 215.758L473.534 216.816ZM285.773 212.895L284.921 211.795C285.845 211.149 286.792 210.502 287.729 209.873L288.553 210.986C287.625 211.614 286.692 212.257 285.773 212.895ZM468.132 212.827C467.218 212.189 466.285 211.547 465.357 210.927L466.185 209.814C467.137 210.438 468.06 211.085 468.984 211.732L468.132 212.827ZM291.38 209.14L290.58 208.009C291.532 207.399 292.484 206.793 293.474 206.2L294.245 207.349C293.288 207.942 292.322 208.543 291.38 209.145V209.14ZM462.54 209.086C461.588 208.489 460.636 207.887 459.684 207.308L460.455 206.159C461.407 206.747 462.392 207.349 463.344 207.969L462.54 209.086ZM297.153 205.626L296.41 204.463C297.391 203.893 298.39 203.328 299.385 202.78L300.104 203.961C299.118 204.508 298.128 205.069 297.153 205.63V205.626ZM456.781 205.589C455.829 205.029 454.825 204.472 453.84 203.929L454.558 202.753C455.553 203.296 456.548 203.862 457.523 204.422L456.781 205.589ZM303.092 202.36L302.402 201.166C303.411 200.641 304.435 200.116 305.458 199.614L306.119 200.822C305.134 201.328 304.092 201.844 303.092 202.364V202.36ZM450.865 202.337C449.87 201.817 448.857 201.306 447.852 200.808L448.514 199.596C449.528 200.098 450.551 200.618 451.555 201.143L450.865 202.337ZM309.18 199.347L308.547 198.126C309.579 197.642 310.631 197.163 311.673 196.706L312.273 197.968C311.245 198.42 310.203 198.872 309.18 199.352V199.347ZM444.821 199.347C443.802 198.868 442.765 198.397 441.737 197.945L442.341 196.71C443.379 197.163 444.426 197.642 445.454 198.121L444.821 199.347ZM438.633 196.611C437.596 196.158 436.539 195.751 435.492 195.344L436.04 194.082C437.091 194.494 438.162 194.923 439.209 195.362L438.633 196.611ZM315.424 196.611L314.853 195.362C315.905 194.91 316.98 194.489 318.041 194.073L318.589 195.335C317.508 195.738 316.452 196.158 315.405 196.611H315.424ZM432.308 194.145C431.252 193.756 430.171 193.377 429.1 193.01L429.576 191.726C430.662 192.096 431.751 192.485 432.818 192.874L432.308 194.145ZM321.777 194.145L321.264 192.874C322.339 192.481 323.434 192.092 324.514 191.726L324.99 193.006C323.91 193.345 322.825 193.729 321.759 194.118L321.777 194.145ZM425.864 191.961C424.789 191.617 423.694 191.282 422.609 190.961L423.032 189.658C424.127 189.98 425.236 190.319 426.321 190.667L425.864 191.961ZM328.245 191.938L327.77 190.644C328.864 190.296 329.973 189.957 331.072 189.631L331.496 190.934C330.411 191.228 329.307 191.567 328.226 191.911L328.245 191.938ZM419.325 190.034C418.235 189.735 417.126 189.446 416.022 189.174L416.384 187.854C417.497 188.13 418.62 188.424 419.715 188.722L419.325 190.034ZM334.799 190.007L334.409 188.699C335.513 188.396 336.636 188.107 337.74 187.831L338.102 189.152C336.988 189.396 335.875 189.686 334.78 189.98L334.799 190.007ZM412.695 188.356C411.586 188.107 410.463 187.867 409.364 187.641L409.663 186.307C410.782 186.537 411.915 186.759 413.038 187.03L412.695 188.356ZM341.424 188.356L341.091 187.03C342.209 186.777 343.342 186.537 344.465 186.307L344.765 187.641C343.637 187.849 342.514 188.089 341.41 188.338L341.424 188.356ZM405.999 186.999C404.885 186.8 403.752 186.605 402.624 186.424L402.862 185.067C404 185.248 405.142 185.443 406.265 185.646L405.999 186.999ZM348.12 186.999L347.854 185.642C348.977 185.438 350.119 185.244 351.257 185.063L351.49 186.42C350.348 186.587 349.22 186.777 348.106 186.981L348.12 186.999ZM399.245 185.936C398.117 185.782 396.975 185.637 395.847 185.506L396.023 184.149C397.161 184.28 398.312 184.425 399.45 184.601L399.245 185.936ZM354.874 185.936L354.669 184.579C355.807 184.425 356.959 184.28 358.096 184.126L358.272 185.483C357.13 185.606 355.988 185.755 354.86 185.904L354.874 185.936ZM392.444 185.162C391.316 185.054 390.164 184.959 389.032 184.873L389.146 183.516C390.288 183.597 391.445 183.697 392.587 183.805L392.444 185.162ZM361.675 185.162L361.532 183.805C362.67 183.697 363.831 183.602 364.978 183.516L365.087 184.873C363.936 184.918 362.789 185.013 361.661 185.122L361.675 185.162ZM385.614 184.669C384.482 184.606 383.335 184.561 382.193 184.524L382.24 183.167C383.392 183.204 384.553 183.253 385.695 183.312L385.614 184.669ZM368.481 184.669L368.4 183.312C369.547 183.253 370.708 183.204 371.855 183.167L371.903 184.524C370.775 184.515 369.623 184.565 368.49 184.624L368.481 184.669ZM378.752 184.457H376.991H375.325V183.1C375.896 183.1 376.467 183.1 377.048 183.1C377.628 183.1 378.204 183.1 378.78 183.1L378.752 184.457Z" fill="white"/>
</g>
<g style="mix-blend-mode:overlay">
<g style="mix-blend-mode:overlay">
<path d="M377 460.129C345.449 460.126 314.875 449.726 290.487 430.701C266.099 411.675 249.406 385.202 243.253 355.791C237.1 326.381 241.867 295.852 256.741 269.407C271.616 242.962 295.678 222.237 324.829 210.763C353.979 199.289 386.413 197.775 416.606 206.481C446.798 215.186 472.881 233.572 490.409 258.505C507.938 283.438 515.828 313.377 512.735 343.219C509.642 373.061 495.758 400.961 473.448 422.165C460.811 434.238 445.78 443.81 429.225 450.327C412.669 456.843 394.919 460.175 377 460.129V460.129ZM377 201.396C302.098 201.396 241.159 259.294 241.159 330.5C241.159 401.706 302.079 459.604 377 459.604C451.922 459.604 512.841 401.706 512.841 330.5C512.841 259.294 451.903 201.396 377 201.396V201.396Z" fill="white"/>
</g>
<g style="mix-blend-mode:overlay">
<path d="M377 454.723C346.759 454.724 317.454 444.76 294.077 426.527C270.7 408.295 254.698 382.923 248.797 354.734C242.897 326.546 247.463 297.285 261.718 271.937C275.973 246.59 299.034 226.724 326.973 215.725C354.911 204.726 385.999 203.274 414.937 211.616C443.876 219.959 468.876 237.58 485.677 261.477C502.478 285.374 510.041 314.069 507.077 342.671C504.113 371.274 490.805 398.015 469.422 418.338C457.314 429.91 442.911 439.085 427.046 445.331C411.182 451.576 394.172 454.769 377 454.723V454.723ZM377 206.806C305.234 206.806 246.851 262.293 246.851 330.5C246.851 398.707 305.234 454.194 377 454.194C448.766 454.194 507.149 398.707 507.149 330.5C507.149 262.293 448.766 206.806 377 206.806V206.806Z" fill="white"/>
</g>
<g style="mix-blend-mode:overlay">
<path d="M377 449.318C348.075 449.319 320.045 439.788 297.685 422.349C275.325 404.91 260.019 380.642 254.375 353.68C248.732 326.718 253.099 298.73 266.734 274.485C280.368 250.241 302.426 231.239 329.149 220.719C355.872 210.198 385.606 208.809 413.286 216.789C440.966 224.769 464.878 241.623 480.948 264.48C497.018 287.338 504.251 314.783 501.416 342.141C498.581 369.5 485.853 395.077 465.4 414.516C453.819 425.584 440.042 434.359 424.868 440.333C409.694 446.307 393.424 449.361 377 449.318ZM377 212.211C308.37 212.211 252.539 265.274 252.539 330.5C252.539 395.726 308.37 448.789 377 448.789C445.63 448.789 501.461 395.726 501.461 330.5C501.461 265.274 445.63 212.211 377 212.211V212.211Z" fill="white"/>
</g>
<g style="mix-blend-mode:overlay">
<path d="M377 443.912C349.391 443.913 322.636 434.816 301.293 418.17C279.95 401.525 265.341 378.361 259.954 352.625C254.566 326.89 258.735 300.175 271.749 277.033C284.764 253.891 305.818 235.754 331.326 225.712C356.833 215.67 385.215 214.345 411.635 221.961C438.055 229.578 460.88 245.666 476.219 267.483C491.558 289.301 498.462 315.498 495.756 341.612C493.05 367.725 480.901 392.139 461.378 410.693C450.324 421.258 437.174 429.634 422.691 435.336C408.207 441.039 392.677 443.953 377 443.912V443.912ZM377 217.616C311.507 217.616 258.226 268.277 258.226 330.5C258.226 392.722 311.531 443.383 377 443.383C442.47 443.383 495.774 392.745 495.774 330.5C495.774 268.255 442.493 217.616 377 217.616Z" fill="white"/>
</g>
<g style="mix-blend-mode:overlay">
<path d="M377 438.507C314.339 438.507 263.357 390.053 263.357 330.499C263.357 270.946 314.339 222.492 377 222.492C439.661 222.492 490.643 270.946 490.643 330.499C490.643 390.053 439.661 438.507 377 438.507ZM377 223.021C314.653 223.021 263.913 271.235 263.913 330.499C263.913 389.764 314.653 437.977 377 437.977C439.347 437.977 490.087 389.755 490.087 330.499C490.087 271.244 439.347 223.021 377 223.021Z" fill="white"/>
</g>
<g style="mix-blend-mode:overlay">
<path d="M377 433.102C317.475 433.102 269.044 387.073 269.044 330.5C269.044 273.928 317.475 227.898 377 227.898C436.525 227.898 484.956 273.928 484.956 330.5C484.956 387.073 436.525 433.102 377 433.102ZM377 228.428C317.78 228.428 269.601 274.217 269.601 330.5C269.601 386.784 317.78 432.573 377 432.573C436.221 432.573 484.399 386.784 484.399 330.5C484.399 274.217 436.221 228.428 377 228.428Z" fill="white"/>
</g>
<g style="mix-blend-mode:overlay">
<path d="M377 427.697C320.611 427.697 274.731 384.092 274.731 330.5C274.731 276.908 320.611 233.304 377 233.304C433.389 233.304 479.269 276.908 479.269 330.5C479.269 384.092 433.389 427.697 377 427.697ZM377 233.833C320.916 233.833 275.288 277.198 275.288 330.5C275.288 383.803 320.916 427.168 377 427.168C433.084 427.168 478.712 383.803 478.712 330.5C478.712 277.198 433.084 233.833 377 233.833Z" fill="white"/>
</g>
<g style="mix-blend-mode:overlay">
<path d="M377 422.286C323.748 422.286 280.423 381.124 280.423 330.5C280.423 279.875 323.733 238.713 377 238.713C430.267 238.713 473.577 279.875 473.577 330.5C473.577 381.124 430.252 422.286 377 422.286ZM377 239.238C324.052 239.238 280.976 280.178 280.976 330.5C280.976 380.821 324.052 421.757 377 421.757C429.948 421.757 473.02 380.821 473.02 330.5C473.02 280.178 429.948 239.238 377 239.238Z" fill="white"/>
</g>
</g>
<path style="mix-blend-mode:color-dodge" d="M500.005 433.894C614.873 433.894 707.993 345.393 707.993 236.221C707.993 127.05 614.873 38.5488 500.005 38.5488C385.137 38.5488 292.017 127.05 292.017 236.221C292.017 345.393 385.137 433.894 500.005 433.894Z" fill="url(#paint3_radial_1647_5663)"/>
<path style="mix-blend-mode:color-dodge" d="M265.113 618.16C379.981 618.16 473.101 529.659 473.101 420.487C473.101 311.316 379.981 222.814 265.113 222.814C150.244 222.814 57.1251 311.316 57.1251 420.487C57.1251 529.659 150.244 618.16 265.113 618.16Z" fill="url(#paint4_radial_1647_5663)"/>
<defs>
<radialGradient id="paint0_radial_1647_5663" cx="0" cy="0" r="1" gradientUnits="userSpaceOnUse" gradientTransform="translate(267.389 255.58) scale(267.271 254.729)">
<stop stop-color="#27AAE1"/>
<stop offset="0.02" stop-color="#26A4D9"/>
<stop offset="0.17" stop-color="#1C79A0"/>
<stop offset="0.32" stop-color="#13546F"/>
<stop offset="0.47" stop-color="#0C3647"/>
<stop offset="0.61" stop-color="#071E28"/>
<stop offset="0.75" stop-color="#030E12"/>
<stop offset="0.88" stop-color="#010305"/>
<stop offset="1"/>
</radialGradient>
<radialGradient id="paint1_radial_1647_5663" cx="0" cy="0" r="1" gradientUnits="userSpaceOnUse" gradientTransform="translate(486.941 405.406) scale(207.988 197.673)">
<stop stop-color="#27AAE1"/>
<stop offset="0.02" stop-color="#26A4D9"/>
<stop offset="0.17" stop-color="#1C79A0"/>
<stop offset="0.32" stop-color="#13546F"/>
<stop offset="0.47" stop-color="#0C3647"/>
<stop offset="0.61" stop-color="#071E28"/>
<stop offset="0.75" stop-color="#030E12"/>
<stop offset="0.88" stop-color="#010305"/>
<stop offset="1"/>
</radialGradient>
<radialGradient id="paint2_radial_1647_5663" cx="0" cy="0" r="1" gradientUnits="userSpaceOnUse" gradientTransform="translate(377 330.5) scale(183.053 173.975)">
<stop offset="0.92" stop-color="#27AAE1"/>
<stop offset="0.93" stop-color="#208DBB"/>
<stop offset="0.94" stop-color="#186889"/>
<stop offset="0.95" stop-color="#11485F"/>
<stop offset="0.96" stop-color="#0B2E3D"/>
<stop offset="0.97" stop-color="#061A22"/>
<stop offset="0.98" stop-color="#030B0F"/>
<stop offset="0.99" stop-color="#010304"/>
<stop offset="1"/>
</radialGradient>
<radialGradient id="paint3_radial_1647_5663" cx="0" cy="0" r="1" gradientUnits="userSpaceOnUse" gradientTransform="translate(500.005 236.221) scale(207.988 197.673)">
<stop stop-color="#27AAE1"/>
<stop offset="0.02" stop-color="#26A4D9"/>
<stop offset="0.17" stop-color="#1C79A0"/>
<stop offset="0.32" stop-color="#13546F"/>
<stop offset="0.47" stop-color="#0C3647"/>
<stop offset="0.61" stop-color="#071E28"/>
<stop offset="0.75" stop-color="#030E12"/>
<stop offset="0.88" stop-color="#010305"/>
<stop offset="1"/>
</radialGradient>
<radialGradient id="paint4_radial_1647_5663" cx="0" cy="0" r="1" gradientUnits="userSpaceOnUse" gradientTransform="translate(265.113 420.487) scale(207.988 197.673)">
<stop stop-color="#27AAE1"/>
<stop offset="0.02" stop-color="#26A4D9"/>
<stop offset="0.17" stop-color="#1C79A0"/>
<stop offset="0.32" stop-color="#13546F"/>
<stop offset="0.47" stop-color="#0C3647"/>
<stop offset="0.61" stop-color="#071E28"/>
<stop offset="0.75" stop-color="#030E12"/>
<stop offset="0.88" stop-color="#010305"/>
<stop offset="1"/>
</radialGradient>
</defs>
</svg>
