<svg
  width="546"
  height="520"
  viewBox="0 0 546 520"
  fill="none"
  xmlns="http://www.w3.org/2000/svg"
  class="flash"
>
<path
    d="M144.212 419.394C143.301 419.4 142.404 419.179 141.61 418.754C140.816 418.329 140.153 417.715 139.685 416.971C139.218 416.228 138.963 415.382 138.945 414.516C138.927 413.65 139.147 412.795 139.584 412.035C140.021 411.274 140.658 410.636 141.434 410.182C142.21 409.728 143.097 409.474 144.008 409.446C144.919 409.417 145.821 409.615 146.627 410.02C147.432 410.425 148.113 411.023 148.601 411.754H167.162L200.792 379.788V357.203L220.452 338.513C220.238 337.807 220.177 337.067 220.273 336.337C220.368 335.608 220.619 334.905 221.009 334.27C221.516 333.435 222.246 332.742 223.125 332.26C224.003 331.778 225 331.524 226.015 331.524C227.029 331.525 228.026 331.779 228.904 332.261C229.782 332.744 230.512 333.437 231.018 334.273C231.525 335.108 231.792 336.055 231.791 337.02C231.79 337.984 231.522 338.931 231.014 339.765C230.506 340.6 229.776 341.293 228.897 341.774C228.018 342.255 227.021 342.508 226.007 342.507C225.473 342.507 224.943 342.435 224.431 342.294L206.417 359.415V382.009L169.489 417.105H148.62C148.146 417.807 147.494 418.385 146.724 418.785C145.954 419.185 145.09 419.394 144.212 419.394Z"
    fill="#0A3B5B"
  />
<path
    d="M178.884 265.091C177.839 265.085 176.815 264.811 175.92 264.298C175.025 263.784 174.293 263.05 173.801 262.173H137.63L121.311 246.663H79.9043L73.1651 253.068H65.8547C65.246 253.976 64.3438 254.672 63.2835 255.051C62.2232 255.431 61.062 255.473 59.9744 255.172C58.8867 254.87 57.9312 254.242 57.2514 253.38C56.5715 252.519 56.204 251.471 56.204 250.395C56.204 249.318 56.5715 248.27 57.2514 247.409C57.9312 246.548 58.8867 245.919 59.9744 245.618C61.062 245.316 62.2232 245.359 63.2835 245.738C64.3438 246.117 65.246 246.813 65.8547 247.721H70.8377L77.577 241.316H123.662L139.981 256.827H173.911C174.423 255.998 175.155 255.311 176.034 254.836C176.913 254.36 177.908 254.112 178.92 254.117C179.931 254.122 180.923 254.38 181.797 254.864C182.671 255.348 183.396 256.042 183.898 256.876C184.401 257.71 184.665 258.655 184.663 259.616C184.66 260.578 184.392 261.521 183.886 262.353C183.379 263.185 182.651 263.876 181.775 264.356C180.899 264.837 179.905 265.09 178.894 265.091V265.091H178.884Z"
    fill="#0A3B5B"
  />
<path
    d="M225.05 187.521C224.201 187.415 223.387 187.13 222.669 186.688C221.95 186.245 221.345 185.655 220.897 184.962C220.448 184.268 220.169 183.488 220.078 182.679C219.987 181.87 220.087 181.052 220.371 180.284L195.799 156.93V114.958L213.071 98.5478V84.8694C212.115 84.2909 211.383 83.4334 210.984 82.4257C210.585 81.4179 210.54 80.3144 210.857 79.2806C211.174 78.2469 211.836 77.3388 212.742 76.6927C213.648 76.0466 214.75 75.6973 215.883 75.6973C217.016 75.6973 218.119 76.0466 219.025 76.6927C219.931 77.3388 220.592 78.2469 220.909 79.2806C221.226 80.3144 221.182 81.4179 220.783 82.4257C220.384 83.4334 219.652 84.2909 218.696 84.8694V100.769L201.424 117.179V154.723L224.569 176.724C225.917 176.438 227.328 176.62 228.546 177.237C229.765 177.854 230.711 178.865 231.212 180.088C231.714 181.311 231.738 182.663 231.281 183.902C230.824 185.14 229.915 186.182 228.719 186.838L225.05 188.865V187.521Z"
    fill="#0A3B5B"
  />
<path
    d="M467.548 344.751C466.768 344.748 465.998 344.58 465.295 344.258C464.592 343.937 463.974 343.47 463.486 342.892C462.997 342.314 462.651 341.64 462.471 340.918C462.292 340.197 462.285 339.446 462.45 338.722L448.096 325.088H372.503L356.108 309.506C355.362 309.709 354.581 309.767 353.811 309.676C353.042 309.585 352.299 309.347 351.629 308.976C350.304 308.246 349.338 307.045 348.944 305.637C348.551 304.23 348.761 302.732 349.53 301.472C350.299 300.213 351.563 299.295 353.043 298.921C354.524 298.547 356.101 298.747 357.426 299.477C358.539 300.088 359.405 301.034 359.888 302.165C360.371 303.297 360.442 304.549 360.091 305.724L374.845 319.746H450.433L466.439 334.954C466.81 334.872 467.19 334.831 467.571 334.832C468.255 334.83 468.932 334.957 469.563 335.205C470.195 335.454 470.768 335.819 471.25 336.279C471.979 336.975 472.475 337.86 472.675 338.823C472.876 339.786 472.772 340.784 472.378 341.691C471.983 342.598 471.314 343.374 470.457 343.921C469.599 344.468 468.59 344.762 467.557 344.765L467.548 344.751Z"
    fill="#0A3B5B"
  />
<path
    d="M297.211 178.533C296.388 178.534 295.575 178.368 294.825 178.047C294.076 177.725 293.407 177.255 292.863 176.668C292.32 176.081 291.915 175.391 291.675 174.643C291.435 173.895 291.366 173.107 291.473 172.332C291.579 171.557 291.858 170.812 292.292 170.148C292.725 169.484 293.303 168.915 293.986 168.48C294.669 168.045 295.443 167.753 296.254 167.625C297.065 167.496 297.896 167.534 298.691 167.736C298.773 167.754 298.854 167.777 298.934 167.804L319.227 148.512V114.587L341.463 93.4542C341.264 92.6093 341.301 91.7297 341.569 90.9024C341.838 90.0751 342.328 89.3286 342.993 88.7368C343.658 88.1449 344.474 87.7282 345.36 87.5278C346.246 87.3273 347.172 87.3501 348.046 87.5939C348.92 87.8377 349.712 88.294 350.344 88.9178C350.976 89.5415 351.425 90.3112 351.648 91.1506C351.871 91.99 351.86 92.8702 351.615 93.7042C351.371 94.5381 350.901 95.297 350.254 95.9058C349.635 96.4975 348.869 96.9299 348.026 97.1626C347.184 97.3952 346.293 97.4204 345.437 97.2357L324.877 116.803V150.728L302.822 171.689C303.072 172.594 303.072 173.544 302.822 174.448C302.495 175.624 301.767 176.663 300.751 177.402C299.735 178.141 298.49 178.539 297.211 178.533V178.533Z"
    fill="#0A3B5B"
  />
<path
    d="M272.853 175.543C271.558 175.548 270.299 175.138 269.279 174.38C268.259 173.621 267.538 172.559 267.23 171.364C266.922 170.169 267.047 168.91 267.583 167.79C268.12 166.67 269.037 165.754 270.187 165.19V128.886L292.742 107.45V82.1193L296.516 78.5323C296.317 77.6874 296.354 76.8079 296.622 75.9805C296.89 75.1532 297.381 74.4067 298.046 73.8149C298.711 73.223 299.527 72.8063 300.413 72.6059C301.299 72.4054 302.225 72.4282 303.099 72.672C303.973 72.9158 304.765 73.3721 305.397 73.9959C306.029 74.6197 306.478 75.3893 306.701 76.2287C306.924 77.0681 306.913 77.9483 306.668 78.7823C306.423 79.6163 305.954 80.3751 305.306 80.9839C304.824 81.4442 304.251 81.8091 303.619 82.0575C302.988 82.306 302.311 82.4331 301.627 82.4314C301.245 82.4308 300.864 82.3914 300.49 82.3138L298.367 84.3357V109.666L275.813 131.098V165.339C276.897 165.955 277.739 166.892 278.21 168.006C278.681 169.12 278.754 170.35 278.42 171.507C278.085 172.665 277.36 173.686 276.356 174.415C275.353 175.144 274.125 175.541 272.862 175.543V175.543H272.853Z"
    fill="#0A3B5B"
  />
<path
    d="M225.407 434.376C224.282 434.367 223.19 434.014 222.292 433.37C221.395 432.725 220.74 431.822 220.424 430.796C220.108 429.77 220.149 428.674 220.54 427.672C220.931 426.669 221.651 425.813 222.594 425.23V401.93L245.915 379.766V350.744C244.793 350.157 243.909 349.232 243.4 348.115C242.891 346.998 242.786 345.752 243.103 344.573C243.42 343.394 244.139 342.347 245.149 341.599C246.158 340.85 247.401 340.441 248.682 340.436C249.962 340.43 251.209 340.83 252.225 341.57C253.241 342.311 253.97 343.351 254.297 344.528C254.624 345.705 254.531 346.951 254.032 348.072C253.533 349.193 252.657 350.125 251.54 350.722V382.005L228.22 404.142V425.23C229.163 425.813 229.883 426.669 230.274 427.672C230.665 428.674 230.705 429.77 230.39 430.796C230.074 431.822 229.419 432.725 228.521 433.37C227.624 434.014 226.532 434.367 225.407 434.376V434.376Z"
    fill="#0A3B5B"
  />
<path
    d="M486.018 283.613C485.143 283.611 484.282 283.399 483.514 282.999C482.747 282.598 482.098 282.021 481.626 281.32H443.66L423.514 262.173H372.147C371.525 263.234 370.55 264.07 369.375 264.547C368.2 265.025 366.891 265.118 365.654 264.812C364.417 264.506 363.322 263.819 362.541 262.857C361.759 261.895 361.337 260.715 361.338 259.5V259.31C361.335 258.076 361.77 256.876 362.573 255.906C363.377 254.936 364.501 254.252 365.764 253.965C367.027 253.678 368.355 253.804 369.533 254.323C370.712 254.843 371.671 255.725 372.256 256.827H425.846L445.988 275.974H481.626C482.113 275.242 482.794 274.645 483.599 274.24C484.404 273.835 485.306 273.637 486.217 273.665C487.128 273.693 488.015 273.946 488.79 274.4C489.566 274.854 490.204 275.492 490.641 276.252C491.078 277.012 491.299 277.867 491.281 278.732C491.264 279.598 491.009 280.444 490.543 281.188C490.076 281.931 489.413 282.546 488.619 282.971C487.826 283.397 486.929 283.618 486.018 283.613V283.613Z"
    fill="#0A3B5B"
  />
<path
    d="M310.561 431.838C309.437 431.828 308.347 431.475 307.451 430.83C306.555 430.186 305.901 429.284 305.585 428.259C305.27 427.234 305.31 426.14 305.699 425.138C306.089 424.136 306.807 423.28 307.748 422.696V399.044L321.136 386.32V372.298L298.962 351.224H298.91C298.417 351.344 297.91 351.406 297.401 351.409C296.386 351.41 295.389 351.157 294.51 350.674C293.631 350.192 292.901 349.498 292.395 348.662C291.888 347.826 291.622 346.878 291.624 345.914C291.625 344.949 291.894 344.002 292.404 343.168C292.781 342.541 293.286 341.993 293.889 341.554C294.492 341.115 295.181 340.795 295.916 340.612C296.402 340.488 296.903 340.425 297.406 340.427C298.301 340.425 299.184 340.622 299.986 341.001C300.787 341.381 301.484 341.932 302.022 342.612C302.56 343.292 302.924 344.082 303.086 344.918C303.247 345.755 303.2 346.616 302.951 347.433L326.747 370.05V388.523L313.359 401.247V422.683C314.3 423.267 315.018 424.123 315.408 425.125C315.797 426.126 315.837 427.221 315.522 428.246C315.207 429.271 314.553 430.172 313.657 430.816C312.761 431.461 311.67 431.814 310.547 431.824L310.561 431.838Z"
    fill="#0A3B5B"
  />
<path
    d="M363.903 241.656C362.884 241.659 361.881 241.405 360.998 240.92C360.115 240.435 359.383 239.737 358.876 238.896C358.369 238.056 358.105 237.102 358.11 236.133C358.116 235.164 358.392 234.213 358.909 233.378C359.427 232.543 360.168 231.853 361.057 231.378C361.945 230.903 362.951 230.66 363.97 230.674C364.99 230.688 365.988 230.958 366.862 231.457C367.736 231.956 368.456 232.665 368.948 233.514H424.885L469.527 191.086H527.591C528.2 190.177 529.102 189.481 530.162 189.102C531.223 188.723 532.384 188.681 533.472 188.982C534.559 189.283 535.515 189.912 536.195 190.773C536.874 191.634 537.242 192.682 537.242 193.759C537.242 194.836 536.874 195.883 536.195 196.745C535.515 197.606 534.559 198.234 533.472 198.536C532.384 198.837 531.223 198.795 530.162 198.416C529.102 198.036 528.2 197.34 527.591 196.432H471.859L427.217 238.861H368.929C368.556 239.504 368.048 240.069 367.438 240.521C366.828 240.973 366.127 241.302 365.379 241.489C364.897 241.606 364.401 241.663 363.903 241.656V241.656Z"
    fill="#0A3B5B"
  />
<path
    d="M499.887 336.116C499.106 336.117 498.335 335.951 497.63 335.63C496.926 335.31 496.306 334.843 495.817 334.264C495.329 333.685 494.983 333.009 494.806 332.286C494.629 331.563 494.625 330.811 494.795 330.087L471.417 307.868H436.974L413.248 285.32H368.986C368.485 286.172 367.753 286.883 366.866 287.377C365.979 287.872 364.97 288.133 363.942 288.133C363.447 288.133 362.955 288.073 362.476 287.957C361.727 287.786 361.021 287.474 360.401 287.04C359.78 286.606 359.257 286.059 358.863 285.43C358.468 284.801 358.21 284.104 358.103 283.379C357.996 282.653 358.043 281.915 358.241 281.208C358.439 280.5 358.783 279.837 359.255 279.258C359.726 278.679 360.314 278.195 360.985 277.835C361.656 277.475 362.395 277.247 363.161 277.162C363.926 277.078 364.701 277.14 365.441 277.345C366.188 277.532 366.888 277.862 367.497 278.313C368.107 278.765 368.613 279.33 368.986 279.973H415.58L439.306 302.522H473.749L498.774 326.305C499.147 326.224 499.528 326.183 499.911 326.183C501.3 326.183 502.631 326.707 503.613 327.64C504.595 328.574 505.146 329.839 505.146 331.159C505.146 332.478 504.595 333.744 503.613 334.677C502.631 335.61 501.3 336.134 499.911 336.134L499.887 336.116Z"
    fill="#0A3B5B"
  />
<path
    d="M474.001 369.647C473.125 369.644 472.264 369.432 471.497 369.031C470.729 368.629 470.08 368.051 469.608 367.349H412.363L397.652 353.368H367.606L340.954 328.037C340.487 328.151 340.008 328.207 339.526 328.205C338.306 328.208 337.117 327.845 336.127 327.168C335.137 326.49 334.399 325.532 334.016 324.431C333.634 323.331 333.628 322.143 333.998 321.039C334.369 319.934 335.098 318.969 336.08 318.282C337.062 317.595 338.248 317.221 339.468 317.213C340.688 317.205 341.879 317.564 342.871 318.238C343.863 318.912 344.606 319.868 344.992 320.967C345.379 322.067 345.389 323.254 345.023 324.36L369.9 348.003H399.941L414.657 361.985H469.608C470.097 361.254 470.777 360.657 471.583 360.253C472.388 359.849 473.29 359.652 474.2 359.681C475.11 359.709 475.997 359.963 476.772 360.417C477.548 360.871 478.185 361.509 478.622 362.269C479.058 363.028 479.279 363.883 479.261 364.748C479.244 365.613 478.989 366.459 478.523 367.203C478.056 367.946 477.394 368.561 476.601 368.986C475.808 369.412 474.912 369.633 474.001 369.629V369.647Z"
    fill="#0A3B5B"
  />
<path
    d="M379.338 424.433C378.556 424.434 377.785 424.268 377.08 423.947C376.375 423.626 375.755 423.159 375.266 422.58C374.777 422 374.431 421.324 374.255 420.6C374.078 419.876 374.075 419.124 374.245 418.399L353.433 398.628V372.434L321.664 342.241C321.151 342.382 320.619 342.453 320.084 342.453C319.07 342.454 318.074 342.202 317.195 341.721C316.316 341.24 315.586 340.547 315.078 339.713C314.57 338.879 314.302 337.933 314.301 336.969C314.299 336.006 314.565 335.058 315.071 334.223C315.576 333.388 316.304 332.694 317.182 332.211C318.059 331.728 319.055 331.472 320.069 331.471C321.083 331.469 322.079 331.721 322.958 332.201C323.838 332.682 324.568 333.374 325.077 334.207C325.47 334.842 325.723 335.547 325.82 336.278C325.918 337.009 325.857 337.751 325.643 338.459L359.058 370.217V396.416L378.21 414.618C378.582 414.54 378.962 414.501 379.343 414.5C380.027 414.499 380.704 414.626 381.337 414.874C381.969 415.122 382.543 415.487 383.026 415.948C383.755 416.644 384.251 417.529 384.452 418.493C384.652 419.456 384.548 420.454 384.153 421.362C383.757 422.269 383.088 423.045 382.23 423.592C381.371 424.138 380.362 424.431 379.328 424.433H379.338Z"
    fill="#0A3B5B"
  />
<path
    d="M268.955 437.297C267.566 437.297 266.235 436.773 265.253 435.84C264.271 434.907 263.719 433.641 263.719 432.321C263.719 431.002 264.271 429.736 265.253 428.803C266.235 427.87 267.566 427.346 268.955 427.346C269.336 427.346 269.715 427.386 270.087 427.463L284.77 413.514V396.918L270.202 383.072V353.67C269.092 353.067 268.225 352.131 267.736 351.008C267.247 349.886 267.164 348.641 267.499 347.469C267.834 346.297 268.569 345.264 269.589 344.531C270.609 343.799 271.855 343.409 273.133 343.422C274.411 343.436 275.649 343.852 276.651 344.605C277.653 345.359 278.365 346.407 278.673 347.586C278.981 348.765 278.869 350.008 278.354 351.119C277.839 352.231 276.95 353.149 275.827 353.729V380.846L290.396 394.692V415.712L274.066 431.236C274.231 431.96 274.224 432.711 274.045 433.432C273.866 434.154 273.519 434.828 273.031 435.406C272.542 435.984 271.924 436.451 271.221 436.773C270.518 437.094 269.749 437.263 268.969 437.265L268.955 437.297Z"
    fill="#0A3B5B"
  />
<path
    d="M118.859 404.214C117.471 404.214 116.139 403.69 115.158 402.757C114.176 401.824 113.624 400.558 113.624 399.238C113.624 397.919 114.176 396.653 115.158 395.72C116.139 394.787 117.471 394.263 118.859 394.263C119.24 394.263 119.62 394.303 119.992 394.38L136.074 379.096H158.776L179.427 359.465V345.022L201.015 324.504C200.62 323.355 200.637 322.114 201.063 320.975C201.49 319.837 202.301 318.864 203.371 318.211C204.441 317.557 205.709 317.259 206.976 317.363C208.243 317.467 209.438 317.968 210.374 318.787C211.31 319.606 211.933 320.696 212.147 321.888C212.361 323.079 212.153 324.305 211.556 325.372C210.959 326.439 210.007 327.288 208.847 327.786C207.688 328.284 206.388 328.403 205.151 328.123L185.052 347.252V361.7L161.089 384.474H138.392L123.957 398.193C124.123 398.918 124.116 399.669 123.937 400.391C123.759 401.114 123.412 401.788 122.924 402.367C122.435 402.945 121.816 403.413 121.113 403.735C120.41 404.057 119.64 404.225 118.859 404.228V404.214Z"
    fill="#0A3B5B"
  />
<path
    d="M92.7974 367.105C91.4089 367.105 90.0773 366.58 89.0955 365.647C88.1137 364.714 87.5621 363.449 87.5621 362.129C87.5621 360.809 88.1137 359.544 89.0955 358.611C90.0773 357.678 91.4089 357.153 92.7974 357.153C93.1802 357.153 93.5618 357.194 93.9349 357.276L124.247 328.467H162.108L185.976 305.782C185.731 304.966 185.69 304.107 185.854 303.273C186.017 302.438 186.383 301.652 186.92 300.974C187.458 300.297 188.154 299.747 188.953 299.368C189.752 298.988 190.632 298.791 191.525 298.789C192.297 298.768 193.066 298.895 193.787 299.161C194.507 299.427 195.163 299.828 195.717 300.34C196.272 300.852 196.712 301.464 197.013 302.141C197.314 302.817 197.469 303.544 197.469 304.278C197.469 305.013 197.314 305.74 197.013 306.416C196.712 307.093 196.272 307.705 195.717 308.217C195.163 308.728 194.507 309.129 193.787 309.396C193.066 309.662 192.297 309.788 191.525 309.767C190.992 309.767 190.462 309.696 189.95 309.555L164.43 333.813H126.555L97.8899 361.057C98.055 361.781 98.0479 362.531 97.8691 363.252C97.6902 363.974 97.3441 364.648 96.8561 365.226C96.3681 365.803 95.7504 366.27 95.0482 366.592C94.346 366.914 93.577 367.083 92.7974 367.087V367.105Z"
    fill="#0A3B5B"
  />
<path
    d="M92.9211 312.698L76.192 296.799H52.7856C52.1769 297.707 51.2747 298.403 50.2144 298.782C49.1541 299.162 47.9929 299.204 46.9053 298.903C45.8176 298.601 44.8621 297.973 44.1822 297.112C43.5024 296.25 43.1349 295.203 43.1349 294.126C43.1349 293.049 43.5024 292.001 44.1822 291.14C44.8621 290.279 45.8176 289.65 46.9053 289.349C47.9929 289.048 49.1541 289.09 50.2144 289.469C51.2747 289.848 52.1769 290.544 52.7856 291.453H78.5193L95.2532 307.352H114.99L143.698 280.067H177.047C177.511 279.275 178.174 278.604 178.978 278.114C179.781 277.624 180.699 277.331 181.651 277.261C182.602 277.192 183.557 277.347 184.43 277.713C185.303 278.079 186.067 278.645 186.654 279.361C187.24 280.076 187.632 280.919 187.792 281.813C187.953 282.707 187.878 283.625 187.574 284.484C187.27 285.344 186.747 286.119 186.051 286.74C185.355 287.361 184.509 287.808 183.586 288.042C183.1 288.169 182.597 288.232 182.092 288.232C181.064 288.231 180.055 287.969 179.169 287.474C178.283 286.978 177.552 286.267 177.052 285.414H146.031L117.322 312.698H92.9211Z"
    fill="#0A3B5B"
  />
<path
    d="M182.04 241.936C181.545 241.935 181.053 241.876 180.574 241.76C179.838 241.576 179.148 241.256 178.543 240.818C177.938 240.38 177.43 239.833 177.047 239.208C176.665 238.584 176.416 237.893 176.315 237.177C176.213 236.461 176.262 235.732 176.457 235.034C176.454 235.008 176.454 234.982 176.457 234.957L147.73 207.659H83.2216L52.4954 178.452C52.1221 178.532 51.7405 178.571 51.3579 178.569V178.569C50.4952 178.571 49.6457 178.369 48.8847 177.983C48.1237 177.597 47.4749 177.038 46.996 176.356C46.5171 175.674 46.2228 174.891 46.1395 174.075C46.0561 173.259 46.1862 172.436 46.5182 171.679C46.8502 170.922 47.3738 170.255 48.0424 169.737C48.7111 169.219 49.504 168.866 50.3508 168.71C51.1976 168.553 52.0719 168.598 52.8961 168.84C53.7203 169.082 54.4687 169.514 55.0749 170.097C55.6877 170.69 56.1346 171.419 56.3748 172.217C56.6151 173.016 56.641 173.86 56.4504 174.67L85.5347 202.312H150.066L180.436 231.171C181.417 230.903 182.455 230.888 183.445 231.126C184.435 231.364 185.34 231.847 186.069 232.526C186.798 233.205 187.325 234.056 187.595 234.992C187.865 235.927 187.87 236.914 187.608 237.852L187.132 239.584H186.756C186.227 240.308 185.522 240.9 184.701 241.309C183.88 241.719 182.967 241.934 182.04 241.936Z"
    fill="#0A3B5B"
  />
<path
    d="M191.415 220.356C190.522 220.354 189.642 220.156 188.843 219.777C188.044 219.398 187.348 218.848 186.81 218.171C186.272 217.493 185.906 216.707 185.742 215.873C185.577 215.038 185.618 214.179 185.861 213.363L146.007 175.48V154.107L115.033 124.674C114.661 124.752 114.281 124.791 113.9 124.792V124.792C113.219 124.793 112.544 124.665 111.914 124.418C111.285 124.17 110.713 123.807 110.231 123.349C109.583 122.74 109.114 121.982 108.869 121.148C108.624 120.314 108.612 119.434 108.835 118.595C109.057 117.755 109.507 116.986 110.138 116.362C110.769 115.738 111.561 115.281 112.435 115.037C113.309 114.793 114.234 114.77 115.121 114.969C116.007 115.169 116.823 115.586 117.488 116.177C118.153 116.768 118.644 117.514 118.913 118.341C119.182 119.169 119.219 120.048 119.021 120.893L151.637 151.877V173.259L189.859 209.586C190.372 209.449 190.902 209.379 191.435 209.378C192.938 209.419 194.365 210.015 195.412 211.04C196.46 212.065 197.047 213.438 197.047 214.867C197.047 216.296 196.46 217.669 195.412 218.693C194.365 219.718 192.938 220.315 191.435 220.356H191.415Z"
    fill="#0A3B5B"
  />
<path
    d="M206.369 201.819C205.457 201.821 204.556 201.617 203.743 201.224C202.929 200.831 202.226 200.26 201.69 199.557C201.154 198.855 200.801 198.042 200.661 197.185C200.521 196.328 200.596 195.451 200.882 194.627L181.668 176.367V145.608L157.272 122.422V97.4172C156.317 96.8387 155.584 95.9812 155.185 94.9735C154.786 93.9658 154.742 92.8622 155.059 91.8285C155.376 90.7948 156.037 89.8867 156.943 89.2405C157.85 88.5944 158.952 88.2451 160.085 88.2451C161.218 88.2451 162.32 88.5944 163.226 89.2405C164.133 89.8867 164.794 90.7948 165.111 91.8285C165.428 92.8622 165.384 93.9658 164.985 94.9735C164.585 95.9812 163.853 96.8387 162.898 97.4172V120.183L187.294 143.365V174.123L205.018 190.968C205.464 190.868 205.921 190.818 206.379 190.819C207.91 190.819 209.378 191.397 210.461 192.426C211.544 193.455 212.152 194.85 212.152 196.306C212.152 197.761 211.544 199.156 210.461 200.185C209.378 201.214 207.91 201.792 206.379 201.792L206.369 201.819Z"
    fill="#0A3B5B"
  />
<path
    d="M248.494 178.605C247.184 178.607 245.911 178.185 244.886 177.409C243.86 176.633 243.143 175.548 242.852 174.334C242.561 173.119 242.713 171.846 243.283 170.725C243.854 169.603 244.809 168.699 245.991 168.161V148.182L229.371 132.395V115.139C228.416 114.56 227.683 113.703 227.284 112.695C226.885 111.687 226.841 110.584 227.158 109.55C227.475 108.516 228.136 107.608 229.042 106.962C229.949 106.316 231.051 105.967 232.184 105.967C233.317 105.967 234.419 106.316 235.326 106.962C236.232 107.608 236.893 108.516 237.21 109.55C237.527 110.584 237.483 111.687 237.084 112.695C236.685 113.703 235.952 114.56 234.997 115.139V130.17L251.616 145.965V168.491C252.559 169.065 253.305 169.888 253.764 170.858C254.224 171.828 254.376 172.904 254.204 173.955C254.031 175.006 253.541 175.987 252.793 176.778C252.044 177.569 251.07 178.136 249.989 178.411C249.502 178.539 248.999 178.604 248.494 178.605V178.605Z"
    fill="#0A3B5B"
  />
<path
    d="M319.917 187.43C318.385 187.43 316.915 186.852 315.832 185.822C314.748 184.792 314.14 183.396 314.14 181.939C314.14 180.483 314.748 179.086 315.832 178.056C316.915 177.026 318.385 176.448 319.917 176.448C320.565 176.447 321.208 176.548 321.821 176.746L340.345 159.142H380.161L418.236 122.955C418.038 122.111 418.075 121.232 418.344 120.405C418.612 119.578 419.103 118.832 419.768 118.241C420.433 117.649 421.248 117.233 422.134 117.033C423.02 116.832 423.945 116.855 424.819 117.099C425.693 117.342 426.485 117.798 427.116 118.421C427.748 119.045 428.198 119.814 428.421 120.653C428.644 121.492 428.634 122.371 428.39 123.205C428.146 124.039 427.678 124.798 427.031 125.407C426.548 125.868 425.974 126.233 425.342 126.481C424.71 126.73 424.032 126.857 423.347 126.854C422.966 126.854 422.587 126.814 422.215 126.737L382.465 164.511H342.648L325.543 180.768C325.733 181.57 325.73 182.403 325.536 183.205C325.341 184.007 324.958 184.756 324.417 185.398C323.876 186.041 323.19 186.559 322.409 186.914C321.628 187.27 320.774 187.454 319.908 187.453L319.917 187.43Z"
    fill="#0A3B5B"
  />
<path
    d="M339.431 201.625C338.591 201.629 337.76 201.46 336.996 201.128C336.232 200.796 335.553 200.309 335.007 199.703C334.461 199.096 334.061 198.383 333.834 197.614C333.608 196.845 333.561 196.039 333.696 195.251C333.831 194.463 334.145 193.712 334.617 193.051C335.088 192.391 335.706 191.835 336.426 191.425C337.147 191.014 337.953 190.758 338.788 190.673C339.623 190.589 340.468 190.679 341.263 190.936L361.414 171.785H400.55L425.841 147.775H448.534C449.142 146.867 450.045 146.171 451.105 145.792C452.165 145.412 453.327 145.37 454.414 145.671C455.502 145.973 456.457 146.601 457.137 147.463C457.817 148.324 458.185 149.372 458.185 150.448C458.185 151.525 457.817 152.573 457.137 153.434C456.457 154.295 455.502 154.924 454.414 155.225C453.327 155.526 452.165 155.484 451.105 155.105C450.045 154.726 449.142 154.03 448.534 153.122H428.154L402.873 177.149H363.727L345.037 194.917C345.234 195.721 345.236 196.557 345.045 197.363C344.854 198.168 344.475 198.922 343.934 199.569C343.394 200.215 342.707 200.738 341.925 201.097C341.143 201.456 340.285 201.643 339.417 201.643L339.431 201.625Z"
    fill="#0A3B5B"
  />
<path
    d="M354.428 220.112C353.542 220.111 352.669 219.917 351.875 219.544C351.081 219.172 350.387 218.631 349.848 217.964C349.308 217.296 348.937 216.52 348.764 215.695C348.59 214.87 348.617 214.018 348.845 213.205C349.176 212.038 349.902 211.007 350.911 210.271C351.92 209.535 353.156 209.136 354.428 209.134C355.436 209.135 356.427 209.386 357.302 209.862C358.178 210.338 358.908 211.022 359.42 211.848L359.477 211.943H392.402L431.476 174.806H487.637L501.153 161.96C500.954 161.115 500.991 160.236 501.259 159.408C501.527 158.581 502.018 157.834 502.683 157.243C503.348 156.651 504.164 156.234 505.05 156.034C505.936 155.833 506.862 155.856 507.736 156.1C508.61 156.344 509.402 156.8 510.034 157.424C510.666 158.047 511.115 158.817 511.338 159.656C511.561 160.496 511.55 161.376 511.305 162.21C511.06 163.044 510.591 163.803 509.943 164.412C509.462 164.873 508.889 165.238 508.257 165.487C507.625 165.735 506.948 165.862 506.265 165.859C505.882 165.859 505.501 165.819 505.127 165.742L489.964 180.153H433.804L394.73 217.289H359.472C358.97 218.153 358.23 218.871 357.331 219.365C356.448 219.85 355.447 220.108 354.428 220.112V220.112Z"
    fill="#0A3B5B"
  />
<path
    d="M224.326 339.758C225.092 340.177 226.001 340.29 226.855 340.072C227.708 339.854 228.435 339.323 228.876 338.595C229.18 338.096 229.335 337.529 229.324 336.953C229.313 336.377 229.137 335.814 228.815 335.326C228.493 334.838 228.037 334.443 227.496 334.183C226.955 333.923 226.35 333.809 225.745 333.852C225.141 333.894 224.56 334.093 224.066 334.426C223.571 334.76 223.182 335.215 222.939 335.743C222.697 336.271 222.611 336.852 222.69 337.423C222.769 337.994 223.011 338.534 223.389 338.984L203.214 358.158V380.752L168.152 414.075H146.959C146.864 413.41 146.508 412.804 145.961 412.379C145.414 411.954 144.718 411.743 144.013 411.788C143.309 411.833 142.648 412.13 142.166 412.621C141.683 413.111 141.415 413.757 141.415 414.428C141.415 415.099 141.683 415.745 142.166 416.236C142.648 416.726 143.309 417.023 144.013 417.068C144.718 417.113 145.414 416.902 145.961 416.477C146.508 416.052 146.864 415.446 146.959 414.781H168.461L203.957 381.042V358.425L223.917 339.454C224.046 339.565 224.182 339.666 224.326 339.758Z"
    fill="#27AAE1"
  />
<path
    d="M178.875 256.429C178.077 256.433 177.307 256.71 176.705 257.208C176.103 257.706 175.709 258.393 175.595 259.143H138.949L122.629 243.633H78.5908L71.8468 250.038H64.2318C64.1377 249.371 63.7805 248.764 63.2328 248.338C62.685 247.913 61.9875 247.701 61.2816 247.746C60.5757 247.791 59.9142 248.089 59.4309 248.58C58.9476 249.071 58.6787 249.718 58.6787 250.391C58.6787 251.063 58.9476 251.71 59.4309 252.201C59.9142 252.692 60.5757 252.991 61.2816 253.035C61.9875 253.08 62.685 252.868 63.2328 252.443C63.7805 252.017 64.1377 251.41 64.2318 250.743H72.1561L78.8953 244.338H122.343L138.663 259.849H175.576C175.629 260.463 175.869 261.049 176.268 261.535C176.666 262.022 177.204 262.387 177.818 262.587C178.431 262.786 179.092 262.811 179.721 262.659C180.349 262.507 180.916 262.183 181.354 261.729C181.792 261.274 182.081 260.708 182.185 260.1C182.289 259.492 182.205 258.868 181.941 258.305C181.678 257.742 181.248 257.264 180.703 256.93C180.158 256.596 179.523 256.421 178.875 256.425V256.429Z"
    fill="#27AAE1"
  />
<path
    d="M222.932 183.672C223.225 184.153 223.647 184.552 224.154 184.829C224.661 185.106 225.236 185.251 225.821 185.25C226.41 185.245 226.987 185.089 227.491 184.798V184.798C227.87 184.59 228.203 184.313 228.469 183.983C228.736 183.653 228.931 183.277 229.045 182.875C229.158 182.473 229.187 182.054 229.13 181.642C229.073 181.229 228.931 180.832 228.712 180.472C228.493 180.111 228.202 179.795 227.855 179.542C227.508 179.289 227.112 179.103 226.689 178.995C226.266 178.888 225.825 178.86 225.391 178.914C224.957 178.969 224.539 179.103 224.16 179.311C224.103 179.343 224.06 179.384 224.003 179.415L199.002 155.654V116.211L216.269 99.8008V83.3044C216.97 83.2154 217.61 82.8764 218.058 82.3559C218.506 81.8354 218.73 81.1725 218.683 80.5014C218.636 79.8302 218.322 79.2012 217.806 78.7416C217.289 78.282 216.608 78.0264 215.9 78.0264C215.192 78.0264 214.511 78.282 213.994 78.7416C213.478 79.2012 213.164 79.8302 213.117 80.5014C213.07 81.1725 213.294 81.8354 213.742 82.3559C214.19 82.8764 214.83 83.2154 215.531 83.3044V99.5068L198.259 115.922V155.976L223.436 179.904C222.935 180.396 222.615 181.029 222.524 181.708C222.433 182.387 222.576 183.076 222.932 183.672Z"
    fill="#27AAE1"
  />
<path
    d="M356.198 301.477C355.819 301.269 355.401 301.134 354.967 301.08C354.533 301.026 354.092 301.053 353.669 301.161C353.246 301.269 352.85 301.454 352.503 301.708C352.156 301.961 351.865 302.277 351.646 302.637C351.427 302.997 351.285 303.395 351.228 303.807C351.171 304.22 351.2 304.639 351.313 305.041C351.427 305.442 351.622 305.819 351.889 306.149C352.155 306.479 352.488 306.756 352.867 306.964C353.371 307.243 353.944 307.39 354.528 307.389C355.286 307.389 356.021 307.143 356.612 306.692L373.517 322.754H449.096L465.339 338.206C464.91 338.74 464.71 339.41 464.781 340.079C464.851 340.748 465.187 341.367 465.719 341.81C466.252 342.253 466.941 342.486 467.648 342.464C468.356 342.442 469.027 342.165 469.528 341.689C470.028 341.214 470.32 340.575 470.343 339.903C470.367 339.231 470.12 338.575 469.655 338.069C469.189 337.563 468.538 337.244 467.834 337.177C467.13 337.11 466.425 337.3 465.863 337.708L449.415 322.076H373.822L357.136 306.217C357.239 306.092 357.332 305.961 357.416 305.824C357.639 305.463 357.784 305.063 357.843 304.649C357.902 304.234 357.874 303.813 357.761 303.409C357.647 303.005 357.451 302.626 357.183 302.294C356.915 301.963 356.58 301.685 356.198 301.477V301.477Z"
    fill="#27AAE1"
  />
<path
    d="M296.349 176.1C297.014 176.265 297.716 176.23 298.36 176.001C299.003 175.772 299.556 175.36 299.943 174.821C300.33 174.281 300.533 173.641 300.522 172.988C300.512 172.336 300.29 171.702 299.886 171.174L322.411 149.76V115.836L344.876 94.4857C345.437 94.8931 346.14 95.0824 346.843 95.0154C347.546 94.9483 348.196 94.63 348.661 94.1247C349.126 93.6195 349.371 92.9652 349.348 92.2943C349.324 91.6234 349.033 90.986 348.534 90.5114C348.034 90.0367 347.364 89.7602 346.658 89.7378C345.952 89.7154 345.263 89.9489 344.732 90.3909C344.2 90.8328 343.865 91.4503 343.795 92.1182C343.724 92.7862 343.923 93.4546 344.352 93.9882L321.669 115.542V149.466L299.386 170.649C298.96 170.296 298.446 170.052 297.893 169.939C297.341 169.827 296.767 169.85 296.226 170.007C295.685 170.163 295.195 170.448 294.802 170.834C294.409 171.22 294.126 171.695 293.979 172.214C293.865 172.617 293.836 173.038 293.893 173.451C293.951 173.865 294.094 174.264 294.314 174.625C294.534 174.986 294.828 175.303 295.177 175.556C295.526 175.809 295.925 175.993 296.349 176.1V176.1Z"
    fill="#27AAE1"
  />
<path
    d="M272.853 173.223C273.689 173.22 274.493 172.918 275.106 172.377C275.719 171.836 276.095 171.096 276.16 170.304C276.226 169.512 275.975 168.725 275.458 168.1C274.942 167.475 274.197 167.058 273.371 166.931V130.134L295.921 108.698V83.3676L299.928 79.559C300.49 79.9663 301.193 80.1556 301.896 80.0886C302.599 80.0216 303.248 79.7032 303.713 79.198C304.178 78.6927 304.424 78.0384 304.4 77.3675C304.377 76.6966 304.086 76.0593 303.586 75.5846C303.087 75.1099 302.416 74.8334 301.711 74.811C301.005 74.7887 300.316 75.0221 299.785 75.4641C299.253 75.9061 298.918 76.5236 298.847 77.1915C298.777 77.8594 298.976 78.5278 299.405 79.0614L295.183 83.0781V108.409L272.629 129.84V166.899C272.191 166.913 271.761 167.009 271.363 167.181C270.964 167.353 270.605 167.598 270.306 167.902C270.007 168.206 269.774 168.563 269.62 168.952C269.466 169.342 269.395 169.756 269.409 170.172C269.424 170.588 269.525 170.997 269.706 171.375C269.887 171.754 270.144 172.095 270.464 172.38C270.784 172.664 271.159 172.885 271.569 173.032C271.979 173.178 272.415 173.246 272.853 173.232V173.223Z"
    fill="#27AAE1"
  />
<path
    d="M249.551 342.879C249.128 342.771 248.687 342.744 248.253 342.799C247.82 342.854 247.401 342.989 247.023 343.197C246.644 343.406 246.312 343.683 246.046 344.013C245.78 344.343 245.585 344.72 245.472 345.122C245.359 345.524 245.331 345.943 245.388 346.355C245.446 346.768 245.589 347.165 245.808 347.525C246.027 347.885 246.319 348.2 246.666 348.453C247.013 348.706 247.41 348.891 247.833 348.999C248 349.042 248.17 349.072 248.342 349.089V380.752L225.021 402.889V426.79C224.321 426.88 223.683 427.219 223.237 427.738C222.79 428.258 222.567 428.92 222.615 429.59C222.662 430.259 222.975 430.887 223.491 431.345C224.006 431.804 224.686 432.059 225.392 432.059C226.099 432.059 226.779 431.804 227.294 431.345C227.81 430.887 228.123 430.259 228.17 429.59C228.218 428.92 227.995 428.258 227.548 427.738C227.102 427.219 226.464 426.88 225.764 426.79V403.183L249.084 381.019V349.062C249.853 348.975 250.566 348.637 251.101 348.106C251.636 347.574 251.959 346.882 252.016 346.148C252.072 345.414 251.858 344.685 251.41 344.085C250.962 343.485 250.308 343.052 249.56 342.86L249.551 342.879Z"
    fill="#27AAE1"
  />
<path
    d="M367.116 262.667C367.934 262.664 368.722 262.375 369.33 261.855C369.938 261.335 370.324 260.621 370.414 259.849H424.528L444.669 278.996H483.272C483.367 279.662 483.724 280.27 484.271 280.695C484.819 281.121 485.517 281.332 486.222 281.288C486.928 281.243 487.59 280.945 488.073 280.454C488.557 279.963 488.825 279.315 488.825 278.643C488.825 277.97 488.557 277.323 488.073 276.832C487.59 276.341 486.928 276.043 486.222 275.998C485.517 275.953 484.819 276.165 484.271 276.591C483.724 277.016 483.367 277.624 483.272 278.29H444.979L424.823 259.147H370.424C370.401 258.308 370.028 257.511 369.387 256.932C368.746 256.354 367.89 256.041 367.006 256.063C366.123 256.084 365.284 256.438 364.676 257.048C364.067 257.657 363.738 258.471 363.761 259.31V259.5C363.76 259.918 363.847 260.332 364.016 260.717C364.185 261.103 364.433 261.453 364.745 261.747C365.057 262.042 365.427 262.274 365.834 262.432C366.241 262.59 366.676 262.67 367.116 262.667V262.667Z"
    fill="#27AAE1"
  />
<path
    d="M300.628 345.095C300.467 344.525 300.141 344.009 299.687 343.606C299.233 343.202 298.67 342.928 298.06 342.813C297.451 342.698 296.82 342.747 296.239 342.955C295.657 343.162 295.148 343.52 294.77 343.989C294.391 344.457 294.158 345.016 294.096 345.604C294.034 346.191 294.147 346.783 294.42 347.313C294.694 347.843 295.118 348.29 295.645 348.603C296.172 348.916 296.78 349.083 297.401 349.085C297.695 349.084 297.988 349.047 298.272 348.976C298.709 348.863 299.117 348.668 299.472 348.402L323.578 371.312V387.279L310.19 400.003V424.253C309.49 424.342 308.852 424.681 308.405 425.201C307.958 425.721 307.736 426.382 307.783 427.052C307.83 427.722 308.143 428.349 308.659 428.808C309.175 429.266 309.855 429.521 310.561 429.521C311.267 429.521 311.947 429.266 312.463 428.808C312.978 428.349 313.292 427.722 313.339 427.052C313.386 426.382 313.164 425.721 312.717 425.201C312.27 424.681 311.632 424.342 310.932 424.253V400.279L324.32 387.555V371.004L299.99 347.886C300.319 347.501 300.548 347.047 300.659 346.563C300.77 346.078 300.759 345.575 300.628 345.095Z"
    fill="#27AAE1"
  />
<path
    d="M531.956 191.09C531.283 191.091 530.633 191.324 530.127 191.746C529.621 192.167 529.293 192.749 529.205 193.383H470.512L425.87 235.812H367.182C367.166 235.659 367.139 235.508 367.102 235.359C366.939 234.79 366.612 234.274 366.158 233.872C365.704 233.469 365.14 233.195 364.531 233.081C363.921 232.966 363.29 233.016 362.709 233.225C362.128 233.433 361.62 233.792 361.242 234.261C360.864 234.729 360.631 235.289 360.57 235.876C360.509 236.464 360.622 237.056 360.897 237.585C361.171 238.115 361.596 238.561 362.123 238.874C362.65 239.186 363.258 239.352 363.879 239.353C364.174 239.354 364.467 239.316 364.75 239.24C365.397 239.074 365.977 238.726 366.412 238.242C366.848 237.757 367.119 237.16 367.192 236.526H426.179L470.822 194.098H529.205C529.277 194.6 529.5 195.073 529.847 195.458C530.194 195.844 530.651 196.126 531.162 196.271C531.673 196.417 532.218 196.419 532.731 196.278C533.244 196.137 533.703 195.859 534.054 195.476C534.404 195.094 534.632 194.624 534.709 194.122C534.786 193.62 534.709 193.107 534.488 192.645C534.267 192.184 533.91 191.792 533.461 191.518C533.012 191.244 532.489 191.098 531.956 191.099V191.09Z"
    fill="#27AAE1"
  />
<path
    d="M498.207 329.05L472.735 304.842H438.292L414.566 282.293H367.235C367.167 281.721 366.936 281.177 366.566 280.72C366.197 280.263 365.704 279.911 365.14 279.701C364.575 279.49 363.962 279.431 363.364 279.528C362.767 279.624 362.208 279.874 361.749 280.25C361.29 280.626 360.948 281.114 360.759 281.662C360.57 282.209 360.542 282.795 360.677 283.356C360.812 283.918 361.106 284.433 361.527 284.848C361.948 285.262 362.48 285.56 363.066 285.708C363.347 285.775 363.637 285.81 363.927 285.812C364.662 285.813 365.376 285.582 365.959 285.157C366.542 284.731 366.96 284.135 367.149 283.46V283.46C367.189 283.311 367.216 283.16 367.23 283.008H414.248L437.973 305.556H472.416L497.674 329.557C497.246 330.09 497.046 330.759 497.117 331.427C497.187 332.095 497.522 332.712 498.054 333.154C498.586 333.596 499.274 333.829 499.98 333.807C500.686 333.785 501.357 333.508 501.856 333.034C502.355 332.559 502.646 331.922 502.67 331.251C502.693 330.58 502.448 329.925 501.983 329.42C501.518 328.915 500.868 328.597 500.165 328.53C499.462 328.463 498.759 328.652 498.198 329.059L498.207 329.05Z"
    fill="#27AAE1"
  />
<path
    d="M474.001 362.029C473.329 362.03 472.68 362.264 472.175 362.685C471.67 363.107 471.343 363.689 471.255 364.323H413.667L398.956 350.341H368.91L342.049 324.812C342.595 324.206 342.876 323.425 342.836 322.629C342.795 321.833 342.435 321.081 341.83 320.529C341.225 319.977 340.421 319.666 339.582 319.659C338.743 319.653 337.934 319.952 337.319 320.495C336.705 321.037 336.332 321.783 336.278 322.579C336.224 323.374 336.492 324.159 337.028 324.773C337.564 325.387 338.326 325.782 339.159 325.878C339.991 325.975 340.831 325.765 341.506 325.291L368.606 351.047H398.647L413.401 365.028H471.279C471.351 365.531 471.574 366.004 471.922 366.389C472.269 366.775 472.726 367.057 473.237 367.202C473.749 367.347 474.294 367.349 474.807 367.208C475.32 367.067 475.779 366.788 476.129 366.405C476.48 366.022 476.707 365.552 476.784 365.049C476.86 364.547 476.783 364.034 476.561 363.573C476.339 363.111 475.982 362.72 475.532 362.446C475.082 362.173 474.559 362.028 474.025 362.029H474.001Z"
    fill="#27AAE1"
  />
<path
    d="M377.658 417.364L356.622 397.371V371.181L322.697 338.934C323.201 338.33 323.451 337.569 323.396 336.799C323.342 336.03 322.989 335.307 322.404 334.772C321.82 334.237 321.047 333.928 320.236 333.905C319.425 333.882 318.634 334.147 318.017 334.648C317.4 335.149 317.002 335.85 316.9 336.616C316.798 337.381 316.999 338.154 317.464 338.786C317.93 339.418 318.626 339.862 319.417 340.033C320.209 340.203 321.039 340.087 321.745 339.708C321.888 339.625 322.023 339.531 322.15 339.427L355.865 371.47V397.669L377.115 417.866C376.687 418.399 376.488 419.068 376.558 419.736C376.629 420.404 376.964 421.021 377.495 421.463C378.027 421.905 378.715 422.138 379.421 422.116C380.127 422.094 380.798 421.817 381.297 421.342C381.797 420.868 382.088 420.23 382.111 419.56C382.135 418.889 381.889 418.234 381.424 417.729C380.959 417.224 380.309 416.905 379.606 416.838C378.904 416.771 378.2 416.961 377.639 417.368L377.658 417.364Z"
    fill="#27AAE1"
  />
<path
    d="M273.371 352.087C274.217 351.997 274.995 351.603 275.545 350.985C276.094 350.366 276.374 349.572 276.326 348.764C276.279 347.956 275.908 347.196 275.289 346.64C274.671 346.084 273.851 345.774 273 345.774C272.149 345.774 271.33 346.084 270.711 346.64C270.092 347.196 269.721 347.956 269.674 348.764C269.626 349.572 269.906 350.366 270.455 350.985C271.005 351.603 271.783 351.997 272.629 352.087V382.14L287.197 395.986V414.5L270.639 430.241C270.078 429.834 269.375 429.644 268.672 429.711C267.969 429.778 267.319 430.097 266.854 430.602C266.389 431.107 266.144 431.761 266.167 432.432C266.191 433.103 266.482 433.741 266.981 434.215C267.481 434.69 268.151 434.966 268.857 434.989C269.563 435.011 270.251 434.778 270.783 434.336C271.315 433.894 271.65 433.276 271.72 432.608C271.791 431.94 271.592 431.272 271.163 430.738L287.94 414.794V395.692L273.371 381.846V352.087Z"
    fill="#27AAE1"
  />
<path
    d="M160.075 382.14L182.611 360.722V346.275L204.589 325.391C205.148 325.761 205.812 325.962 206.493 325.965C207.257 325.967 207.998 325.719 208.593 325.264C209.187 324.808 209.599 324.172 209.759 323.462C209.919 322.752 209.817 322.012 209.471 321.365C209.125 320.717 208.555 320.203 207.858 319.907C207.16 319.612 206.377 319.553 205.639 319.741C204.901 319.928 204.254 320.351 203.805 320.939C203.356 321.526 203.134 322.242 203.174 322.967C203.215 323.692 203.516 324.382 204.028 324.921L181.864 345.986V360.433L159.766 381.435H137.073L120.54 397.149C119.978 396.746 119.276 396.561 118.576 396.631C117.877 396.701 117.231 397.022 116.771 397.527C116.31 398.033 116.069 398.686 116.096 399.354C116.122 400.022 116.415 400.656 116.915 401.127C117.415 401.597 118.084 401.87 118.788 401.89C119.491 401.909 120.176 401.674 120.703 401.231C121.231 400.789 121.562 400.173 121.63 399.507C121.698 398.841 121.497 398.176 121.068 397.646L137.378 382.14H160.075Z"
    fill="#27AAE1"
  />
<path
    d="M125.546 331.511H163.412L189.44 306.769C190.085 307.265 190.901 307.515 191.729 307.47C192.557 307.425 193.337 307.088 193.918 306.525C194.498 305.962 194.837 305.213 194.867 304.425C194.898 303.638 194.618 302.867 194.083 302.265C193.547 301.663 192.795 301.273 191.973 301.17C191.15 301.067 190.317 301.259 189.636 301.709C188.955 302.159 188.475 302.834 188.29 303.603C188.105 304.371 188.229 305.177 188.636 305.864C188.721 305.999 188.815 306.129 188.917 306.253L163.107 330.783H125.237L94.4775 360.04C93.9161 359.632 93.2128 359.443 92.51 359.51C91.8072 359.577 91.1575 359.895 90.6924 360.401C90.2274 360.906 89.9818 361.56 90.0053 362.231C90.0289 362.902 90.3198 363.539 90.8192 364.014C91.3187 364.489 91.9893 364.765 92.6952 364.787C93.4011 364.81 94.0896 364.576 94.6212 364.134C95.1528 363.692 95.4877 363.075 95.5583 362.407C95.6288 361.739 95.4296 361.071 95.001 360.537L125.546 331.511Z"
    fill="#27AAE1"
  />
<path
    d="M93.9348 310.378H116.304L145.012 283.094H178.803C178.819 283.246 178.846 283.397 178.884 283.546C179.073 284.22 179.491 284.816 180.072 285.242C180.654 285.667 181.367 285.898 182.101 285.898C182.394 285.898 182.686 285.86 182.968 285.785C183.553 285.637 184.086 285.339 184.507 284.925C184.928 284.51 185.222 283.994 185.357 283.433C185.492 282.871 185.464 282.285 185.274 281.737C185.085 281.19 184.742 280.702 184.283 280.326C183.823 279.95 183.265 279.701 182.667 279.604C182.069 279.508 181.455 279.568 180.891 279.779C180.326 279.99 179.833 280.343 179.465 280.8C179.096 281.258 178.866 281.802 178.798 282.375H144.722L116.013 309.659H94.2394L77.5103 293.76H51.1436C51.0501 293.093 50.6933 292.485 50.1457 292.059C49.598 291.633 48.9005 291.421 48.1944 291.466C47.4882 291.51 46.8263 291.808 46.3428 292.299C45.8593 292.79 45.5902 293.438 45.5902 294.11C45.5902 294.783 45.8593 295.43 46.3428 295.922C46.8263 296.413 47.4882 296.711 48.1944 296.755C48.9005 296.8 49.598 296.588 50.1457 296.162C50.6933 295.736 51.0501 295.128 51.1436 294.461H77.201L93.9348 310.378Z"
    fill="#27AAE1"
  />
<path
    d="M53.0568 175.706L84.2353 205.334H148.781L179.441 234.478C179.156 234.818 178.948 235.21 178.832 235.631C178.719 236.034 178.69 236.455 178.749 236.869C178.807 237.283 178.951 237.681 179.172 238.042C179.393 238.403 179.687 238.718 180.037 238.971C180.387 239.223 180.786 239.407 181.212 239.512C181.492 239.58 181.779 239.615 182.068 239.616C182.802 239.616 183.516 239.385 184.097 238.96C184.679 238.534 185.097 237.938 185.286 237.264C185.468 236.618 185.431 235.934 185.179 235.31C184.927 234.686 184.474 234.153 183.885 233.789C183.295 233.424 182.599 233.246 181.897 233.281C181.194 233.315 180.521 233.56 179.974 233.98L149.091 204.633H84.5303L53.5946 175.209C54.0232 174.675 54.2224 174.007 54.1519 173.339C54.0814 172.671 53.7464 172.054 53.2148 171.612C52.6832 171.17 51.9947 170.936 51.2888 170.959C50.5829 170.981 49.9123 171.257 49.4129 171.732C48.9134 172.207 48.6225 172.844 48.599 173.515C48.5754 174.186 48.821 174.84 49.2861 175.345C49.7511 175.851 50.4008 176.169 51.1036 176.236C51.8064 176.303 52.5097 176.114 53.0711 175.706H53.0568Z"
    fill="#27AAE1"
  />
<path
    d="M115.595 121.907L148.434 153.117V174.499L188.831 212.911C188.721 213.033 188.621 213.163 188.532 213.3C188.114 213.989 187.982 214.801 188.162 215.578C188.341 216.354 188.819 217.039 189.501 217.499C190.184 217.959 191.023 218.16 191.853 218.063C192.683 217.966 193.446 217.578 193.991 216.975C194.537 216.372 194.826 215.598 194.802 214.803C194.779 214.008 194.444 213.251 193.864 212.678C193.284 212.105 192.499 211.759 191.665 211.707C190.83 211.654 190.004 211.9 189.35 212.395L149.186 174.223V152.837L116.118 121.409C116.547 120.875 116.746 120.207 116.675 119.539C116.605 118.871 116.27 118.254 115.738 117.812C115.207 117.37 114.518 117.136 113.812 117.159C113.106 117.181 112.436 117.458 111.936 117.932C111.437 118.407 111.146 119.044 111.122 119.715C111.099 120.386 111.344 121.04 111.81 121.546C112.275 122.051 112.924 122.369 113.627 122.436C114.33 122.503 115.033 122.314 115.595 121.907V121.907Z"
    fill="#27AAE1"
  />
<path
    d="M159.728 95.8565V121.454L184.124 144.636V175.394L203.918 194.207C203.338 194.799 203.018 195.581 203.025 196.39C203.032 197.2 203.365 197.976 203.956 198.56C204.547 199.143 205.351 199.489 206.202 199.527C207.053 199.565 207.887 199.291 208.532 198.762C209.177 198.234 209.585 197.49 209.671 196.685C209.757 195.879 209.515 195.073 208.995 194.431C208.475 193.79 207.716 193.362 206.875 193.236C206.033 193.111 205.173 193.296 204.47 193.754L184.867 175.123V144.364L160.47 121.178V95.8565C161.17 95.767 161.808 95.4281 162.255 94.9084C162.702 94.3886 162.924 93.7269 162.877 93.0572C162.83 92.3875 162.517 91.7599 162.001 91.3014C161.485 90.8429 160.805 90.5879 160.099 90.5879C159.393 90.5879 158.713 90.8429 158.197 91.3014C157.682 91.7599 157.368 92.3875 157.321 93.0572C157.274 93.7269 157.496 94.3886 157.943 94.9084C158.39 95.4281 159.028 95.767 159.728 95.8565Z"
    fill="#27AAE1"
  />
<path
    d="M231.813 113.574V131.423L248.437 147.223V169.939C247.554 169.946 246.709 170.287 246.09 170.886C245.47 171.485 245.127 172.293 245.134 173.133C245.142 173.972 245.5 174.775 246.13 175.364C246.76 175.952 247.611 176.279 248.494 176.272C248.787 176.272 249.078 176.234 249.36 176.159C250.081 175.972 250.715 175.56 251.159 174.989C251.604 174.419 251.834 173.723 251.813 173.013C251.791 172.304 251.52 171.622 251.041 171.076C250.563 170.531 249.905 170.154 249.175 170.007V146.938L232.546 131.134V113.574C233.246 113.485 233.884 113.146 234.33 112.626C234.777 112.106 235 111.445 234.952 110.775C234.905 110.105 234.592 109.478 234.076 109.019C233.56 108.561 232.881 108.306 232.174 108.306C231.468 108.306 230.788 108.561 230.273 109.019C229.757 109.478 229.444 110.105 229.396 110.775C229.349 111.445 229.572 112.106 230.019 112.626C230.465 113.146 231.103 113.485 231.803 113.574H231.813Z"
    fill="#27AAE1"
  />
<path
    d="M341.339 161.462L322.207 179.646C322.019 179.472 321.81 179.32 321.583 179.194C321.204 178.986 320.785 178.851 320.351 178.797C319.917 178.743 319.476 178.77 319.053 178.878C318.63 178.986 318.233 179.172 317.886 179.426C317.539 179.68 317.248 179.996 317.029 180.356C316.81 180.717 316.668 181.115 316.611 181.527C316.554 181.94 316.583 182.359 316.697 182.761C316.811 183.163 317.006 183.54 317.273 183.87C317.54 184.2 317.873 184.477 318.252 184.685C318.756 184.964 319.329 185.111 319.913 185.11C320.515 185.109 321.106 184.952 321.622 184.657C322.138 184.363 322.56 183.94 322.844 183.435C323.128 182.93 323.262 182.362 323.233 181.79C323.204 181.219 323.012 180.665 322.678 180.189L341.639 162.168H381.456L421.639 123.982C422.201 124.385 422.902 124.57 423.602 124.5C424.302 124.429 424.947 124.109 425.408 123.604C425.869 123.098 426.11 122.445 426.083 121.777C426.056 121.109 425.763 120.475 425.263 120.004C424.764 119.533 424.094 119.261 423.391 119.241C422.688 119.222 422.003 119.457 421.475 119.899C420.947 120.342 420.616 120.958 420.548 121.624C420.481 122.289 420.682 122.955 421.111 123.485L381.132 161.48L341.339 161.462Z"
    fill="#27AAE1"
  />
<path
    d="M401.569 174.105H362.423L341.687 193.813C341.068 193.257 340.248 192.948 339.397 192.948C338.545 192.949 337.726 193.259 337.108 193.816C336.489 194.373 336.119 195.133 336.072 195.942C336.026 196.75 336.307 197.544 336.857 198.162C337.408 198.779 338.186 199.173 339.033 199.262C339.879 199.351 340.73 199.128 341.409 198.64C342.088 198.151 342.545 197.434 342.685 196.636C342.825 195.838 342.638 195.019 342.163 194.347L362.718 174.811H401.859L427.141 150.783H450.162C450.256 151.448 450.612 152.055 451.159 152.479C451.706 152.904 452.402 153.115 453.107 153.071C453.812 153.026 454.472 152.728 454.954 152.238C455.437 151.748 455.705 151.101 455.705 150.43C455.705 149.759 455.437 149.113 454.954 148.623C454.472 148.133 453.812 147.835 453.107 147.79C452.402 147.745 451.706 147.957 451.159 148.381C450.612 148.806 450.256 149.412 450.162 150.078H426.841L401.569 174.105Z"
    fill="#27AAE1"
  />
<path
    d="M432.485 177.131L393.411 214.267H357.716C357.621 213.441 357.197 212.682 356.531 212.144C355.864 211.606 355.006 211.332 354.133 211.377C353.261 211.422 352.439 211.784 351.838 212.387C351.237 212.99 350.902 213.789 350.902 214.62C350.902 215.451 351.237 216.25 351.838 216.853C352.439 217.456 353.261 217.818 354.133 217.863C355.006 217.908 355.864 217.634 356.531 217.096C357.197 216.559 357.621 215.799 357.716 214.973H393.706L432.781 177.837H488.941L504.551 163C505.114 163.408 505.818 163.598 506.522 163.531C507.226 163.464 507.877 163.145 508.343 162.639C508.809 162.133 509.055 161.478 509.032 160.806C509.008 160.134 508.717 159.495 508.216 159.02C507.716 158.544 507.044 158.267 506.337 158.245C505.63 158.222 504.94 158.456 504.408 158.899C503.875 159.342 503.54 159.96 503.469 160.63C503.399 161.299 503.598 161.968 504.028 162.503L488.631 177.131H432.485Z"
    fill="#27AAE1"
  />
</svg>
