<svg width="180" height="178" viewBox="0 0 180 178" fill="none" xmlns="http://www.w3.org/2000/svg">
<path d="M91.8159 108.93C95.4212 102.048 99.7815 95.546 103.884 88.8872C106.681 84.3294 109.656 79.882 112.393 75.2922C115.938 69.3162 119.48 63.3424 122.749 57.2394C125.3 52.4579 129.085 48.3359 129.797 42.5538C130.56 36.4304 126.042 30.1916 119.482 29.9055C112.263 29.5906 105.03 29.5762 97.7859 29.4766C97.2217 29.4666 96.6615 29.727 95.5682 29.9857C96.7174 32.7113 97.7918 34.9576 98.5954 37.2811C100.125 41.7078 100.209 45.8688 97.5627 50.1214C90.4901 61.5584 83.701 73.1941 76.8358 84.7653C70.407 95.5932 63.9502 106.401 57.6567 117.296C54.8388 122.013 52.2965 126.879 50.0413 131.873C46.8405 139.236 53.1689 148.037 61.5853 148.365C62.4816 148.38 63.4112 148.271 64.3132 148.39C67.4852 148.774 69.4287 147.324 70.7767 144.775C77.2509 132.523 85.3713 121.196 91.8159 108.93Z" fill="url(#paint0_linear_1647_5657)"/>
<path d="M127.612 145.205C128.885 143.111 130.03 140.945 131.253 138.823C136.228 130.192 141.167 121.536 146.198 112.936C150.48 105.608 155.807 98.8713 158.295 90.5739C160.161 84.3177 155.537 77.0457 148.67 76.7197C142.329 76.4251 135.976 76.5361 129.632 76.5103C128.169 76.5062 126.71 76.6617 124.525 76.7739C125.222 78.5905 125.529 79.7052 126.05 80.7241C129.445 87.3343 128.734 93.399 124.878 99.6354C116.115 113.814 107.744 128.222 99.2585 142.563C98.4315 143.954 97.8913 145.506 97.2103 146.999C98.1978 147.47 98.603 147.824 99.0067 147.836C106.864 148.051 114.723 148.269 122.581 148.366C124.885 148.406 126.502 147.028 127.612 145.205Z" fill="url(#paint1_linear_1647_5657)"/>
<path d="M60.9411 66.0631C63.8825 61.0904 67.2327 56.3337 69.9736 51.2636C73.2752 45.1606 75.7085 38.8656 70.1365 32.3442C68.8881 30.886 67.6956 29.791 65.6844 29.7587C62.8204 29.7128 60.0598 30.2182 57.2245 29.8789C54.5052 30.2646 52.6886 30.2693 51.3529 32.538C41.964 48.491 32.3925 64.3418 23.0906 80.3432C21.6126 82.8815 20.9093 85.9606 20.4186 88.8934C20.1663 90.4292 20.8147 92.3715 21.68 93.7916C24.1221 97.8179 26.8783 101.668 29.5313 105.579C30.6772 107.27 31.668 109.141 34.5101 109.84C37.7896 104.713 41.1023 99.8102 44.1284 94.7459C49.8199 85.2281 55.2931 75.5924 60.9411 66.0631Z" fill="url(#paint2_linear_1647_5657)"/>
<defs>
<linearGradient id="paint0_linear_1647_5657" x1="60.9887" y1="44.7071" x2="113.77" y2="139.771" gradientUnits="userSpaceOnUse">
<stop stop-color="#4CA4FF"/>
<stop offset="1" stop-color="#3957E3"/>
</linearGradient>
<linearGradient id="paint1_linear_1647_5657" x1="106.973" y1="83.4716" x2="143.586" y2="149.422" gradientUnits="userSpaceOnUse">
<stop stop-color="#4CA4FF"/>
<stop offset="1" stop-color="#3957E3"/>
</linearGradient>
<linearGradient id="paint2_linear_1647_5657" x1="30.9369" y1="40.104" x2="66.3713" y2="103.808" gradientUnits="userSpaceOnUse">
<stop stop-color="#4CA4FF"/>
<stop offset="1" stop-color="#3957E3"/>
</linearGradient>
</defs>
</svg>
