<svg width="7" height="5" viewBox="0 0 7 5" fill="none" xmlns="http://www.w3.org/2000/svg">
<path d="M3.80713 0.767915C3.8115 0.773165 3.81325 0.780164 3.81762 0.785414L6.87204 4.16006C7.04265 4.34992 7.04265 4.6579 6.87204 4.84776C6.87029 4.84951 6.86854 4.85039 6.86679 4.85126C6.82883 4.89723 6.78129 4.93436 6.72749 4.96005C6.67369 4.98575 6.61493 4.99938 6.55531 5H0.445607C0.384897 4.99902 0.325142 4.98472 0.270565 4.95811C0.215988 4.9315 0.167919 4.89323 0.129754 4.84601L0.128004 4.84776C0.0454359 4.75223 0 4.63018 0 4.50391C0 4.37764 0.0454359 4.25559 0.128004 4.16006L3.18942 0.767915C3.22753 0.72324 3.27488 0.687365 3.3282 0.662765C3.38152 0.638165 3.43955 0.625425 3.49827 0.625425C3.55699 0.625425 3.61502 0.638165 3.66834 0.662765C3.72166 0.687365 3.76901 0.72324 3.80713 0.767915Z" fill="#7CAC0F"/>
</svg>
