<svg width="12" height="12" viewBox="0 0 12 12" fill="none" xmlns="http://www.w3.org/2000/svg">
<g opacity="0.5">
<path d="M5.64783 9.62609C5.54348 9.62609 5.43913 9.58696 5.36087 9.52174C5.23043 9.41739 5.16522 9.24783 5.20435 9.07826L5.84348 5.81739L5.4913 6.01304C5.26957 6.13043 4.99565 6.06522 4.86522 5.84348C4.74783 5.62174 4.81304 5.34783 5.03478 5.21739L6.24783 4.52609C6.40435 4.43478 6.6 4.44783 6.74348 4.55217C6.88696 4.65652 6.95217 4.83913 6.92609 5.0087L6.26087 8.4L6.8087 8.16522C7.04348 8.06087 7.30435 8.16522 7.4087 8.4C7.51304 8.63478 7.4087 8.89565 7.17391 9L5.83043 9.58696C5.77826 9.61304 5.71304 9.62609 5.64783 9.62609ZM6.93913 3.3913C7.05652 3.27391 7.13478 3.10435 7.13478 2.93478C7.13478 2.76522 7.06957 2.59565 6.93913 2.47826C6.82174 2.36087 6.65217 2.28261 6.48261 2.28261C6.31304 2.28261 6.14348 2.34783 6.02609 2.47826C5.9087 2.59565 5.83043 2.76522 5.83043 2.93478C5.83043 3.10435 5.89565 3.27391 6.02609 3.3913C6.14348 3.5087 6.31304 3.58696 6.48261 3.58696C6.65217 3.58696 6.82174 3.52174 6.93913 3.3913ZM12 6C12 2.68696 9.31304 0 6 0C2.68696 0 0 2.68696 0 6C0 9.31304 2.68696 12 6 12C9.31304 12 12 9.31304 12 6ZM10.9565 6C10.9565 8.73913 8.73913 10.9565 6 10.9565C3.26087 10.9565 1.04348 8.73913 1.04348 6C1.04348 3.26087 3.26087 1.04348 6 1.04348C8.73913 1.04348 10.9565 3.26087 10.9565 6Z" fill="white"/>
</g>
</svg>
