<svg width="16" height="16" viewBox="0 0 16 16" fill="none" xmlns="http://www.w3.org/2000/svg">
<path d="M7.66732 14.4997C3.90065 14.4997 0.833984 11.433 0.833984 7.66634C0.833984 3.89967 3.90065 0.833008 7.66732 0.833008C11.434 0.833008 14.5007 3.89967 14.5007 7.66634C14.5007 11.433 11.434 14.4997 7.66732 14.4997ZM7.66732 1.83301C4.44732 1.83301 1.83398 4.45301 1.83398 7.66634C1.83398 10.8797 4.44732 13.4997 7.66732 13.4997C10.8873 13.4997 13.5007 10.8797 13.5007 7.66634C13.5007 4.45301 10.8873 1.83301 7.66732 1.83301Z" fill="#616D7E"/>
<path d="M14.6663 15.1666C14.5396 15.1666 14.4129 15.12 14.3129 15.02L12.9796 13.6866C12.7863 13.4933 12.7863 13.1733 12.9796 12.98C13.1729 12.7866 13.4929 12.7866 13.6863 12.98L15.0196 14.3133C15.2129 14.5066 15.2129 14.8266 15.0196 15.02C14.9196 15.12 14.7929 15.1666 14.6663 15.1666Z" fill="#616D7E"/>
</svg>
