<svg width="35" height="35" viewBox="0 0 35 35" fill="none" xmlns="http://www.w3.org/2000/svg">
<path fill-rule="evenodd" clip-rule="evenodd" d="M2.88674 7.29611C2.88674 3.58372 5.8958 0.574219 9.60768 0.574219C13.3196 0.574219 16.3286 3.58372 16.3286 7.29611C16.3286 11.0085 13.3196 14.018 9.60768 14.018C5.8958 14.018 2.88674 11.0085 2.88674 7.29611ZM9.60768 2.94665C7.20588 2.94665 5.25884 4.89397 5.25884 7.29611C5.25884 9.69826 7.20588 11.6456 9.60768 11.6456C12.0095 11.6456 13.9565 9.69826 13.9565 7.29611C13.9565 4.89397 12.0095 2.94665 9.60768 2.94665ZM18.7007 7.29611C18.7007 3.58372 21.7098 0.574219 25.4216 0.574219C29.1335 0.574219 32.1426 3.58372 32.1426 7.29611C32.1426 11.0085 29.1335 14.018 25.4216 14.018C21.7098 14.018 18.7007 11.0085 18.7007 7.29611ZM25.4216 2.94665C23.0198 2.94665 21.0728 4.89397 21.0728 7.29611C21.0728 9.69826 23.0198 11.6456 25.4216 11.6456C27.8235 11.6456 29.7705 9.69826 29.7705 7.29611C29.7705 4.89397 27.8235 2.94665 25.4216 2.94665ZM8.35925 19.5537C5.51967 19.5537 2.88674 22.364 2.88674 26.2756V33.3929C2.88674 34.048 2.35573 34.5791 1.7007 34.5791C1.04566 34.5791 0.514648 34.048 0.514648 33.3929V26.2756C0.514648 21.4522 3.84395 17.1813 8.35925 17.1813H12.3543C14.3742 17.1813 15.9356 18.1765 16.9383 19.0772C16.9432 19.0816 16.9481 19.086 16.953 19.0905C17.2635 19.3706 17.7447 19.3684 18.0528 19.0857C19.0319 18.1872 20.5661 17.1813 22.5481 17.1813H26.5907C31.1378 17.1813 34.5145 21.4381 34.5145 26.2756V33.3929C34.5145 34.048 33.9835 34.5791 33.3285 34.5791C32.6734 34.5791 32.1424 34.048 32.1424 33.3929V26.2756C32.1424 22.3781 29.486 19.5537 26.5907 19.5537H22.5481C21.398 19.5537 20.4125 20.14 19.6564 20.8338C19.2862 21.1735 18.9973 21.5159 18.8024 21.7722C18.7056 21.8996 18.6342 22.003 18.5895 22.0704C18.5684 22.1022 18.554 22.1249 18.5464 22.1373C18.3623 22.4619 18.038 22.6782 17.6741 22.7275C17.5691 22.7417 17.462 22.725 17.3657 22.6808C17.1342 22.5746 16.9279 22.4005 16.7618 22.212C16.6959 22.1371 16.4489 22.0826 16.501 22.1677L16.502 22.1693L16.4933 22.1557C16.4839 22.1409 16.4674 22.1156 16.4441 22.0813C16.3975 22.0126 16.3241 21.9087 16.2253 21.7813C16.0264 21.5247 15.7318 21.1823 15.3533 20.8423C14.5833 20.1507 13.5644 19.5537 12.3543 19.5537H8.35925ZM17.5147 21.552L18.3789 21.028C18.3788 21.0279 18.3789 21.0281 18.3789 21.028C18.2453 21.1092 17.9925 21.2623 17.5147 21.552Z" fill="url(#paint0_linear_1075_31400)"/>
<defs>
<linearGradient id="paint0_linear_1075_31400" x1="0.514648" y1="0.574219" x2="37.9649" y2="4.93284" gradientUnits="userSpaceOnUse">
<stop stop-color="#2D7EFA"/>
<stop offset="1" stop-color="#0C57C7"/>
</linearGradient>
</defs>
</svg>
