<svg width="18" height="18" viewBox="0 0 18 18" fill="none" xmlns="http://www.w3.org/2000/svg">
<path d="M11.2311 2.26409L11.951 0.965401C11.9602 0.948739 11.9661 0.930422 11.9682 0.911494C11.9704 0.892567 11.9688 0.873399 11.9635 0.855087C11.9583 0.836774 11.9495 0.819675 11.9376 0.804766C11.9258 0.789856 11.9111 0.777428 11.8944 0.768192C11.8608 0.749538 11.8211 0.745015 11.7841 0.755618C11.7471 0.766221 11.7159 0.791082 11.6972 0.824731L10.9694 2.13782C10.3484 1.86557 9.67765 1.72502 8.99958 1.72502C8.32152 1.72502 7.65082 1.86557 7.0298 2.13782L6.30194 0.824731C6.28329 0.791082 6.25203 0.766221 6.21505 0.755618C6.17806 0.745015 6.13838 0.749538 6.10473 0.768192C6.07108 0.786846 6.04622 0.818103 6.03562 0.855087C6.02502 0.892071 6.02954 0.931752 6.04819 0.965401L6.76808 2.2641C6.08283 2.60188 5.50384 3.12185 5.09462 3.76699C4.68539 4.41213 4.46175 5.1575 4.44821 5.92136H13.551C13.5374 5.1575 13.3138 4.41212 12.9046 3.76698C12.4953 3.12185 11.9163 2.60187 11.2311 2.26409ZM6.89891 4.25579C6.82373 4.25579 6.75024 4.2335 6.68773 4.19173C6.62523 4.14997 6.57651 4.0906 6.54774 4.02115C6.51897 3.9517 6.51144 3.87527 6.52611 3.80154C6.54078 3.72781 6.57698 3.66008 6.63013 3.60692C6.68329 3.55376 6.75102 3.51756 6.82475 3.5029C6.89848 3.48823 6.97491 3.49576 7.04436 3.52453C7.11382 3.55329 7.17318 3.60201 7.21495 3.66452C7.25671 3.72703 7.27901 3.80052 7.27901 3.87569C7.27889 3.97647 7.23881 4.07308 7.16755 4.14434C7.09629 4.2156 6.99968 4.25568 6.89891 4.25579ZM11.1002 4.25579C11.0251 4.25579 10.9516 4.2335 10.8891 4.19173C10.8266 4.14997 10.7778 4.0906 10.7491 4.02115C10.7203 3.9517 10.7128 3.87527 10.7274 3.80154C10.7421 3.72781 10.7783 3.66008 10.8315 3.60692C10.8846 3.55376 10.9524 3.51756 11.0261 3.5029C11.0998 3.48823 11.1762 3.49576 11.2457 3.52453C11.3152 3.55329 11.3745 3.60201 11.4163 3.66452C11.458 3.72703 11.4803 3.80052 11.4803 3.87569C11.4802 3.97647 11.4401 4.07308 11.3689 4.14434C11.2976 4.2156 11.201 4.25568 11.1002 4.25579ZM4.44815 12.8785C4.44815 13.1704 4.56407 13.4503 4.77043 13.6566C4.97678 13.863 5.25666 13.9789 5.54849 13.9789H6.27869V16.2296C6.27833 16.3638 6.30445 16.4968 6.35557 16.6209C6.40668 16.745 6.48178 16.8578 6.57656 16.9529C6.67135 17.0479 6.78395 17.1233 6.90793 17.1748C7.0319 17.2262 7.16481 17.2527 7.29903 17.2527C7.43326 17.2527 7.56617 17.2262 7.69014 17.1748C7.81412 17.1233 7.92672 17.0479 8.0215 16.9529C8.11629 16.8578 8.19139 16.745 8.2425 16.6209C8.29362 16.4968 8.31974 16.3638 8.31938 16.2296V13.9789H9.67977V16.2296C9.67941 16.3638 9.70553 16.4968 9.75664 16.6209C9.80776 16.745 9.88286 16.8578 9.97764 16.9529C10.0724 17.0479 10.185 17.1233 10.309 17.1748C10.433 17.2262 10.5659 17.2527 10.7001 17.2527C10.8343 17.2527 10.9672 17.2262 11.0912 17.1748C11.2152 17.1233 11.3278 17.0479 11.4226 16.9529C11.5174 16.8578 11.5925 16.745 11.6436 16.6209C11.6947 16.4968 11.7208 16.3638 11.7205 16.2296V13.9789H12.4507C12.7425 13.9789 13.0224 13.863 13.2287 13.6566C13.4351 13.4503 13.551 13.1704 13.551 12.8785V6.28144H4.44815V12.8785ZM3.04768 6.10638C2.77717 6.10669 2.51782 6.21429 2.32653 6.40557C2.13525 6.59686 2.02765 6.85621 2.02735 7.12673V11.3781C2.02698 11.5123 2.05311 11.6453 2.10422 11.7694C2.15533 11.8935 2.23043 12.0063 2.32522 12.1014C2.42 12.1964 2.53261 12.2718 2.65658 12.3232C2.78055 12.3747 2.91346 12.4012 3.04769 12.4012C3.18192 12.4012 3.31482 12.3747 3.4388 12.3232C3.56277 12.2718 3.67538 12.1964 3.77016 12.1014C3.86494 12.0063 3.94004 11.8935 3.99116 11.7694C4.04227 11.6453 4.06839 11.5123 4.06803 11.3781V7.12673C4.06772 6.85621 3.96013 6.59686 3.76884 6.40557C3.57755 6.21428 3.3182 6.10669 3.04768 6.10638ZM14.9515 6.10638C14.6809 6.10669 14.4216 6.21428 14.2303 6.40557C14.039 6.59686 13.9314 6.85621 13.9311 7.12673V11.3781C13.9308 11.5123 13.9569 11.6453 14.008 11.7694C14.0591 11.8935 14.1342 12.0063 14.229 12.1014C14.3238 12.1964 14.4364 12.2718 14.5603 12.3232C14.6843 12.3747 14.8172 12.4012 14.9515 12.4012C15.0857 12.4012 15.2186 12.3747 15.3426 12.3232C15.4665 12.2718 15.5791 12.1964 15.6739 12.1014C15.7687 12.0063 15.8438 11.8935 15.8949 11.7694C15.946 11.6453 15.9722 11.5123 15.9718 11.3781V7.12673C15.9715 6.85621 15.8639 6.59686 15.6726 6.40557C15.4813 6.21429 15.222 6.10669 14.9515 6.10638Z" fill="white"/>
</svg>
