<svg width="19" height="18" viewBox="0 0 19 18" fill="none" xmlns="http://www.w3.org/2000/svg">
<path d="M9.51465 7.89008C9.20715 7.89008 8.95215 7.63508 8.95215 7.32758V4.83008C8.95215 4.52258 9.20715 4.26758 9.51465 4.26758C9.82215 4.26758 10.0771 4.52258 10.0771 4.83008V7.32758C10.0771 7.64258 9.82215 7.89008 9.51465 7.89008Z" fill="white"/>
<path d="M9.52979 15.2622C7.59479 15.2622 5.66729 14.9547 3.82979 14.3397C3.14729 14.1147 2.62979 13.6272 2.40479 13.0122C2.17979 12.3972 2.25479 11.6922 2.62229 11.0772L3.57479 9.48719C3.78479 9.13469 3.97229 8.47469 3.97229 8.06219V6.48719C3.97229 3.41969 6.46229 0.929688 9.52979 0.929688C12.5973 0.929688 15.0873 3.41969 15.0873 6.48719V8.06219C15.0873 8.46719 15.2748 9.13469 15.4848 9.48719L16.4373 11.0772C16.7898 11.6622 16.8498 12.3597 16.6173 12.9972C16.3848 13.6347 15.8748 14.1222 15.2298 14.3397C13.3923 14.9622 11.4648 15.2622 9.52979 15.2622ZM9.52979 2.06219C7.08479 2.06219 5.09729 4.04969 5.09729 6.49469V8.06969C5.09729 8.67719 4.85729 9.55469 4.54229 10.0722L3.58979 11.6697C3.39479 11.9922 3.34979 12.3372 3.46229 12.6372C3.57479 12.9372 3.82979 13.1622 4.18979 13.2822C7.63979 14.4297 11.4348 14.4297 14.8848 13.2822C15.2073 13.1772 15.4548 12.9372 15.5673 12.6222C15.6873 12.3072 15.6498 11.9622 15.4773 11.6697L14.5248 10.0797C14.2098 9.56219 13.9698 8.68469 13.9698 8.07719V6.50219C13.9623 4.04969 11.9748 2.06219 9.52979 2.06219Z" fill="white"/>
<path d="M9.51459 17.1752C8.71209 17.1752 7.92459 16.8452 7.35459 16.2752C6.78459 15.7052 6.45459 14.9177 6.45459 14.1152H7.57959C7.57959 14.6252 7.78959 15.1202 8.14959 15.4802C8.50959 15.8402 9.00459 16.0502 9.51459 16.0502C10.5796 16.0502 11.4496 15.1802 11.4496 14.1152H12.5746C12.5746 15.8027 11.2021 17.1752 9.51459 17.1752Z" fill="white"/>
</svg>
