<svg width="44" height="43" viewBox="0 0 44 43" fill="none" xmlns="http://www.w3.org/2000/svg">
<path fill-rule="evenodd" clip-rule="evenodd" d="M4.3709 3.49775L2.4785 5.38508V5.40531C2.4023 5.4821 2.31165 5.54308 2.21178 5.58467C2.11191 5.62627 2.0048 5.64768 1.89661 5.64768C1.78843 5.64768 1.68131 5.62627 1.58144 5.58467C1.48157 5.54308 1.39092 5.4821 1.31473 5.40531C1.16207 5.2501 1.07652 5.04114 1.07652 4.82344C1.07652 4.60574 1.16207 4.39675 1.31473 4.24154L4.60871 0.947552C4.68534 0.870599 4.77642 0.809539 4.87671 0.767874C4.977 0.72621 5.08453 0.70478 5.19313 0.70478C5.30173 0.70478 5.40926 0.72621 5.50955 0.767874C5.60984 0.809539 5.70091 0.870599 5.77754 0.947552L9.07153 4.24154C9.22418 4.39675 9.30973 4.60574 9.30973 4.82344C9.30973 5.04114 9.22418 5.2501 9.07153 5.40531C8.99533 5.4821 8.90468 5.54308 8.80481 5.58467C8.70494 5.62627 8.59782 5.64768 8.48964 5.64768C8.38145 5.64768 8.27434 5.62627 8.17447 5.58467C8.0746 5.54308 7.98395 5.4821 7.90775 5.40531L6.01536 3.51798V21.7538L13.4281 16.1576C13.5591 16.0583 13.7167 16.0005 13.8808 15.9915C14.0449 15.9825 14.2079 16.0227 14.349 16.107L22.0349 20.7216L27.2365 15.5453C25.743 13.7524 24.9983 11.4526 25.1572 9.12455C25.3162 6.79648 26.3665 4.61931 28.0898 3.04593C29.8131 1.47256 32.0766 0.624127 34.4095 0.67714C36.7424 0.730153 38.965 1.68052 40.615 3.33055C42.2651 4.98058 43.2154 7.20321 43.2685 9.5361C43.3215 11.869 42.473 14.1325 40.8997 15.8558C39.3263 17.5791 37.1491 18.6294 34.821 18.7884C32.493 18.9473 30.1932 18.2026 28.4003 16.7091L22.7534 22.3559C22.6242 22.489 22.4532 22.5738 22.269 22.5959C22.0847 22.618 21.8985 22.5761 21.7415 22.4773L13.9796 17.8223L6.01536 23.8334V37.9049H19.591C19.7979 37.9212 19.9911 38.0149 20.1321 38.1673C20.273 38.3197 20.3512 38.5196 20.3512 38.7272C20.3512 38.9347 20.273 39.1347 20.1321 39.2871C19.9911 39.4395 19.7979 39.5332 19.591 39.5494H5.99512V42.0237C6.00402 42.1371 5.98937 42.2511 5.95209 42.3586C5.9148 42.466 5.85569 42.5646 5.77847 42.6481C5.70125 42.7316 5.60759 42.7983 5.50337 42.8439C5.39916 42.8895 5.28663 42.913 5.17289 42.913C5.05914 42.913 4.94662 42.8895 4.8424 42.8439C4.73818 42.7983 4.64452 42.7316 4.5673 42.6481C4.49008 42.5646 4.43097 42.466 4.39369 42.3586C4.3564 42.2511 4.34175 42.1371 4.35066 42.0237V39.5494H1.87637C1.76297 39.5583 1.64896 39.5436 1.54149 39.5064C1.43403 39.4691 1.33544 39.41 1.25192 39.3328C1.1684 39.2555 1.10175 39.1619 1.05617 39.0577C1.01059 38.9534 0.987061 38.8409 0.987061 38.7272C0.987061 38.6134 1.01059 38.5009 1.05617 38.3967C1.10175 38.2924 1.1684 38.1988 1.25192 38.1216C1.33544 38.0444 1.43403 37.9852 1.54149 37.948C1.64896 37.9107 1.76297 37.896 1.87637 37.9049H4.3709V3.49775ZM28.0231 5.63026C27.2064 6.848 26.7689 8.28046 26.7659 9.74669H26.7761C26.7741 10.7217 26.9643 11.6875 27.3358 12.5889C27.7074 13.4903 28.253 14.3095 28.9415 14.9999C29.63 15.6902 30.4478 16.2381 31.3482 16.6121C32.2485 16.9861 33.2138 17.179 34.1888 17.1797C35.655 17.1787 37.0881 16.7431 38.3069 15.9281C39.5258 15.1131 40.4757 13.9552 41.0369 12.6005C41.598 11.2459 41.745 9.75537 41.4594 8.31721C41.1739 6.87905 40.4685 5.55778 39.4324 4.52029C38.3964 3.4828 37.0761 2.77561 35.6383 2.48809C34.2005 2.20057 32.7098 2.3456 31.3544 2.90486C29.999 3.46412 28.8398 4.41252 28.0231 5.63026ZM33.6037 11.9871C33.7873 12.0946 33.9921 12.1606 34.2039 12.1805L34.2292 12.1754C34.3426 12.1843 34.4567 12.1697 34.5641 12.1324C34.6716 12.0951 34.7702 12.036 34.8537 11.9588C34.9372 11.8816 35.0039 11.7879 35.0494 11.6837C35.095 11.5795 35.1185 11.4669 35.1185 11.3532C35.1185 11.2395 35.095 11.1269 35.0494 11.0227C35.0039 10.9185 34.9372 10.8248 34.8537 10.7476C34.7702 10.6704 34.6716 10.6113 34.5641 10.574C34.4567 10.5367 34.3426 10.5221 34.2292 10.531C33.646 10.5335 33.0806 10.3294 32.6334 9.95497C32.1862 9.58051 31.886 9.05982 31.786 8.48518C31.686 7.91055 31.7926 7.31905 32.087 6.81552C32.3814 6.31199 32.8445 5.92893 33.3944 5.73421V4.79815C33.3855 4.68475 33.4001 4.57071 33.4374 4.46325C33.4747 4.35578 33.5338 4.25718 33.611 4.17366C33.6882 4.09014 33.7819 4.0235 33.8861 3.97792C33.9903 3.93234 34.1028 3.90881 34.2166 3.90881C34.3303 3.90881 34.4429 3.93234 34.5471 3.97792C34.6513 4.0235 34.745 4.09014 34.8222 4.17366C34.8994 4.25718 34.9585 4.35578 34.9958 4.46325C35.0331 4.57071 35.0477 4.68475 35.0388 4.79815V5.71902C35.5021 5.87554 35.9229 6.13703 36.2684 6.48306C36.3461 6.55848 36.4082 6.64849 36.4512 6.74792C36.4942 6.84735 36.5171 6.95425 36.5188 7.06255C36.5204 7.17085 36.5007 7.27842 36.4608 7.37911C36.4209 7.47979 36.3615 7.57162 36.2861 7.64936C36.2107 7.72711 36.1207 7.78926 36.0212 7.83222C35.9218 7.87519 35.8149 7.89812 35.7066 7.89976C35.5983 7.90141 35.4907 7.88172 35.39 7.84179C35.2894 7.80187 35.1975 7.74251 35.1198 7.66709C34.8908 7.41248 34.571 7.25801 34.2292 7.23698C34.0223 7.25323 33.8291 7.34693 33.6882 7.49933C33.5473 7.65174 33.469 7.85165 33.469 8.05921C33.469 8.26678 33.5473 8.46671 33.6882 8.61912C33.8291 8.77153 34.0223 8.8652 34.2292 8.88144C34.8115 8.8851 35.3739 9.09403 35.8173 9.47143C36.2608 9.84883 36.5569 10.3705 36.6536 10.9447C36.7504 11.519 36.6414 12.1089 36.3461 12.6107C36.0507 13.1126 35.5878 13.4941 35.0388 13.6883V14.7003C35.0226 14.9072 34.9289 15.1004 34.7765 15.2413C34.6241 15.3823 34.4242 15.4605 34.2166 15.4605C34.009 15.4605 33.8091 15.3823 33.6567 15.2413C33.5043 15.1004 33.4106 14.9072 33.3944 14.7003V13.6883C32.8004 13.4777 32.2754 13.1085 31.8764 12.6207C31.8066 12.5376 31.7539 12.4417 31.7212 12.3382C31.6886 12.2348 31.6766 12.1259 31.686 12.0179C31.6954 11.9098 31.726 11.8046 31.776 11.7084C31.826 11.6121 31.8945 11.5267 31.9776 11.4569C32.0607 11.3872 32.1566 11.3345 32.2601 11.3018C32.3635 11.2691 32.4724 11.2571 32.5804 11.2665C32.6885 11.2759 32.7937 11.3065 32.8899 11.3565C32.9861 11.4066 33.0716 11.4751 33.1414 11.5581C33.2623 11.7332 33.4201 11.8796 33.6037 11.9871ZM39.7143 34.8893C39.6378 34.8114 39.5467 34.7494 39.4462 34.707C39.3456 34.6646 39.2377 34.6425 39.1285 34.6421C39.0194 34.6417 38.9113 34.6629 38.8104 34.7046C38.7096 34.7463 38.618 34.8076 38.541 34.8849C38.464 34.9623 38.4031 35.0541 38.3618 35.1551C38.3206 35.2562 38.2998 35.3644 38.3007 35.4735C38.3016 35.5827 38.3241 35.6905 38.367 35.7909C38.4099 35.8912 38.4722 35.9821 38.5505 36.0582L40.4378 37.9455H27.0241C26.9107 37.9366 26.7967 37.9513 26.6892 37.9885C26.5817 38.0258 26.4831 38.0849 26.3996 38.1621C26.3161 38.2394 26.2495 38.333 26.2039 38.4372C26.1583 38.5415 26.1348 38.654 26.1348 38.7677C26.1348 38.8815 26.1583 38.994 26.2039 39.0982C26.2495 39.2025 26.3161 39.2961 26.3996 39.3733C26.4831 39.4505 26.5817 39.5097 26.6892 39.5469C26.7967 39.5842 26.9107 39.5989 27.0241 39.59H40.4378L38.5505 41.4672C38.4128 41.6247 38.3401 41.8286 38.3471 42.0377C38.3541 42.2467 38.4403 42.4453 38.5882 42.5932C38.7361 42.7412 38.9347 42.8273 39.1438 42.8343C39.3529 42.8414 39.5568 42.7686 39.7143 42.631L43.0082 39.337C43.085 39.2608 43.146 39.1701 43.1876 39.0703C43.2292 38.9704 43.2506 38.8633 43.2506 38.7551C43.2506 38.6469 43.2292 38.5398 43.1876 38.4399C43.146 38.34 43.085 38.2494 43.0082 38.1732L39.7143 34.8893ZM10.7175 34.3846C10.5629 34.5393 10.3531 34.6262 10.1344 34.6262C9.92397 34.6197 9.72413 34.5326 9.57625 34.3828C9.42836 34.233 9.34375 34.0321 9.33995 33.8217V32.9969H8.51519C8.29645 32.9969 8.08667 32.91 7.932 32.7553C7.77732 32.6006 7.69043 32.3909 7.69043 32.1721V25.0883C7.69043 24.8695 7.77732 24.6598 7.932 24.5051C8.08667 24.3504 8.29645 24.2635 8.51519 24.2635H9.33995V23.4185C9.3562 23.2116 9.44987 23.0184 9.60228 22.8775C9.75468 22.7366 9.95462 22.6583 10.1622 22.6583C10.3697 22.6583 10.5697 22.7366 10.7221 22.8775C10.8745 23.0184 10.9682 23.2116 10.9844 23.4185V24.2433H11.7839C12.0026 24.2433 12.2124 24.3302 12.3671 24.4849C12.5217 24.6395 12.6086 24.8493 12.6086 25.0681V32.1519C12.6086 32.3706 12.5217 32.5804 12.3671 32.7351C12.2124 32.8897 12.0026 32.9766 11.7839 32.9766H10.9591V33.8014C10.9591 34.0201 10.8722 34.2299 10.7175 34.3846ZM10.9844 25.8928H9.31465V31.3474H10.9844V25.8928ZM18.3718 36.2705C18.5906 36.2705 18.8003 36.1836 18.955 36.0289C19.1097 35.8742 19.1966 35.6645 19.1966 35.4457V34.626H20.0213C20.2401 34.626 20.4499 34.5391 20.6045 34.3844C20.7592 34.2298 20.8461 34.02 20.8461 33.8013V26.7174C20.8461 26.4987 20.7592 26.2889 20.6045 26.1342C20.4499 25.9795 20.2401 25.8927 20.0213 25.8927H19.1966V25.0679C19.2055 24.9545 19.1908 24.8405 19.1535 24.733C19.1163 24.6256 19.0571 24.527 18.9799 24.4434C18.9027 24.3599 18.809 24.2933 18.7048 24.2477C18.6006 24.2021 18.4881 24.1786 18.3743 24.1786C18.2606 24.1786 18.1481 24.2021 18.0439 24.2477C17.9396 24.2933 17.846 24.3599 17.7688 24.4434C17.6915 24.527 17.6324 24.6256 17.5951 24.733C17.5579 24.8405 17.5432 24.9545 17.5521 25.0679V25.8927H16.7274C16.5086 25.8927 16.2988 25.9795 16.1442 26.1342C15.9895 26.2889 15.9026 26.4987 15.9026 26.7174V33.8013C15.9026 34.02 15.9895 34.2298 16.1442 34.3844C16.2988 34.5391 16.5086 34.626 16.7274 34.626H17.5622V35.4457C17.5622 35.6618 17.647 35.8694 17.7984 36.0236C17.9498 36.1779 18.1557 36.2665 18.3718 36.2705ZM17.5622 27.5371H19.2067V32.9765H17.5622V27.5371ZM27.1925 34.3846C27.0379 34.5393 26.8281 34.6262 26.6094 34.6262C26.395 34.6249 26.1895 34.5402 26.0364 34.39C25.8834 34.2398 25.7949 34.036 25.7897 33.8217V32.9969H24.9649C24.7462 32.9969 24.5364 32.91 24.3817 32.7553C24.227 32.6006 24.1401 32.3909 24.1401 32.1721V25.0883C24.1401 24.8695 24.227 24.6598 24.3817 24.5051C24.5364 24.3504 24.7462 24.2635 24.9649 24.2635H25.7897V23.4185C25.8059 23.2116 25.8996 23.0184 26.052 22.8775C26.2044 22.7366 26.4043 22.6583 26.6119 22.6583C26.8195 22.6583 27.0194 22.7366 27.1718 22.8775C27.3242 23.0184 27.4179 23.2116 27.4341 23.4185V24.2433H28.2589C28.4776 24.2433 28.6874 24.3302 28.8421 24.4849C28.9967 24.6395 29.0836 24.8493 29.0836 25.0681V32.1519C29.0836 32.3706 28.9967 32.5804 28.8421 32.7351C28.6874 32.8897 28.4776 32.9766 28.2589 32.9766H27.4341V33.8014C27.4341 34.0201 27.3472 34.2299 27.1925 34.3846ZM27.4341 25.8928H25.7897V31.3474H27.4341V25.8928ZM34.8517 32.9766C35.0696 32.9753 35.2781 32.8878 35.4317 32.7333C35.5852 32.5787 35.6714 32.3697 35.6714 32.1519V31.3473H36.4962C36.7141 31.3473 36.9231 31.2611 37.0776 31.1076C37.2321 30.954 37.3196 30.7455 37.3209 30.5276V23.4438C37.3196 23.2259 37.2321 23.0175 37.0776 22.8639C36.9231 22.7103 36.7141 22.6241 36.4962 22.6241H35.6714V21.7993C35.6803 21.6859 35.6657 21.5719 35.6284 21.4644C35.5911 21.357 35.532 21.2584 35.4548 21.1749C35.3776 21.0914 35.2839 21.0247 35.1797 20.9791C35.0755 20.9336 34.9629 20.91 34.8492 20.91C34.7354 20.91 34.6229 20.9336 34.5187 20.9791C34.4145 21.0247 34.3208 21.0914 34.2436 21.1749C34.1664 21.2584 34.1073 21.357 34.07 21.4644C34.0327 21.5719 34.0181 21.6859 34.027 21.7993V22.6241H33.2022C32.9843 22.6241 32.7753 22.7103 32.6208 22.8639C32.4663 23.0175 32.3788 23.2259 32.3774 23.4438V30.5276C32.3788 30.7455 32.4663 30.954 32.6208 31.1076C32.7753 31.2611 32.9843 31.3473 33.2022 31.3473H34.027V32.1721C34.0322 32.3873 34.1215 32.5919 34.2756 32.7423C34.4297 32.8926 34.6364 32.9767 34.8517 32.9766ZM34.027 24.2635H35.6714V29.7029H34.027V24.2635ZM23.7734 38.0643C23.6378 37.9737 23.4784 37.9253 23.3152 37.9253C23.0965 37.9253 22.8867 38.0122 22.732 38.1669C22.5774 38.3215 22.4905 38.5313 22.4905 38.75C22.4905 38.9132 22.5388 39.0726 22.6295 39.2083C22.7201 39.3439 22.8489 39.4496 22.9996 39.512C23.1503 39.5745 23.3162 39.5908 23.4761 39.559C23.6361 39.5271 23.7831 39.4486 23.8984 39.3332C24.0138 39.2179 24.0923 39.0709 24.1241 38.9109C24.156 38.751 24.1396 38.5851 24.0772 38.4344C24.0148 38.2837 23.9091 38.1549 23.7734 38.0643Z" fill="url(#paint0_linear_1315_141)"/>
<defs>
<linearGradient id="paint0_linear_1315_141" x1="4" y1="0.5" x2="43.5" y2="43" gradientUnits="userSpaceOnUse">
<stop stop-color="#94FF59"/>
<stop offset="1" stop-color="#5EE276"/>
</linearGradient>
</defs>
</svg>
