<svg width="44" height="44" viewBox="0 0 44 44" fill="none" xmlns="http://www.w3.org/2000/svg">
<path fill-rule="evenodd" clip-rule="evenodd" d="M26.1582 2.13799L30.0441 6.02397H43.6249V24.867H13.2049V15.6175C11.7339 15.5623 10.3068 15.1018 9.08105 14.2868L8.64083 13.9984H7.41128V16.1741H0.165527V0.235469H7.43153V1.62694L8.16521 1.65729C8.52936 1.66845 8.89069 1.59027 9.21766 1.42959L10.8217 0.609895C11.3251 0.360772 11.8791 0.23092 12.4408 0.230404H21.5486C22.405 0.226737 23.2537 0.393516 24.0451 0.721012C24.8364 1.04851 25.5547 1.53018 26.1582 2.13799ZM1.62784 14.7168H5.9591L5.97428 1.68259H1.62784V14.7168ZM9.07599 12.5462L9.88051 13.0775V13.1078C10.8756 13.7547 12.0287 14.117 13.215 14.1552V10.6538C12.6808 10.4589 12.1819 10.1786 11.7375 9.82395L11.3125 9.47988L12.2283 8.35151L12.6483 8.69561C13.3438 9.25309 14.212 9.55053 15.1033 9.53668C15.9946 9.52282 16.8532 9.19853 17.531 8.6197L18.037 8.18962L22.3126 12.4601C22.4479 12.5947 22.6083 12.7013 22.7847 12.7739C22.9611 12.8464 23.1501 12.8835 23.3408 12.8831C23.5316 12.8826 23.7204 12.8446 23.8965 12.7711C24.0725 12.6977 24.2324 12.5903 24.367 12.4551C24.5015 12.3199 24.6081 12.1595 24.6807 11.983C24.7532 11.8066 24.7903 11.6176 24.7899 11.4269C24.7894 11.2361 24.7514 11.0473 24.6779 10.8713C24.6045 10.6952 24.4971 10.5353 24.3619 10.4008L19.2464 5.28522L20.2583 4.27324L22.0192 6.02904H27.9949L25.136 3.16513C24.6651 2.69404 24.1058 2.32057 23.4901 2.06616C22.8745 1.81174 22.2147 1.6814 21.5486 1.68259H12.4408C12.102 1.6816 11.7677 1.75957 11.4643 1.91029L9.84508 2.72492C9.30142 2.99296 8.70022 3.12328 8.09437 3.10441L7.41128 3.07912V12.5462H9.07599ZM21.2804 13.4924L20.1875 12.3994V12.4045C19.5286 13.212 18.5991 13.7532 17.5715 13.9275V16.9634C18.4549 17.117 19.2692 17.5397 19.9032 18.1737C20.5372 18.8076 20.9599 19.622 21.1135 20.5054H35.7213C35.8756 19.6223 36.2985 18.8083 36.9323 18.1745C37.5662 17.5406 38.3802 17.1177 39.2632 16.9634V13.9275C38.3808 13.7719 37.5676 13.3485 36.9339 12.7149C36.3003 12.0813 35.877 11.2681 35.7213 10.3856H26.0215C26.193 10.8065 26.2609 11.2624 26.2195 11.715C26.1781 12.1675 26.0287 12.6036 25.7837 12.9864C26.4394 12.31 27.3308 11.9127 28.2722 11.8771C29.2135 11.8416 30.1323 12.1705 30.8372 12.7955C31.5421 13.4204 31.9787 14.2932 32.0562 15.2321C32.1336 16.1709 31.8459 17.1034 31.253 17.8355C30.66 18.5675 29.8076 19.0425 28.8731 19.1617C27.9387 19.2809 26.9942 19.0351 26.2365 18.4753C25.4788 17.9156 24.9663 17.0851 24.8056 16.1569C24.6449 15.2287 24.8484 14.2742 25.3739 13.4924C24.8278 14.0291 24.0928 14.3299 23.3271 14.3299C22.5615 14.3299 21.8264 14.0291 21.2804 13.4924ZM26.626 14.2266C26.387 14.5844 26.2593 15.005 26.2593 15.4353L26.2442 15.4455C26.2455 15.7316 26.3032 16.0147 26.4141 16.2785C26.525 16.5423 26.6868 16.7816 26.8904 16.9828C27.0939 17.184 27.3351 17.343 27.6001 17.4508C27.8652 17.5586 28.149 17.6131 28.4351 17.6111C28.8654 17.6111 29.2861 17.4835 29.6439 17.2444C30.0017 17.0053 30.2805 16.6655 30.4452 16.268C30.6099 15.8704 30.653 15.4329 30.569 15.0109C30.4851 14.5888 30.2779 14.2012 29.9736 13.8969C29.6693 13.5926 29.2816 13.3854 28.8596 13.3014C28.4375 13.2175 28 13.2605 27.6025 13.4252C27.2049 13.5899 26.8651 13.8688 26.626 14.2266ZM14.652 23.4047H42.198L42.1777 7.47616H23.4562L24.9033 8.92834H37.0926V9.6519C37.0926 10.4208 37.398 11.1583 37.9417 11.702C38.4855 12.2458 39.2229 12.5512 39.9919 12.5512H40.7154V18.3448H39.9919C39.6109 18.3441 39.2336 18.4187 38.8816 18.5641C38.5295 18.7096 38.2096 18.9231 37.9403 19.1925C37.6709 19.4618 37.4574 19.7817 37.3119 20.1338C37.1664 20.4859 37.0919 20.8632 37.0926 21.2441V21.9677H19.7068V21.2441C19.7068 20.4752 19.4013 19.7377 18.8576 19.194C18.3139 18.6502 17.5764 18.3448 16.8075 18.3448H16.0839V12.5512H16.8075C17.2639 12.5507 17.7137 12.4427 18.1207 12.2362C18.5277 12.0296 18.8803 11.7302 19.1502 11.3621L17.9156 10.1275C16.9468 10.7514 15.8011 11.0427 14.652 10.9574V23.4047ZM34.5428 30.4533L36.3897 31.5563V29.2136H43.6253V43.7001H36.3795V42.6071L34.2544 43.4471C33.8306 43.614 33.3792 43.6998 32.9237 43.7001H22.7128C22.039 43.7002 21.3785 43.5128 20.8052 43.1587L7.61411 35.2652C7.17619 35.0106 6.81319 34.645 6.56177 34.2052C6.31035 33.7655 6.17942 33.2672 6.18217 32.7606C6.1844 32.2549 6.31684 31.7582 6.56673 31.3185C6.95018 30.6554 7.58006 30.1706 8.31925 29.9697C9.05844 29.7688 9.84707 29.868 10.5134 30.2458L17.8756 34.228C18.0324 33.7875 18.2932 33.3915 18.6359 33.0735C18.9786 32.7555 19.393 32.5249 19.8439 32.4013L28.223 30.1649C28.7711 30.0192 29.3358 29.9461 29.9029 29.9473H32.6808C33.3359 29.9433 33.9798 30.1182 34.5428 30.4533ZM32.9338 42.2529C33.2058 42.2535 33.4755 42.202 33.7282 42.1011L36.3694 41.0891V33.2868L33.7788 31.7334C33.4408 31.5312 33.0543 31.4246 32.6605 31.4248H29.8827C29.4419 31.4262 29.0032 31.484 28.5772 31.5968L20.2132 33.8383C19.9268 33.9173 19.6712 34.0815 19.4805 34.3093C19.2898 34.5371 19.1729 34.8176 19.1456 35.1134V35.3513C19.1505 35.4421 19.1657 35.5321 19.1911 35.6194C19.2744 35.926 19.4563 36.1966 19.7087 36.3896C19.9611 36.5825 20.27 36.6871 20.5877 36.687C20.6787 36.6769 21.1038 36.5909 21.4327 36.515L28.9365 34.4911L29.3109 35.8876L21.7818 37.9116C21.3898 38.013 20.9906 38.0841 20.5877 38.1241C19.9507 38.1221 19.332 37.9111 18.8266 37.5235C18.3211 37.136 17.9568 36.5933 17.7895 35.9787C17.785 35.9349 17.785 35.8909 17.7895 35.8471L9.80505 31.5361C9.59039 31.4097 9.34575 31.3433 9.09667 31.3438C9.00406 31.3363 8.91098 31.3363 8.81837 31.3438C8.69376 31.3682 8.57296 31.409 8.45912 31.4653C8.1974 31.5867 7.97991 31.7865 7.83675 32.037C7.71148 32.2579 7.64364 32.5067 7.63942 32.7606C7.63825 33.0158 7.70455 33.2667 7.83162 33.4879C7.95869 33.7092 8.14201 33.8929 8.36298 34.0205L21.5693 41.919C21.9145 42.1371 22.3145 42.2529 22.7229 42.2529H32.9338ZM42.1832 30.6607H37.8368V42.2529H42.1832V30.6607Z" fill="url(#paint0_linear_1315_142)"/>
<defs>
<linearGradient id="paint0_linear_1315_142" x1="3.26227" y1="0.0504447" x2="43.9179" y2="43.7366" gradientUnits="userSpaceOnUse">
<stop stop-color="#94FF59"/>
<stop offset="1" stop-color="#5EE276"/>
</linearGradient>
</defs>
</svg>
