<svg width="654" height="421" viewBox="0 0 654 421" fill="none" xmlns="http://www.w3.org/2000/svg">
<g style="mix-blend-mode:lighten" opacity="0.5">
<path d="M206.314 393.414C197.087 395.541 187.461 395.201 178.403 392.427L89.8201 365.454C86.0066 364.294 82.5692 362.138 79.8607 359.209C77.1522 356.28 75.2701 352.683 74.4075 348.786C73.5448 344.889 73.7327 340.834 74.9519 337.035C76.171 333.237 78.3776 329.832 81.3451 327.171L214.558 205.878C215.356 205.073 216.309 204.44 217.359 204.016C218.409 203.592 219.534 203.386 220.666 203.411C221.799 203.436 222.914 203.69 223.946 204.16C224.977 204.629 225.902 205.303 226.666 206.142C227.43 206.98 228.015 207.964 228.387 209.036C228.76 210.107 228.911 211.243 228.831 212.374C228.752 213.506 228.444 214.609 227.926 215.617C227.408 216.625 226.691 217.518 225.819 218.24L92.5024 339.651C91.7315 340.326 91.1553 341.195 90.8337 342.169C90.512 343.143 90.4566 344.186 90.6732 345.188C90.8898 346.191 91.3705 347.118 92.0654 347.872C92.7603 348.627 93.6441 349.181 94.6249 349.478L183.208 376.451C189.451 378.346 196.081 378.564 202.433 377.084C208.785 375.603 214.635 372.476 219.397 368.015L472.171 132.583C479.075 126.126 487.552 121.599 496.755 119.454C505.957 117.308 600.562 117.621 609.609 120.359C610.659 120.678 611.635 121.201 612.483 121.897C613.331 122.594 614.034 123.451 614.552 124.419C615.069 125.388 615.391 126.448 615.499 127.541C615.608 128.634 615.5 129.737 615.182 130.788C614.865 131.838 614.344 132.816 613.649 133.665C612.954 134.514 612.099 135.217 611.132 135.734C610.165 136.252 609.106 136.574 608.015 136.681C606.924 136.789 605.823 136.68 604.773 136.361C598.526 134.476 506.895 134.264 500.543 135.745C494.19 137.225 488.337 140.348 483.567 144.801L230.859 380.199C223.982 386.69 215.515 391.248 206.314 393.414Z" fill="url(#paint0_linear_1154_9009)"/>
</g>
<path d="M113.358 98.6666L5.41159 66.8065C-1.02819 64.9058 -7.48523 69.7324 -7.48523 76.4468C-7.48523 80.9076 -4.54525 84.8348 -0.265069 86.0913L107.727 117.794C112.137 119.089 116.861 117.201 119.163 113.224C122.399 107.636 119.55 100.494 113.358 98.6666Z" fill="#1B325F"/>
<path d="M356.938 75.6087C356.938 75.6087 356.185 76.8708 355.455 78.3148C354.212 80.0536 352.776 81.6453 351.174 83.0594C350.16 84.0827 345.603 89.5662 345.415 93.975C345.226 98.3839 349.289 97.9989 353.164 96.3276C357.039 94.6563 359.934 90.066 360.683 88.4675C362.919 84.9522 365.707 81.8223 368.941 79.1991C373.307 75.4648 369.506 72.7166 369.506 72.7166L356.938 75.6087Z" fill="#160A5B"/>
<path opacity="0.4" d="M279.629 261.73C349.346 245.478 398.246 199.624 388.849 159.311C379.452 118.999 315.317 99.4932 245.599 115.744C175.882 131.996 126.982 177.85 136.379 218.163C145.776 258.475 209.911 277.981 279.629 261.73Z" fill="#0F054C"/>
<path d="M272.762 232.269C351.287 213.964 406.363 162.309 395.776 116.893C385.19 71.4779 312.95 49.4999 234.425 67.8043C155.899 86.1086 100.824 137.764 111.41 183.179C121.997 228.595 194.236 250.573 272.762 232.269Z" fill="url(#paint1_linear_1154_9009)"/>
<path opacity="0.48" d="M389.464 89.8144L385.916 90.6415C376.787 77.314 360.842 66.3621 338.457 59.553C275.448 40.3884 185.419 61.3742 137.378 106.425C121.279 121.53 111.947 137.419 109.015 152.602L104.544 153.644L108.794 171.875C112.784 193.968 131.779 212.789 164.495 222.754C227.504 241.919 317.533 220.933 365.574 175.883C389.608 153.42 398.578 129.073 393.674 108.035L389.464 89.8144Z" fill="url(#paint2_linear_1154_9009)"/>
<path opacity="0.48" d="M389.464 89.8144L385.916 90.6415C376.787 77.314 360.842 66.3621 338.457 59.553C275.448 40.3884 185.419 61.3742 137.378 106.425C121.279 121.53 111.947 137.419 109.015 152.602L104.544 153.644L108.794 171.875C112.784 193.968 131.779 212.789 164.495 222.754C227.504 241.919 317.533 220.933 365.574 175.883C389.608 153.42 398.578 129.073 393.674 108.035L389.464 89.8144Z" fill="url(#paint3_linear_1154_9009)"/>
<path opacity="0.48" d="M389.464 89.8144L385.916 90.6415C376.787 77.314 360.842 66.3621 338.457 59.553C275.448 40.3884 185.419 61.3742 137.378 106.425C121.279 121.53 111.947 137.419 109.015 152.602L104.544 153.644L108.794 171.875C112.784 193.968 131.779 212.789 164.495 222.754C227.504 241.919 317.533 220.933 365.574 175.883C389.608 153.42 398.578 129.073 393.674 108.035L389.464 89.8144Z" fill="url(#paint4_linear_1154_9009)"/>
<path d="M387.824 82.779L384.276 83.606C375.151 70.2964 359.202 59.3267 336.821 52.5354C273.812 33.3708 183.783 54.3566 135.742 99.407C119.643 114.512 110.311 130.401 107.374 145.567L102.904 146.609L107.154 164.839C111.148 186.951 130.143 205.772 162.855 215.719C225.864 234.884 315.893 213.898 363.933 168.847C387.968 146.384 396.938 122.038 392.034 101L387.824 82.779Z" fill="url(#paint5_linear_1154_9009)"/>
<path opacity="0.48" d="M384.303 83.5607C383.988 83.0909 383.659 82.643 383.326 82.1773L380.539 70.2192L373.088 71.956L372.885 71.0853C370.323 68.9287 367.628 66.9352 364.817 65.1166L366.755 73.4322L362.48 74.4288L359.58 61.9909C357.174 60.6535 354.643 59.3701 351.987 58.1407L356.129 75.9091L351.871 76.9016L347.009 56.0414C344.659 55.1091 342.208 54.2194 339.675 53.3859L345.503 78.3861L341.263 79.3744L334.86 51.9044C332.511 51.2155 330.121 50.5923 327.687 50.0171L334.877 80.863L330.673 81.843L323.019 49.007C320.684 48.5396 318.336 48.0941 315.951 47.7321L324.234 83.2689L320.048 84.2448L313.338 55.4599L306.899 56.961L313.625 85.8169L309.456 86.7886L304.577 65.8574L298.12 67.3626L302.999 88.2938L298.848 89.2614L295.812 76.2372L289.337 77.7465L292.373 90.7707L288.239 91.7342L287.051 86.6347L280.558 88.1482L281.747 93.2477L203.267 111.541L202.078 106.442L195.585 107.955L196.774 113.055L192.641 114.018L189.605 100.994L183.147 102.499L186.183 115.524L182.032 116.491L177.153 95.56L170.696 97.0652L175.575 117.996L171.406 118.968L164.68 90.1122L158.241 91.6133L164.967 120.469L160.869 121.424L152.56 85.781C150.586 87.178 148.664 88.5627 146.785 90.0498L154.447 122.921L150.225 123.905L143.031 93.0417C141.097 94.6165 139.23 96.2321 137.41 97.8928L143.821 125.398L139.581 126.387L133.746 101.351C131.843 103.218 130.033 105.083 128.342 106.975L133.213 127.871L128.938 128.868L124.796 111.099C122.937 113.343 121.235 115.614 119.688 117.91L122.587 130.348L118.294 131.349L116.339 122.962C114.62 125.83 113.083 128.804 111.737 131.865L111.961 132.825L104.51 134.562L107.082 145.596L103.925 146.332L111.049 176.894C113.614 182.314 117.022 187.293 121.145 191.644L116.714 172.632L121.007 171.631L126.967 197.2C129.528 199.351 132.221 201.338 135.031 203.151L127.34 170.155L131.615 169.158L140.267 206.276C142.677 207.626 145.208 208.909 147.861 210.127L137.966 167.678L142.223 166.685L152.83 212.19C155.184 213.14 157.632 214.012 160.164 214.846L148.592 165.201L152.814 164.217L164.962 216.332C167.324 216.999 169.714 217.622 172.149 218.197L159.218 162.724L163.422 161.744L176.8 219.136C179.135 219.603 181.479 220.031 183.868 220.411L169.844 160.247L174.03 159.271L188.456 221.159C190.754 221.466 193.078 221.73 195.426 221.932L180.47 157.77L184.639 156.798L199.91 222.311C202.192 222.472 204.483 222.593 206.802 222.671L191.096 155.293L195.247 154.326L211.205 222.787C213.458 222.824 215.739 222.817 218.015 222.792L201.704 152.82L205.837 151.857L222.347 222.682L229.113 222.341L212.33 150.344L216.446 149.384L233.378 222.021C235.612 221.819 237.847 221.617 240.087 221.357L222.956 147.867L227.054 146.911L244.288 220.846C246.506 220.572 248.73 220.241 250.949 219.893L233.582 145.39L237.662 144.439L255.058 219.066C257.269 218.682 259.472 218.262 261.67 217.824L244.208 142.913L248.271 141.966L265.786 217.108C267.986 216.596 270.204 216.079 272.403 215.566L254.888 140.423L258.95 139.476L276.445 214.53C278.627 214.022 280.772 213.353 282.925 212.72L265.496 137.951L269.576 136.999L286.943 211.502C289.087 210.834 291.206 210.134 293.338 209.412L276.104 135.478L280.184 134.527L297.315 208.017C299.435 207.242 301.55 206.449 303.64 205.624L286.712 133.005L290.81 132.05L307.589 204.03C309.694 203.164 311.767 202.269 313.808 201.343L297.303 130.536L301.436 129.573L317.743 199.527C319.817 198.556 321.865 197.554 323.87 196.525L307.911 128.063L312.062 127.096L327.768 194.474C329.809 193.361 331.811 192.239 333.786 191.085L318.52 125.591L322.688 124.619L337.644 188.781C339.657 187.544 341.607 186.283 343.55 184.987L329.128 123.118L333.314 122.142L347.351 182.359C349.33 180.98 351.248 179.577 353.127 178.09L339.736 120.645L343.94 119.665L356.867 175.12C358.796 173.528 360.664 171.912 362.466 170.256L350.327 118.176L354.566 117.188L366.13 166.797C368.037 164.948 369.843 163.066 371.534 161.173L360.935 115.704L365.192 114.711L375.067 157.071C376.922 154.815 378.625 152.545 380.175 150.26L371.543 113.231L375.819 112.234L383.497 145.177C385.22 142.305 386.756 139.326 388.095 136.256L382.152 110.758L386.445 109.757L390.868 128.734C392.648 122.955 393.491 116.927 393.365 110.879L386.862 82.983L384.303 83.5607Z" fill="url(#paint6_linear_1154_9009)"/>
<path d="M264.809 198.153C343.335 179.849 398.41 128.194 387.824 82.7782C377.238 37.3626 304.998 15.3847 226.472 33.689C147.947 51.9934 92.8714 103.649 103.458 149.064C114.044 194.48 186.284 216.458 264.809 198.153Z" fill="url(#paint7_linear_1154_9009)"/>
<path d="M145.746 90.0865C188.275 50.1986 268.015 31.6113 323.816 48.5782C350.49 56.692 366.861 71.4786 372.04 89.0427C368.644 69.3394 351.805 52.5449 322.673 43.6741C266.872 26.7072 187.132 45.2946 144.603 85.1824C122.392 106.003 114.715 128.512 120.368 147.708C117.242 129.646 125.392 109.162 145.746 90.0865Z" fill="url(#paint8_linear_1154_9009)"/>
<path d="M345.119 141.396C302.589 181.284 222.85 199.871 167.048 182.904C140.375 174.79 124.004 160.004 118.825 142.44C122.221 162.143 139.06 178.937 168.192 187.808C223.993 204.775 303.732 186.188 346.262 146.3C368.473 125.48 376.15 102.971 370.497 83.7748C373.622 101.836 365.473 122.32 345.119 141.396Z" fill="url(#paint9_linear_1154_9009)"/>
<path d="M251.461 127.592C252.014 122.202 253.128 116.874 254.044 111.507C254.664 107.837 255.422 104.194 255.996 100.517C256.734 95.7345 257.469 90.9541 258.005 86.1565C258.418 82.4002 259.756 78.7703 258.785 74.8144C257.763 70.6228 253.44 67.6608 249.306 69.0949C244.756 70.6731 240.271 72.4511 235.759 74.1761C235.407 74.309 235.123 74.6177 234.509 75.057C235.887 76.5548 237.101 77.7577 238.166 79.0781C240.195 81.594 241.263 84.2935 240.662 87.7273C239.072 96.9518 237.707 106.236 236.279 115.497C234.94 124.164 233.579 132.825 232.34 141.503C231.746 145.283 231.359 149.092 231.181 152.914C230.996 158.519 237.066 162.708 242.36 160.842C242.919 160.631 243.469 160.33 244.057 160.185C246.116 159.652 246.966 158.224 247.178 156.224C248.198 146.615 250.463 137.203 251.461 127.592Z" fill="url(#paint10_linear_1154_9009)"/>
<path d="M282.785 142.701C283.062 141.018 283.243 139.32 283.483 137.63C284.458 130.759 285.404 123.88 286.421 117.015C287.285 111.167 288.94 105.446 288.455 99.4072C288.084 94.8564 283.443 91.2456 279.11 92.7292C275.109 94.1036 271.2 95.7461 267.264 97.2968C266.356 97.6557 265.49 98.1179 264.164 98.7311C265.039 99.7465 265.502 100.399 266.073 100.937C269.79 104.419 270.831 108.559 269.965 113.588C267.998 125.022 266.33 136.51 264.574 147.981C264.401 149.094 264.445 150.243 264.388 151.387C265.115 151.451 265.452 151.582 265.705 151.49C270.626 149.689 275.548 147.889 280.44 146.011C281.877 145.468 282.543 144.167 282.785 142.701Z" fill="url(#paint11_linear_1154_9009)"/>
<path d="M221.651 106.946C222.26 102.966 223.175 99.0259 223.635 95.0317C224.191 90.2233 224.162 85.504 219.114 82.6161C217.984 81.9709 216.977 81.5496 215.722 82.0257C213.935 82.7039 212.347 83.7171 210.507 84.1962C208.915 85.1209 207.79 85.5732 207.516 87.3874C205.593 100.144 203.532 112.879 201.675 125.646C201.379 127.671 201.695 129.859 202.107 131.899C202.326 132.966 203.203 134.076 204.086 134.791C206.584 136.821 209.233 138.658 211.833 140.56C212.957 141.383 214.028 142.362 215.961 142.116C216.742 137.952 217.597 133.925 218.236 129.865C219.439 122.232 220.478 114.575 221.651 106.946Z" fill="url(#paint12_linear_1154_9009)"/>
<defs>
<linearGradient id="paint0_linear_1154_9009" x1="57.5148" y1="354.501" x2="561.015" y2="128.001" gradientUnits="userSpaceOnUse">
<stop stop-color="#2E5CB5"/>
<stop offset="1" stop-color="#0E1114"/>
</linearGradient>
<linearGradient id="paint1_linear_1154_9009" x1="90.291" y1="108.916" x2="299.151" y2="311.39" gradientUnits="userSpaceOnUse">
<stop stop-color="#42E8E0"/>
<stop offset="0.02" stop-color="#40DDDA"/>
<stop offset="0.09" stop-color="#3AAEC0"/>
<stop offset="0.17" stop-color="#3484A9"/>
<stop offset="0.26" stop-color="#2F6195"/>
<stop offset="0.35" stop-color="#2B4486"/>
<stop offset="0.44" stop-color="#282E79"/>
<stop offset="0.54" stop-color="#261E71"/>
<stop offset="0.66" stop-color="#24156C"/>
<stop offset="0.82" stop-color="#24126A"/>
</linearGradient>
<linearGradient id="paint2_linear_1154_9009" x1="87.8661" y1="179.263" x2="369.412" y2="113.635" gradientUnits="userSpaceOnUse">
<stop stop-color="#42E8E0"/>
<stop offset="0.15" stop-color="#43E3E0"/>
<stop offset="0.33" stop-color="#45D5DF"/>
<stop offset="0.52" stop-color="#49BDDD"/>
<stop offset="0.72" stop-color="#4E9CDB"/>
<stop offset="0.93" stop-color="#5472D8"/>
<stop offset="1" stop-color="#5761D7"/>
</linearGradient>
<linearGradient id="paint3_linear_1154_9009" x1="87.8661" y1="179.263" x2="369.412" y2="113.635" gradientUnits="userSpaceOnUse">
<stop stop-color="#42E8E0"/>
<stop offset="0.15" stop-color="#43E3E0"/>
<stop offset="0.33" stop-color="#45D5DF"/>
<stop offset="0.52" stop-color="#49BDDD"/>
<stop offset="0.72" stop-color="#4E9CDB"/>
<stop offset="0.93" stop-color="#5472D8"/>
<stop offset="1" stop-color="#5761D7"/>
</linearGradient>
<linearGradient id="paint4_linear_1154_9009" x1="87.8661" y1="179.263" x2="369.412" y2="113.635" gradientUnits="userSpaceOnUse">
<stop stop-color="#42E8E0"/>
<stop offset="0.15" stop-color="#43E3E0"/>
<stop offset="0.33" stop-color="#45D5DF"/>
<stop offset="0.52" stop-color="#49BDDD"/>
<stop offset="0.72" stop-color="#4E9CDB"/>
<stop offset="0.93" stop-color="#5472D8"/>
<stop offset="1" stop-color="#5761D7"/>
</linearGradient>
<linearGradient id="paint5_linear_1154_9009" x1="86.2217" y1="172.21" x2="367.767" y2="106.581" gradientUnits="userSpaceOnUse">
<stop stop-color="#42E8E0"/>
<stop offset="0.02" stop-color="#40DDDA"/>
<stop offset="0.09" stop-color="#3AAEC0"/>
<stop offset="0.17" stop-color="#3484A9"/>
<stop offset="0.26" stop-color="#2F6195"/>
<stop offset="0.35" stop-color="#2B4486"/>
<stop offset="0.44" stop-color="#282E79"/>
<stop offset="0.54" stop-color="#261E71"/>
<stop offset="0.66" stop-color="#24156C"/>
<stop offset="0.82" stop-color="#24126A"/>
</linearGradient>
<linearGradient id="paint6_linear_1154_9009" x1="110.455" y1="174.428" x2="392.817" y2="108.609" gradientUnits="userSpaceOnUse">
<stop stop-color="#42E8E0"/>
<stop offset="0.15" stop-color="#43E3E0"/>
<stop offset="0.33" stop-color="#45D5DF"/>
<stop offset="0.52" stop-color="#49BDDD"/>
<stop offset="0.72" stop-color="#4E9CDB"/>
<stop offset="0.93" stop-color="#5472D8"/>
<stop offset="1" stop-color="#5761D7"/>
</linearGradient>
<linearGradient id="paint7_linear_1154_9009" x1="82.1732" y1="74.7653" x2="291.049" y2="277.236" gradientUnits="userSpaceOnUse">
<stop stop-color="#42E8E0"/>
<stop offset="0.02" stop-color="#40DDDA"/>
<stop offset="0.09" stop-color="#3AAEC0"/>
<stop offset="0.17" stop-color="#3484A9"/>
<stop offset="0.26" stop-color="#2F6195"/>
<stop offset="0.35" stop-color="#2B4486"/>
<stop offset="0.44" stop-color="#282E79"/>
<stop offset="0.54" stop-color="#261E71"/>
<stop offset="0.66" stop-color="#24156C"/>
<stop offset="0.82" stop-color="#24126A"/>
</linearGradient>
<linearGradient id="paint8_linear_1154_9009" x1="111.524" y1="110.091" x2="363.338" y2="51.3927" gradientUnits="userSpaceOnUse">
<stop stop-color="#2B237C"/>
<stop offset="1" stop-color="#180D5B"/>
</linearGradient>
<linearGradient id="paint9_linear_1154_9009" x1="379.34" y1="121.392" x2="127.526" y2="180.09" gradientUnits="userSpaceOnUse">
<stop stop-color="#2B237C"/>
<stop offset="1" stop-color="#180D5B"/>
</linearGradient>
<linearGradient id="paint10_linear_1154_9009" x1="216.679" y1="93.2261" x2="274.904" y2="139.417" gradientUnits="userSpaceOnUse">
<stop stop-color="#4CA4FF"/>
<stop offset="1" stop-color="#3957E3"/>
</linearGradient>
<linearGradient id="paint11_linear_1154_9009" x1="254.925" y1="107.447" x2="295.314" y2="139.492" gradientUnits="userSpaceOnUse">
<stop stop-color="#4CA4FF"/>
<stop offset="1" stop-color="#3957E3"/>
</linearGradient>
<linearGradient id="paint12_linear_1154_9009" x1="196.708" y1="97.3847" x2="235.787" y2="128.339" gradientUnits="userSpaceOnUse">
<stop stop-color="#4CA4FF"/>
<stop offset="1" stop-color="#3957E3"/>
</linearGradient>
</defs>
</svg>
