<svg width="283" height="253" viewBox="0 0 283 253" fill="none" xmlns="http://www.w3.org/2000/svg">
<rect x="1.01465" y="0.5" width="281" height="252" rx="19.5" fill="#1E1F24" stroke="#3A3B42"/>
<rect x="191.515" y="105" width="61" height="22" fill="#362829"/>
<rect x="191.515" y="137" width="61" height="22" fill="#2D3733"/>
<rect x="191.515" y="169" width="61" height="22" fill="#362829"/>
<rect x="221.515" y="201" width="31" height="22" fill="#2D3733"/>
<path d="M215.202 121.149C214.4 121.149 213.716 120.931 213.151 120.494C212.587 120.054 212.155 119.416 211.857 118.582C211.559 117.744 211.41 116.732 211.41 115.545C211.41 114.366 211.559 113.36 211.857 112.525C212.159 111.687 212.592 111.048 213.157 110.608C213.725 110.164 214.407 109.942 215.202 109.942C215.998 109.942 216.678 110.164 217.242 110.608C217.81 111.048 218.244 111.687 218.542 112.525C218.844 113.36 218.995 114.366 218.995 115.545C218.995 116.732 218.846 117.744 218.547 118.582C218.249 119.416 217.818 120.054 217.253 120.494C216.688 120.931 216.005 121.149 215.202 121.149ZM215.202 119.977C215.998 119.977 216.616 119.594 217.056 118.827C217.496 118.06 217.716 116.966 217.716 115.545C217.716 114.601 217.615 113.797 217.413 113.132C217.214 112.468 216.926 111.962 216.55 111.614C216.177 111.266 215.728 111.092 215.202 111.092C214.414 111.092 213.798 111.481 213.354 112.259C212.91 113.033 212.688 114.129 212.688 115.545C212.688 116.49 212.787 117.293 212.986 117.953C213.185 118.614 213.471 119.116 213.844 119.461C214.22 119.805 214.673 119.977 215.202 119.977ZM221.576 121.085C221.313 121.085 221.087 120.991 220.899 120.803C220.711 120.615 220.617 120.389 220.617 120.126C220.617 119.864 220.711 119.638 220.899 119.45C221.087 119.262 221.313 119.168 221.576 119.168C221.838 119.168 222.064 119.262 222.252 119.45C222.44 119.638 222.534 119.864 222.534 120.126C222.534 120.3 222.49 120.46 222.401 120.606C222.316 120.751 222.201 120.869 222.055 120.957C221.913 121.043 221.753 121.085 221.576 121.085ZM227.3 110.091V121H225.979V111.476H225.915L223.252 113.244V111.902L225.979 110.091H227.3ZM230.779 121L235.658 111.348V111.263H230.033V110.091H237.022V111.327L232.164 121H230.779ZM242.331 121.149C241.528 121.149 240.845 120.931 240.28 120.494C239.716 120.054 239.284 119.416 238.986 118.582C238.688 117.744 238.538 116.732 238.538 115.545C238.538 114.366 238.688 113.36 238.986 112.525C239.288 111.687 239.721 111.048 240.286 110.608C240.854 110.164 241.536 109.942 242.331 109.942C243.127 109.942 243.807 110.164 244.371 110.608C244.939 111.048 245.373 111.687 245.671 112.525C245.973 113.36 246.124 114.366 246.124 115.545C246.124 116.732 245.975 117.744 245.676 118.582C245.378 119.416 244.946 120.054 244.382 120.494C243.817 120.931 243.134 121.149 242.331 121.149ZM242.331 119.977C243.127 119.977 243.744 119.594 244.185 118.827C244.625 118.06 244.845 116.966 244.845 115.545C244.845 114.601 244.744 113.797 244.542 113.132C244.343 112.468 244.055 111.962 243.679 111.614C243.306 111.266 242.857 111.092 242.331 111.092C241.543 111.092 240.927 111.481 240.483 112.259C240.039 113.033 239.817 114.129 239.817 115.545C239.817 116.49 239.916 117.293 240.115 117.953C240.314 118.614 240.6 119.116 240.973 119.461C241.349 119.805 241.802 119.977 242.331 119.977Z" fill="white"/>
<path d="M210.202 153.149C209.4 153.149 208.716 152.931 208.151 152.494C207.587 152.054 207.155 151.416 206.857 150.582C206.559 149.744 206.41 148.732 206.41 147.545C206.41 146.366 206.559 145.36 206.857 144.525C207.159 143.687 207.592 143.048 208.157 142.608C208.725 142.164 209.407 141.942 210.202 141.942C210.998 141.942 211.678 142.164 212.242 142.608C212.81 143.048 213.244 143.687 213.542 144.525C213.844 145.36 213.995 146.366 213.995 147.545C213.995 148.732 213.846 149.744 213.547 150.582C213.249 151.416 212.818 152.054 212.253 152.494C211.688 152.931 211.005 153.149 210.202 153.149ZM210.202 151.977C210.998 151.977 211.616 151.594 212.056 150.827C212.496 150.06 212.716 148.966 212.716 147.545C212.716 146.601 212.615 145.797 212.413 145.132C212.214 144.468 211.926 143.962 211.55 143.614C211.177 143.266 210.728 143.092 210.202 143.092C209.414 143.092 208.798 143.481 208.354 144.259C207.91 145.033 207.688 146.129 207.688 147.545C207.688 148.49 207.787 149.293 207.986 149.953C208.185 150.614 208.471 151.116 208.844 151.461C209.22 151.805 209.673 151.977 210.202 151.977ZM216.576 153.085C216.313 153.085 216.087 152.991 215.899 152.803C215.711 152.615 215.617 152.389 215.617 152.126C215.617 151.864 215.711 151.638 215.899 151.45C216.087 151.262 216.313 151.168 216.576 151.168C216.838 151.168 217.064 151.262 217.252 151.45C217.44 151.638 217.534 151.864 217.534 152.126C217.534 152.3 217.49 152.46 217.401 152.606C217.316 152.751 217.201 152.869 217.055 152.957C216.913 153.043 216.753 153.085 216.576 153.085ZM219.769 153V152.041L223.37 148.099C223.792 147.638 224.14 147.237 224.414 146.896C224.687 146.551 224.89 146.228 225.021 145.926C225.156 145.621 225.223 145.301 225.223 144.967C225.223 144.584 225.131 144.252 224.946 143.971C224.765 143.691 224.517 143.474 224.201 143.321C223.885 143.169 223.53 143.092 223.135 143.092C222.716 143.092 222.351 143.179 222.038 143.353C221.729 143.524 221.489 143.763 221.319 144.072C221.152 144.381 221.069 144.744 221.069 145.159H219.812C219.812 144.52 219.959 143.959 220.254 143.476C220.548 142.993 220.95 142.616 221.457 142.347C221.969 142.077 222.542 141.942 223.178 141.942C223.817 141.942 224.384 142.077 224.877 142.347C225.371 142.616 225.758 142.98 226.038 143.439C226.319 143.897 226.459 144.406 226.459 144.967C226.459 145.369 226.386 145.761 226.241 146.145C226.099 146.525 225.85 146.949 225.495 147.418C225.144 147.883 224.655 148.451 224.03 149.122L221.58 151.743V151.828H226.651V153H219.769ZM232.537 153.149C231.834 153.149 231.207 153.028 230.657 152.787C230.11 152.545 229.675 152.21 229.352 151.78C229.032 151.347 228.858 150.844 228.83 150.273H230.172C230.2 150.624 230.321 150.928 230.534 151.184C230.747 151.436 231.026 151.631 231.37 151.77C231.715 151.908 232.097 151.977 232.516 151.977C232.984 151.977 233.4 151.896 233.762 151.732C234.124 151.569 234.408 151.342 234.614 151.05C234.82 150.759 234.923 150.422 234.923 150.038C234.923 149.637 234.824 149.284 234.625 148.978C234.426 148.669 234.135 148.428 233.752 148.254C233.368 148.08 232.899 147.993 232.345 147.993H231.472V146.821H232.345C232.778 146.821 233.158 146.743 233.485 146.587C233.815 146.43 234.073 146.21 234.258 145.926C234.446 145.642 234.54 145.308 234.54 144.925C234.54 144.555 234.458 144.234 234.295 143.961C234.131 143.687 233.901 143.474 233.602 143.321C233.308 143.169 232.96 143.092 232.558 143.092C232.182 143.092 231.827 143.162 231.493 143.3C231.163 143.435 230.893 143.632 230.683 143.891C230.474 144.147 230.36 144.456 230.342 144.818H229.064C229.085 144.246 229.258 143.746 229.581 143.316C229.904 142.883 230.326 142.545 230.848 142.304C231.374 142.062 231.951 141.942 232.58 141.942C233.254 141.942 233.833 142.078 234.316 142.352C234.799 142.622 235.17 142.979 235.429 143.423C235.689 143.866 235.818 144.346 235.818 144.861C235.818 145.475 235.657 145.999 235.334 146.432C235.014 146.865 234.579 147.165 234.028 147.332V147.418C234.717 147.531 235.255 147.824 235.642 148.297C236.03 148.765 236.223 149.346 236.223 150.038C236.223 150.631 236.062 151.164 235.738 151.636C235.419 152.105 234.982 152.474 234.428 152.744C233.874 153.014 233.244 153.149 232.537 153.149ZM241.96 153.149C241.157 153.149 240.474 152.931 239.909 152.494C239.345 152.054 238.913 151.416 238.615 150.582C238.316 149.744 238.167 148.732 238.167 147.545C238.167 146.366 238.316 145.36 238.615 144.525C238.917 143.687 239.35 143.048 239.915 142.608C240.483 142.164 241.165 141.942 241.96 141.942C242.755 141.942 243.435 142.164 244 142.608C244.568 143.048 245.002 143.687 245.3 144.525C245.602 145.36 245.753 146.366 245.753 147.545C245.753 148.732 245.603 149.744 245.305 150.582C245.007 151.416 244.575 152.054 244.011 152.494C243.446 152.931 242.763 153.149 241.96 153.149ZM241.96 151.977C242.755 151.977 243.373 151.594 243.814 150.827C244.254 150.06 244.474 148.966 244.474 147.545C244.474 146.601 244.373 145.797 244.171 145.132C243.972 144.468 243.684 143.962 243.308 143.614C242.935 143.266 242.486 143.092 241.96 143.092C241.172 143.092 240.555 143.481 240.112 144.259C239.668 145.033 239.446 146.129 239.446 147.545C239.446 148.49 239.545 149.293 239.744 149.953C239.943 150.614 240.229 151.116 240.602 151.461C240.978 151.805 241.431 151.977 241.96 151.977Z" fill="white"/>
<path d="M210.202 185.149C209.4 185.149 208.716 184.931 208.151 184.494C207.587 184.054 207.155 183.416 206.857 182.582C206.559 181.744 206.41 180.732 206.41 179.545C206.41 178.366 206.559 177.36 206.857 176.525C207.159 175.687 207.592 175.048 208.157 174.608C208.725 174.164 209.407 173.942 210.202 173.942C210.998 173.942 211.678 174.164 212.242 174.608C212.81 175.048 213.244 175.687 213.542 176.525C213.844 177.36 213.995 178.366 213.995 179.545C213.995 180.732 213.846 181.744 213.547 182.582C213.249 183.416 212.818 184.054 212.253 184.494C211.688 184.931 211.005 185.149 210.202 185.149ZM210.202 183.977C210.998 183.977 211.616 183.594 212.056 182.827C212.496 182.06 212.716 180.966 212.716 179.545C212.716 178.601 212.615 177.797 212.413 177.132C212.214 176.468 211.926 175.962 211.55 175.614C211.177 175.266 210.728 175.092 210.202 175.092C209.414 175.092 208.798 175.481 208.354 176.259C207.91 177.033 207.688 178.129 207.688 179.545C207.688 180.49 207.787 181.293 207.986 181.953C208.185 182.614 208.471 183.116 208.844 183.461C209.22 183.805 209.673 183.977 210.202 183.977ZM216.576 185.085C216.313 185.085 216.087 184.991 215.899 184.803C215.711 184.615 215.617 184.389 215.617 184.126C215.617 183.864 215.711 183.638 215.899 183.45C216.087 183.262 216.313 183.168 216.576 183.168C216.838 183.168 217.064 183.262 217.252 183.45C217.44 183.638 217.534 183.864 217.534 184.126C217.534 184.3 217.49 184.46 217.401 184.606C217.316 184.751 217.201 184.869 217.055 184.957C216.913 185.043 216.753 185.085 216.576 185.085ZM219.769 185V184.041L223.37 180.099C223.792 179.638 224.14 179.237 224.414 178.896C224.687 178.551 224.89 178.228 225.021 177.926C225.156 177.621 225.223 177.301 225.223 176.967C225.223 176.584 225.131 176.252 224.946 175.971C224.765 175.691 224.517 175.474 224.201 175.321C223.885 175.169 223.53 175.092 223.135 175.092C222.716 175.092 222.351 175.179 222.038 175.353C221.729 175.524 221.489 175.763 221.319 176.072C221.152 176.381 221.069 176.744 221.069 177.159H219.812C219.812 176.52 219.959 175.959 220.254 175.476C220.548 174.993 220.95 174.616 221.457 174.347C221.969 174.077 222.542 173.942 223.178 173.942C223.817 173.942 224.384 174.077 224.877 174.347C225.371 174.616 225.758 174.98 226.038 175.439C226.319 175.897 226.459 176.406 226.459 176.967C226.459 177.369 226.386 177.761 226.241 178.145C226.099 178.525 225.85 178.949 225.495 179.418C225.144 179.883 224.655 180.451 224.03 181.122L221.58 183.743V183.828H226.651V185H219.769ZM232.537 185.149C231.834 185.149 231.207 185.028 230.657 184.787C230.11 184.545 229.675 184.21 229.352 183.78C229.032 183.347 228.858 182.844 228.83 182.273H230.172C230.2 182.624 230.321 182.928 230.534 183.184C230.747 183.436 231.026 183.631 231.37 183.77C231.715 183.908 232.097 183.977 232.516 183.977C232.984 183.977 233.4 183.896 233.762 183.732C234.124 183.569 234.408 183.342 234.614 183.05C234.82 182.759 234.923 182.422 234.923 182.038C234.923 181.637 234.824 181.284 234.625 180.978C234.426 180.669 234.135 180.428 233.752 180.254C233.368 180.08 232.899 179.993 232.345 179.993H231.472V178.821H232.345C232.778 178.821 233.158 178.743 233.485 178.587C233.815 178.43 234.073 178.21 234.258 177.926C234.446 177.642 234.54 177.308 234.54 176.925C234.54 176.555 234.458 176.234 234.295 175.961C234.131 175.687 233.901 175.474 233.602 175.321C233.308 175.169 232.96 175.092 232.558 175.092C232.182 175.092 231.827 175.162 231.493 175.3C231.163 175.435 230.893 175.632 230.683 175.891C230.474 176.147 230.36 176.456 230.342 176.818H229.064C229.085 176.246 229.258 175.746 229.581 175.316C229.904 174.883 230.326 174.545 230.848 174.304C231.374 174.062 231.951 173.942 232.58 173.942C233.254 173.942 233.833 174.078 234.316 174.352C234.799 174.622 235.17 174.979 235.429 175.423C235.689 175.866 235.818 176.346 235.818 176.861C235.818 177.475 235.657 177.999 235.334 178.432C235.014 178.865 234.579 179.165 234.028 179.332V179.418C234.717 179.531 235.255 179.824 235.642 180.297C236.03 180.765 236.223 181.346 236.223 182.038C236.223 182.631 236.062 183.164 235.738 183.636C235.419 184.105 234.982 184.474 234.428 184.744C233.874 185.014 233.244 185.149 232.537 185.149ZM241.96 185.149C241.157 185.149 240.474 184.931 239.909 184.494C239.345 184.054 238.913 183.416 238.615 182.582C238.316 181.744 238.167 180.732 238.167 179.545C238.167 178.366 238.316 177.36 238.615 176.525C238.917 175.687 239.35 175.048 239.915 174.608C240.483 174.164 241.165 173.942 241.96 173.942C242.755 173.942 243.435 174.164 244 174.608C244.568 175.048 245.002 175.687 245.3 176.525C245.602 177.36 245.753 178.366 245.753 179.545C245.753 180.732 245.603 181.744 245.305 182.582C245.007 183.416 244.575 184.054 244.011 184.494C243.446 184.931 242.763 185.149 241.96 185.149ZM241.96 183.977C242.755 183.977 243.373 183.594 243.814 182.827C244.254 182.06 244.474 180.966 244.474 179.545C244.474 178.601 244.373 177.797 244.171 177.132C243.972 176.468 243.684 175.962 243.308 175.614C242.935 175.266 242.486 175.092 241.96 175.092C241.172 175.092 240.555 175.481 240.112 176.259C239.668 177.033 239.446 178.129 239.446 179.545C239.446 180.49 239.545 181.293 239.744 181.953C239.943 182.614 240.229 183.116 240.602 183.461C240.978 183.805 241.431 183.977 241.96 183.977Z" fill="white"/>
<path d="M210.202 217.149C209.4 217.149 208.716 216.931 208.151 216.494C207.587 216.054 207.155 215.416 206.857 214.582C206.559 213.744 206.41 212.732 206.41 211.545C206.41 210.366 206.559 209.36 206.857 208.525C207.159 207.687 207.592 207.048 208.157 206.608C208.725 206.164 209.407 205.942 210.202 205.942C210.998 205.942 211.678 206.164 212.242 206.608C212.81 207.048 213.244 207.687 213.542 208.525C213.844 209.36 213.995 210.366 213.995 211.545C213.995 212.732 213.846 213.744 213.547 214.582C213.249 215.416 212.818 216.054 212.253 216.494C211.688 216.931 211.005 217.149 210.202 217.149ZM210.202 215.977C210.998 215.977 211.616 215.594 212.056 214.827C212.496 214.06 212.716 212.966 212.716 211.545C212.716 210.601 212.615 209.797 212.413 209.132C212.214 208.468 211.926 207.962 211.55 207.614C211.177 207.266 210.728 207.092 210.202 207.092C209.414 207.092 208.798 207.481 208.354 208.259C207.91 209.033 207.688 210.129 207.688 211.545C207.688 212.49 207.787 213.293 207.986 213.953C208.185 214.614 208.471 215.116 208.844 215.461C209.22 215.805 209.673 215.977 210.202 215.977ZM216.576 217.085C216.313 217.085 216.087 216.991 215.899 216.803C215.711 216.615 215.617 216.389 215.617 216.126C215.617 215.864 215.711 215.638 215.899 215.45C216.087 215.262 216.313 215.168 216.576 215.168C216.838 215.168 217.064 215.262 217.252 215.45C217.44 215.638 217.534 215.864 217.534 216.126C217.534 216.3 217.49 216.46 217.401 216.606C217.316 216.751 217.201 216.869 217.055 216.957C216.913 217.043 216.753 217.085 216.576 217.085ZM219.769 217V216.041L223.37 212.099C223.792 211.638 224.14 211.237 224.414 210.896C224.687 210.551 224.89 210.228 225.021 209.926C225.156 209.621 225.223 209.301 225.223 208.967C225.223 208.584 225.131 208.252 224.946 207.971C224.765 207.691 224.517 207.474 224.201 207.321C223.885 207.169 223.53 207.092 223.135 207.092C222.716 207.092 222.351 207.179 222.038 207.353C221.729 207.524 221.489 207.763 221.319 208.072C221.152 208.381 221.069 208.744 221.069 209.159H219.812C219.812 208.52 219.959 207.959 220.254 207.476C220.548 206.993 220.95 206.616 221.457 206.347C221.969 206.077 222.542 205.942 223.178 205.942C223.817 205.942 224.384 206.077 224.877 206.347C225.371 206.616 225.758 206.98 226.038 207.439C226.319 207.897 226.459 208.406 226.459 208.967C226.459 209.369 226.386 209.761 226.241 210.145C226.099 210.525 225.85 210.949 225.495 211.418C225.144 211.883 224.655 212.451 224.03 213.122L221.58 215.743V215.828H226.651V217H219.769ZM232.537 217.149C231.834 217.149 231.207 217.028 230.657 216.787C230.11 216.545 229.675 216.21 229.352 215.78C229.032 215.347 228.858 214.844 228.83 214.273H230.172C230.2 214.624 230.321 214.928 230.534 215.184C230.747 215.436 231.026 215.631 231.37 215.77C231.715 215.908 232.097 215.977 232.516 215.977C232.984 215.977 233.4 215.896 233.762 215.732C234.124 215.569 234.408 215.342 234.614 215.05C234.82 214.759 234.923 214.422 234.923 214.038C234.923 213.637 234.824 213.284 234.625 212.978C234.426 212.669 234.135 212.428 233.752 212.254C233.368 212.08 232.899 211.993 232.345 211.993H231.472V210.821H232.345C232.778 210.821 233.158 210.743 233.485 210.587C233.815 210.43 234.073 210.21 234.258 209.926C234.446 209.642 234.54 209.308 234.54 208.925C234.54 208.555 234.458 208.234 234.295 207.961C234.131 207.687 233.901 207.474 233.602 207.321C233.308 207.169 232.96 207.092 232.558 207.092C232.182 207.092 231.827 207.162 231.493 207.3C231.163 207.435 230.893 207.632 230.683 207.891C230.474 208.147 230.36 208.456 230.342 208.818H229.064C229.085 208.246 229.258 207.746 229.581 207.316C229.904 206.883 230.326 206.545 230.848 206.304C231.374 206.062 231.951 205.942 232.58 205.942C233.254 205.942 233.833 206.078 234.316 206.352C234.799 206.622 235.17 206.979 235.429 207.423C235.689 207.866 235.818 208.346 235.818 208.861C235.818 209.475 235.657 209.999 235.334 210.432C235.014 210.865 234.579 211.165 234.028 211.332V211.418C234.717 211.531 235.255 211.824 235.642 212.297C236.03 212.765 236.223 213.346 236.223 214.038C236.223 214.631 236.062 215.164 235.738 215.636C235.419 216.105 234.982 216.474 234.428 216.744C233.874 217.014 233.244 217.149 232.537 217.149ZM241.96 217.149C241.157 217.149 240.474 216.931 239.909 216.494C239.345 216.054 238.913 215.416 238.615 214.582C238.316 213.744 238.167 212.732 238.167 211.545C238.167 210.366 238.316 209.36 238.615 208.525C238.917 207.687 239.35 207.048 239.915 206.608C240.483 206.164 241.165 205.942 241.96 205.942C242.755 205.942 243.435 206.164 244 206.608C244.568 207.048 245.002 207.687 245.3 208.525C245.602 209.36 245.753 210.366 245.753 211.545C245.753 212.732 245.603 213.744 245.305 214.582C245.007 215.416 244.575 216.054 244.011 216.494C243.446 216.931 242.763 217.149 241.96 217.149ZM241.96 215.977C242.755 215.977 243.373 215.594 243.814 214.827C244.254 214.06 244.474 212.966 244.474 211.545C244.474 210.601 244.373 209.797 244.171 209.132C243.972 208.468 243.684 207.962 243.308 207.614C242.935 207.266 242.486 207.092 241.96 207.092C241.172 207.092 240.555 207.481 240.112 208.259C239.668 209.033 239.446 210.129 239.446 211.545C239.446 212.49 239.545 213.293 239.744 213.953C239.943 214.614 240.229 215.116 240.602 215.461C240.978 215.805 241.431 215.977 241.96 215.977Z" fill="white"/>
<path d="M31.9529 48V34.9091H40.0708V36.6094H33.928V40.598H39.4891V42.2919H33.928V48H31.9529ZM45.8572 48.1982C44.8898 48.1982 44.0567 47.9915 43.3579 47.5781C42.6633 47.1605 42.1263 46.5746 41.7471 45.8203C41.3721 45.0618 41.1846 44.1733 41.1846 43.1548C41.1846 42.1491 41.3721 41.2628 41.7471 40.4957C42.1263 39.7287 42.6547 39.13 43.3323 38.6996C44.0141 38.2692 44.811 38.054 45.7229 38.054C46.2769 38.054 46.8138 38.1456 47.3337 38.3288C47.8536 38.5121 48.3202 38.7997 48.7336 39.1918C49.1469 39.5838 49.4729 40.093 49.7116 40.7195C49.9502 41.3416 50.0695 42.098 50.0695 42.9886V43.6662H42.2648V42.2344H48.1966C48.1966 41.7315 48.0944 41.2862 47.8898 40.8984C47.6853 40.5064 47.3976 40.1974 47.0269 39.9716C46.6604 39.7457 46.23 39.6328 45.7357 39.6328C45.1988 39.6328 44.73 39.7649 44.3295 40.0291C43.9331 40.2891 43.6263 40.63 43.409 41.0518C43.1959 41.4695 43.0894 41.9233 43.0894 42.4134V43.532C43.0894 44.1882 43.2045 44.7464 43.4346 45.2067C43.6689 45.6669 43.9949 46.0185 44.4126 46.2614C44.8302 46.5 45.3181 46.6193 45.8763 46.6193C46.2385 46.6193 46.5688 46.5682 46.8671 46.4659C47.1654 46.3594 47.4232 46.2017 47.6405 45.9929C47.8579 45.7841 48.0241 45.5263 48.1391 45.2195L49.9481 45.5455C49.8032 46.0781 49.5432 46.5447 49.1682 46.9453C48.7975 47.3416 48.3309 47.6506 47.7684 47.8722C47.2101 48.0895 46.5731 48.1982 45.8572 48.1982ZM55.0473 48.2173C54.4252 48.2173 53.8627 48.1023 53.3598 47.8722C52.857 47.6378 52.4585 47.299 52.1645 46.8558C51.8747 46.4126 51.7298 45.8693 51.7298 45.2259C51.7298 44.6719 51.8364 44.2159 52.0494 43.858C52.2625 43.5 52.5502 43.2166 52.9124 43.0078C53.2746 42.799 53.6794 42.6413 54.1269 42.5348C54.5743 42.4283 55.0303 42.3473 55.4948 42.2919C56.0828 42.2237 56.5601 42.1683 56.9266 42.1257C57.2931 42.0788 57.5594 42.0043 57.7256 41.902C57.8918 41.7997 57.9749 41.6335 57.9749 41.4034V41.3587C57.9749 40.8004 57.8172 40.3679 57.5019 40.0611C57.1908 39.7543 56.7263 39.6009 56.1084 39.6009C55.4649 39.6009 54.9578 39.7436 54.5871 40.0291C54.2206 40.3104 53.9671 40.6236 53.8264 40.9688L52.0303 40.5597C52.2433 39.9631 52.5544 39.4815 52.9635 39.1151C53.3769 38.7443 53.852 38.4759 54.3889 38.3097C54.9259 38.1392 55.4905 38.054 56.0828 38.054C56.4749 38.054 56.8904 38.1009 57.3293 38.1946C57.7725 38.2841 58.1858 38.4503 58.5693 38.6932C58.9571 38.9361 59.2746 39.2834 59.5218 39.7351C59.7689 40.1825 59.8925 40.7642 59.8925 41.4801V48H58.026V46.6577H57.9493C57.8257 46.9048 57.6404 47.1477 57.3932 47.3864C57.146 47.625 56.8286 47.8232 56.4408 47.9808C56.053 48.1385 55.5885 48.2173 55.0473 48.2173ZM55.4628 46.6832C55.9912 46.6832 56.4429 46.5788 56.8179 46.37C57.1972 46.1612 57.4848 45.8885 57.6808 45.5518C57.8811 45.2109 57.9813 44.8466 57.9813 44.4588V43.1932C57.9131 43.2614 57.781 43.3253 57.585 43.3849C57.3932 43.4403 57.1737 43.4893 56.9266 43.532C56.6794 43.5703 56.4387 43.6065 56.2043 43.6406C55.9699 43.6705 55.7739 43.696 55.6162 43.7173C55.2455 43.7642 54.9067 43.843 54.5999 43.9538C54.2973 44.0646 54.0544 44.2244 53.8712 44.4332C53.6922 44.6378 53.6027 44.9105 53.6027 45.2514C53.6027 45.7244 53.7774 46.0824 54.1269 46.3253C54.4763 46.5639 54.9216 46.6832 55.4628 46.6832ZM67.0212 38.1818V39.7159H61.6583V38.1818H67.0212ZM63.0965 35.8295H65.0077V45.1172C65.0077 45.4879 65.0631 45.767 65.1739 45.9545C65.2847 46.1378 65.4275 46.2635 65.6022 46.3317C65.7812 46.3956 65.9751 46.4276 66.1839 46.4276C66.3373 46.4276 66.4715 46.4169 66.5866 46.3956C66.7016 46.3743 66.7911 46.3572 66.855 46.3445L67.2002 47.9233C67.0894 47.9659 66.9317 48.0085 66.7272 48.0511C66.5226 48.098 66.267 48.1236 65.9601 48.1278C65.4573 48.1364 64.9885 48.0469 64.5539 47.8594C64.1192 47.6719 63.7677 47.3821 63.4992 46.9901C63.2307 46.598 63.0965 46.1058 63.0965 45.5135V35.8295ZM75.3548 43.9283V38.1818H77.2725V48H75.3932V46.2997H75.2909C75.0651 46.8239 74.7029 47.2607 74.2043 47.6101C73.71 47.9553 73.0942 48.1278 72.357 48.1278C71.7263 48.1278 71.1681 47.9893 70.6823 47.7124C70.2007 47.4311 69.8215 47.0156 69.5445 46.4659C69.2718 45.9162 69.1354 45.2365 69.1354 44.4268V38.1818H71.0466V44.1967C71.0466 44.8658 71.232 45.3984 71.6027 45.7947C71.9735 46.1911 72.455 46.3892 73.0473 46.3892C73.4053 46.3892 73.7611 46.2997 74.1148 46.1207C74.4727 45.9418 74.7689 45.6712 75.0033 45.3089C75.2419 44.9467 75.3591 44.4865 75.3548 43.9283ZM79.8405 48V38.1818H81.6878V39.7415H81.79C81.969 39.2131 82.2844 38.7976 82.7361 38.495C83.192 38.1882 83.7077 38.0348 84.2829 38.0348C84.4023 38.0348 84.5429 38.0391 84.7048 38.0476C84.871 38.0561 85.001 38.0668 85.0947 38.0795V39.9077C85.018 39.8864 84.8817 39.8629 84.6856 39.8374C84.4896 39.8075 84.2936 39.7926 84.0976 39.7926C83.6459 39.7926 83.2432 39.8885 82.8895 40.0803C82.54 40.2678 82.2631 40.5298 82.0585 40.8665C81.854 41.1989 81.7517 41.5781 81.7517 42.0043V48H79.8405ZM90.6286 48.1982C89.6613 48.1982 88.8282 47.9915 88.1294 47.5781C87.4347 47.1605 86.8978 46.5746 86.5186 45.8203C86.1436 45.0618 85.9561 44.1733 85.9561 43.1548C85.9561 42.1491 86.1436 41.2628 86.5186 40.4957C86.8978 39.7287 87.4262 39.13 88.1038 38.6996C88.7856 38.2692 89.5825 38.054 90.4944 38.054C91.0484 38.054 91.5853 38.1456 92.1052 38.3288C92.6251 38.5121 93.0917 38.7997 93.5051 39.1918C93.9184 39.5838 94.2444 40.093 94.483 40.7195C94.7217 41.3416 94.841 42.098 94.841 42.9886V43.6662H87.0363V42.2344H92.9681C92.9681 41.7315 92.8659 41.2862 92.6613 40.8984C92.4568 40.5064 92.1691 40.1974 91.7984 39.9716C91.4319 39.7457 91.0015 39.6328 90.5072 39.6328C89.9703 39.6328 89.5015 39.7649 89.1009 40.0291C88.7046 40.2891 88.3978 40.63 88.1805 41.0518C87.9674 41.4695 87.8609 41.9233 87.8609 42.4134V43.532C87.8609 44.1882 87.9759 44.7464 88.2061 45.2067C88.4404 45.6669 88.7664 46.0185 89.184 46.2614C89.6017 46.5 90.0896 46.6193 90.6478 46.6193C91.01 46.6193 91.3403 46.5682 91.6386 46.4659C91.9369 46.3594 92.1947 46.2017 92.412 45.9929C92.6294 45.7841 92.7955 45.5263 92.9106 45.2195L94.7195 45.5455C94.5747 46.0781 94.3147 46.5447 93.9397 46.9453C93.569 47.3416 93.1024 47.6506 92.5399 47.8722C91.9816 48.0895 91.3445 48.1982 90.6286 48.1982ZM104.319 40.5788L102.587 40.8857C102.514 40.6641 102.399 40.4531 102.241 40.2528C102.088 40.0526 101.879 39.8885 101.615 39.7607C101.351 39.6328 101.021 39.5689 100.624 39.5689C100.083 39.5689 99.6313 39.6903 99.2691 39.9332C98.9069 40.1719 98.7258 40.4808 98.7258 40.8601C98.7258 41.1882 98.8472 41.4524 99.0901 41.6527C99.333 41.853 99.7251 42.017 100.266 42.1449L101.826 42.5028C102.729 42.7116 103.403 43.0334 103.846 43.468C104.289 43.9027 104.511 44.4673 104.511 45.1619C104.511 45.75 104.34 46.2741 103.999 46.7344C103.663 47.1903 103.192 47.5483 102.587 47.8082C101.986 48.0682 101.289 48.1982 100.496 48.1982C99.3969 48.1982 98.4999 47.9638 97.8053 47.495C97.1107 47.022 96.6846 46.3509 96.5269 45.4815L98.3742 45.2003C98.4893 45.6818 98.7258 46.0462 99.0837 46.2933C99.4417 46.5362 99.9083 46.6577 100.484 46.6577C101.11 46.6577 101.611 46.5277 101.986 46.2678C102.361 46.0036 102.548 45.6818 102.548 45.3026C102.548 44.9957 102.433 44.7379 102.203 44.5291C101.977 44.3203 101.63 44.1626 101.161 44.0561L99.4992 43.6918C98.583 43.483 97.9055 43.1506 97.4665 42.6946C97.0319 42.2386 96.8145 41.6612 96.8145 40.9624C96.8145 40.3828 96.9765 39.8757 97.3003 39.4411C97.6242 39.0064 98.0716 38.6676 98.6427 38.4247C99.2137 38.1776 99.8678 38.054 100.605 38.054C101.666 38.054 102.501 38.2841 103.111 38.7443C103.72 39.2003 104.123 39.8118 104.319 40.5788Z" fill="white"/>
<path d="M31.8357 86V75.0909H35.5218C36.3776 75.0909 37.0771 75.2454 37.6205 75.5543C38.1673 75.8597 38.5722 76.2734 38.835 76.7955C39.0977 77.3175 39.2291 77.8999 39.2291 78.5426C39.2291 79.1854 39.0977 79.7695 38.835 80.2951C38.5757 80.8207 38.1745 81.2397 37.6311 81.5522C37.0878 81.8612 36.3918 82.0156 35.5431 82.0156H32.901V80.8438H35.5004C36.0864 80.8438 36.5569 80.7425 36.912 80.5401C37.2671 80.3377 37.5246 80.0643 37.6844 79.7198C37.8477 79.3718 37.9294 78.9794 37.9294 78.5426C37.9294 78.1058 37.8477 77.7152 37.6844 77.3707C37.5246 77.0263 37.2654 76.7564 36.9067 76.5611C36.548 76.3622 36.0722 76.2628 35.4791 76.2628H33.1567V86H31.8357ZM41.1867 86V77.8182H42.4012V79.054H42.4864C42.6356 78.6491 42.9055 78.3207 43.2961 78.0685C43.6867 77.8164 44.127 77.6903 44.6171 77.6903C44.7094 77.6903 44.8248 77.6921 44.9633 77.6957C45.1018 77.6992 45.2066 77.7045 45.2776 77.7116V78.9901C45.235 78.9794 45.1373 78.9634 44.9846 78.9421C44.8355 78.9173 44.6775 78.9048 44.5106 78.9048C44.1128 78.9048 43.7577 78.9883 43.4452 79.1552C43.1363 79.3185 42.8912 79.5458 42.7101 79.837C42.5326 80.1246 42.4438 80.4531 42.4438 80.8224V86H41.1867ZM46.7678 86V77.8182H48.0249V86H46.7678ZM47.407 76.4545C47.1619 76.4545 46.9506 76.3711 46.7731 76.2042C46.5991 76.0373 46.5121 75.8366 46.5121 75.6023C46.5121 75.3679 46.5991 75.1673 46.7731 75.0004C46.9506 74.8335 47.1619 74.75 47.407 74.75C47.652 74.75 47.8615 74.8335 48.0355 75.0004C48.2131 75.1673 48.3018 75.3679 48.3018 75.6023C48.3018 75.8366 48.2131 76.0373 48.0355 76.2042C47.8615 76.3711 47.652 76.4545 47.407 76.4545ZM53.6512 86.1705C52.8841 86.1705 52.2236 85.9893 51.6697 85.6271C51.1157 85.2649 50.6895 84.766 50.3912 84.1303C50.093 83.4947 49.9438 82.7685 49.9438 81.9517C49.9438 81.1207 50.0965 80.3874 50.4019 79.7518C50.7108 79.1126 51.1405 78.6136 51.691 78.255C52.2449 77.8928 52.8912 77.7116 53.6299 77.7116C54.2052 77.7116 54.7236 77.8182 55.1853 78.0312C55.6469 78.2443 56.0251 78.5426 56.3199 78.9261C56.6146 79.3097 56.7975 79.7571 56.8685 80.2685H55.6114C55.5155 79.8956 55.3025 79.5653 54.9722 79.2777C54.6455 78.9865 54.2052 78.8409 53.6512 78.8409C53.1611 78.8409 52.7314 78.9687 52.3621 79.2244C51.9964 79.4766 51.7105 79.8335 51.5045 80.2951C51.3021 80.7532 51.2009 81.2912 51.2009 81.9091C51.2009 82.5412 51.3003 83.0916 51.4992 83.5604C51.7016 84.0291 51.9857 84.3931 52.3515 84.6523C52.7208 84.9116 53.154 85.0412 53.6512 85.0412C53.9779 85.0412 54.2744 84.9844 54.5407 84.8707C54.8071 84.7571 55.0326 84.5938 55.2172 84.3807C55.4019 84.1676 55.5333 83.9119 55.6114 83.6136H56.8685C56.7975 84.0966 56.6217 84.5316 56.3412 84.9187C56.0642 85.3022 55.6966 85.6076 55.2385 85.8349C54.784 86.0586 54.2549 86.1705 53.6512 86.1705ZM62.1366 86.1705C61.3483 86.1705 60.6682 85.9964 60.0965 85.6484C59.5283 85.2969 59.0898 84.8068 58.7808 84.1783C58.4754 83.5462 58.3227 82.8111 58.3227 81.973C58.3227 81.1349 58.4754 80.3963 58.7808 79.7571C59.0898 79.1143 59.5194 78.6136 60.0699 78.255C60.6238 77.8928 61.2702 77.7116 62.0088 77.7116C62.4349 77.7116 62.8557 77.7827 63.2712 77.9247C63.6867 78.0668 64.0649 78.2976 64.4058 78.6172C64.7467 78.9332 65.0184 79.3523 65.2208 79.8743C65.4232 80.3963 65.5244 81.0391 65.5244 81.8026V82.3352H59.2176V81.2486H64.246C64.246 80.7869 64.1537 80.375 63.969 80.0128C63.7879 79.6506 63.5287 79.3647 63.1913 79.1552C62.8575 78.9457 62.4633 78.8409 62.0088 78.8409C61.5081 78.8409 61.0748 78.9652 60.7091 79.2138C60.3469 79.4588 60.0681 79.7784 59.8728 80.1726C59.6775 80.5668 59.5798 80.9893 59.5798 81.4403V82.1648C59.5798 82.7827 59.6863 83.3065 59.8994 83.7362C60.116 84.1623 60.4161 84.4872 60.7996 84.7109C61.1832 84.9311 61.6288 85.0412 62.1366 85.0412C62.4669 85.0412 62.7652 84.995 63.0315 84.9027C63.3014 84.8068 63.534 84.6648 63.7293 84.4766C63.9246 84.2848 64.0756 84.0469 64.1821 83.7628L65.3966 84.1037C65.2687 84.5156 65.0539 84.8778 64.752 85.1903C64.4502 85.4993 64.0773 85.7408 63.6334 85.9148C63.1895 86.0852 62.6906 86.1705 62.1366 86.1705Z" fill="#565A63"/>
<path d="M34.8612 122.364V108.727H35.7348V122.364H34.8612ZM37.8016 112.818C37.7377 112.278 37.4784 111.859 37.0239 111.561C36.5693 111.263 36.0118 111.114 35.3513 111.114C34.8683 111.114 34.4458 111.192 34.0835 111.348C33.7249 111.504 33.4443 111.719 33.2419 111.993C33.0431 112.266 32.9436 112.577 32.9436 112.925C32.9436 113.216 33.0129 113.466 33.1514 113.676C33.2934 113.882 33.4745 114.054 33.6947 114.192C33.9149 114.327 34.1457 114.439 34.3872 114.528C34.6286 114.613 34.8506 114.683 35.053 114.736L36.161 115.034C36.445 115.109 36.7611 115.212 37.1091 115.343C37.4607 115.474 37.7963 115.654 38.1159 115.881C38.439 116.105 38.7053 116.392 38.9149 116.744C39.1244 117.096 39.2291 117.527 39.2291 118.038C39.2291 118.628 39.0747 119.161 38.7657 119.636C38.4603 120.112 38.0129 120.49 37.4234 120.771C36.8374 121.051 36.1254 121.192 35.2874 121.192C34.5061 121.192 33.8296 121.066 33.2579 120.814C32.6897 120.561 32.2423 120.21 31.9156 119.759C31.5924 119.308 31.4095 118.784 31.3669 118.188H32.7306C32.7661 118.599 32.9046 118.94 33.146 119.21C33.3911 119.477 33.7 119.675 34.0729 119.807C34.4493 119.935 34.8541 119.999 35.2874 119.999C35.7916 119.999 36.2444 119.917 36.6457 119.754C37.047 119.587 37.3648 119.356 37.5992 119.061C37.8335 118.763 37.9507 118.415 37.9507 118.017C37.9507 117.655 37.8495 117.36 37.6471 117.133C37.4447 116.906 37.1784 116.721 36.8481 116.579C36.5178 116.437 36.161 116.312 35.7774 116.206L34.4351 115.822C33.5828 115.577 32.9081 115.228 32.411 114.773C31.9138 114.319 31.6652 113.724 31.6652 112.989C31.6652 112.378 31.8303 111.845 32.1606 111.391C32.4944 110.933 32.9419 110.577 33.5029 110.325C34.0676 110.07 34.6979 109.942 35.3939 109.942C36.097 109.942 36.722 110.068 37.2689 110.32C37.8158 110.569 38.249 110.909 38.5686 111.343C38.8918 111.776 39.0622 112.268 39.08 112.818H37.8016ZM44.8954 121.149C44.1923 121.149 43.5655 121.028 43.0151 120.787C42.4682 120.545 42.0332 120.21 41.71 119.78C41.3904 119.347 41.2164 118.844 41.188 118.273H42.5304C42.5588 118.624 42.6795 118.928 42.8926 119.184C43.1056 119.436 43.3844 119.631 43.7289 119.77C44.0733 119.908 44.4551 119.977 44.8741 119.977C45.3429 119.977 45.7583 119.896 46.1206 119.732C46.4828 119.569 46.7669 119.342 46.9728 119.05C47.1788 118.759 47.2818 118.422 47.2818 118.038C47.2818 117.637 47.1824 117.284 46.9835 116.978C46.7846 116.669 46.4934 116.428 46.1099 116.254C45.7264 116.08 45.2576 115.993 44.7037 115.993H43.8301V114.821H44.7037C45.1369 114.821 45.5169 114.743 45.8436 114.587C46.1738 114.43 46.4313 114.21 46.6159 113.926C46.8042 113.642 46.8983 113.308 46.8983 112.925C46.8983 112.555 46.8166 112.234 46.6532 111.961C46.4899 111.687 46.2591 111.474 45.9608 111.321C45.666 111.169 45.318 111.092 44.9167 111.092C44.5403 111.092 44.1852 111.162 43.8514 111.3C43.5211 111.435 43.2512 111.632 43.0417 111.891C42.8322 112.147 42.7186 112.456 42.7008 112.818H41.4224C41.4437 112.246 41.6159 111.746 41.9391 111.316C42.2623 110.883 42.6848 110.545 43.2069 110.304C43.7324 110.062 44.3095 109.942 44.938 109.942C45.6127 109.942 46.1916 110.078 46.6745 110.352C47.1575 110.622 47.5286 110.979 47.7878 111.423C48.0471 111.866 48.1767 112.346 48.1767 112.861C48.1767 113.475 48.0151 113.999 47.6919 114.432C47.3723 114.865 46.9373 115.165 46.3869 115.332V115.418C47.0758 115.531 47.6138 115.824 48.0009 116.297C48.388 116.765 48.5815 117.346 48.5815 118.038C48.5815 118.631 48.4199 119.164 48.0968 119.636C47.7772 120.105 47.3404 120.474 46.7864 120.744C46.2324 121.014 45.6021 121.149 44.8954 121.149ZM50.5044 118.763V117.676L55.2985 110.091H56.0868V111.774H55.5542L51.932 117.506V117.591H58.388V118.763H50.5044ZM55.6394 121V118.433V117.926V110.091H56.8965V121H55.6394ZM61.7678 119.509L61.6825 120.084C61.6222 120.489 61.5298 120.922 61.4055 121.384C61.2848 121.845 61.1587 122.28 61.0273 122.689C60.896 123.097 60.7876 123.422 60.7024 123.663H59.7436C59.7898 123.436 59.8501 123.136 59.9247 122.763C59.9993 122.39 60.0739 121.973 60.1484 121.511C60.2266 121.053 60.2905 120.585 60.3402 120.105L60.4041 119.509H61.7678ZM67.233 121.149C66.5014 121.149 65.8551 121.02 65.294 120.76C64.7365 120.498 64.3015 120.137 63.989 119.679C63.6765 119.217 63.522 118.692 63.5256 118.102C63.522 117.641 63.6126 117.214 63.7972 116.824C63.9819 116.43 64.234 116.101 64.5536 115.838C64.8768 115.572 65.2372 115.403 65.6349 115.332V115.268C65.1129 115.134 64.6974 114.841 64.3885 114.39C64.0795 113.935 63.9268 113.418 63.9304 112.839C63.9268 112.286 64.0671 111.79 64.3512 111.353C64.6353 110.917 65.0259 110.572 65.5231 110.32C66.0238 110.068 66.5938 109.942 67.233 109.942C67.8651 109.942 68.4297 110.068 68.9268 110.32C69.424 110.572 69.8146 110.917 70.0987 111.353C70.3864 111.79 70.532 112.286 70.5355 112.839C70.532 113.418 70.3739 113.935 70.0614 114.39C69.7525 114.841 69.3423 115.134 68.831 115.268V115.332C69.2251 115.403 69.5803 115.572 69.8963 115.838C70.2124 116.101 70.4645 116.43 70.6527 116.824C70.8409 117.214 70.9368 117.641 70.9403 118.102C70.9368 118.692 70.777 119.217 70.4609 119.679C70.1484 120.137 69.7134 120.498 69.1559 120.76C68.6019 121.02 67.9609 121.149 67.233 121.149ZM67.233 119.977C67.7266 119.977 68.1527 119.897 68.5114 119.738C68.87 119.578 69.147 119.352 69.3423 119.061C69.5376 118.77 69.6371 118.429 69.6406 118.038C69.6371 117.626 69.5305 117.262 69.321 116.946C69.1115 116.63 68.8256 116.382 68.4634 116.201C68.1048 116.02 67.6946 115.929 67.233 115.929C66.7678 115.929 66.3523 116.02 65.9865 116.201C65.6243 116.382 65.3384 116.63 65.1289 116.946C64.9229 117.262 64.8217 117.626 64.8253 118.038C64.8217 118.429 64.9158 118.77 65.1076 119.061C65.3029 119.352 65.5817 119.578 65.9439 119.738C66.3061 119.897 66.7358 119.977 67.233 119.977ZM67.233 114.8C67.6236 114.8 67.9698 114.722 68.2717 114.565C68.5771 114.409 68.8168 114.191 68.9908 113.91C69.1648 113.63 69.2536 113.301 69.2571 112.925C69.2536 112.555 69.1665 112.234 68.9961 111.961C68.8256 111.684 68.5895 111.471 68.2876 111.321C67.9858 111.169 67.6342 111.092 67.233 111.092C66.8246 111.092 66.4677 111.169 66.1623 111.321C65.8569 111.471 65.6207 111.684 65.4538 111.961C65.2869 112.234 65.2053 112.555 65.2088 112.925C65.2053 113.301 65.2887 113.63 65.4592 113.91C65.6332 114.191 65.8729 114.409 66.1783 114.565C66.4837 114.722 66.8352 114.8 67.233 114.8ZM76.3909 121.149C75.7659 121.149 75.203 121.025 74.7023 120.776C74.2016 120.528 73.8003 120.187 73.4985 119.754C73.1966 119.32 73.0315 118.827 73.0031 118.273H74.2815C74.3312 118.766 74.555 119.175 74.9527 119.498C75.354 119.817 75.8334 119.977 76.3909 119.977C76.8383 119.977 77.2361 119.873 77.5841 119.663C77.9356 119.453 78.2108 119.166 78.4097 118.8C78.6121 118.431 78.7133 118.013 78.7133 117.548C78.7133 117.072 78.6086 116.648 78.3991 116.275C78.1931 115.899 77.909 115.602 77.5468 115.386C77.1846 115.169 76.7709 115.059 76.3057 115.055C75.9719 115.052 75.6292 115.103 75.2776 115.21C74.926 115.313 74.6366 115.446 74.4094 115.609L73.1736 115.46L73.8341 110.091H79.5017V111.263H74.942L74.5585 114.48H74.6224C74.8461 114.303 75.1267 114.155 75.464 114.038C75.8014 113.921 76.153 113.862 76.5187 113.862C77.1863 113.862 77.7812 114.022 78.3032 114.342C78.8287 114.658 79.2407 115.091 79.539 115.641C79.8408 116.192 79.9917 116.82 79.9917 117.527C79.9917 118.223 79.8355 118.844 79.523 119.391C79.214 119.935 78.7879 120.364 78.2446 120.68C77.7013 120.993 77.0834 121.149 76.3909 121.149ZM85.666 121.149C84.8635 121.149 84.1799 120.931 83.6152 120.494C83.0506 120.054 82.6191 119.416 82.3208 118.582C82.0225 117.744 81.8734 116.732 81.8734 115.545C81.8734 114.366 82.0225 113.36 82.3208 112.525C82.6227 111.687 83.0559 111.048 83.6206 110.608C84.1887 110.164 84.8706 109.942 85.666 109.942C86.4615 109.942 87.1415 110.164 87.7061 110.608C88.2743 111.048 88.7076 111.687 89.0059 112.525C89.3077 113.36 89.4586 114.366 89.4586 115.545C89.4586 116.732 89.3095 117.744 89.0112 118.582C88.7129 119.416 88.2814 120.054 87.7168 120.494C87.1522 120.931 86.4686 121.149 85.666 121.149ZM85.666 119.977C86.4615 119.977 87.0794 119.594 87.5197 118.827C87.96 118.06 88.1802 116.966 88.1802 115.545C88.1802 114.601 88.079 113.797 87.8766 113.132C87.6777 112.468 87.3901 111.962 87.0137 111.614C86.6408 111.266 86.1916 111.092 85.666 111.092C84.8777 111.092 84.2615 111.481 83.8176 112.259C83.3738 113.033 83.1518 114.129 83.1518 115.545C83.1518 116.49 83.2512 117.293 83.4501 117.953C83.649 118.614 83.9348 119.116 84.3077 119.461C84.6841 119.805 85.1369 119.977 85.666 119.977ZM92.9982 119.509L92.913 120.084C92.8526 120.489 92.7603 120.922 92.636 121.384C92.5153 121.845 92.3892 122.28 92.2578 122.689C92.1264 123.097 92.0181 123.422 91.9329 123.663H90.9741C91.0202 123.436 91.0806 123.136 91.1552 122.763C91.2298 122.39 91.3043 121.973 91.3789 121.511C91.457 121.053 91.521 120.585 91.5707 120.105L91.6346 119.509H92.9982ZM97.8375 110.091V121H96.5165V111.476H96.4526L93.7892 113.244V111.902L96.5165 110.091H97.8375ZM104.533 121.149C103.731 121.149 103.047 120.931 102.482 120.494C101.918 120.054 101.486 119.416 101.188 118.582C100.89 117.744 100.741 116.732 100.741 115.545C100.741 114.366 100.89 113.36 101.188 112.525C101.49 111.687 101.923 111.048 102.488 110.608C103.056 110.164 103.738 109.942 104.533 109.942C105.329 109.942 106.009 110.164 106.573 110.608C107.142 111.048 107.575 111.687 107.873 112.525C108.175 113.36 108.326 114.366 108.326 115.545C108.326 116.732 108.177 117.744 107.878 118.582C107.58 119.416 107.149 120.054 106.584 120.494C106.019 120.931 105.336 121.149 104.533 121.149ZM104.533 119.977C105.329 119.977 105.947 119.594 106.387 118.827C106.827 118.06 107.047 116.966 107.047 115.545C107.047 114.601 106.946 113.797 106.744 113.132C106.545 112.468 106.257 111.962 105.881 111.614C105.508 111.266 105.059 111.092 104.533 111.092C103.745 111.092 103.129 111.481 102.685 112.259C102.241 113.033 102.019 114.129 102.019 115.545C102.019 116.49 102.118 117.293 102.317 117.953C102.516 118.614 102.802 119.116 103.175 119.461C103.551 119.805 104.004 119.977 104.533 119.977Z" fill="#BE1F32"/>
<path d="M34.8612 154.364V140.727H35.7348V154.364H34.8612ZM37.8016 144.818C37.7377 144.278 37.4784 143.859 37.0239 143.561C36.5693 143.263 36.0118 143.114 35.3513 143.114C34.8683 143.114 34.4458 143.192 34.0835 143.348C33.7249 143.504 33.4443 143.719 33.2419 143.993C33.0431 144.266 32.9436 144.577 32.9436 144.925C32.9436 145.216 33.0129 145.466 33.1514 145.676C33.2934 145.882 33.4745 146.054 33.6947 146.192C33.9149 146.327 34.1457 146.439 34.3872 146.528C34.6286 146.613 34.8506 146.683 35.053 146.736L36.161 147.034C36.445 147.109 36.7611 147.212 37.1091 147.343C37.4607 147.474 37.7963 147.654 38.1159 147.881C38.439 148.105 38.7053 148.392 38.9149 148.744C39.1244 149.096 39.2291 149.527 39.2291 150.038C39.2291 150.628 39.0747 151.161 38.7657 151.636C38.4603 152.112 38.0129 152.49 37.4234 152.771C36.8374 153.051 36.1254 153.192 35.2874 153.192C34.5061 153.192 33.8296 153.066 33.2579 152.814C32.6897 152.561 32.2423 152.21 31.9156 151.759C31.5924 151.308 31.4095 150.784 31.3669 150.188H32.7306C32.7661 150.599 32.9046 150.94 33.146 151.21C33.3911 151.477 33.7 151.675 34.0729 151.807C34.4493 151.935 34.8541 151.999 35.2874 151.999C35.7916 151.999 36.2444 151.917 36.6457 151.754C37.047 151.587 37.3648 151.356 37.5992 151.061C37.8335 150.763 37.9507 150.415 37.9507 150.017C37.9507 149.655 37.8495 149.36 37.6471 149.133C37.4447 148.906 37.1784 148.721 36.8481 148.579C36.5178 148.437 36.161 148.312 35.7774 148.206L34.4351 147.822C33.5828 147.577 32.9081 147.228 32.411 146.773C31.9138 146.319 31.6652 145.724 31.6652 144.989C31.6652 144.378 31.8303 143.845 32.1606 143.391C32.4944 142.933 32.9419 142.577 33.5029 142.325C34.0676 142.07 34.6979 141.942 35.3939 141.942C36.097 141.942 36.722 142.068 37.2689 142.32C37.8158 142.569 38.249 142.909 38.5686 143.343C38.8918 143.776 39.0622 144.268 39.08 144.818H37.8016ZM44.8954 153.149C44.1923 153.149 43.5655 153.028 43.0151 152.787C42.4682 152.545 42.0332 152.21 41.71 151.78C41.3904 151.347 41.2164 150.844 41.188 150.273H42.5304C42.5588 150.624 42.6795 150.928 42.8926 151.184C43.1056 151.436 43.3844 151.631 43.7289 151.77C44.0733 151.908 44.4551 151.977 44.8741 151.977C45.3429 151.977 45.7583 151.896 46.1206 151.732C46.4828 151.569 46.7669 151.342 46.9728 151.05C47.1788 150.759 47.2818 150.422 47.2818 150.038C47.2818 149.637 47.1824 149.284 46.9835 148.978C46.7846 148.669 46.4934 148.428 46.1099 148.254C45.7264 148.08 45.2576 147.993 44.7037 147.993H43.8301V146.821H44.7037C45.1369 146.821 45.5169 146.743 45.8436 146.587C46.1738 146.43 46.4313 146.21 46.6159 145.926C46.8042 145.642 46.8983 145.308 46.8983 144.925C46.8983 144.555 46.8166 144.234 46.6532 143.961C46.4899 143.687 46.2591 143.474 45.9608 143.321C45.666 143.169 45.318 143.092 44.9167 143.092C44.5403 143.092 44.1852 143.162 43.8514 143.3C43.5211 143.435 43.2512 143.632 43.0417 143.891C42.8322 144.147 42.7186 144.456 42.7008 144.818H41.4224C41.4437 144.246 41.6159 143.746 41.9391 143.316C42.2623 142.883 42.6848 142.545 43.2069 142.304C43.7324 142.062 44.3095 141.942 44.938 141.942C45.6127 141.942 46.1916 142.078 46.6745 142.352C47.1575 142.622 47.5286 142.979 47.7878 143.423C48.0471 143.866 48.1767 144.346 48.1767 144.861C48.1767 145.475 48.0151 145.999 47.6919 146.432C47.3723 146.865 46.9373 147.165 46.3869 147.332V147.418C47.0758 147.531 47.6138 147.824 48.0009 148.297C48.388 148.765 48.5815 149.346 48.5815 150.038C48.5815 150.631 48.4199 151.164 48.0968 151.636C47.7772 152.105 47.3404 152.474 46.7864 152.744C46.2324 153.014 45.6021 153.149 44.8954 153.149ZM50.5044 150.763V149.676L55.2985 142.091H56.0868V143.774H55.5542L51.932 149.506V149.591H58.388V150.763H50.5044ZM55.6394 153V150.433V149.926V142.091H56.8965V153H55.6394ZM61.7678 151.509L61.6825 152.084C61.6222 152.489 61.5298 152.922 61.4055 153.384C61.2848 153.845 61.1587 154.28 61.0273 154.689C60.896 155.097 60.7876 155.422 60.7024 155.663H59.7436C59.7898 155.436 59.8501 155.136 59.9247 154.763C59.9993 154.39 60.0739 153.973 60.1484 153.511C60.2266 153.053 60.2905 152.585 60.3402 152.105L60.4041 151.509H61.7678ZM67.233 153.149C66.5014 153.149 65.8551 153.02 65.294 152.76C64.7365 152.498 64.3015 152.137 63.989 151.679C63.6765 151.217 63.522 150.692 63.5256 150.102C63.522 149.641 63.6126 149.214 63.7972 148.824C63.9819 148.43 64.234 148.101 64.5536 147.838C64.8768 147.572 65.2372 147.403 65.6349 147.332V147.268C65.1129 147.134 64.6974 146.841 64.3885 146.39C64.0795 145.935 63.9268 145.418 63.9304 144.839C63.9268 144.286 64.0671 143.79 64.3512 143.353C64.6353 142.917 65.0259 142.572 65.5231 142.32C66.0238 142.068 66.5938 141.942 67.233 141.942C67.8651 141.942 68.4297 142.068 68.9268 142.32C69.424 142.572 69.8146 142.917 70.0987 143.353C70.3864 143.79 70.532 144.286 70.5355 144.839C70.532 145.418 70.3739 145.935 70.0614 146.39C69.7525 146.841 69.3423 147.134 68.831 147.268V147.332C69.2251 147.403 69.5803 147.572 69.8963 147.838C70.2124 148.101 70.4645 148.43 70.6527 148.824C70.8409 149.214 70.9368 149.641 70.9403 150.102C70.9368 150.692 70.777 151.217 70.4609 151.679C70.1484 152.137 69.7134 152.498 69.1559 152.76C68.6019 153.02 67.9609 153.149 67.233 153.149ZM67.233 151.977C67.7266 151.977 68.1527 151.897 68.5114 151.738C68.87 151.578 69.147 151.352 69.3423 151.061C69.5376 150.77 69.6371 150.429 69.6406 150.038C69.6371 149.626 69.5305 149.262 69.321 148.946C69.1115 148.63 68.8256 148.382 68.4634 148.201C68.1048 148.02 67.6946 147.929 67.233 147.929C66.7678 147.929 66.3523 148.02 65.9865 148.201C65.6243 148.382 65.3384 148.63 65.1289 148.946C64.9229 149.262 64.8217 149.626 64.8253 150.038C64.8217 150.429 64.9158 150.77 65.1076 151.061C65.3029 151.352 65.5817 151.578 65.9439 151.738C66.3061 151.897 66.7358 151.977 67.233 151.977ZM67.233 146.8C67.6236 146.8 67.9698 146.722 68.2717 146.565C68.5771 146.409 68.8168 146.191 68.9908 145.91C69.1648 145.63 69.2536 145.301 69.2571 144.925C69.2536 144.555 69.1665 144.234 68.9961 143.961C68.8256 143.684 68.5895 143.471 68.2876 143.321C67.9858 143.169 67.6342 143.092 67.233 143.092C66.8246 143.092 66.4677 143.169 66.1623 143.321C65.8569 143.471 65.6207 143.684 65.4538 143.961C65.2869 144.234 65.2053 144.555 65.2088 144.925C65.2053 145.301 65.2887 145.63 65.4592 145.91C65.6332 146.191 65.8729 146.409 66.1783 146.565C66.4837 146.722 66.8352 146.8 67.233 146.8ZM72.7261 150.763V149.676L77.5202 142.091H78.3085V143.774H77.7758L74.1537 149.506V149.591H80.6096V150.763H72.7261ZM77.8611 153V150.433V149.926V142.091H79.1182V153H77.8611ZM86.2919 153.149C85.5888 153.149 84.962 153.028 84.4116 152.787C83.8647 152.545 83.4297 152.21 83.1065 151.78C82.7869 151.347 82.6129 150.844 82.5845 150.273H83.9268C83.9553 150.624 84.076 150.928 84.2891 151.184C84.5021 151.436 84.7809 151.631 85.1254 151.77C85.4698 151.908 85.8516 151.977 86.2706 151.977C86.7393 151.977 87.1548 151.896 87.517 151.732C87.8793 151.569 88.1634 151.342 88.3693 151.05C88.5753 150.759 88.6783 150.422 88.6783 150.038C88.6783 149.637 88.5788 149.284 88.38 148.978C88.1811 148.669 87.8899 148.428 87.5064 148.254C87.1229 148.08 86.6541 147.993 86.1001 147.993H85.2266V146.821H86.1001C86.5334 146.821 86.9134 146.743 87.2401 146.587C87.5703 146.43 87.8278 146.21 88.0124 145.926C88.2006 145.642 88.2947 145.308 88.2947 144.925C88.2947 144.555 88.2131 144.234 88.0497 143.961C87.8864 143.687 87.6555 143.474 87.3572 143.321C87.0625 143.169 86.7145 143.092 86.3132 143.092C85.9368 143.092 85.5817 143.162 85.2479 143.3C84.9176 143.435 84.6477 143.632 84.4382 143.891C84.2287 144.147 84.1151 144.456 84.0973 144.818H82.8189C82.8402 144.246 83.0124 143.746 83.3356 143.316C83.6587 142.883 84.0813 142.545 84.6033 142.304C85.1289 142.062 85.706 141.942 86.3345 141.942C87.0092 141.942 87.5881 142.078 88.071 142.352C88.554 142.622 88.9251 142.979 89.1843 143.423C89.4435 143.866 89.5732 144.346 89.5732 144.861C89.5732 145.475 89.4116 145.999 89.0884 146.432C88.7688 146.865 88.3338 147.165 87.7834 147.332V147.418C88.4723 147.531 89.0103 147.824 89.3974 148.297C89.7844 148.765 89.978 149.346 89.978 150.038C89.978 150.631 89.8164 151.164 89.4933 151.636C89.1737 152.105 88.7369 152.474 88.1829 152.744C87.6289 153.014 86.9986 153.149 86.2919 153.149ZM93.716 151.509L93.6308 152.084C93.5704 152.489 93.4781 152.922 93.3538 153.384C93.233 153.845 93.107 154.28 92.9756 154.689C92.8442 155.097 92.7359 155.422 92.6507 155.663H91.6919C91.738 155.436 91.7984 155.136 91.873 154.763C91.9475 154.39 92.0221 153.973 92.0967 153.511C92.1748 153.053 92.2387 152.585 92.2884 152.105L92.3524 151.509H93.716ZM99.3943 141.942C99.8417 141.945 100.289 142.031 100.737 142.197C101.184 142.364 101.592 142.641 101.962 143.028C102.331 143.412 102.628 143.936 102.851 144.6C103.075 145.264 103.187 146.097 103.187 147.098C103.187 148.067 103.095 148.929 102.91 149.681C102.729 150.431 102.466 151.063 102.122 151.578C101.781 152.093 101.365 152.483 100.875 152.75C100.389 153.016 99.8382 153.149 99.2238 153.149C98.613 153.149 98.0679 153.028 97.5885 152.787C97.1127 152.542 96.722 152.203 96.4166 151.77C96.1148 151.333 95.9213 150.827 95.836 150.251H97.1357C97.2529 150.752 97.4855 151.166 97.8335 151.493C98.1851 151.816 98.6485 151.977 99.2238 151.977C100.065 151.977 100.729 151.61 101.216 150.875C101.706 150.14 101.951 149.101 101.951 147.759H101.866C101.667 148.057 101.431 148.314 101.157 148.531C100.884 148.748 100.58 148.914 100.247 149.032C99.9127 149.149 99.5576 149.207 99.1812 149.207C98.5562 149.207 97.9827 149.053 97.4607 148.744C96.9422 148.431 96.5267 148.004 96.2142 147.46C95.9053 146.913 95.7508 146.288 95.7508 145.585C95.7508 144.918 95.8999 144.307 96.1982 143.753C96.5001 143.195 96.9227 142.751 97.466 142.421C98.0129 142.091 98.6556 141.931 99.3943 141.942ZM99.3943 143.114C98.9468 143.114 98.5438 143.225 98.1851 143.449C97.83 143.669 97.5477 143.968 97.3382 144.344C97.1322 144.717 97.0292 145.131 97.0292 145.585C97.0292 146.04 97.1286 146.453 97.3275 146.826C97.5299 147.196 97.8051 147.49 98.1531 147.711C98.5047 147.927 98.9042 148.036 99.3517 148.036C99.689 148.036 100.003 147.97 100.294 147.838C100.586 147.703 100.84 147.521 101.056 147.29C101.276 147.055 101.449 146.791 101.573 146.496C101.697 146.198 101.759 145.887 101.759 145.564C101.759 145.138 101.656 144.738 101.45 144.365C101.248 143.993 100.967 143.691 100.609 143.46C100.254 143.229 99.8488 143.114 99.3943 143.114ZM108.904 153.149C108.456 153.142 108.009 153.057 107.561 152.893C107.114 152.73 106.706 152.455 106.336 152.068C105.967 151.677 105.67 151.15 105.447 150.486C105.223 149.818 105.111 148.98 105.111 147.972C105.111 147.006 105.202 146.15 105.383 145.404C105.564 144.655 105.827 144.025 106.171 143.513C106.516 142.998 106.931 142.608 107.418 142.341C107.908 142.075 108.46 141.942 109.074 141.942C109.685 141.942 110.228 142.064 110.704 142.309C111.184 142.551 111.574 142.888 111.876 143.321C112.178 143.755 112.373 144.254 112.462 144.818H111.162C111.042 144.328 110.807 143.922 110.459 143.598C110.111 143.275 109.65 143.114 109.074 143.114C108.229 143.114 107.563 143.481 107.077 144.216C106.594 144.951 106.35 145.983 106.347 147.311H106.432C106.631 147.009 106.867 146.752 107.141 146.539C107.418 146.322 107.723 146.155 108.057 146.038C108.391 145.921 108.744 145.862 109.117 145.862C109.742 145.862 110.314 146.018 110.832 146.331C111.35 146.64 111.766 147.068 112.078 147.615C112.391 148.158 112.547 148.781 112.547 149.484C112.547 150.159 112.396 150.777 112.094 151.338C111.793 151.896 111.368 152.339 110.821 152.67C110.278 152.996 109.639 153.156 108.904 153.149ZM108.904 151.977C109.351 151.977 109.752 151.865 110.108 151.642C110.466 151.418 110.749 151.118 110.955 150.741C111.164 150.365 111.269 149.946 111.269 149.484C111.269 149.033 111.168 148.623 110.965 148.254C110.766 147.881 110.491 147.585 110.14 147.364C109.792 147.144 109.394 147.034 108.946 147.034C108.609 147.034 108.295 147.102 108.004 147.237C107.712 147.368 107.457 147.549 107.237 147.78C107.02 148.011 106.849 148.275 106.725 148.574C106.601 148.868 106.539 149.179 106.539 149.506C106.539 149.939 106.64 150.344 106.842 150.72C107.048 151.097 107.329 151.4 107.684 151.631C108.043 151.862 108.449 151.977 108.904 151.977Z" fill="#7CAC0F"/>
<path d="M34.8612 186.364V172.727H35.7348V186.364H34.8612ZM37.8016 176.818C37.7377 176.278 37.4784 175.859 37.0239 175.561C36.5693 175.263 36.0118 175.114 35.3513 175.114C34.8683 175.114 34.4458 175.192 34.0835 175.348C33.7249 175.504 33.4443 175.719 33.2419 175.993C33.0431 176.266 32.9436 176.577 32.9436 176.925C32.9436 177.216 33.0129 177.466 33.1514 177.676C33.2934 177.882 33.4745 178.054 33.6947 178.192C33.9149 178.327 34.1457 178.439 34.3872 178.528C34.6286 178.613 34.8506 178.683 35.053 178.736L36.161 179.034C36.445 179.109 36.7611 179.212 37.1091 179.343C37.4607 179.474 37.7963 179.654 38.1159 179.881C38.439 180.105 38.7053 180.392 38.9149 180.744C39.1244 181.096 39.2291 181.527 39.2291 182.038C39.2291 182.628 39.0747 183.161 38.7657 183.636C38.4603 184.112 38.0129 184.49 37.4234 184.771C36.8374 185.051 36.1254 185.192 35.2874 185.192C34.5061 185.192 33.8296 185.066 33.2579 184.814C32.6897 184.561 32.2423 184.21 31.9156 183.759C31.5924 183.308 31.4095 182.784 31.3669 182.188H32.7306C32.7661 182.599 32.9046 182.94 33.146 183.21C33.3911 183.477 33.7 183.675 34.0729 183.807C34.4493 183.935 34.8541 183.999 35.2874 183.999C35.7916 183.999 36.2444 183.917 36.6457 183.754C37.047 183.587 37.3648 183.356 37.5992 183.061C37.8335 182.763 37.9507 182.415 37.9507 182.017C37.9507 181.655 37.8495 181.36 37.6471 181.133C37.4447 180.906 37.1784 180.721 36.8481 180.579C36.5178 180.437 36.161 180.312 35.7774 180.206L34.4351 179.822C33.5828 179.577 32.9081 179.228 32.411 178.773C31.9138 178.319 31.6652 177.724 31.6652 176.989C31.6652 176.378 31.8303 175.845 32.1606 175.391C32.4944 174.933 32.9419 174.577 33.5029 174.325C34.0676 174.07 34.6979 173.942 35.3939 173.942C36.097 173.942 36.722 174.068 37.2689 174.32C37.8158 174.569 38.249 174.909 38.5686 175.343C38.8918 175.776 39.0622 176.268 39.08 176.818H37.8016ZM44.8954 185.149C44.1923 185.149 43.5655 185.028 43.0151 184.787C42.4682 184.545 42.0332 184.21 41.71 183.78C41.3904 183.347 41.2164 182.844 41.188 182.273H42.5304C42.5588 182.624 42.6795 182.928 42.8926 183.184C43.1056 183.436 43.3844 183.631 43.7289 183.77C44.0733 183.908 44.4551 183.977 44.8741 183.977C45.3429 183.977 45.7583 183.896 46.1206 183.732C46.4828 183.569 46.7669 183.342 46.9728 183.05C47.1788 182.759 47.2818 182.422 47.2818 182.038C47.2818 181.637 47.1824 181.284 46.9835 180.978C46.7846 180.669 46.4934 180.428 46.1099 180.254C45.7264 180.08 45.2576 179.993 44.7037 179.993H43.8301V178.821H44.7037C45.1369 178.821 45.5169 178.743 45.8436 178.587C46.1738 178.43 46.4313 178.21 46.6159 177.926C46.8042 177.642 46.8983 177.308 46.8983 176.925C46.8983 176.555 46.8166 176.234 46.6532 175.961C46.4899 175.687 46.2591 175.474 45.9608 175.321C45.666 175.169 45.318 175.092 44.9167 175.092C44.5403 175.092 44.1852 175.162 43.8514 175.3C43.5211 175.435 43.2512 175.632 43.0417 175.891C42.8322 176.147 42.7186 176.456 42.7008 176.818H41.4224C41.4437 176.246 41.6159 175.746 41.9391 175.316C42.2623 174.883 42.6848 174.545 43.2069 174.304C43.7324 174.062 44.3095 173.942 44.938 173.942C45.6127 173.942 46.1916 174.078 46.6745 174.352C47.1575 174.622 47.5286 174.979 47.7878 175.423C48.0471 175.866 48.1767 176.346 48.1767 176.861C48.1767 177.475 48.0151 177.999 47.6919 178.432C47.3723 178.865 46.9373 179.165 46.3869 179.332V179.418C47.0758 179.531 47.6138 179.824 48.0009 180.297C48.388 180.765 48.5815 181.346 48.5815 182.038C48.5815 182.631 48.4199 183.164 48.0968 183.636C47.7772 184.105 47.3404 184.474 46.7864 184.744C46.2324 185.014 45.6021 185.149 44.8954 185.149ZM54.4462 185.149C53.7431 185.149 53.1163 185.028 52.5659 184.787C52.019 184.545 51.584 184.21 51.2608 183.78C50.9412 183.347 50.7672 182.844 50.7388 182.273H52.0811C52.1096 182.624 52.2303 182.928 52.4434 183.184C52.6564 183.436 52.9352 183.631 53.2797 183.77C53.6241 183.908 54.0059 183.977 54.4249 183.977C54.8936 183.977 55.3091 183.896 55.6713 183.732C56.0336 183.569 56.3176 183.342 56.5236 183.05C56.7296 182.759 56.8326 182.422 56.8326 182.038C56.8326 181.637 56.7331 181.284 56.5343 180.978C56.3354 180.669 56.0442 180.428 55.6607 180.254C55.2772 180.08 54.8084 179.993 54.2544 179.993H53.3809V178.821H54.2544C54.6877 178.821 55.0676 178.743 55.3944 178.587C55.7246 178.43 55.9821 178.21 56.1667 177.926C56.3549 177.642 56.449 177.308 56.449 176.925C56.449 176.555 56.3674 176.234 56.204 175.961C56.0407 175.687 55.8098 175.474 55.5115 175.321C55.2168 175.169 54.8688 175.092 54.4675 175.092C54.0911 175.092 53.736 175.162 53.4022 175.3C53.0719 175.435 52.802 175.632 52.5925 175.891C52.383 176.147 52.2694 176.456 52.2516 176.818H50.9732C50.9945 176.246 51.1667 175.746 51.4899 175.316C51.813 174.883 52.2356 174.545 52.7576 174.304C53.2832 174.062 53.8603 173.942 54.4888 173.942C55.1635 173.942 55.7424 174.078 56.2253 174.352C56.7083 174.622 57.0794 174.979 57.3386 175.423C57.5978 175.866 57.7275 176.346 57.7275 176.861C57.7275 177.475 57.5659 177.999 57.2427 178.432C56.9231 178.865 56.4881 179.165 55.9377 179.332V179.418C56.6266 179.531 57.1646 179.824 57.5517 180.297C57.9387 180.765 58.1323 181.346 58.1323 182.038C58.1323 182.631 57.9707 183.164 57.6476 183.636C57.3279 184.105 56.8912 184.474 56.3372 184.744C55.7832 185.014 55.1529 185.149 54.4462 185.149ZM61.8703 183.509L61.7851 184.084C61.7247 184.489 61.6324 184.922 61.5081 185.384C61.3873 185.845 61.2613 186.28 61.1299 186.689C60.9985 187.097 60.8902 187.422 60.805 187.663H59.8461C59.8923 187.436 59.9527 187.136 60.0273 186.763C60.1018 186.39 60.1764 185.973 60.251 185.511C60.3291 185.053 60.393 184.585 60.4427 184.105L60.5067 183.509H61.8703ZM67.5486 173.942C67.996 173.945 68.4434 174.031 68.8909 174.197C69.3383 174.364 69.7467 174.641 70.116 175.028C70.4854 175.412 70.7819 175.936 71.0056 176.6C71.2293 177.264 71.3412 178.097 71.3412 179.098C71.3412 180.067 71.2488 180.929 71.0642 181.681C70.8831 182.431 70.6203 183.063 70.2758 183.578C69.9349 184.093 69.5194 184.483 69.0294 184.75C68.5429 185.016 67.9925 185.149 67.3781 185.149C66.7673 185.149 66.2222 185.028 65.7428 184.787C65.267 184.542 64.8763 184.203 64.5709 183.77C64.2691 183.333 64.0756 182.827 63.9903 182.251H65.29C65.4072 182.752 65.6398 183.166 65.9878 183.493C66.3394 183.816 66.8028 183.977 67.3781 183.977C68.2197 183.977 68.8838 183.61 69.3703 182.875C69.8604 182.14 70.1054 181.101 70.1054 179.759H70.0202C69.8213 180.057 69.5851 180.314 69.3117 180.531C69.0383 180.748 68.7346 180.914 68.4008 181.032C68.067 181.149 67.7119 181.207 67.3355 181.207C66.7105 181.207 66.137 181.053 65.615 180.744C65.0965 180.431 64.681 180.004 64.3685 179.46C64.0596 178.913 63.9051 178.288 63.9051 177.585C63.9051 176.918 64.0542 176.307 64.3525 175.753C64.6544 175.195 65.077 174.751 65.6203 174.421C66.1672 174.091 66.8099 173.931 67.5486 173.942ZM67.5486 175.114C67.1011 175.114 66.6981 175.225 66.3394 175.449C65.9843 175.669 65.702 175.968 65.4925 176.344C65.2865 176.717 65.1835 177.131 65.1835 177.585C65.1835 178.04 65.2829 178.453 65.4818 178.826C65.6842 179.196 65.9594 179.49 66.3074 179.711C66.659 179.927 67.0585 180.036 67.5059 180.036C67.8433 180.036 68.1576 179.97 68.4488 179.838C68.74 179.703 68.9939 179.521 69.2105 179.29C69.4307 179.055 69.6029 178.791 69.7272 178.496C69.8515 178.198 69.9136 177.887 69.9136 177.564C69.9136 177.138 69.8106 176.738 69.6047 176.365C69.4023 175.993 69.1217 175.691 68.7631 175.46C68.4079 175.229 68.0031 175.114 67.5486 175.114ZM77.0581 185.149C76.6106 185.142 76.1632 185.057 75.7157 184.893C75.2683 184.73 74.8599 184.455 74.4906 184.068C74.1213 183.677 73.8248 183.15 73.601 182.486C73.3773 181.818 73.2654 180.98 73.2654 179.972C73.2654 179.006 73.356 178.15 73.5371 177.404C73.7182 176.655 73.981 176.025 74.3255 175.513C74.6699 174.998 75.0854 174.608 75.5719 174.341C76.062 174.075 76.6142 173.942 77.2285 173.942C77.8393 173.942 78.3826 174.064 78.8585 174.309C79.3379 174.551 79.7285 174.888 80.0304 175.321C80.3322 175.755 80.5275 176.254 80.6163 176.818H79.3166C79.1958 176.328 78.9615 175.922 78.6135 175.598C78.2654 175.275 77.8038 175.114 77.2285 175.114C76.3833 175.114 75.7175 175.481 75.231 176.216C74.748 176.951 74.5048 177.983 74.5012 179.311H74.5865C74.7853 179.009 75.0215 178.752 75.2949 178.539C75.5719 178.322 75.8773 178.155 76.2111 178.038C76.5449 177.921 76.8983 177.862 77.2711 177.862C77.8961 177.862 78.4679 178.018 78.9863 178.331C79.5048 178.64 79.9203 179.068 80.2328 179.615C80.5453 180.158 80.7015 180.781 80.7015 181.484C80.7015 182.159 80.5506 182.777 80.2488 183.338C79.9469 183.896 79.5225 184.339 78.9757 184.67C78.4324 184.996 77.7931 185.156 77.0581 185.149ZM77.0581 183.977C77.5055 183.977 77.9068 183.865 78.2619 183.642C78.6206 183.418 78.9029 183.118 79.1088 182.741C79.3184 182.365 79.4231 181.946 79.4231 181.484C79.4231 181.033 79.3219 180.623 79.1195 180.254C78.9206 179.881 78.6454 179.585 78.2939 179.364C77.9458 179.144 77.5481 179.034 77.1007 179.034C76.7633 179.034 76.449 179.102 76.1578 179.237C75.8667 179.368 75.611 179.549 75.3908 179.78C75.1742 180.011 75.0037 180.275 74.8794 180.574C74.7551 180.868 74.693 181.179 74.693 181.506C74.693 181.939 74.7942 182.344 74.9966 182.72C75.2026 183.097 75.4831 183.4 75.8382 183.631C76.1969 183.862 76.6035 183.977 77.0581 183.977ZM86.2906 185.149C85.559 185.149 84.9127 185.02 84.3517 184.76C83.7941 184.498 83.3591 184.137 83.0466 183.679C82.7341 183.217 82.5796 182.692 82.5832 182.102C82.5796 181.641 82.6702 181.214 82.8548 180.824C83.0395 180.43 83.2916 180.101 83.6112 179.838C83.9344 179.572 84.2948 179.403 84.6926 179.332V179.268C84.1705 179.134 83.7551 178.841 83.4461 178.39C83.1372 177.935 82.9845 177.418 82.988 176.839C82.9845 176.286 83.1247 175.79 83.4088 175.353C83.6929 174.917 84.0835 174.572 84.5807 174.32C85.0814 174.068 85.6514 173.942 86.2906 173.942C86.9227 173.942 87.4873 174.068 87.9845 174.32C88.4816 174.572 88.8722 174.917 89.1563 175.353C89.444 175.79 89.5896 176.286 89.5931 176.839C89.5896 177.418 89.4316 177.935 89.1191 178.39C88.8101 178.841 88.3999 179.134 87.8886 179.268V179.332C88.2828 179.403 88.6379 179.572 88.9539 179.838C89.27 180.101 89.5221 180.43 89.7103 180.824C89.8985 181.214 89.9944 181.641 89.998 182.102C89.9944 182.692 89.8346 183.217 89.5186 183.679C89.2061 184.137 88.771 184.498 88.2135 184.76C87.6595 185.02 87.0186 185.149 86.2906 185.149ZM86.2906 183.977C86.7842 183.977 87.2103 183.897 87.569 183.738C87.9276 183.578 88.2046 183.352 88.3999 183.061C88.5953 182.77 88.6947 182.429 88.6982 182.038C88.6947 181.626 88.5882 181.262 88.3786 180.946C88.1691 180.63 87.8833 180.382 87.521 180.201C87.1624 180.02 86.7522 179.929 86.2906 179.929C85.8254 179.929 85.4099 180.02 85.0441 180.201C84.6819 180.382 84.396 180.63 84.1865 180.946C83.9806 181.262 83.8794 181.626 83.8829 182.038C83.8794 182.429 83.9735 182.77 84.1652 183.061C84.3605 183.352 84.6393 183.578 85.0015 183.738C85.3637 183.897 85.7934 183.977 86.2906 183.977ZM86.2906 178.8C86.6812 178.8 87.0274 178.722 87.3293 178.565C87.6347 178.409 87.8744 178.191 88.0484 177.91C88.2224 177.63 88.3112 177.301 88.3147 176.925C88.3112 176.555 88.2242 176.234 88.0537 175.961C87.8833 175.684 87.6471 175.471 87.3453 175.321C87.0434 175.169 86.6919 175.092 86.2906 175.092C85.8822 175.092 85.5253 175.169 85.2199 175.321C84.9145 175.471 84.6784 175.684 84.5115 175.961C84.3445 176.234 84.2629 176.555 84.2664 176.925C84.2629 177.301 84.3463 177.63 84.5168 177.91C84.6908 178.191 84.9305 178.409 85.2359 178.565C85.5413 178.722 85.8928 178.8 86.2906 178.8ZM93.5988 183.509L93.5136 184.084C93.4532 184.489 93.3609 184.922 93.2366 185.384C93.1159 185.845 92.9898 186.28 92.8584 186.689C92.727 187.097 92.6187 187.422 92.5335 187.663H91.5747C91.6208 187.436 91.6812 187.136 91.7558 186.763C91.8303 186.39 91.9049 185.973 91.9795 185.511C92.0576 185.053 92.1215 184.585 92.1713 184.105L92.2352 183.509H93.5988ZM99.084 185.149C98.2814 185.149 97.5978 184.931 97.0332 184.494C96.4686 184.054 96.0371 183.416 95.7388 182.582C95.4405 181.744 95.2914 180.732 95.2914 179.545C95.2914 178.366 95.4405 177.36 95.7388 176.525C96.0407 175.687 96.4739 175.048 97.0385 174.608C97.6067 174.164 98.2885 173.942 99.084 173.942C99.8794 173.942 100.559 174.164 101.124 174.608C101.692 175.048 102.126 175.687 102.424 176.525C102.726 177.36 102.877 178.366 102.877 179.545C102.877 180.732 102.727 181.744 102.429 182.582C102.131 183.416 101.699 184.054 101.135 184.494C100.57 184.931 99.8865 185.149 99.084 185.149ZM99.084 183.977C99.8794 183.977 100.497 183.594 100.938 182.827C101.378 182.06 101.598 180.966 101.598 179.545C101.598 178.601 101.497 177.797 101.295 177.132C101.096 176.468 100.808 175.962 100.432 175.614C100.059 175.266 99.6096 175.092 99.084 175.092C98.2956 175.092 97.6795 175.481 97.2356 176.259C96.7917 177.033 96.5698 178.129 96.5698 179.545C96.5698 180.49 96.6692 181.293 96.8681 181.953C97.0669 182.614 97.3528 183.116 97.7257 183.461C98.1021 183.805 98.5549 183.977 99.084 183.977ZM108.459 185.149C107.656 185.149 106.973 184.931 106.408 184.494C105.844 184.054 105.412 183.416 105.114 182.582C104.816 181.744 104.666 180.732 104.666 179.545C104.666 178.366 104.816 177.36 105.114 176.525C105.416 175.687 105.849 175.048 106.414 174.608C106.982 174.164 107.664 173.942 108.459 173.942C109.254 173.942 109.934 174.164 110.499 174.608C111.067 175.048 111.501 175.687 111.799 176.525C112.101 177.36 112.252 178.366 112.252 179.545C112.252 180.732 112.102 181.744 111.804 182.582C111.506 183.416 111.074 184.054 110.51 184.494C109.945 184.931 109.262 185.149 108.459 185.149ZM108.459 183.977C109.254 183.977 109.872 183.594 110.313 182.827C110.753 182.06 110.973 180.966 110.973 179.545C110.973 178.601 110.872 177.797 110.67 177.132C110.471 176.468 110.183 175.962 109.807 175.614C109.434 175.266 108.985 175.092 108.459 175.092C107.671 175.092 107.055 175.481 106.611 176.259C106.167 177.033 105.945 178.129 105.945 179.545C105.945 180.49 106.044 181.293 106.243 181.953C106.442 182.614 106.728 183.116 107.101 183.461C107.477 183.805 107.93 183.977 108.459 183.977Z" fill="#BE1F32"/>
<path d="M34.8612 218.364V204.727H35.7348V218.364H34.8612ZM37.8016 208.818C37.7377 208.278 37.4784 207.859 37.0239 207.561C36.5693 207.263 36.0118 207.114 35.3513 207.114C34.8683 207.114 34.4458 207.192 34.0835 207.348C33.7249 207.504 33.4443 207.719 33.2419 207.993C33.0431 208.266 32.9436 208.577 32.9436 208.925C32.9436 209.216 33.0129 209.466 33.1514 209.676C33.2934 209.882 33.4745 210.054 33.6947 210.192C33.9149 210.327 34.1457 210.439 34.3872 210.528C34.6286 210.613 34.8506 210.683 35.053 210.736L36.161 211.034C36.445 211.109 36.7611 211.212 37.1091 211.343C37.4607 211.474 37.7963 211.654 38.1159 211.881C38.439 212.105 38.7053 212.392 38.9149 212.744C39.1244 213.096 39.2291 213.527 39.2291 214.038C39.2291 214.628 39.0747 215.161 38.7657 215.636C38.4603 216.112 38.0129 216.49 37.4234 216.771C36.8374 217.051 36.1254 217.192 35.2874 217.192C34.5061 217.192 33.8296 217.066 33.2579 216.814C32.6897 216.561 32.2423 216.21 31.9156 215.759C31.5924 215.308 31.4095 214.784 31.3669 214.188H32.7306C32.7661 214.599 32.9046 214.94 33.146 215.21C33.3911 215.477 33.7 215.675 34.0729 215.807C34.4493 215.935 34.8541 215.999 35.2874 215.999C35.7916 215.999 36.2444 215.917 36.6457 215.754C37.047 215.587 37.3648 215.356 37.5992 215.061C37.8335 214.763 37.9507 214.415 37.9507 214.017C37.9507 213.655 37.8495 213.36 37.6471 213.133C37.4447 212.906 37.1784 212.721 36.8481 212.579C36.5178 212.437 36.161 212.312 35.7774 212.206L34.4351 211.822C33.5828 211.577 32.9081 211.228 32.411 210.773C31.9138 210.319 31.6652 209.724 31.6652 208.989C31.6652 208.378 31.8303 207.845 32.1606 207.391C32.4944 206.933 32.9419 206.577 33.5029 206.325C34.0676 206.07 34.6979 205.942 35.3939 205.942C36.097 205.942 36.722 206.068 37.2689 206.32C37.8158 206.569 38.249 206.909 38.5686 207.343C38.8918 207.776 39.0622 208.268 39.08 208.818H37.8016ZM44.8954 217.149C44.1923 217.149 43.5655 217.028 43.0151 216.787C42.4682 216.545 42.0332 216.21 41.71 215.78C41.3904 215.347 41.2164 214.844 41.188 214.273H42.5304C42.5588 214.624 42.6795 214.928 42.8926 215.184C43.1056 215.436 43.3844 215.631 43.7289 215.77C44.0733 215.908 44.4551 215.977 44.8741 215.977C45.3429 215.977 45.7583 215.896 46.1206 215.732C46.4828 215.569 46.7669 215.342 46.9728 215.05C47.1788 214.759 47.2818 214.422 47.2818 214.038C47.2818 213.637 47.1824 213.284 46.9835 212.978C46.7846 212.669 46.4934 212.428 46.1099 212.254C45.7264 212.08 45.2576 211.993 44.7037 211.993H43.8301V210.821H44.7037C45.1369 210.821 45.5169 210.743 45.8436 210.587C46.1738 210.43 46.4313 210.21 46.6159 209.926C46.8042 209.642 46.8983 209.308 46.8983 208.925C46.8983 208.555 46.8166 208.234 46.6532 207.961C46.4899 207.687 46.2591 207.474 45.9608 207.321C45.666 207.169 45.318 207.092 44.9167 207.092C44.5403 207.092 44.1852 207.162 43.8514 207.3C43.5211 207.435 43.2512 207.632 43.0417 207.891C42.8322 208.147 42.7186 208.456 42.7008 208.818H41.4224C41.4437 208.246 41.6159 207.746 41.9391 207.316C42.2623 206.883 42.6848 206.545 43.2069 206.304C43.7324 206.062 44.3095 205.942 44.938 205.942C45.6127 205.942 46.1916 206.078 46.6745 206.352C47.1575 206.622 47.5286 206.979 47.7878 207.423C48.0471 207.866 48.1767 208.346 48.1767 208.861C48.1767 209.475 48.0151 209.999 47.6919 210.432C47.3723 210.865 46.9373 211.165 46.3869 211.332V211.418C47.0758 211.531 47.6138 211.824 48.0009 212.297C48.388 212.765 48.5815 213.346 48.5815 214.038C48.5815 214.631 48.4199 215.164 48.0968 215.636C47.7772 216.105 47.3404 216.474 46.7864 216.744C46.2324 217.014 45.6021 217.149 44.8954 217.149ZM54.4462 217.149C53.7431 217.149 53.1163 217.028 52.5659 216.787C52.019 216.545 51.584 216.21 51.2608 215.78C50.9412 215.347 50.7672 214.844 50.7388 214.273H52.0811C52.1096 214.624 52.2303 214.928 52.4434 215.184C52.6564 215.436 52.9352 215.631 53.2797 215.77C53.6241 215.908 54.0059 215.977 54.4249 215.977C54.8936 215.977 55.3091 215.896 55.6713 215.732C56.0336 215.569 56.3176 215.342 56.5236 215.05C56.7296 214.759 56.8326 214.422 56.8326 214.038C56.8326 213.637 56.7331 213.284 56.5343 212.978C56.3354 212.669 56.0442 212.428 55.6607 212.254C55.2772 212.08 54.8084 211.993 54.2544 211.993H53.3809V210.821H54.2544C54.6877 210.821 55.0676 210.743 55.3944 210.587C55.7246 210.43 55.9821 210.21 56.1667 209.926C56.3549 209.642 56.449 209.308 56.449 208.925C56.449 208.555 56.3674 208.234 56.204 207.961C56.0407 207.687 55.8098 207.474 55.5115 207.321C55.2168 207.169 54.8688 207.092 54.4675 207.092C54.0911 207.092 53.736 207.162 53.4022 207.3C53.0719 207.435 52.802 207.632 52.5925 207.891C52.383 208.147 52.2694 208.456 52.2516 208.818H50.9732C50.9945 208.246 51.1667 207.746 51.4899 207.316C51.813 206.883 52.2356 206.545 52.7576 206.304C53.2832 206.062 53.8603 205.942 54.4888 205.942C55.1635 205.942 55.7424 206.078 56.2253 206.352C56.7083 206.622 57.0794 206.979 57.3386 207.423C57.5978 207.866 57.7275 208.346 57.7275 208.861C57.7275 209.475 57.5659 209.999 57.2427 210.432C56.9231 210.865 56.4881 211.165 55.9377 211.332V211.418C56.6266 211.531 57.1646 211.824 57.5517 212.297C57.9387 212.765 58.1323 213.346 58.1323 214.038C58.1323 214.631 57.9707 215.164 57.6476 215.636C57.3279 216.105 56.8912 216.474 56.3372 216.744C55.7832 217.014 55.1529 217.149 54.4462 217.149ZM61.8703 215.509L61.7851 216.084C61.7247 216.489 61.6324 216.922 61.5081 217.384C61.3873 217.845 61.2613 218.28 61.1299 218.689C60.9985 219.097 60.8902 219.422 60.805 219.663H59.8461C59.8923 219.436 59.9527 219.136 60.0273 218.763C60.1018 218.39 60.1764 217.973 60.251 217.511C60.3291 217.053 60.393 216.585 60.4427 216.105L60.5067 215.509H61.8703ZM67.5486 205.942C67.996 205.945 68.4434 206.031 68.8909 206.197C69.3383 206.364 69.7467 206.641 70.116 207.028C70.4854 207.412 70.7819 207.936 71.0056 208.6C71.2293 209.264 71.3412 210.097 71.3412 211.098C71.3412 212.067 71.2488 212.929 71.0642 213.681C70.8831 214.431 70.6203 215.063 70.2758 215.578C69.9349 216.093 69.5194 216.483 69.0294 216.75C68.5429 217.016 67.9925 217.149 67.3781 217.149C66.7673 217.149 66.2222 217.028 65.7428 216.787C65.267 216.542 64.8763 216.203 64.5709 215.77C64.2691 215.333 64.0756 214.827 63.9903 214.251H65.29C65.4072 214.752 65.6398 215.166 65.9878 215.493C66.3394 215.816 66.8028 215.977 67.3781 215.977C68.2197 215.977 68.8838 215.61 69.3703 214.875C69.8604 214.14 70.1054 213.101 70.1054 211.759H70.0202C69.8213 212.057 69.5851 212.314 69.3117 212.531C69.0383 212.748 68.7346 212.914 68.4008 213.032C68.067 213.149 67.7119 213.207 67.3355 213.207C66.7105 213.207 66.137 213.053 65.615 212.744C65.0965 212.431 64.681 212.004 64.3685 211.46C64.0596 210.913 63.9051 210.288 63.9051 209.585C63.9051 208.918 64.0542 208.307 64.3525 207.753C64.6544 207.195 65.077 206.751 65.6203 206.421C66.1672 206.091 66.8099 205.931 67.5486 205.942ZM67.5486 207.114C67.1011 207.114 66.6981 207.225 66.3394 207.449C65.9843 207.669 65.702 207.968 65.4925 208.344C65.2865 208.717 65.1835 209.131 65.1835 209.585C65.1835 210.04 65.2829 210.453 65.4818 210.826C65.6842 211.196 65.9594 211.49 66.3074 211.711C66.659 211.927 67.0585 212.036 67.5059 212.036C67.8433 212.036 68.1576 211.97 68.4488 211.838C68.74 211.703 68.9939 211.521 69.2105 211.29C69.4307 211.055 69.6029 210.791 69.7272 210.496C69.8515 210.198 69.9136 209.887 69.9136 209.564C69.9136 209.138 69.8106 208.738 69.6047 208.365C69.4023 207.993 69.1217 207.691 68.7631 207.46C68.4079 207.229 68.0031 207.114 67.5486 207.114ZM77.0581 217.149C76.6106 217.142 76.1632 217.057 75.7157 216.893C75.2683 216.73 74.8599 216.455 74.4906 216.068C74.1213 215.677 73.8248 215.15 73.601 214.486C73.3773 213.818 73.2654 212.98 73.2654 211.972C73.2654 211.006 73.356 210.15 73.5371 209.404C73.7182 208.655 73.981 208.025 74.3255 207.513C74.6699 206.998 75.0854 206.608 75.5719 206.341C76.062 206.075 76.6142 205.942 77.2285 205.942C77.8393 205.942 78.3826 206.064 78.8585 206.309C79.3379 206.551 79.7285 206.888 80.0304 207.321C80.3322 207.755 80.5275 208.254 80.6163 208.818H79.3166C79.1958 208.328 78.9615 207.922 78.6135 207.598C78.2654 207.275 77.8038 207.114 77.2285 207.114C76.3833 207.114 75.7175 207.481 75.231 208.216C74.748 208.951 74.5048 209.983 74.5012 211.311H74.5865C74.7853 211.009 75.0215 210.752 75.2949 210.539C75.5719 210.322 75.8773 210.155 76.2111 210.038C76.5449 209.921 76.8983 209.862 77.2711 209.862C77.8961 209.862 78.4679 210.018 78.9863 210.331C79.5048 210.64 79.9203 211.068 80.2328 211.615C80.5453 212.158 80.7015 212.781 80.7015 213.484C80.7015 214.159 80.5506 214.777 80.2488 215.338C79.9469 215.896 79.5225 216.339 78.9757 216.67C78.4324 216.996 77.7931 217.156 77.0581 217.149ZM77.0581 215.977C77.5055 215.977 77.9068 215.865 78.2619 215.642C78.6206 215.418 78.9029 215.118 79.1088 214.741C79.3184 214.365 79.4231 213.946 79.4231 213.484C79.4231 213.033 79.3219 212.623 79.1195 212.254C78.9206 211.881 78.6454 211.585 78.2939 211.364C77.9458 211.144 77.5481 211.034 77.1007 211.034C76.7633 211.034 76.449 211.102 76.1578 211.237C75.8667 211.368 75.611 211.549 75.3908 211.78C75.1742 212.011 75.0037 212.275 74.8794 212.574C74.7551 212.868 74.693 213.179 74.693 213.506C74.693 213.939 74.7942 214.344 74.9966 214.72C75.2026 215.097 75.4831 215.4 75.8382 215.631C76.1969 215.862 76.6035 215.977 77.0581 215.977ZM86.2906 217.149C85.559 217.149 84.9127 217.02 84.3517 216.76C83.7941 216.498 83.3591 216.137 83.0466 215.679C82.7341 215.217 82.5796 214.692 82.5832 214.102C82.5796 213.641 82.6702 213.214 82.8548 212.824C83.0395 212.43 83.2916 212.101 83.6112 211.838C83.9344 211.572 84.2948 211.403 84.6926 211.332V211.268C84.1705 211.134 83.7551 210.841 83.4461 210.39C83.1372 209.935 82.9845 209.418 82.988 208.839C82.9845 208.286 83.1247 207.79 83.4088 207.353C83.6929 206.917 84.0835 206.572 84.5807 206.32C85.0814 206.068 85.6514 205.942 86.2906 205.942C86.9227 205.942 87.4873 206.068 87.9845 206.32C88.4816 206.572 88.8722 206.917 89.1563 207.353C89.444 207.79 89.5896 208.286 89.5931 208.839C89.5896 209.418 89.4316 209.935 89.1191 210.39C88.8101 210.841 88.3999 211.134 87.8886 211.268V211.332C88.2828 211.403 88.6379 211.572 88.9539 211.838C89.27 212.101 89.5221 212.43 89.7103 212.824C89.8985 213.214 89.9944 213.641 89.998 214.102C89.9944 214.692 89.8346 215.217 89.5186 215.679C89.2061 216.137 88.771 216.498 88.2135 216.76C87.6595 217.02 87.0186 217.149 86.2906 217.149ZM86.2906 215.977C86.7842 215.977 87.2103 215.897 87.569 215.738C87.9276 215.578 88.2046 215.352 88.3999 215.061C88.5953 214.77 88.6947 214.429 88.6982 214.038C88.6947 213.626 88.5882 213.262 88.3786 212.946C88.1691 212.63 87.8833 212.382 87.521 212.201C87.1624 212.02 86.7522 211.929 86.2906 211.929C85.8254 211.929 85.4099 212.02 85.0441 212.201C84.6819 212.382 84.396 212.63 84.1865 212.946C83.9806 213.262 83.8794 213.626 83.8829 214.038C83.8794 214.429 83.9735 214.77 84.1652 215.061C84.3605 215.352 84.6393 215.578 85.0015 215.738C85.3637 215.897 85.7934 215.977 86.2906 215.977ZM86.2906 210.8C86.6812 210.8 87.0274 210.722 87.3293 210.565C87.6347 210.409 87.8744 210.191 88.0484 209.91C88.2224 209.63 88.3112 209.301 88.3147 208.925C88.3112 208.555 88.2242 208.234 88.0537 207.961C87.8833 207.684 87.6471 207.471 87.3453 207.321C87.0434 207.169 86.6919 207.092 86.2906 207.092C85.8822 207.092 85.5253 207.169 85.2199 207.321C84.9145 207.471 84.6784 207.684 84.5115 207.961C84.3445 208.234 84.2629 208.555 84.2664 208.925C84.2629 209.301 84.3463 209.63 84.5168 209.91C84.6908 210.191 84.9305 210.409 85.2359 210.565C85.5413 210.722 85.8928 210.8 86.2906 210.8ZM93.5988 215.509L93.5136 216.084C93.4532 216.489 93.3609 216.922 93.2366 217.384C93.1159 217.845 92.9898 218.28 92.8584 218.689C92.727 219.097 92.6187 219.422 92.5335 219.663H91.5747C91.6208 219.436 91.6812 219.136 91.7558 218.763C91.8303 218.39 91.9049 217.973 91.9795 217.511C92.0576 217.053 92.1215 216.585 92.1713 216.105L92.2352 215.509H93.5988ZM99.084 217.149C98.2814 217.149 97.5978 216.931 97.0332 216.494C96.4686 216.054 96.0371 215.416 95.7388 214.582C95.4405 213.744 95.2914 212.732 95.2914 211.545C95.2914 210.366 95.4405 209.36 95.7388 208.525C96.0407 207.687 96.4739 207.048 97.0385 206.608C97.6067 206.164 98.2885 205.942 99.084 205.942C99.8794 205.942 100.559 206.164 101.124 206.608C101.692 207.048 102.126 207.687 102.424 208.525C102.726 209.36 102.877 210.366 102.877 211.545C102.877 212.732 102.727 213.744 102.429 214.582C102.131 215.416 101.699 216.054 101.135 216.494C100.57 216.931 99.8865 217.149 99.084 217.149ZM99.084 215.977C99.8794 215.977 100.497 215.594 100.938 214.827C101.378 214.06 101.598 212.966 101.598 211.545C101.598 210.601 101.497 209.797 101.295 209.132C101.096 208.468 100.808 207.962 100.432 207.614C100.059 207.266 99.6096 207.092 99.084 207.092C98.2956 207.092 97.6795 207.481 97.2356 208.259C96.7917 209.033 96.5698 210.129 96.5698 211.545C96.5698 212.49 96.6692 213.293 96.8681 213.953C97.0669 214.614 97.3528 215.116 97.7257 215.461C98.1021 215.805 98.5549 215.977 99.084 215.977ZM108.459 217.149C107.656 217.149 106.973 216.931 106.408 216.494C105.844 216.054 105.412 215.416 105.114 214.582C104.816 213.744 104.666 212.732 104.666 211.545C104.666 210.366 104.816 209.36 105.114 208.525C105.416 207.687 105.849 207.048 106.414 206.608C106.982 206.164 107.664 205.942 108.459 205.942C109.254 205.942 109.934 206.164 110.499 206.608C111.067 207.048 111.501 207.687 111.799 208.525C112.101 209.36 112.252 210.366 112.252 211.545C112.252 212.732 112.102 213.744 111.804 214.582C111.506 215.416 111.074 216.054 110.51 216.494C109.945 216.931 109.262 217.149 108.459 217.149ZM108.459 215.977C109.254 215.977 109.872 215.594 110.313 214.827C110.753 214.06 110.973 212.966 110.973 211.545C110.973 210.601 110.872 209.797 110.67 209.132C110.471 208.468 110.183 207.962 109.807 207.614C109.434 207.266 108.985 207.092 108.459 207.092C107.671 207.092 107.055 207.481 106.611 208.259C106.167 209.033 105.945 210.129 105.945 211.545C105.945 212.49 106.044 213.293 106.243 213.953C106.442 214.614 106.728 215.116 107.101 215.461C107.477 215.805 107.93 215.977 108.459 215.977Z" fill="#7CAC0F"/>
<path d="M198.283 86H196.898L200.904 75.0909H202.267L206.273 86H204.888L201.628 76.8168H201.543L198.283 86ZM198.794 81.7386H204.377V82.9105H198.794V81.7386ZM207.802 86V77.8182H209.016V79.0966H209.123C209.293 78.6598 209.569 78.3207 209.949 78.0792C210.329 77.8342 210.785 77.7116 211.318 77.7116C211.857 77.7116 212.307 77.8342 212.665 78.0792C213.027 78.3207 213.31 78.6598 213.512 79.0966H213.597C213.807 78.674 214.121 78.3384 214.54 78.0898C214.959 77.8377 215.462 77.7116 216.048 77.7116C216.779 77.7116 217.378 77.9407 217.843 78.3988C218.308 78.8533 218.541 79.5618 218.541 80.5241V86H217.283V80.5241C217.283 79.9205 217.118 79.489 216.788 79.2298C216.458 78.9705 216.069 78.8409 215.622 78.8409C215.046 78.8409 214.601 79.0149 214.285 79.3629C213.968 79.7074 213.81 80.1442 213.81 80.6733V86H212.532V80.3963C212.532 79.9311 212.381 79.5565 212.079 79.2724C211.777 78.9847 211.389 78.8409 210.913 78.8409C210.586 78.8409 210.281 78.9279 209.997 79.1019C209.716 79.2759 209.489 79.5174 209.315 79.8263C209.144 80.1317 209.059 80.4851 209.059 80.8864V86H207.802ZM224.163 86.1705C223.424 86.1705 222.776 85.9947 222.219 85.6431C221.665 85.2915 221.231 84.7997 220.919 84.1676C220.61 83.5355 220.456 82.7969 220.456 81.9517C220.456 81.0994 220.61 80.3555 220.919 79.7198C221.231 79.0842 221.665 78.5906 222.219 78.239C222.776 77.8874 223.424 77.7116 224.163 77.7116C224.902 77.7116 225.548 77.8874 226.102 78.239C226.659 78.5906 227.093 79.0842 227.402 79.7198C227.714 80.3555 227.87 81.0994 227.87 81.9517C227.87 82.7969 227.714 83.5355 227.402 84.1676C227.093 84.7997 226.659 85.2915 226.102 85.6431C225.548 85.9947 224.902 86.1705 224.163 86.1705ZM224.163 85.0412C224.724 85.0412 225.186 84.8974 225.548 84.6097C225.91 84.3221 226.178 83.9439 226.352 83.4751C226.526 83.0064 226.613 82.4986 226.613 81.9517C226.613 81.4048 226.526 80.8952 226.352 80.4229C226.178 79.9506 225.91 79.5689 225.548 79.2777C225.186 78.9865 224.724 78.8409 224.163 78.8409C223.602 78.8409 223.14 78.9865 222.778 79.2777C222.416 79.5689 222.148 79.9506 221.974 80.4229C221.8 80.8952 221.713 81.4048 221.713 81.9517C221.713 82.4986 221.8 83.0064 221.974 83.4751C222.148 83.9439 222.416 84.3221 222.778 84.6097C223.14 84.8974 223.602 85.0412 224.163 85.0412ZM234.945 82.6548V77.8182H236.203V86H234.945V84.6151H234.86C234.669 85.0305 234.37 85.3839 233.965 85.6751C233.561 85.9627 233.049 86.1065 232.431 86.1065C231.92 86.1065 231.465 85.9947 231.068 85.771C230.67 85.5437 230.357 85.2028 230.13 84.7482C229.903 84.2901 229.789 83.7131 229.789 83.017V77.8182H231.046V82.9318C231.046 83.5284 231.213 84.0043 231.547 84.3594C231.884 84.7145 232.314 84.892 232.836 84.892C233.149 84.892 233.466 84.8121 233.79 84.6523C234.116 84.4925 234.39 84.2475 234.61 83.9173C234.834 83.587 234.945 83.1662 234.945 82.6548ZM239.762 81.0781V86H238.505V77.8182H239.72V79.0966H239.826C240.018 78.6811 240.309 78.3473 240.7 78.0952C241.09 77.8395 241.595 77.7116 242.212 77.7116C242.766 77.7116 243.251 77.8253 243.667 78.0526C244.082 78.2763 244.405 78.6172 244.636 79.0753C244.867 79.5298 244.982 80.1051 244.982 80.8011V86H243.725V80.8864C243.725 80.2436 243.558 79.7429 243.225 79.3842C242.891 79.022 242.433 78.8409 241.85 78.8409C241.449 78.8409 241.09 78.9279 240.774 79.1019C240.462 79.2759 240.215 79.5298 240.034 79.8636C239.853 80.1974 239.762 80.6023 239.762 81.0781ZM250.838 77.8182V78.8835H246.598V77.8182H250.838ZM247.833 75.858H249.091V83.6562C249.091 84.0114 249.142 84.2777 249.245 84.4553C249.352 84.6293 249.487 84.7464 249.65 84.8068C249.817 84.8636 249.993 84.892 250.177 84.892C250.316 84.892 250.429 84.8849 250.518 84.8707C250.607 84.853 250.678 84.8388 250.731 84.8281L250.987 85.9574C250.902 85.9893 250.783 86.0213 250.63 86.0533C250.477 86.0888 250.284 86.1065 250.049 86.1065C249.694 86.1065 249.346 86.0302 249.005 85.8775C248.668 85.7248 248.387 85.4922 248.164 85.1797C247.944 84.8672 247.833 84.473 247.833 83.9972V75.858Z" fill="#565A63"/>
</svg>
