<svg width="266" height="365" viewBox="0 0 266 365" fill="none" xmlns="http://www.w3.org/2000/svg">
<rect x="1.01465" y="0.5" width="264" height="364" rx="15.5" fill="url(#paint0_radial_1075_30148)" stroke="#51515B"/>
<rect x="30.5146" y="300" width="205" height="35" rx="6" fill="url(#paint1_linear_1075_30148)"/>
<path d="M104.519 323V312.818H108.337C109.119 312.818 109.776 312.964 110.306 313.256C110.839 313.547 111.242 313.948 111.514 314.459C111.789 314.966 111.927 315.543 111.927 316.189C111.927 316.842 111.789 317.422 111.514 317.929C111.239 318.436 110.833 318.835 110.296 319.127C109.759 319.415 109.098 319.56 108.312 319.56H105.782V318.043H108.064C108.521 318.043 108.896 317.964 109.187 317.805C109.479 317.646 109.694 317.427 109.834 317.148C109.976 316.87 110.047 316.55 110.047 316.189C110.047 315.828 109.976 315.509 109.834 315.234C109.694 314.959 109.477 314.746 109.182 314.593C108.891 314.437 108.514 314.359 108.054 314.359H106.363V323H104.519ZM115.51 323.154C115.026 323.154 114.59 323.068 114.202 322.896C113.818 322.72 113.513 322.461 113.288 322.12C113.065 321.779 112.954 321.358 112.954 320.857C112.954 320.426 113.034 320.07 113.193 319.788C113.352 319.507 113.569 319.281 113.844 319.112C114.119 318.943 114.429 318.816 114.774 318.729C115.122 318.64 115.482 318.575 115.853 318.536C116.3 318.489 116.663 318.448 116.942 318.411C117.22 318.371 117.422 318.312 117.548 318.232C117.677 318.149 117.742 318.022 117.742 317.849V317.82C117.742 317.445 117.631 317.155 117.409 316.95C117.187 316.744 116.867 316.641 116.449 316.641C116.009 316.641 115.659 316.737 115.4 316.93C115.145 317.122 114.973 317.349 114.883 317.611L113.203 317.372C113.336 316.908 113.554 316.52 113.859 316.209C114.164 315.894 114.537 315.659 114.978 315.503C115.419 315.344 115.906 315.264 116.44 315.264C116.807 315.264 117.174 315.307 117.538 315.393C117.903 315.48 118.236 315.622 118.538 315.821C118.839 316.017 119.081 316.283 119.263 316.621C119.449 316.96 119.542 317.382 119.542 317.889V323H117.812V321.951H117.752C117.643 322.163 117.489 322.362 117.29 322.548C117.094 322.73 116.847 322.877 116.549 322.99C116.254 323.099 115.908 323.154 115.51 323.154ZM115.977 321.832C116.338 321.832 116.652 321.76 116.917 321.618C117.182 321.472 117.386 321.28 117.528 321.041C117.674 320.803 117.747 320.542 117.747 320.261V319.361C117.691 319.407 117.595 319.45 117.459 319.49C117.326 319.53 117.177 319.565 117.011 319.594C116.846 319.624 116.681 319.651 116.519 319.674C116.357 319.697 116.216 319.717 116.097 319.734C115.828 319.77 115.588 319.83 115.376 319.913C115.164 319.996 114.996 320.112 114.873 320.261C114.751 320.406 114.69 320.595 114.69 320.827C114.69 321.159 114.811 321.409 115.052 321.578C115.294 321.747 115.603 321.832 115.977 321.832ZM122.197 325.864C121.951 325.864 121.724 325.844 121.516 325.804C121.31 325.768 121.146 325.724 121.023 325.675L121.441 324.273C121.703 324.349 121.936 324.385 122.142 324.382C122.347 324.379 122.528 324.314 122.684 324.188C122.843 324.066 122.977 323.86 123.087 323.572L123.241 323.159L120.472 315.364H122.381L124.141 321.131H124.22L125.985 315.364H127.899L124.842 323.925C124.699 324.329 124.51 324.675 124.275 324.964C124.039 325.255 123.751 325.478 123.41 325.63C123.072 325.786 122.667 325.864 122.197 325.864ZM141.064 312.818V323H139.423L134.626 316.065H134.541V323H132.697V312.818H134.347L139.14 319.759H139.229V312.818H141.064ZM146.325 323.149C145.579 323.149 144.933 322.985 144.386 322.657C143.839 322.329 143.415 321.87 143.113 321.28C142.815 320.69 142.666 320 142.666 319.212C142.666 318.423 142.815 317.732 143.113 317.138C143.415 316.545 143.839 316.085 144.386 315.756C144.933 315.428 145.579 315.264 146.325 315.264C147.071 315.264 147.717 315.428 148.264 315.756C148.811 316.085 149.233 316.545 149.532 317.138C149.833 317.732 149.984 318.423 149.984 319.212C149.984 320 149.833 320.69 149.532 321.28C149.233 321.87 148.811 322.329 148.264 322.657C147.717 322.985 147.071 323.149 146.325 323.149ZM146.335 321.707C146.739 321.707 147.077 321.596 147.349 321.374C147.621 321.149 147.823 320.847 147.956 320.469C148.092 320.092 148.16 319.671 148.16 319.207C148.16 318.739 148.092 318.317 147.956 317.939C147.823 317.558 147.621 317.254 147.349 317.029C147.077 316.804 146.739 316.691 146.335 316.691C145.921 316.691 145.576 316.804 145.301 317.029C145.029 317.254 144.825 317.558 144.689 317.939C144.557 318.317 144.491 318.739 144.491 319.207C144.491 319.671 144.557 320.092 144.689 320.469C144.825 320.847 145.029 321.149 145.301 321.374C145.576 321.596 145.921 321.707 146.335 321.707ZM152.869 323L150.711 315.364H152.546L153.888 320.733H153.958L155.33 315.364H157.144L158.517 320.703H158.591L159.914 315.364H161.753L159.59 323H157.716L156.284 317.839H156.18L154.748 323H152.869Z" fill="white"/>
<line x1="237.515" y1="230.5" x2="0.514648" y2="230.5" stroke="url(#paint2_linear_1075_30148)"/>
<rect x="31.0146" y="50.5" width="204" height="54" rx="7.5" fill="white" stroke="#929292"/>
<rect x="31.0146" y="125.5" width="204" height="54" rx="7.5" fill="white" stroke="#929292"/>
<path d="M42.3953 71V63.7273H44.9379C45.4446 63.7273 45.8624 63.8149 46.1915 63.9901C46.5206 64.1629 46.7656 64.3961 46.9266 64.6896C47.0876 64.9808 47.1681 65.304 47.1681 65.6591C47.1681 65.9716 47.1124 66.2296 47.0012 66.4332C46.8923 66.6368 46.7478 66.7978 46.5679 66.9162C46.3904 67.0346 46.1974 67.1222 45.9891 67.179V67.25C46.2116 67.2642 46.4353 67.3423 46.6602 67.4844C46.8852 67.6264 47.0734 67.83 47.2249 68.0952C47.3764 68.3603 47.4521 68.6847 47.4521 69.0682C47.4521 69.4328 47.3693 69.7607 47.2036 70.0518C47.0378 70.343 46.7762 70.5739 46.4188 70.7443C46.0613 70.9148 45.5961 71 45.0232 71H42.3953ZM43.276 70.2188H45.0232C45.5985 70.2188 46.0068 70.1075 46.2483 69.8849C46.4922 69.66 46.6141 69.3878 46.6141 69.0682C46.6141 68.822 46.5513 68.5947 46.4259 68.3864C46.3004 68.1757 46.1217 68.0076 45.8896 67.8821C45.6576 67.7543 45.383 67.6903 45.0658 67.6903H43.276V70.2188ZM43.276 66.9233H44.9095C45.1747 66.9233 45.4138 66.8712 45.6269 66.767C45.8423 66.6629 46.0128 66.5161 46.1382 66.3267C46.2661 66.1373 46.33 65.9148 46.33 65.6591C46.33 65.3395 46.2187 65.0684 45.9962 64.8459C45.7736 64.621 45.4209 64.5085 44.9379 64.5085H43.276V66.9233ZM50.3907 71.1278C50.0451 71.1278 49.7314 71.0627 49.4497 70.9325C49.1679 70.8 48.9442 70.6094 48.7785 70.3608C48.6128 70.1098 48.5299 69.8068 48.5299 69.4517C48.5299 69.1392 48.5915 68.8859 48.7146 68.6918C48.8377 68.4953 49.0022 68.3414 49.2082 68.2301C49.4142 68.1188 49.6414 68.036 49.89 67.9815C50.141 67.9247 50.3931 67.8797 50.6464 67.8466C50.9778 67.804 51.2465 67.772 51.4525 67.7507C51.6608 67.727 51.8124 67.688 51.907 67.6335C52.0041 67.5791 52.0526 67.4844 52.0526 67.3494V67.321C52.0526 66.9706 51.9568 66.6984 51.765 66.5043C51.5756 66.3101 51.288 66.2131 50.9021 66.2131C50.502 66.2131 50.1883 66.3007 49.961 66.4759C49.7338 66.651 49.574 66.8381 49.4816 67.0369L48.6862 66.7528C48.8282 66.4214 49.0176 66.1634 49.2544 65.9787C49.4935 65.7917 49.7539 65.6615 50.0356 65.5881C50.3197 65.5123 50.599 65.4744 50.8737 65.4744C51.0489 65.4744 51.2501 65.4957 51.4774 65.5384C51.707 65.5786 51.9284 65.6626 52.1414 65.7905C52.3569 65.9183 52.5356 66.1113 52.6776 66.3693C52.8197 66.6274 52.8907 66.973 52.8907 67.4062V71H52.0526V70.2614H52.01C51.9532 70.3797 51.8585 70.5064 51.7259 70.6413C51.5934 70.7763 51.417 70.8911 51.1968 70.9858C50.9767 71.0805 50.7079 71.1278 50.3907 71.1278ZM50.5186 70.375C50.85 70.375 51.1294 70.3099 51.3566 70.1797C51.5863 70.0495 51.7591 69.8814 51.8751 69.6754C51.9935 69.4695 52.0526 69.2528 52.0526 69.0256V68.2585C52.0171 68.3011 51.939 68.3402 51.8183 68.3757C51.6999 68.4089 51.5626 68.4384 51.4063 68.4645C51.2525 68.4882 51.1021 68.5095 50.9553 68.5284C50.8109 68.545 50.6937 68.5592 50.6038 68.571C50.386 68.5994 50.1824 68.6456 49.993 68.7095C49.806 68.7711 49.6544 68.8646 49.5384 68.9901C49.4248 69.1132 49.368 69.2812 49.368 69.4943C49.368 69.7855 49.4757 70.0057 49.6911 70.1548C49.9089 70.3016 50.1847 70.375 50.5186 70.375ZM55.2584 63.7273V71H54.4204V63.7273H55.2584ZM58.3985 71.1278C58.0529 71.1278 57.7392 71.0627 57.4575 70.9325C57.1758 70.8 56.952 70.6094 56.7863 70.3608C56.6206 70.1098 56.5377 69.8068 56.5377 69.4517C56.5377 69.1392 56.5993 68.8859 56.7224 68.6918C56.8455 68.4953 57.01 68.3414 57.216 68.2301C57.422 68.1188 57.6492 68.036 57.8978 67.9815C58.1488 67.9247 58.4009 67.8797 58.6542 67.8466C58.9856 67.804 59.2544 67.772 59.4603 67.7507C59.6686 67.727 59.8202 67.688 59.9149 67.6335C60.0119 67.5791 60.0605 67.4844 60.0605 67.3494V67.321C60.0605 66.9706 59.9646 66.6984 59.7728 66.5043C59.5834 66.3101 59.2958 66.2131 58.9099 66.2131C58.5098 66.2131 58.1961 66.3007 57.9688 66.4759C57.7416 66.651 57.5818 66.8381 57.4894 67.0369L56.694 66.7528C56.836 66.4214 57.0254 66.1634 57.2622 65.9787C57.5013 65.7917 57.7617 65.6615 58.0434 65.5881C58.3275 65.5123 58.6069 65.4744 58.8815 65.4744C59.0567 65.4744 59.2579 65.4957 59.4852 65.5384C59.7148 65.5786 59.9362 65.6626 60.1492 65.7905C60.3647 65.9183 60.5434 66.1113 60.6855 66.3693C60.8275 66.6274 60.8985 66.973 60.8985 67.4062V71H60.0605V70.2614H60.0178C59.961 70.3797 59.8663 70.5064 59.7338 70.6413C59.6012 70.7763 59.4248 70.8911 59.2046 70.9858C58.9845 71.0805 58.7158 71.1278 58.3985 71.1278ZM58.5264 70.375C58.8578 70.375 59.1372 70.3099 59.3644 70.1797C59.5941 70.0495 59.7669 69.8814 59.8829 69.6754C60.0013 69.4695 60.0605 69.2528 60.0605 69.0256V68.2585C60.0249 68.3011 59.9468 68.3402 59.8261 68.3757C59.7077 68.4089 59.5704 68.4384 59.4142 68.4645C59.2603 68.4882 59.1099 68.5095 58.9632 68.5284C58.8187 68.545 58.7016 68.5592 58.6116 68.571C58.3938 68.5994 58.1902 68.6456 58.0008 68.7095C57.8138 68.7711 57.6623 68.8646 57.5463 68.9901C57.4326 69.1132 57.3758 69.2812 57.3758 69.4943C57.3758 69.7855 57.4835 70.0057 57.699 70.1548C57.9168 70.3016 58.1926 70.375 58.5264 70.375ZM63.2662 67.7188V71H62.4282V65.5455H63.2378V66.3977H63.3089C63.4367 66.1207 63.6308 65.8982 63.8912 65.7301C64.1517 65.5597 64.4878 65.4744 64.8998 65.4744C65.2691 65.4744 65.5922 65.5502 65.8692 65.7017C66.1462 65.8509 66.3617 66.0781 66.5155 66.3835C66.6694 66.6866 66.7464 67.0701 66.7464 67.5341V71H65.9083V67.5909C65.9083 67.1624 65.797 66.8286 65.5745 66.5895C65.3519 66.348 65.0465 66.2273 64.6583 66.2273C64.3908 66.2273 64.1517 66.2853 63.941 66.4013C63.7326 66.5173 63.5681 66.6866 63.4474 66.9091C63.3266 67.1316 63.2662 67.4015 63.2662 67.7188ZM70.4937 71.1136C69.9823 71.1136 69.542 70.9929 69.1727 70.7514C68.8034 70.5099 68.5193 70.1773 68.3204 69.7536C68.1215 69.3298 68.0221 68.8456 68.0221 68.3011C68.0221 67.7472 68.1239 67.2583 68.3275 66.8345C68.5335 66.4084 68.8199 66.0758 69.1869 65.8366C69.5562 65.5952 69.9871 65.4744 70.4795 65.4744C70.863 65.4744 71.2087 65.5455 71.5164 65.6875C71.8242 65.8295 72.0763 66.0284 72.2728 66.2841C72.4693 66.5398 72.5912 66.8381 72.6386 67.179H71.8005C71.7366 66.9304 71.5945 66.7102 71.3744 66.5185C71.1566 66.3243 70.863 66.2273 70.4937 66.2273C70.167 66.2273 69.8805 66.3125 69.6343 66.483C69.3905 66.651 69.1999 66.889 69.0626 67.1967C68.9276 67.5021 68.8602 67.8608 68.8602 68.2727C68.8602 68.6941 68.9265 69.0611 69.059 69.3736C69.194 69.6861 69.3834 69.9287 69.6272 70.1016C69.8734 70.2744 70.1623 70.3608 70.4937 70.3608C70.7115 70.3608 70.9092 70.3229 71.0867 70.2472C71.2643 70.1714 71.4146 70.0625 71.5377 69.9205C71.6608 69.7784 71.7484 69.608 71.8005 69.4091H72.6386C72.5912 69.7311 72.474 70.0211 72.287 70.2791C72.1024 70.5348 71.8573 70.7384 71.5519 70.8899C71.2489 71.0391 70.8962 71.1136 70.4937 71.1136ZM76.1507 71.1136C75.6251 71.1136 75.1717 70.9976 74.7906 70.7656C74.4118 70.5312 74.1194 70.2045 73.9134 69.7855C73.7098 69.3641 73.608 68.8741 73.608 68.3153C73.608 67.7566 73.7098 67.2642 73.9134 66.8381C74.1194 66.4096 74.4059 66.0758 74.7728 65.8366C75.1421 65.5952 75.573 65.4744 76.0654 65.4744C76.3495 65.4744 76.6301 65.5218 76.907 65.6165C77.184 65.7112 77.4362 65.8651 77.6634 66.0781C77.8907 66.2888 78.0718 66.5682 78.2068 66.9162C78.3417 67.2642 78.4092 67.6927 78.4092 68.2017V68.5568H74.2046V67.8324H77.5569C77.5569 67.5246 77.4954 67.25 77.3722 67.0085C77.2515 66.767 77.0787 66.5765 76.8538 66.4368C76.6312 66.2971 76.3685 66.2273 76.0654 66.2273C75.7316 66.2273 75.4428 66.3101 75.199 66.4759C74.9575 66.6392 74.7716 66.8523 74.6414 67.1151C74.5112 67.3778 74.4461 67.6596 74.4461 67.9602V68.4432C74.4461 68.8551 74.5171 69.2043 74.6592 69.4908C74.8036 69.7749 75.0036 69.9915 75.2593 70.1406C75.515 70.2874 75.8121 70.3608 76.1507 70.3608C76.3708 70.3608 76.5697 70.33 76.7472 70.2685C76.9272 70.2045 77.0822 70.1098 77.2124 69.9844C77.3427 69.8565 77.4433 69.6979 77.5143 69.5085L78.324 69.7358C78.2387 70.0104 78.0955 70.2519 77.8943 70.4602C77.693 70.6662 77.4445 70.8272 77.1485 70.9432C76.8526 71.0568 76.52 71.1136 76.1507 71.1136Z" fill="#616D7E"/>
<path d="M41.7703 138.727H42.7789L44.7959 142.122H44.8811L46.8982 138.727H47.9067L45.2789 143.003V146H44.3982V143.003L41.7703 138.727ZM50.3765 146.114C49.8841 146.114 49.452 145.996 49.0803 145.762C48.711 145.528 48.4222 145.2 48.2139 144.778C48.0079 144.357 47.9049 143.865 47.9049 143.301C47.9049 142.733 48.0079 142.237 48.2139 141.813C48.4222 141.389 48.711 141.06 49.0803 140.826C49.452 140.592 49.8841 140.474 50.3765 140.474C50.8689 140.474 51.2998 140.592 51.6691 140.826C52.0408 141.06 52.3296 141.389 52.5356 141.813C52.7439 142.237 52.8481 142.733 52.8481 143.301C52.8481 143.865 52.7439 144.357 52.5356 144.778C52.3296 145.2 52.0408 145.528 51.6691 145.762C51.2998 145.996 50.8689 146.114 50.3765 146.114ZM50.3765 145.361C50.7506 145.361 51.0583 145.265 51.2998 145.073C51.5413 144.881 51.72 144.629 51.836 144.317C51.952 144.004 52.01 143.666 52.01 143.301C52.01 142.937 51.952 142.597 51.836 142.282C51.72 141.967 51.5413 141.713 51.2998 141.518C51.0583 141.324 50.7506 141.227 50.3765 141.227C50.0025 141.227 49.6947 141.324 49.4532 141.518C49.2117 141.713 49.033 141.967 48.917 142.282C48.801 142.597 48.743 142.937 48.743 143.301C48.743 143.666 48.801 144.004 48.917 144.317C49.033 144.629 49.2117 144.881 49.4532 145.073C49.6947 145.265 50.0025 145.361 50.3765 145.361ZM57.5649 143.77V140.545H58.403V146H57.5649V145.077H57.5081C57.3802 145.354 57.1814 145.589 56.9115 145.783C56.6416 145.975 56.3007 146.071 55.8888 146.071C55.5479 146.071 55.2448 145.996 54.9797 145.847C54.7145 145.696 54.5062 145.469 54.3547 145.165C54.2032 144.86 54.1274 144.475 54.1274 144.011V140.545H54.9655V143.955C54.9655 144.352 55.0767 144.67 55.2993 144.906C55.5242 145.143 55.8106 145.261 56.1586 145.261C56.367 145.261 56.5789 145.208 56.7943 145.102C57.0121 144.995 57.1944 144.832 57.3412 144.612C57.4903 144.391 57.5649 144.111 57.5649 143.77ZM64.9521 148.159C64.5473 148.159 64.1993 148.107 63.9081 148.003C63.6169 147.901 63.3743 147.766 63.1801 147.598C62.9884 147.432 62.8357 147.255 62.722 147.065L63.3896 146.597C63.4654 146.696 63.5613 146.81 63.6773 146.938C63.7933 147.068 63.9519 147.18 64.1531 147.275C64.3567 147.372 64.6231 147.42 64.9521 147.42C65.3925 147.42 65.7559 147.314 66.0423 147.101C66.3288 146.888 66.472 146.554 66.472 146.099V144.991H66.401C66.3395 145.091 66.2519 145.214 66.1382 145.361C66.027 145.505 65.866 145.634 65.6553 145.748C65.4469 145.859 65.1652 145.915 64.8101 145.915C64.3698 145.915 63.9744 145.811 63.624 145.602C63.276 145.394 63.0002 145.091 62.7966 144.693C62.5954 144.295 62.4948 143.812 62.4948 143.244C62.4948 142.686 62.593 142.199 62.7895 141.785C62.986 141.368 63.2594 141.046 63.6098 140.819C63.9602 140.589 64.365 140.474 64.8243 140.474C65.1794 140.474 65.4611 140.534 65.6695 140.652C65.8802 140.768 66.0412 140.901 66.1524 141.05C66.2661 141.196 66.3537 141.317 66.4152 141.412H66.5004V140.545H67.3101V146.156C67.3101 146.625 67.2036 147.006 66.9905 147.3C66.7798 147.596 66.4957 147.812 66.1382 147.95C65.7831 148.089 65.3878 148.159 64.9521 148.159ZM64.9237 145.162C65.2599 145.162 65.544 145.085 65.776 144.931C66.008 144.777 66.1844 144.556 66.3051 144.267C66.4259 143.978 66.4862 143.633 66.4862 143.23C66.4862 142.837 66.4271 142.49 66.3087 142.19C66.1903 141.889 66.0151 141.653 65.7831 141.483C65.5511 141.312 65.2646 141.227 64.9237 141.227C64.5686 141.227 64.2727 141.317 64.036 141.497C63.8016 141.677 63.6252 141.919 63.5068 142.222C63.3908 142.525 63.3328 142.861 63.3328 143.23C63.3328 143.609 63.392 143.944 63.5104 144.235C63.6311 144.524 63.8087 144.751 64.0431 144.917C64.2798 145.08 64.5734 145.162 64.9237 145.162ZM71.1311 146.114C70.6056 146.114 70.1522 145.998 69.771 145.766C69.3923 145.531 69.0999 145.205 68.8939 144.786C68.6903 144.364 68.5885 143.874 68.5885 143.315C68.5885 142.757 68.6903 142.264 68.8939 141.838C69.0999 141.41 69.3863 141.076 69.7533 140.837C70.1226 140.595 70.5535 140.474 71.0459 140.474C71.33 140.474 71.6105 140.522 71.8875 140.616C72.1645 140.711 72.4166 140.865 72.6439 141.078C72.8712 141.289 73.0523 141.568 73.1872 141.916C73.3222 142.264 73.3896 142.693 73.3896 143.202V143.557H69.1851V142.832H72.5374C72.5374 142.525 72.4758 142.25 72.3527 142.009C72.232 141.767 72.0592 141.576 71.8343 141.437C71.6117 141.297 71.3489 141.227 71.0459 141.227C70.7121 141.227 70.4233 141.31 70.1794 141.476C69.9379 141.639 69.7521 141.852 69.6219 142.115C69.4917 142.378 69.4266 142.66 69.4266 142.96V143.443C69.4266 143.855 69.4976 144.204 69.6396 144.491C69.7841 144.775 69.9841 144.991 70.2398 145.141C70.4955 145.287 70.7926 145.361 71.1311 145.361C71.3513 145.361 71.5502 145.33 71.7277 145.268C71.9076 145.205 72.0627 145.11 72.1929 144.984C72.3231 144.857 72.4237 144.698 72.4948 144.509L73.3044 144.736C73.2192 145.01 73.076 145.252 72.8747 145.46C72.6735 145.666 72.4249 145.827 72.129 145.943C71.8331 146.057 71.5004 146.114 71.1311 146.114ZM77.0367 140.545V141.256H74.21V140.545H77.0367ZM75.0338 139.239H75.8719V144.438C75.8719 144.674 75.9062 144.852 75.9749 144.97C76.0459 145.086 76.1359 145.164 76.2448 145.205C76.356 145.242 76.4732 145.261 76.5963 145.261C76.6887 145.261 76.7644 145.257 76.8236 145.247C76.8828 145.235 76.9301 145.226 76.9656 145.219L77.1361 145.972C77.0793 145.993 77 146.014 76.8982 146.036C76.7964 146.059 76.6673 146.071 76.5111 146.071C76.2744 146.071 76.0423 146.02 75.8151 145.918C75.5902 145.817 75.4031 145.661 75.254 145.453C75.1072 145.245 75.0338 144.982 75.0338 144.665V139.239Z" fill="#616D7E"/>
<path d="M46.5608 80.8182V91H44.7164V82.6129H44.6567L42.2753 84.1342V82.4439L44.8058 80.8182H46.5608ZM50.7183 89.608L50.6537 90.1548C50.6073 90.5724 50.5244 90.9967 50.4051 91.4276C50.2891 91.8617 50.1665 92.2611 50.0372 92.6257C49.9079 92.9903 49.8035 93.277 49.724 93.4858H48.5109C48.5573 93.2836 48.6203 93.0085 48.6998 92.6605C48.7827 92.3125 48.8622 91.9214 48.9385 91.4872C49.0147 91.053 49.0661 90.6122 49.0926 90.1648L49.1274 89.608H50.7183ZM52.7144 91V89.6676L56.2492 86.2024C56.5873 85.861 56.869 85.5578 57.0944 85.2926C57.3198 85.0275 57.4888 84.7706 57.6015 84.522C57.7142 84.2734 57.7705 84.0083 57.7705 83.7266C57.7705 83.4051 57.6976 83.13 57.5518 82.9013C57.4059 82.6693 57.2054 82.4903 56.9502 82.3643C56.695 82.2384 56.405 82.1754 56.0802 82.1754C55.7454 82.1754 55.4521 82.245 55.2002 82.3842C54.9483 82.5201 54.7528 82.714 54.6135 82.9659C54.4777 83.2178 54.4097 83.5178 54.4097 83.8658H52.6547C52.6547 83.2195 52.8022 82.6577 53.0972 82.1804C53.3922 81.7031 53.7982 81.3336 54.3153 81.0717C54.8356 80.8099 55.4322 80.679 56.105 80.679C56.7878 80.679 57.3877 80.8066 57.9047 81.0618C58.4218 81.317 58.8228 81.6667 59.1079 82.1108C59.3962 82.5549 59.5404 83.062 59.5404 83.6321C59.5404 84.0133 59.4675 84.3878 59.3216 84.7557C59.1758 85.1236 58.9189 85.5312 58.551 85.9787C58.1865 86.4261 57.6744 86.968 57.0148 87.6044L55.2599 89.3892V89.4588H59.6945V91H52.7144ZM64.9495 91.1392C64.2866 91.1392 63.6933 91.0149 63.1697 90.7663C62.646 90.5144 62.23 90.1697 61.9218 89.7322C61.6169 89.2947 61.4545 88.7943 61.4346 88.2308H63.2243C63.2575 88.6484 63.4381 88.9898 63.7662 89.255C64.0944 89.5168 64.4888 89.6477 64.9495 89.6477C65.3108 89.6477 65.6323 89.5649 65.914 89.3991C66.1957 89.2334 66.4178 89.0031 66.5802 88.7081C66.7426 88.4131 66.8221 88.0767 66.8188 87.6989C66.8221 87.3144 66.7409 86.973 66.5752 86.6747C66.4095 86.3764 66.1824 86.1428 65.8941 85.9737C65.6057 85.8014 65.2743 85.7152 64.8998 85.7152C64.5948 85.7119 64.2949 85.7682 63.9999 85.8842C63.7049 86.0002 63.4713 86.1527 63.2989 86.3416L61.6334 86.0682L62.1654 80.8182H68.0716V82.3594H63.6917L63.3983 85.0589H63.458C63.6469 84.8369 63.9137 84.6529 64.2584 84.5071C64.6031 84.358 64.981 84.2834 65.392 84.2834C66.0084 84.2834 66.5586 84.4292 67.0425 84.7209C67.5264 85.0092 67.9076 85.407 68.186 85.9141C68.4644 86.4212 68.6036 87.0012 68.6036 87.6541C68.6036 88.3269 68.4478 88.9268 68.1363 89.4538C67.828 89.9775 67.3988 90.3902 66.8486 90.6918C66.3018 90.9901 65.6687 91.1392 64.9495 91.1392ZM73.8884 91.1392C73.1493 91.1392 72.493 91.0149 71.9197 90.7663C71.3496 90.5178 70.9021 90.178 70.5773 89.7472C70.2558 89.313 70.0967 88.8208 70.1001 88.2706C70.0967 87.843 70.1895 87.4503 70.3785 87.0923C70.5674 86.7344 70.8226 86.4361 71.1441 86.1974C71.4689 85.9555 71.8302 85.8014 72.2279 85.7351V85.6655C71.7042 85.5495 71.28 85.2827 70.9552 84.8651C70.6337 84.4441 70.4746 83.9586 70.4779 83.4084C70.4746 82.8847 70.6204 82.4174 70.9154 82.0064C71.2104 81.5954 71.6147 81.2723 72.1285 81.0369C72.6422 80.7983 73.2288 80.679 73.8884 80.679C74.5413 80.679 75.123 80.7983 75.6334 81.0369C76.1472 81.2723 76.5515 81.5954 76.8465 82.0064C77.1448 82.4174 77.2939 82.8847 77.2939 83.4084C77.2939 83.9586 77.1299 84.4441 76.8018 84.8651C76.4769 85.2827 76.0577 85.5495 75.5439 85.6655V85.7351C75.9417 85.8014 76.2996 85.9555 76.6178 86.1974C76.9393 86.4361 77.1945 86.7344 77.3834 87.0923C77.5757 87.4503 77.6718 87.843 77.6718 88.2706C77.6718 88.8208 77.5094 89.313 77.1846 89.7472C76.8598 90.178 76.4123 90.5178 75.8422 90.7663C75.2755 91.0149 74.6242 91.1392 73.8884 91.1392ZM73.8884 89.7173C74.2696 89.7173 74.601 89.6527 74.8827 89.5234C75.1644 89.3909 75.3832 89.2053 75.539 88.9666C75.6948 88.728 75.7743 88.4529 75.7776 88.1413C75.7743 87.8165 75.6898 87.5298 75.5241 87.2812C75.3617 87.0294 75.1379 86.8321 74.8529 86.6896C74.5712 86.5471 74.2497 86.4759 73.8884 86.4759C73.5238 86.4759 73.199 86.5471 72.914 86.6896C72.6289 86.8321 72.4036 87.0294 72.2378 87.2812C72.0754 87.5298 71.9959 87.8165 71.9992 88.1413C71.9959 88.4529 72.0721 88.728 72.2279 88.9666C72.3837 89.2019 72.6024 89.3859 72.8841 89.5185C73.1692 89.651 73.5039 89.7173 73.8884 89.7173ZM73.8884 85.0788C74.2 85.0788 74.4751 85.0159 74.7137 84.8899C74.9556 84.764 75.1462 84.5883 75.2854 84.3629C75.4246 84.1375 75.4959 83.8774 75.4992 83.5824C75.4959 83.2907 75.4263 83.0355 75.2904 82.8168C75.1545 82.5947 74.9656 82.424 74.7236 82.3047C74.4817 82.1821 74.2033 82.1207 73.8884 82.1207C73.5669 82.1207 73.2835 82.1821 73.0383 82.3047C72.7963 82.424 72.6074 82.5947 72.4715 82.8168C72.3389 83.0355 72.2743 83.2907 72.2776 83.5824C72.2743 83.8774 72.3406 84.1375 72.4765 84.3629C72.6157 84.585 72.8063 84.7607 73.0482 84.8899C73.2935 85.0159 73.5735 85.0788 73.8884 85.0788ZM82.841 80.679C83.3282 80.6823 83.8022 80.7685 84.2629 80.9375C84.7269 81.1032 85.1445 81.375 85.5157 81.7528C85.8869 82.1274 86.1819 82.6295 86.4007 83.2592C86.6194 83.889 86.7288 84.6679 86.7288 85.5959C86.7321 86.4709 86.6393 87.2531 86.4504 87.9425C86.2648 88.6286 85.998 89.2086 85.6499 89.6825C85.3019 90.1565 84.8827 90.5178 84.3921 90.7663C83.9016 91.0149 83.3498 91.1392 82.7366 91.1392C82.0936 91.1392 81.5235 91.0133 81.0264 90.7614C80.5325 90.5095 80.1331 90.1648 79.8282 89.7273C79.5233 89.2898 79.336 88.7893 79.2664 88.2259H81.0811C81.1739 88.6302 81.3628 88.9517 81.6478 89.1903C81.9362 89.4257 82.2991 89.5433 82.7366 89.5433C83.4426 89.5433 83.9861 89.2367 84.3673 88.6236C84.7484 88.0104 84.939 87.1586 84.939 86.0682H84.8694C84.707 86.3598 84.4965 86.6117 84.238 86.8239C83.9795 87.0327 83.6862 87.1934 83.358 87.3061C83.0332 87.4188 82.6885 87.4751 82.324 87.4751C81.7274 87.4751 81.1904 87.3326 80.7132 87.0476C80.2392 86.7625 79.863 86.3714 79.5846 85.8743C79.3095 85.3771 79.1703 84.8087 79.167 84.169C79.167 83.5062 79.3195 82.9112 79.6244 82.3842C79.9326 81.8539 80.3618 81.4363 80.912 81.1314C81.4622 80.8232 82.1052 80.6723 82.841 80.679ZM82.846 82.1705C82.488 82.1705 82.1649 82.2583 81.8765 82.4339C81.5915 82.6063 81.3661 82.8416 81.2004 83.1399C81.038 83.4349 80.9568 83.7647 80.9568 84.1293C80.9601 84.4905 81.0413 84.8187 81.2004 85.1136C81.3628 85.4086 81.5832 85.6423 81.8616 85.8146C82.1433 85.987 82.4648 86.0732 82.8261 86.0732C83.0945 86.0732 83.3448 86.0218 83.5768 85.919C83.8088 85.8163 84.011 85.6738 84.1833 85.4915C84.359 85.3059 84.4949 85.0954 84.591 84.8601C84.6904 84.6248 84.7385 84.3762 84.7352 84.1143C84.7352 83.7663 84.6523 83.4448 84.4866 83.1499C84.3242 82.8549 84.1005 82.6179 83.8154 82.4389C83.5337 82.2599 83.2106 82.1705 82.846 82.1705Z" fill="#2979F3"/>
<path d="M46.5608 155.818V166H44.7164V157.613H44.6567L42.2753 159.134V157.444L44.8058 155.818H46.5608ZM50.7183 164.608L50.6537 165.155C50.6073 165.572 50.5244 165.997 50.4051 166.428C50.2891 166.862 50.1665 167.261 50.0372 167.626C49.9079 167.99 49.8035 168.277 49.724 168.486H48.5109C48.5573 168.284 48.6203 168.009 48.6998 167.661C48.7827 167.313 48.8622 166.921 48.9385 166.487C49.0147 166.053 49.0661 165.612 49.0926 165.165L49.1274 164.608H50.7183ZM52.7144 166V164.668L56.2492 161.202C56.5873 160.861 56.869 160.558 57.0944 160.293C57.3198 160.027 57.4888 159.771 57.6015 159.522C57.7142 159.273 57.7705 159.008 57.7705 158.727C57.7705 158.405 57.6976 158.13 57.5518 157.901C57.4059 157.669 57.2054 157.49 56.9502 157.364C56.695 157.238 56.405 157.175 56.0802 157.175C55.7454 157.175 55.4521 157.245 55.2002 157.384C54.9483 157.52 54.7528 157.714 54.6135 157.966C54.4777 158.218 54.4097 158.518 54.4097 158.866H52.6547C52.6547 158.219 52.8022 157.658 53.0972 157.18C53.3922 156.703 53.7982 156.334 54.3153 156.072C54.8356 155.81 55.4322 155.679 56.105 155.679C56.7878 155.679 57.3877 155.807 57.9047 156.062C58.4218 156.317 58.8228 156.667 59.1079 157.111C59.3962 157.555 59.5404 158.062 59.5404 158.632C59.5404 159.013 59.4675 159.388 59.3216 159.756C59.1758 160.124 58.9189 160.531 58.551 160.979C58.1865 161.426 57.6744 161.968 57.0148 162.604L55.2599 164.389V164.459H59.6945V166H52.7144ZM64.9495 166.139C64.2866 166.139 63.6933 166.015 63.1697 165.766C62.646 165.514 62.23 165.17 61.9218 164.732C61.6169 164.295 61.4545 163.794 61.4346 163.231H63.2243C63.2575 163.648 63.4381 163.99 63.7662 164.255C64.0944 164.517 64.4888 164.648 64.9495 164.648C65.3108 164.648 65.6323 164.565 65.914 164.399C66.1957 164.233 66.4178 164.003 66.5802 163.708C66.7426 163.413 66.8221 163.077 66.8188 162.699C66.8221 162.314 66.7409 161.973 66.5752 161.675C66.4095 161.376 66.1824 161.143 65.8941 160.974C65.6057 160.801 65.2743 160.715 64.8998 160.715C64.5948 160.712 64.2949 160.768 63.9999 160.884C63.7049 161 63.4713 161.153 63.2989 161.342L61.6334 161.068L62.1654 155.818H68.0716V157.359H63.6917L63.3983 160.059H63.458C63.6469 159.837 63.9137 159.653 64.2584 159.507C64.6031 159.358 64.981 159.283 65.392 159.283C66.0084 159.283 66.5586 159.429 67.0425 159.721C67.5264 160.009 67.9076 160.407 68.186 160.914C68.4644 161.421 68.6036 162.001 68.6036 162.654C68.6036 163.327 68.4478 163.927 68.1363 164.454C67.828 164.978 67.3988 165.39 66.8486 165.692C66.3018 165.99 65.6687 166.139 64.9495 166.139ZM73.8884 166.139C73.1493 166.139 72.493 166.015 71.9197 165.766C71.3496 165.518 70.9021 165.178 70.5773 164.747C70.2558 164.313 70.0967 163.821 70.1001 163.271C70.0967 162.843 70.1895 162.45 70.3785 162.092C70.5674 161.734 70.8226 161.436 71.1441 161.197C71.4689 160.955 71.8302 160.801 72.2279 160.735V160.665C71.7042 160.549 71.28 160.283 70.9552 159.865C70.6337 159.444 70.4746 158.959 70.4779 158.408C70.4746 157.885 70.6204 157.417 70.9154 157.006C71.2104 156.595 71.6147 156.272 72.1285 156.037C72.6422 155.798 73.2288 155.679 73.8884 155.679C74.5413 155.679 75.123 155.798 75.6334 156.037C76.1472 156.272 76.5515 156.595 76.8465 157.006C77.1448 157.417 77.2939 157.885 77.2939 158.408C77.2939 158.959 77.1299 159.444 76.8018 159.865C76.4769 160.283 76.0577 160.549 75.5439 160.665V160.735C75.9417 160.801 76.2996 160.955 76.6178 161.197C76.9393 161.436 77.1945 161.734 77.3834 162.092C77.5757 162.45 77.6718 162.843 77.6718 163.271C77.6718 163.821 77.5094 164.313 77.1846 164.747C76.8598 165.178 76.4123 165.518 75.8422 165.766C75.2755 166.015 74.6242 166.139 73.8884 166.139ZM73.8884 164.717C74.2696 164.717 74.601 164.653 74.8827 164.523C75.1644 164.391 75.3832 164.205 75.539 163.967C75.6948 163.728 75.7743 163.453 75.7776 163.141C75.7743 162.817 75.6898 162.53 75.5241 162.281C75.3617 162.029 75.1379 161.832 74.8529 161.69C74.5712 161.547 74.2497 161.476 73.8884 161.476C73.5238 161.476 73.199 161.547 72.914 161.69C72.6289 161.832 72.4036 162.029 72.2378 162.281C72.0754 162.53 71.9959 162.817 71.9992 163.141C71.9959 163.453 72.0721 163.728 72.2279 163.967C72.3837 164.202 72.6024 164.386 72.8841 164.518C73.1692 164.651 73.5039 164.717 73.8884 164.717ZM73.8884 160.079C74.2 160.079 74.4751 160.016 74.7137 159.89C74.9556 159.764 75.1462 159.588 75.2854 159.363C75.4246 159.138 75.4959 158.877 75.4992 158.582C75.4959 158.291 75.4263 158.036 75.2904 157.817C75.1545 157.595 74.9656 157.424 74.7236 157.305C74.4817 157.182 74.2033 157.121 73.8884 157.121C73.5669 157.121 73.2835 157.182 73.0383 157.305C72.7963 157.424 72.6074 157.595 72.4715 157.817C72.3389 158.036 72.2743 158.291 72.2776 158.582C72.2743 158.877 72.3406 159.138 72.4765 159.363C72.6157 159.585 72.8063 159.761 73.0482 159.89C73.2935 160.016 73.5735 160.079 73.8884 160.079ZM82.841 155.679C83.3282 155.682 83.8022 155.768 84.2629 155.938C84.7269 156.103 85.1445 156.375 85.5157 156.753C85.8869 157.127 86.1819 157.629 86.4007 158.259C86.6194 158.889 86.7288 159.668 86.7288 160.596C86.7321 161.471 86.6393 162.253 86.4504 162.942C86.2648 163.629 85.998 164.209 85.6499 164.683C85.3019 165.156 84.8827 165.518 84.3921 165.766C83.9016 166.015 83.3498 166.139 82.7366 166.139C82.0936 166.139 81.5235 166.013 81.0264 165.761C80.5325 165.509 80.1331 165.165 79.8282 164.727C79.5233 164.29 79.336 163.789 79.2664 163.226H81.0811C81.1739 163.63 81.3628 163.952 81.6478 164.19C81.9362 164.426 82.2991 164.543 82.7366 164.543C83.4426 164.543 83.9861 164.237 84.3673 163.624C84.7484 163.01 84.939 162.159 84.939 161.068H84.8694C84.707 161.36 84.4965 161.612 84.238 161.824C83.9795 162.033 83.6862 162.193 83.358 162.306C83.0332 162.419 82.6885 162.475 82.324 162.475C81.7274 162.475 81.1904 162.333 80.7132 162.048C80.2392 161.763 79.863 161.371 79.5846 160.874C79.3095 160.377 79.1703 159.809 79.167 159.169C79.167 158.506 79.3195 157.911 79.6244 157.384C79.9326 156.854 80.3618 156.436 80.912 156.131C81.4622 155.823 82.1052 155.672 82.841 155.679ZM82.846 157.17C82.488 157.17 82.1649 157.258 81.8765 157.434C81.5915 157.606 81.3661 157.842 81.2004 158.14C81.038 158.435 80.9568 158.765 80.9568 159.129C80.9601 159.491 81.0413 159.819 81.2004 160.114C81.3628 160.409 81.5832 160.642 81.8616 160.815C82.1433 160.987 82.4648 161.073 82.8261 161.073C83.0945 161.073 83.3448 161.022 83.5768 160.919C83.8088 160.816 84.011 160.674 84.1833 160.491C84.359 160.306 84.4949 160.095 84.591 159.86C84.6904 159.625 84.7385 159.376 84.7352 159.114C84.7352 158.766 84.6523 158.445 84.4866 158.15C84.3242 157.855 84.1005 157.618 83.8154 157.439C83.5337 157.26 83.2106 157.17 82.846 157.17Z" fill="#2979F3"/>
<path d="M196.519 83V72.8182H200.417C201.152 72.8182 201.764 72.9342 202.251 73.1662C202.742 73.3949 203.108 73.7081 203.35 74.1058C203.595 74.5036 203.718 74.9543 203.718 75.4581C203.718 75.8724 203.638 76.227 203.479 76.522C203.32 76.8137 203.106 77.0507 202.838 77.233C202.569 77.4152 202.269 77.5462 201.938 77.6257V77.7251C202.299 77.745 202.646 77.8561 202.977 78.0582C203.312 78.2571 203.585 78.5388 203.797 78.9034C204.009 79.268 204.116 79.7088 204.116 80.2259C204.116 80.7528 203.988 81.2268 203.733 81.6477C203.477 82.0653 203.093 82.3951 202.579 82.6371C202.066 82.879 201.419 83 200.64 83H196.519ZM198.363 81.4588H200.347C201.017 81.4588 201.499 81.3312 201.794 81.076C202.092 80.8175 202.241 80.486 202.241 80.0817C202.241 79.7801 202.167 79.5083 202.017 79.2663C201.868 79.0211 201.656 78.8288 201.381 78.6896C201.106 78.5471 200.778 78.4759 200.397 78.4759H198.363V81.4588ZM198.363 77.1484H200.188C200.506 77.1484 200.793 77.0904 201.048 76.9744C201.303 76.8551 201.504 76.6877 201.65 76.4723C201.799 76.2536 201.873 75.995 201.873 75.6967C201.873 75.3023 201.734 74.9775 201.456 74.7223C201.181 74.4671 200.771 74.3395 200.228 74.3395H198.363V77.1484ZM205.273 74.3643V72.8182H213.396V74.3643H210.249V83H208.42V74.3643H205.273ZM223.226 76.2536H221.367C221.314 75.9486 221.216 75.6785 221.074 75.4432C220.931 75.2045 220.754 75.0024 220.542 74.8366C220.33 74.6709 220.088 74.5466 219.816 74.4638C219.547 74.3776 219.257 74.3345 218.946 74.3345C218.392 74.3345 217.902 74.4737 217.474 74.7521C217.047 75.0272 216.712 75.4316 216.47 75.9652C216.228 76.4955 216.107 77.1435 216.107 77.9091C216.107 78.688 216.228 79.3442 216.47 79.8778C216.715 80.4081 217.05 80.8092 217.474 81.081C217.902 81.3494 218.391 81.4837 218.941 81.4837C219.246 81.4837 219.531 81.4439 219.796 81.3643C220.064 81.2815 220.305 81.1605 220.517 81.0014C220.732 80.8423 220.913 80.6468 221.059 80.4148C221.208 80.1828 221.311 79.9176 221.367 79.6193L223.226 79.6293C223.157 80.1132 223.006 80.5672 222.774 80.9915C222.545 81.4157 222.245 81.7902 221.874 82.1151C221.503 82.4366 221.069 82.6884 220.571 82.8707C220.074 83.0497 219.522 83.1392 218.916 83.1392C218.021 83.1392 217.222 82.9321 216.52 82.5178C215.817 82.1035 215.263 81.5052 214.859 80.723C214.455 79.9408 214.253 79.0028 214.253 77.9091C214.253 76.812 214.456 75.8741 214.864 75.0952C215.272 74.313 215.827 73.7147 216.53 73.3004C217.232 72.8861 218.028 72.679 218.916 72.679C219.483 72.679 220.01 72.7585 220.497 72.9176C220.984 73.0767 221.418 73.3104 221.799 73.6186C222.181 73.9235 222.494 74.2981 222.739 74.7422C222.988 75.183 223.15 75.6868 223.226 76.2536Z" fill="#2979F3"/>
<path d="M148.998 255.509V254.727H154.452V255.509H152.165V262H151.285V255.509H148.998ZM157.194 262.114C156.668 262.114 156.215 261.998 155.834 261.766C155.455 261.531 155.162 261.205 154.956 260.786C154.753 260.364 154.651 259.874 154.651 259.315C154.651 258.757 154.753 258.264 154.956 257.838C155.162 257.41 155.449 257.076 155.816 256.837C156.185 256.595 156.616 256.474 157.108 256.474C157.392 256.474 157.673 256.522 157.95 256.616C158.227 256.711 158.479 256.865 158.706 257.078C158.934 257.289 159.115 257.568 159.25 257.916C159.385 258.264 159.452 258.693 159.452 259.202V259.557H155.248V258.832H158.6C158.6 258.525 158.538 258.25 158.415 258.009C158.294 257.767 158.122 257.576 157.897 257.437C157.674 257.297 157.411 257.227 157.108 257.227C156.775 257.227 156.486 257.31 156.242 257.476C156 257.639 155.815 257.852 155.684 258.115C155.554 258.378 155.489 258.66 155.489 258.96V259.443C155.489 259.855 155.56 260.204 155.702 260.491C155.847 260.775 156.047 260.991 156.302 261.141C156.558 261.287 156.855 261.361 157.194 261.361C157.414 261.361 157.613 261.33 157.79 261.268C157.97 261.205 158.125 261.11 158.255 260.984C158.386 260.857 158.486 260.698 158.557 260.509L159.367 260.736C159.282 261.01 159.138 261.252 158.937 261.46C158.736 261.666 158.487 261.827 158.191 261.943C157.896 262.057 157.563 262.114 157.194 262.114ZM160.727 262V256.545H161.537V257.369H161.593C161.693 257.099 161.873 256.88 162.133 256.712C162.394 256.544 162.687 256.46 163.014 256.46C163.075 256.46 163.152 256.461 163.245 256.464C163.337 256.466 163.407 256.47 163.454 256.474V257.327C163.426 257.32 163.361 257.309 163.259 257.295C163.16 257.278 163.054 257.27 162.943 257.27C162.678 257.27 162.441 257.326 162.233 257.437C162.027 257.546 161.863 257.697 161.743 257.891C161.624 258.083 161.565 258.302 161.565 258.548V262H160.727ZM164.448 262V256.545H165.257V257.398H165.328C165.442 257.107 165.626 256.88 165.879 256.719C166.132 256.556 166.436 256.474 166.791 256.474C167.151 256.474 167.451 256.556 167.69 256.719C167.931 256.88 168.12 257.107 168.255 257.398H168.311C168.451 257.116 168.661 256.892 168.94 256.727C169.219 256.558 169.554 256.474 169.945 256.474C170.433 256.474 170.831 256.627 171.142 256.933C171.452 257.236 171.607 257.708 171.607 258.349V262H170.769V258.349C170.769 257.947 170.659 257.659 170.438 257.487C170.218 257.314 169.959 257.227 169.661 257.227C169.277 257.227 168.98 257.343 168.769 257.575C168.559 257.805 168.453 258.096 168.453 258.449V262H167.601V258.264C167.601 257.954 167.501 257.704 167.299 257.515C167.098 257.323 166.839 257.227 166.522 257.227C166.304 257.227 166.1 257.285 165.911 257.401C165.724 257.517 165.572 257.678 165.456 257.884C165.343 258.088 165.286 258.323 165.286 258.591V262H164.448ZM178.011 262.099C177.533 262.099 177.121 262.012 176.775 261.837C176.43 261.661 176.164 261.421 175.976 261.116C175.789 260.81 175.696 260.461 175.696 260.068C175.696 259.765 175.76 259.496 175.888 259.262C176.018 259.025 176.197 258.806 176.424 258.605C176.654 258.402 176.918 258.198 177.216 257.994L178.267 257.213C178.473 257.078 178.637 256.934 178.761 256.78C178.886 256.626 178.949 256.425 178.949 256.176C178.949 255.991 178.867 255.813 178.704 255.64C178.543 255.467 178.331 255.381 178.068 255.381C177.883 255.381 177.72 255.428 177.578 255.523C177.438 255.615 177.328 255.733 177.248 255.878C177.17 256.02 177.131 256.167 177.131 256.318C177.131 256.489 177.177 256.661 177.269 256.837C177.364 257.009 177.483 257.187 177.628 257.369C177.775 257.549 177.926 257.734 178.082 257.923L181.42 262H180.412L177.656 258.676C177.4 258.368 177.168 258.089 176.96 257.838C176.752 257.587 176.586 257.34 176.463 257.096C176.34 256.852 176.278 256.588 176.278 256.304C176.278 255.977 176.351 255.691 176.495 255.445C176.642 255.196 176.847 255.003 177.109 254.866C177.374 254.726 177.685 254.656 178.04 254.656C178.404 254.656 178.718 254.727 178.981 254.869C179.244 255.009 179.446 255.195 179.588 255.427C179.73 255.656 179.801 255.906 179.801 256.176C179.801 256.524 179.715 256.826 179.542 257.082C179.369 257.337 179.133 257.575 178.835 257.795L177.386 258.875C177.06 259.116 176.838 259.351 176.722 259.578C176.606 259.805 176.548 259.969 176.548 260.068C176.548 260.295 176.607 260.507 176.726 260.704C176.844 260.9 177.011 261.059 177.226 261.18C177.442 261.3 177.694 261.361 177.983 261.361C178.257 261.361 178.525 261.303 178.785 261.187C179.046 261.068 179.281 260.898 179.492 260.675C179.705 260.453 179.873 260.185 179.996 259.873C180.122 259.56 180.185 259.209 180.185 258.818H180.994C180.994 259.301 180.939 259.695 180.827 260.001C180.716 260.306 180.591 260.545 180.451 260.718C180.311 260.891 180.199 261.02 180.114 261.105C180.085 261.141 180.059 261.176 180.035 261.212C180.012 261.247 179.986 261.283 179.957 261.318C179.723 261.581 179.427 261.777 179.07 261.908C178.712 262.036 178.359 262.099 178.011 262.099ZM191.127 257H190.246C190.194 256.747 190.103 256.524 189.972 256.332C189.845 256.141 189.688 255.98 189.504 255.849C189.321 255.717 189.119 255.617 188.896 255.551C188.674 255.485 188.442 255.452 188.2 255.452C187.76 255.452 187.361 255.563 187.004 255.786C186.649 256.008 186.366 256.336 186.155 256.769C185.947 257.202 185.842 257.734 185.842 258.364C185.842 258.993 185.947 259.525 186.155 259.958C186.366 260.391 186.649 260.719 187.004 260.942C187.361 261.164 187.76 261.276 188.2 261.276C188.442 261.276 188.674 261.242 188.896 261.176C189.119 261.11 189.321 261.012 189.504 260.881C189.688 260.749 189.845 260.587 189.972 260.395C190.103 260.201 190.194 259.978 190.246 259.727H191.127C191.06 260.099 190.939 260.432 190.764 260.725C190.589 261.019 190.371 261.268 190.111 261.474C189.85 261.678 189.558 261.833 189.234 261.94C188.912 262.046 188.567 262.099 188.2 262.099C187.58 262.099 187.028 261.948 186.546 261.645C186.063 261.342 185.683 260.911 185.406 260.352C185.129 259.794 184.99 259.131 184.99 258.364C184.99 257.597 185.129 256.934 185.406 256.375C185.683 255.816 186.063 255.385 186.546 255.082C187.028 254.779 187.58 254.628 188.2 254.628C188.567 254.628 188.912 254.681 189.234 254.788C189.558 254.894 189.85 255.05 190.111 255.256C190.371 255.46 190.589 255.709 190.764 256.002C190.939 256.293 191.06 256.626 191.127 257ZM194.652 262.114C194.159 262.114 193.727 261.996 193.356 261.762C192.986 261.528 192.698 261.2 192.489 260.778C192.283 260.357 192.18 259.865 192.18 259.301C192.18 258.733 192.283 258.237 192.489 257.813C192.698 257.389 192.986 257.06 193.356 256.826C193.727 256.592 194.159 256.474 194.652 256.474C195.144 256.474 195.575 256.592 195.945 256.826C196.316 257.06 196.605 257.389 196.811 257.813C197.019 258.237 197.123 258.733 197.123 259.301C197.123 259.865 197.019 260.357 196.811 260.778C196.605 261.2 196.316 261.528 195.945 261.762C195.575 261.996 195.144 262.114 194.652 262.114ZM194.652 261.361C195.026 261.361 195.334 261.265 195.575 261.073C195.817 260.881 195.995 260.629 196.111 260.317C196.227 260.004 196.285 259.666 196.285 259.301C196.285 258.937 196.227 258.597 196.111 258.282C195.995 257.967 195.817 257.713 195.575 257.518C195.334 257.324 195.026 257.227 194.652 257.227C194.278 257.227 193.97 257.324 193.729 257.518C193.487 257.713 193.308 257.967 193.192 258.282C193.076 258.597 193.018 258.937 193.018 259.301C193.018 259.666 193.076 260.004 193.192 260.317C193.308 260.629 193.487 260.881 193.729 261.073C193.97 261.265 194.278 261.361 194.652 261.361ZM199.241 258.719V262H198.403V256.545H199.212V257.398H199.283C199.411 257.121 199.605 256.898 199.866 256.73C200.126 256.56 200.462 256.474 200.874 256.474C201.244 256.474 201.567 256.55 201.844 256.702C202.121 256.851 202.336 257.078 202.49 257.384C202.644 257.687 202.721 258.07 202.721 258.534V262H201.883V258.591C201.883 258.162 201.772 257.829 201.549 257.589C201.327 257.348 201.021 257.227 200.633 257.227C200.365 257.227 200.126 257.285 199.916 257.401C199.707 257.517 199.543 257.687 199.422 257.909C199.301 258.132 199.241 258.402 199.241 258.719ZM206.312 262.114C205.858 262.114 205.456 261.999 205.108 261.769C204.76 261.537 204.488 261.21 204.291 260.789C204.095 260.365 203.997 259.865 203.997 259.287C203.997 258.714 204.095 258.217 204.291 257.795C204.488 257.374 204.761 257.049 205.112 256.819C205.462 256.589 205.867 256.474 206.326 256.474C206.681 256.474 206.962 256.534 207.168 256.652C207.376 256.768 207.535 256.901 207.644 257.05C207.755 257.196 207.841 257.317 207.903 257.412H207.974V254.727H208.812V262H208.002V261.162H207.903C207.841 261.261 207.754 261.387 207.64 261.538C207.527 261.687 207.364 261.821 207.154 261.94C206.943 262.056 206.662 262.114 206.312 262.114ZM206.426 261.361C206.762 261.361 207.046 261.273 207.278 261.098C207.51 260.92 207.686 260.675 207.807 260.363C207.928 260.048 207.988 259.685 207.988 259.273C207.988 258.866 207.929 258.509 207.811 258.204C207.692 257.896 207.517 257.657 207.285 257.487C207.053 257.314 206.767 257.227 206.426 257.227C206.071 257.227 205.775 257.318 205.538 257.501C205.304 257.681 205.127 257.926 205.009 258.236C204.893 258.544 204.835 258.889 204.835 259.273C204.835 259.661 204.894 260.014 205.012 260.331C205.133 260.646 205.311 260.897 205.545 261.084C205.782 261.268 206.075 261.361 206.426 261.361ZM210.463 262V256.545H211.301V262H210.463ZM210.889 255.636C210.726 255.636 210.585 255.581 210.467 255.469C210.351 255.358 210.293 255.224 210.293 255.068C210.293 254.912 210.351 254.778 210.467 254.667C210.585 254.556 210.726 254.5 210.889 254.5C211.053 254.5 211.193 254.556 211.309 254.667C211.427 254.778 211.486 254.912 211.486 255.068C211.486 255.224 211.427 255.358 211.309 255.469C211.193 255.581 211.053 255.636 210.889 255.636ZM215.209 256.545V257.256H212.382V256.545H215.209ZM213.206 255.239H214.044V260.438C214.044 260.674 214.078 260.852 214.147 260.97C214.218 261.086 214.308 261.164 214.417 261.205C214.528 261.242 214.645 261.261 214.768 261.261C214.861 261.261 214.936 261.257 214.995 261.247C215.055 261.235 215.102 261.226 215.138 261.219L215.308 261.972C215.251 261.993 215.172 262.014 215.07 262.036C214.968 262.059 214.839 262.071 214.683 262.071C214.446 262.071 214.214 262.02 213.987 261.918C213.762 261.817 213.575 261.661 213.426 261.453C213.279 261.245 213.206 260.982 213.206 260.665V255.239ZM216.469 262V256.545H217.307V262H216.469ZM216.895 255.636C216.732 255.636 216.591 255.581 216.473 255.469C216.357 255.358 216.299 255.224 216.299 255.068C216.299 254.912 216.357 254.778 216.473 254.667C216.591 254.556 216.732 254.5 216.895 254.5C217.059 254.5 217.198 254.556 217.314 254.667C217.433 254.778 217.492 254.912 217.492 255.068C217.492 255.224 217.433 255.358 217.314 255.469C217.198 255.581 217.059 255.636 216.895 255.636ZM221.058 262.114C220.566 262.114 220.134 261.996 219.762 261.762C219.393 261.528 219.104 261.2 218.896 260.778C218.69 260.357 218.587 259.865 218.587 259.301C218.587 258.733 218.69 258.237 218.896 257.813C219.104 257.389 219.393 257.06 219.762 256.826C220.134 256.592 220.566 256.474 221.058 256.474C221.551 256.474 221.981 256.592 222.351 256.826C222.722 257.06 223.011 257.389 223.217 257.813C223.426 258.237 223.53 258.733 223.53 259.301C223.53 259.865 223.426 260.357 223.217 260.778C223.011 261.2 222.722 261.528 222.351 261.762C221.981 261.996 221.551 262.114 221.058 262.114ZM221.058 261.361C221.432 261.361 221.74 261.265 221.981 261.073C222.223 260.881 222.402 260.629 222.518 260.317C222.634 260.004 222.692 259.666 222.692 259.301C222.692 258.937 222.634 258.597 222.518 258.282C222.402 257.967 222.223 257.713 221.981 257.518C221.74 257.324 221.432 257.227 221.058 257.227C220.684 257.227 220.376 257.324 220.135 257.518C219.893 257.713 219.715 257.967 219.599 258.282C219.483 258.597 219.425 258.937 219.425 259.301C219.425 259.666 219.483 260.004 219.599 260.317C219.715 260.629 219.893 260.881 220.135 261.073C220.376 261.265 220.684 261.361 221.058 261.361ZM225.647 258.719V262H224.809V256.545H225.619V257.398H225.69C225.818 257.121 226.012 256.898 226.272 256.73C226.533 256.56 226.869 256.474 227.281 256.474C227.65 256.474 227.973 256.55 228.25 256.702C228.527 256.851 228.743 257.078 228.896 257.384C229.05 257.687 229.127 258.07 229.127 258.534V262H228.289V258.591C228.289 258.162 228.178 257.829 227.955 257.589C227.733 257.348 227.427 257.227 227.039 257.227C226.772 257.227 226.533 257.285 226.322 257.401C226.113 257.517 225.949 257.687 225.828 257.909C225.707 258.132 225.647 258.402 225.647 258.719ZM234.522 257.767L233.769 257.98C233.722 257.855 233.652 257.733 233.56 257.614C233.47 257.494 233.347 257.394 233.191 257.316C233.034 257.238 232.834 257.199 232.59 257.199C232.257 257.199 231.978 257.276 231.756 257.43C231.536 257.581 231.426 257.774 231.426 258.009C231.426 258.217 231.501 258.381 231.653 258.502C231.804 258.623 232.041 258.723 232.363 258.804L233.173 259.003C233.661 259.121 234.024 259.302 234.263 259.546C234.502 259.788 234.622 260.099 234.622 260.48C234.622 260.793 234.532 261.072 234.352 261.318C234.174 261.564 233.926 261.759 233.606 261.901C233.286 262.043 232.915 262.114 232.491 262.114C231.935 262.114 231.474 261.993 231.11 261.751C230.745 261.51 230.514 261.157 230.417 260.693L231.213 260.494C231.288 260.788 231.432 261.008 231.642 261.155C231.855 261.302 232.134 261.375 232.477 261.375C232.867 261.375 233.178 261.292 233.407 261.126C233.639 260.958 233.755 260.757 233.755 260.523C233.755 260.333 233.689 260.175 233.556 260.047C233.424 259.917 233.22 259.82 232.946 259.756L232.036 259.543C231.537 259.424 231.17 259.241 230.936 258.992C230.704 258.741 230.588 258.428 230.588 258.051C230.588 257.743 230.674 257.471 230.847 257.234C231.022 256.998 231.26 256.812 231.561 256.677C231.864 256.542 232.207 256.474 232.59 256.474C233.13 256.474 233.554 256.593 233.862 256.83C234.172 257.066 234.392 257.379 234.522 257.767Z" fill="#585859"/>
<path d="M201.937 147.818H203.782V154.47C203.782 155.199 203.609 155.841 203.265 156.394C202.923 156.948 202.443 157.38 201.823 157.692C201.203 158 200.479 158.154 199.65 158.154C198.818 158.154 198.093 158 197.473 157.692C196.853 157.38 196.372 156.948 196.031 156.394C195.69 155.841 195.519 155.199 195.519 154.47V147.818H197.363V154.316C197.363 154.74 197.456 155.118 197.642 155.45C197.831 155.781 198.096 156.041 198.437 156.23C198.779 156.416 199.183 156.509 199.65 156.509C200.118 156.509 200.522 156.416 200.863 156.23C201.208 156.041 201.473 155.781 201.659 155.45C201.844 155.118 201.937 154.74 201.937 154.316V147.818ZM211.32 150.617C211.273 150.183 211.078 149.845 210.733 149.603C210.392 149.361 209.948 149.24 209.401 149.24C209.016 149.24 208.687 149.298 208.411 149.414C208.136 149.53 207.926 149.687 207.78 149.886C207.634 150.085 207.56 150.312 207.556 150.567C207.556 150.78 207.604 150.964 207.701 151.119C207.8 151.275 207.934 151.408 208.103 151.517C208.272 151.623 208.46 151.713 208.665 151.786C208.871 151.858 209.078 151.92 209.286 151.969L210.241 152.208C210.626 152.298 210.995 152.419 211.35 152.571C211.708 152.723 212.027 152.916 212.309 153.148C212.594 153.38 212.82 153.66 212.985 153.988C213.151 154.316 213.234 154.701 213.234 155.141C213.234 155.738 213.081 156.263 212.777 156.717C212.472 157.168 212.031 157.521 211.454 157.776C210.881 158.028 210.186 158.154 209.371 158.154C208.579 158.154 207.891 158.031 207.308 157.786C206.728 157.541 206.274 157.183 205.946 156.712C205.621 156.242 205.445 155.668 205.419 154.992H207.233C207.26 155.347 207.369 155.642 207.561 155.877C207.754 156.112 208.004 156.288 208.312 156.404C208.624 156.52 208.972 156.578 209.356 156.578C209.757 156.578 210.108 156.518 210.41 156.399C210.715 156.277 210.954 156.107 211.126 155.892C211.298 155.673 211.386 155.418 211.389 155.126C211.386 154.861 211.308 154.643 211.156 154.47C211.003 154.295 210.79 154.149 210.514 154.033C210.243 153.913 209.925 153.807 209.56 153.714L208.402 153.416C207.563 153.201 206.9 152.874 206.413 152.437C205.929 151.996 205.687 151.411 205.687 150.682C205.687 150.082 205.849 149.557 206.174 149.106C206.502 148.655 206.948 148.305 207.512 148.057C208.075 147.805 208.713 147.679 209.426 147.679C210.148 147.679 210.781 147.805 211.325 148.057C211.872 148.305 212.301 148.652 212.612 149.096C212.924 149.537 213.085 150.044 213.095 150.617H211.32ZM218.329 158H214.878V147.818H218.398C219.409 147.818 220.277 148.022 221.003 148.43C221.732 148.834 222.293 149.416 222.684 150.175C223.075 150.934 223.27 151.842 223.27 152.899C223.27 153.96 223.073 154.871 222.679 155.634C222.288 156.396 221.723 156.981 220.983 157.388C220.248 157.796 219.363 158 218.329 158ZM216.723 156.404H218.239C218.948 156.404 219.54 156.275 220.014 156.016C220.488 155.754 220.844 155.365 221.083 154.848C221.321 154.328 221.441 153.678 221.441 152.899C221.441 152.12 221.321 151.474 221.083 150.96C220.844 150.443 220.491 150.057 220.024 149.802C219.56 149.543 218.983 149.414 218.294 149.414H216.723V156.404Z" fill="#2979F3"/>
<defs>
<radialGradient id="paint0_radial_1075_30148" cx="0" cy="0" r="1" gradientUnits="userSpaceOnUse" gradientTransform="translate(68.0147 -19.2639) rotate(72.0147) scale(212.129 140.53)">
<stop offset="0.0126097" stop-color="#323232"/>
<stop offset="1" stop-color="#202025"/>
</radialGradient>
<linearGradient id="paint1_linear_1075_30148" x1="30.5146" y1="300" x2="186.753" y2="406.52" gradientUnits="userSpaceOnUse">
<stop stop-color="#2D7EFA"/>
<stop offset="1" stop-color="#0C57C7"/>
</linearGradient>
<linearGradient id="paint2_linear_1075_30148" x1="237.515" y1="230" x2="119.015" y2="229" gradientUnits="userSpaceOnUse">
<stop stop-color="#202025"/>
<stop offset="0.227372" stop-color="#2D2D31"/>
<stop offset="1" stop-color="#585859"/>
</linearGradient>
</defs>
</svg>
