<svg width="111" height="111" viewBox="0 0 111 111" fill="none" xmlns="http://www.w3.org/2000/svg">
<g opacity="0.7">
<path d="M55.4873 110.975C86.132 110.975 110.975 86.132 110.975 55.4873C110.975 24.8425 86.132 0 55.4873 0C24.8425 0 0 24.8425 0 55.4873C0 86.132 24.8425 110.975 55.4873 110.975Z" fill="url(#paint0_linear_1154_7090)"/>
<g style="mix-blend-mode:overlay">
<path d="M56.4473 64.1C57.9914 61.0734 59.8493 58.2102 61.6001 55.2794C62.7942 53.2733 64.0619 51.3148 65.2305 49.295C66.7448 46.6653 68.2574 44.0365 69.6569 41.3523C70.749 39.2494 72.3536 37.4299 72.6818 34.8969C73.0333 32.2143 71.1763 29.5034 68.4341 29.4058C65.4163 29.2983 62.391 29.3224 59.3618 29.3093C59.1259 29.3072 58.8902 29.4236 58.4316 29.5413C58.8979 30.7291 59.3355 31.7075 59.6594 32.7208C60.2759 34.6514 60.289 36.4717 59.16 38.3436C56.1417 43.3776 53.241 48.4975 50.3088 53.5894C47.563 58.3543 44.8056 63.1105 42.1161 67.9043C40.9127 69.9799 39.8238 72.1198 38.8543 74.3144C37.4768 77.5498 40.0775 81.3739 43.596 81.482C43.9708 81.4851 44.3602 81.4336 44.7368 81.4816C46.0615 81.6363 46.882 80.9936 47.4592 79.8726C50.2314 74.4846 53.6874 69.4941 56.4473 64.1Z" fill="white"/>
<path d="M71.3425 80.0268C71.8857 79.1053 72.376 78.153 72.8989 77.2191C75.0251 73.422 77.1361 69.6139 79.2852 65.8299C81.1146 62.6057 83.3781 59.6356 84.4622 55.9947C85.2757 53.2495 83.3797 50.0871 80.5096 49.9733C77.8591 49.871 75.2013 49.9463 72.5484 49.9616C71.9365 49.966 71.3254 50.0402 70.4111 50.0984C70.6928 50.8904 70.8157 51.3768 71.0279 51.8204C72.413 54.6984 72.0838 57.3549 70.4385 60.0998C66.6991 66.3401 63.1224 72.6797 59.4979 78.9898C59.1447 79.6019 58.9106 80.2834 58.6179 80.9395C59.0285 81.1414 59.1961 81.2948 59.3649 81.2983C62.6498 81.3591 65.9356 81.4215 69.2217 81.4312C70.1851 81.4389 70.8688 80.8291 71.3425 80.0268Z" fill="white"/>
<path d="M43.692 45.2746C44.9492 43.0852 46.3763 40.9885 47.5501 38.7573C48.964 36.0714 50.0154 33.3052 47.7178 30.4734C47.203 29.8402 46.7097 29.3658 45.8682 29.3601C44.6698 29.352 43.5118 29.5849 42.327 29.4483C41.1869 29.6285 40.4266 29.6382 39.8557 30.6371C35.8424 37.661 31.7532 44.6409 27.7761 51.6856C27.1442 52.8031 26.8336 54.1541 26.6129 55.4402C26.4992 56.1137 26.7603 56.9613 27.115 57.5794C28.1159 59.3319 29.2491 61.0058 30.3388 62.7071C30.8095 63.4425 31.2143 64.2577 32.4001 64.5518C33.7996 62.2933 35.2118 60.1329 36.5049 57.903C38.9369 53.712 41.2782 49.4704 43.692 45.2746Z" fill="white"/>
</g>
<path style="mix-blend-mode:multiply" opacity="0.5" d="M55.4876 99.5934C79.8463 99.5934 99.5929 79.8468 99.5929 55.4881C99.5929 31.1294 79.8463 11.3828 55.4876 11.3828C31.1289 11.3828 11.3823 31.1294 11.3823 55.4881C11.3823 79.8468 31.1289 99.5934 55.4876 99.5934Z" fill="url(#paint1_linear_1154_7090)"/>
<g style="mix-blend-mode:overlay">
<path d="M55.4872 3.15713C65.8385 3.15116 75.9589 6.21655 84.5672 11.9652C93.1755 17.7139 99.8846 25.8875 103.845 35.4511C107.806 45.0147 108.84 55.5385 106.817 65.6901C104.793 75.8418 99.8034 85.1649 92.4787 92.4792C85.1656 99.7877 75.8514 104.766 65.7117 106.786C55.5719 108.806 45.0609 107.778 35.5053 103.83C25.9496 99.8819 17.7776 93.1919 12.0203 84.6042C6.26312 76.0164 3.1788 65.9156 3.15661 55.5766C3.13905 48.6953 4.47998 41.8783 7.10252 35.5163C9.72506 29.1544 13.5776 23.3727 18.4393 18.5028C23.301 13.6328 29.0761 9.77045 35.4336 7.13711C41.7911 4.50377 48.6059 3.15126 55.4872 3.15713ZM55.4872 1.73438C44.8586 1.73 34.4673 4.87661 25.6266 10.7765C16.786 16.6764 9.89277 25.0647 5.81831 34.8813C1.74384 44.6979 0.670985 55.502 2.73536 65.9281C4.79974 76.3543 9.90868 85.9344 17.4164 93.4577C24.9242 100.981 34.4937 106.11 44.9156 108.196C55.3375 110.282 66.1438 109.231 75.9687 105.177C85.7937 101.123 94.1963 94.2468 100.114 85.4184C106.033 76.5899 109.201 66.2051 109.218 55.5766C109.227 48.5128 107.844 41.5165 105.148 34.9874C102.452 28.4582 98.4967 22.5242 93.5071 17.5242C88.5174 12.5242 82.5915 8.55619 76.0679 5.84693C69.5444 3.13768 62.5509 1.74021 55.4872 1.73438ZM55.4872 5.9804H54.6202C53.6865 5.9804 52.775 5.9804 51.8636 6.11378C51.7201 6.12516 51.5866 6.19177 51.4913 6.29957C51.3959 6.40738 51.3461 6.54798 51.3523 6.69178C51.3631 6.82758 51.4234 6.95469 51.5218 7.04895C51.6201 7.14321 51.7497 7.19806 51.8858 7.20308C53.064 7.20308 54.2645 7.0697 55.4427 7.0697C55.5234 7.08609 55.6068 7.08433 55.6867 7.06456C55.7667 7.04478 55.8412 7.00748 55.905 6.95536C55.9688 6.90324 56.0202 6.83759 56.0555 6.76317C56.0907 6.68875 56.1091 6.60741 56.1091 6.52505C56.1091 6.44268 56.0907 6.36135 56.0555 6.28693C56.0202 6.21251 55.9688 6.14686 55.905 6.09474C55.8412 6.04261 55.7667 6.00531 55.6867 5.98554C55.6068 5.96577 55.5234 5.96401 55.4427 5.9804H55.4872ZM46.1948 6.86962L44.9944 7.11416H44.5942L42.6379 7.60323C42.5002 7.64468 42.3829 7.73599 42.3089 7.85931C42.2349 7.98264 42.2096 8.12912 42.2378 8.27014C42.2715 8.38558 42.3417 8.48699 42.4379 8.55914C42.5341 8.63129 42.6511 8.67029 42.7713 8.67029H42.9269C44.0607 8.38129 45.15 8.11453 46.3727 7.86999C46.4432 7.85925 46.5108 7.83448 46.5715 7.79715C46.6323 7.75982 46.685 7.71069 46.7264 7.65266C46.7679 7.59463 46.7973 7.52888 46.8129 7.4593C46.8285 7.38972 46.83 7.31771 46.8173 7.24754C46.7921 7.12386 46.7255 7.01244 46.6285 6.93163C46.5315 6.85082 46.4099 6.80543 46.2837 6.80293L46.1948 6.86962ZM37.3026 9.49282H37.0803L36.7246 9.64843H35.9466C35.413 9.87074 34.8795 10.1153 34.346 10.382H33.768C33.6399 10.4486 33.5428 10.5624 33.4972 10.6993C33.4516 10.8362 33.461 10.9855 33.5234 11.1156C33.5663 11.2091 33.6353 11.2883 33.722 11.3435C33.8088 11.3987 33.9097 11.4277 34.0125 11.4269H34.257C35.3019 10.9156 36.4801 10.4265 37.5027 9.98189C37.6331 9.92327 37.736 9.81663 37.7898 9.68413C37.8436 9.55164 37.8443 9.4035 37.7917 9.27051C37.7586 9.16692 37.6933 9.07658 37.6054 9.01261C37.5174 8.94865 37.4114 8.91439 37.3026 8.91483V9.49282ZM29.0329 13.8055C28.9317 13.7732 28.8229 13.7732 28.7217 13.8055L28.1437 14.1834H26.8098L25.7428 14.9615C25.693 15.0111 25.6536 15.07 25.6266 15.1348C25.5997 15.1997 25.5858 15.2692 25.5858 15.3394C25.5858 15.4097 25.5997 15.4792 25.6266 15.544C25.6536 15.6089 25.693 15.6678 25.7428 15.7174C25.7945 15.7864 25.8617 15.8424 25.9388 15.881C26.016 15.9196 26.1011 15.9397 26.1874 15.9397C26.2967 15.9679 26.4115 15.9679 26.5208 15.9397C27.4545 15.2283 28.4327 14.5391 29.433 13.8945C29.3159 13.8149 29.1727 13.7831 29.0329 13.8055ZM21.6968 19.6077C21.6265 19.6062 21.5567 19.6193 21.4916 19.6461C21.4266 19.6729 21.3678 19.7128 21.3189 19.7633H21.1855H20.0295H19.8295H19.1403C19.0385 19.8672 18.9815 20.0069 18.9815 20.1523C18.9815 20.2978 19.0385 20.4375 19.1403 20.5414C19.2395 20.6262 19.3655 20.6734 19.496 20.6748C19.5752 20.6783 19.6542 20.6643 19.7273 20.6335C19.8003 20.6027 19.8656 20.5561 19.9184 20.4969C20.6965 19.6299 21.5412 18.7629 22.386 17.9404C22.4357 17.8908 22.4752 17.8319 22.5021 17.7671C22.529 17.7022 22.5429 17.6327 22.5429 17.5625C22.5429 17.4923 22.529 17.4227 22.5021 17.3579C22.4752 17.293 22.4357 17.2341 22.386 17.1846C22.2797 17.077 22.1368 17.0135 21.9858 17.0067L21.6968 19.6077ZM15.539 26.677C15.4518 26.6709 15.3645 26.6883 15.2863 26.7274C15.2081 26.7665 15.1419 26.8259 15.0944 26.8993C14.8721 27.1883 14.672 27.4995 14.4719 27.7885H14.1607C13.8495 28.2553 13.5605 28.7222 13.2715 29.189C13.1966 29.3133 13.1733 29.4619 13.2065 29.6031C13.2397 29.7444 13.3269 29.867 13.4493 29.9449C13.5446 29.9653 13.6431 29.9653 13.7383 29.9449C13.8323 29.9435 13.9245 29.9183 14.0061 29.8717C14.0878 29.825 14.1563 29.7584 14.2052 29.6781C14.8054 28.6777 15.4723 27.6774 16.1614 26.6992C16.2193 26.6187 16.2536 26.5237 16.2604 26.4248C16.2673 26.3259 16.2465 26.2271 16.2003 26.1394C16.1541 26.0517 16.0845 25.9785 15.9991 25.9282C15.9137 25.8779 15.8159 25.8523 15.7168 25.8545L15.539 26.677ZM10.8928 34.7689C10.7843 34.7685 10.6781 34.7999 10.5873 34.8591C10.4964 34.9184 10.4249 35.0029 10.3815 35.1023L10.1814 35.5469H9.80352L9.26999 36.903C9.2257 37.0418 9.23544 37.1922 9.29726 37.3241C9.35909 37.456 9.46845 37.5596 9.60345 37.6144H9.78128C9.89539 37.6144 10.007 37.5806 10.1019 37.5173C10.1968 37.454 10.2709 37.364 10.3148 37.2587C10.715 36.1472 11.1596 35.0356 11.6487 33.9686C11.7095 33.8358 11.7157 33.6843 11.6657 33.5471C11.6158 33.4098 11.5138 33.2976 11.3819 33.235H11.1596L10.8928 34.7689ZM7.86948 43.6611C7.7473 43.666 7.62983 43.7095 7.53396 43.7854C7.43809 43.8613 7.36875 43.9657 7.33593 44.0834C7.11363 45.0616 6.91356 46.0397 6.73572 47.0179C6.72302 47.088 6.72451 47.16 6.74011 47.2296C6.75571 47.2992 6.78511 47.365 6.82656 47.423C6.86801 47.481 6.92068 47.5301 6.98144 47.5675C7.0422 47.6048 7.10982 47.6296 7.18032 47.6403C7.3097 47.6368 7.4338 47.5882 7.5312 47.503C7.6286 47.4178 7.6932 47.3012 7.71386 47.1735C7.89171 46.0175 8.13624 44.8393 8.403 43.6833C8.41947 43.6147 8.42217 43.5435 8.41092 43.4738C8.39968 43.4041 8.37474 43.3374 8.33752 43.2774C8.3003 43.2175 8.25155 43.1655 8.1941 43.1245C8.13666 43.0835 8.07166 43.0543 8.00285 43.0386L7.86948 43.6611ZM6.60234 52.9312C6.53335 52.9282 6.46445 52.9392 6.39983 52.9635C6.33521 52.9879 6.27618 53.0251 6.22633 53.0728C6.17647 53.1206 6.13681 53.178 6.10974 53.2415C6.08266 53.3051 6.06873 53.3734 6.0688 53.4425C6.0688 53.8649 6.0688 54.2872 6.0688 54.7096C6.0688 55.0431 6.0688 55.3765 6.0688 55.71C6.0688 55.8515 6.12501 55.9872 6.22507 56.0873C6.32513 56.1873 6.46084 56.2435 6.60234 56.2435C6.67534 56.2407 6.74706 56.2234 6.8134 56.1928C6.87973 56.1622 6.93938 56.1188 6.98894 56.0651C7.03849 56.0115 7.07697 55.9485 7.10218 55.88C7.12739 55.8114 7.13885 55.7385 7.13587 55.6655C7.13587 55.1542 7.13587 54.6429 7.13587 54.1316C7.13587 53.6203 7.13587 52.7756 7.13587 52.1086C7.13598 51.965 7.08048 51.8269 6.98102 51.7233C6.88155 51.6197 6.74585 51.5586 6.60234 51.5529V52.9312ZM7.11363 62.2457C6.96983 62.2678 6.8404 62.3453 6.75312 62.4617C6.66584 62.578 6.62766 62.724 6.64679 62.8682C6.82464 64.0686 7.04695 65.2691 7.31371 66.4473C7.34654 66.5651 7.41586 66.6694 7.51173 66.7453C7.6076 66.8212 7.72507 66.8648 7.84724 66.8697H7.98062C8.04942 66.854 8.11444 66.8248 8.17188 66.7838C8.22933 66.7428 8.27807 66.6908 8.31528 66.6309C8.3525 66.5709 8.37745 66.5042 8.38869 66.4345C8.39993 66.3648 8.39724 66.2936 8.38077 66.225C8.13623 65.069 7.91393 63.8908 7.73608 62.7126C7.71542 62.5848 7.65082 62.4683 7.55342 62.3831C7.45602 62.2978 7.33193 62.2493 7.20256 62.2457H7.11363ZM9.33668 71.3158H9.15883C9.09107 71.3382 9.0285 71.3741 8.97483 71.4211C8.92116 71.4682 8.8775 71.5256 8.8464 71.5899C8.81531 71.6541 8.79742 71.724 8.79381 71.7953C8.7902 71.8666 8.80094 71.9378 8.82539 72.0049C8.88975 72.2012 8.96394 72.3941 9.04769 72.5829C9.26999 73.1906 9.51452 73.7908 9.78128 74.3836H9.91468C9.9565 74.4796 10.0246 74.5618 10.1111 74.6208C10.1976 74.6798 10.2991 74.7132 10.4038 74.717H10.6261C10.758 74.6544 10.86 74.5423 10.9099 74.405C10.9598 74.2677 10.9537 74.1162 10.8928 73.9834C10.426 72.9164 9.98137 71.7604 9.58122 70.6933C9.54488 70.5856 9.47638 70.4916 9.38495 70.424C9.29352 70.3565 9.18356 70.3185 9.06991 70.3154L9.33668 71.3158ZM13.2937 79.7856H13.0269C12.9008 79.8598 12.809 79.9809 12.7715 80.1224C12.7341 80.2639 12.7539 80.4145 12.8269 80.5414C13.0936 81.0083 13.3826 81.4529 13.6494 81.8975H14.1829L14.5831 82.4977C14.6337 82.5696 14.7001 82.629 14.7771 82.6714C14.8541 82.7138 14.9398 82.738 15.0277 82.7423C15.1406 82.7391 15.2495 82.7001 15.3389 82.6311C15.4577 82.5498 15.5403 82.4256 15.5693 82.2846C15.5983 82.1436 15.5715 81.9969 15.4945 81.8753C14.798 80.8971 14.1533 79.8967 13.5605 78.8741C13.5172 78.7889 13.45 78.7183 13.367 78.6709C13.284 78.6234 13.189 78.6014 13.0936 78.6074L13.2937 79.7856ZM18.7846 87.344C18.6541 87.3453 18.5282 87.3925 18.429 87.4773C18.3271 87.5812 18.2701 87.7209 18.2701 87.8664C18.2701 88.0119 18.3271 88.1515 18.429 88.2554H18.6735C19.4071 89.0779 20.1629 89.856 20.8965 90.6341C20.9993 90.7302 21.1337 90.7856 21.2745 90.7897C21.4188 90.7818 21.5543 90.718 21.6524 90.6118C21.7049 90.5639 21.7469 90.5056 21.7757 90.4405C21.8044 90.3754 21.8193 90.3051 21.8193 90.2339C21.8193 90.1628 21.8044 90.0924 21.7757 90.0273C21.7469 89.9623 21.7049 89.9039 21.6524 89.856C20.8076 89.0112 19.9851 88.1443 19.207 87.255C19.0953 87.1422 18.9434 87.0783 18.7846 87.0772V87.344ZM25.6094 93.7241C25.5272 93.7289 25.447 93.7513 25.3742 93.7896C25.3013 93.828 25.2375 93.8814 25.187 93.9464C25.1344 93.9943 25.0924 94.0527 25.0637 94.1178C25.0349 94.1828 25.0201 94.2532 25.0201 94.3243C25.0201 94.3955 25.0349 94.4658 25.0637 94.5309C25.0924 94.596 25.1344 94.6543 25.187 94.7022L25.6983 95.1024H25.9429H27.0766L27.8991 95.6582C28.0017 95.6804 28.1078 95.6804 28.2104 95.6582C28.2993 95.6596 28.3872 95.6378 28.4651 95.5949C28.5431 95.552 28.6086 95.4895 28.655 95.4136C28.6994 95.3555 28.7307 95.2885 28.747 95.2172C28.7633 95.1459 28.7641 95.0719 28.7494 95.0002C28.7346 94.9286 28.7047 94.861 28.6615 94.8019C28.6184 94.7428 28.5631 94.6937 28.4994 94.6578C27.5212 93.9909 26.5431 93.3017 25.6094 92.5904C25.5192 92.5052 25.4 92.4575 25.2759 92.457L25.6094 93.7241ZM33.479 98.6815C33.3761 98.6807 33.2753 98.7097 33.1885 98.7649C33.1017 98.8201 33.0328 98.8992 32.9899 98.9927C32.9274 99.1228 32.918 99.2721 32.9637 99.409C33.0093 99.5459 33.1064 99.6597 33.2344 99.7263L34.0125 100.104H36.5468H36.7469C36.8553 100.105 36.9615 100.073 37.0524 100.014C37.1432 99.9547 37.2148 99.8702 37.2582 99.7708C37.2866 99.7039 37.3012 99.6319 37.3008 99.5592C37.3004 99.4864 37.2852 99.4146 37.2561 99.3479C37.2269 99.2813 37.1845 99.2214 37.1313 99.1717C37.0782 99.1221 37.0154 99.0839 36.9469 99.0594C35.8576 98.5926 34.7239 98.1035 33.7235 97.57C33.6432 97.5502 33.5593 97.5502 33.479 97.57V98.6815ZM42.3712 102.061C42.2518 102.064 42.1364 102.104 42.0409 102.176C41.9453 102.248 41.8743 102.347 41.8376 102.461C41.8172 102.531 41.8108 102.604 41.8187 102.677C41.8266 102.749 41.8488 102.82 41.8839 102.884C41.919 102.948 41.9663 103.004 42.0232 103.05C42.0801 103.095 42.1455 103.129 42.2156 103.15H42.3712C43.416 103.439 44.4608 103.683 45.5279 103.906H45.7502C45.8758 103.88 45.9888 103.812 46.0699 103.713C46.1511 103.613 46.1954 103.489 46.1954 103.361C46.1954 103.233 46.1511 103.109 46.0699 103.009C45.9888 102.91 45.8758 102.842 45.7502 102.816C44.5942 102.572 43.5272 102.305 42.2823 101.972L42.3712 102.061ZM51.5524 103.728C51.4182 103.727 51.2889 103.777 51.19 103.868C51.0911 103.959 51.03 104.083 51.0188 104.217C51.0063 104.361 51.0504 104.504 51.1417 104.616C51.233 104.728 51.3643 104.8 51.5079 104.817H52.1081H55.1537C55.2344 104.834 55.3178 104.832 55.3977 104.812C55.4777 104.792 55.5522 104.755 55.616 104.703C55.6798 104.651 55.7312 104.585 55.7665 104.511C55.8018 104.436 55.8201 104.355 55.8201 104.272C55.8201 104.19 55.8018 104.109 55.7665 104.034C55.7312 103.96 55.6798 103.894 55.616 103.842C55.5522 103.79 55.4777 103.753 55.3977 103.733C55.3178 103.713 55.2344 103.711 55.1537 103.728C53.9755 103.728 52.775 103.728 51.5968 103.572L51.5524 103.728ZM64.4683 103.083C63.2901 103.283 62.1118 103.461 60.9336 103.594C60.7901 103.611 60.6587 103.683 60.5674 103.795C60.4761 103.907 60.432 104.051 60.4446 104.195C60.4653 104.328 60.5323 104.45 60.6339 104.54C60.7354 104.629 60.8651 104.68 61.0003 104.684H61.5339H61.8006C62.6231 104.684 63.4234 104.461 64.246 104.328H64.6239C64.6938 104.318 64.7608 104.293 64.8206 104.255C64.8805 104.218 64.9319 104.168 64.9716 104.109C65.0113 104.051 65.0384 103.985 65.0512 103.915C65.0641 103.846 65.0624 103.774 65.0463 103.706C65.0256 103.578 64.961 103.461 64.8636 103.376C64.7662 103.291 64.6421 103.242 64.5127 103.239L64.4683 103.083ZM73.3605 100.549H73.1604C72.0711 100.993 70.9373 101.371 69.8036 101.727C69.6881 101.775 69.5924 101.861 69.5319 101.971C69.4714 102.081 69.4497 102.207 69.4703 102.331C69.4909 102.454 69.5525 102.567 69.6453 102.651C69.7381 102.736 69.8565 102.786 69.9814 102.794H70.137L70.9818 102.527H71.5153L73.1604 101.927H73.4939C73.5623 101.903 73.6251 101.864 73.6782 101.815C73.7314 101.765 73.7738 101.705 73.803 101.639C73.8321 101.572 73.8474 101.5 73.8477 101.427C73.8481 101.355 73.8336 101.283 73.8051 101.216C73.7617 101.116 73.6902 101.032 73.5993 100.973C73.5085 100.913 73.4023 100.882 73.2938 100.882L73.3605 100.549ZM81.6969 96.3251C81.6017 96.3047 81.5031 96.3047 81.4079 96.3251C80.4149 96.9772 79.3923 97.5774 78.3401 98.1257C78.2765 98.1584 78.2201 98.2036 78.1744 98.2585C78.1286 98.3135 78.0943 98.377 78.0735 98.4454C78.0528 98.5139 78.046 98.5858 78.0536 98.6569C78.0612 98.728 78.0831 98.7968 78.1178 98.8594C78.1616 98.9505 78.2315 99.0266 78.3185 99.078C78.4056 99.1295 78.5059 99.1539 78.6069 99.1483H78.8514L79.585 98.7482H80.163L82.0303 97.6144C82.1528 97.5366 82.2399 97.414 82.2732 97.2727C82.3064 97.1315 82.2831 96.9829 82.2082 96.8586C82.1553 96.7838 82.0855 96.7225 82.0043 96.68C81.9231 96.6375 81.833 96.6149 81.7414 96.6141L81.6969 96.3251ZM89.0552 90.5896C88.988 90.587 88.9211 90.5996 88.8595 90.6265C88.7979 90.6535 88.7432 90.6941 88.6995 90.7452C87.8325 91.5455 86.9211 92.3236 86.0096 92.9683C85.9143 93.071 85.8613 93.206 85.8613 93.3462C85.8613 93.4864 85.9143 93.6213 86.0096 93.7241C86.0625 93.7919 86.1299 93.847 86.2068 93.8855C86.2837 93.9239 86.3682 93.9448 86.4542 93.9464C86.5775 93.9418 86.6953 93.8947 86.7877 93.813C87.7214 93.0572 88.655 92.2569 89.522 91.4121C89.5746 91.3642 89.6166 91.3059 89.6453 91.2408C89.6741 91.1757 89.6889 91.1054 89.6889 91.0342C89.6889 90.9631 89.6741 90.8927 89.6453 90.8276C89.6166 90.7626 89.5746 90.7042 89.522 90.6563C89.4737 90.5976 89.4124 90.551 89.343 90.5201C89.2735 90.4892 89.1978 90.475 89.1219 90.4785L89.0552 90.5896ZM95.2353 83.5648C95.1484 83.561 95.0619 83.5794 94.9841 83.6183C94.9063 83.6572 94.8397 83.7153 94.7907 83.7871C94.1015 84.743 93.3679 85.6989 92.5676 86.5881C92.4708 86.6945 92.4171 86.8333 92.4171 86.9772C92.4171 87.121 92.4708 87.2598 92.5676 87.3662C92.6686 87.448 92.7934 87.4948 92.9233 87.4996C93.004 87.4989 93.0836 87.4806 93.1565 87.4461C93.2295 87.4115 93.294 87.3615 93.3457 87.2995L94.146 86.3214H94.7684L95.7243 84.4762C95.7664 84.4183 95.7964 84.3524 95.8125 84.2826C95.8286 84.2129 95.8305 84.1405 95.818 84.07C95.8056 83.9995 95.7791 83.9322 95.7401 83.8721C95.701 83.812 95.6503 83.7604 95.591 83.7204C95.491 83.6808 95.3797 83.6808 95.2797 83.7204L95.2353 83.5648ZM99.9481 75.584C99.8464 75.5882 99.7476 75.6192 99.6617 75.6739C99.5759 75.7285 99.5059 75.8049 99.4591 75.8953C98.97 76.9846 98.4142 78.1183 97.8362 79.0742C97.7708 79.205 97.7574 79.3556 97.7987 79.4959C97.8399 79.6361 97.9328 79.7555 98.0585 79.8301C98.1463 79.8501 98.2375 79.8501 98.3253 79.8301C98.422 79.8287 98.5165 79.8011 98.5988 79.7502C98.681 79.6993 98.7478 79.627 98.7921 79.5411C99.3034 78.6296 99.7925 77.6737 100.237 76.7178C100.387 76.7089 100.528 76.6407 100.628 76.5282C100.728 76.4156 100.779 76.2679 100.771 76.1176C100.762 75.9672 100.694 75.8265 100.581 75.7265C100.468 75.6264 100.321 75.5752 100.17 75.584C100.09 75.5643 100.006 75.5643 99.9259 75.584H99.9481ZM103.06 66.6918C102.939 66.688 102.82 66.7255 102.723 66.7983C102.626 66.871 102.557 66.9746 102.527 67.092C102.238 68.248 101.904 69.315 101.549 70.5155C101.524 70.5826 101.514 70.6539 101.517 70.7252C101.521 70.7964 101.539 70.8663 101.57 70.9306C101.601 70.9948 101.644 71.0522 101.698 71.0993C101.752 71.1464 101.814 71.1822 101.882 71.2046H102.06C102.172 71.2064 102.281 71.173 102.373 71.1091C102.465 71.0453 102.534 70.9543 102.571 70.8489C102.949 69.693 103.283 68.5147 103.572 67.3365C103.592 67.2664 103.597 67.193 103.587 67.1207C103.578 67.0485 103.553 66.979 103.516 66.9165C103.478 66.854 103.429 66.7999 103.369 66.7574C103.31 66.7149 103.243 66.6851 103.172 66.6696L103.06 66.6918ZM104.416 57.444C104.276 57.4435 104.141 57.4959 104.038 57.5907C103.935 57.6855 103.872 57.8157 103.861 57.9553C103.861 59.1335 103.705 60.3339 103.549 61.5121C103.537 61.6561 103.581 61.7994 103.672 61.9114C103.764 62.0235 103.895 62.0956 104.039 62.1124C104.168 62.1088 104.292 62.0603 104.389 61.9751C104.487 61.8898 104.551 61.7733 104.572 61.6455C104.572 61.3565 104.572 61.0675 104.572 60.7785L104.705 59.2446C104.705 59.0668 104.705 58.9112 104.705 58.7556C104.712 58.6118 104.662 58.4712 104.566 58.3634C104.471 58.2556 104.338 58.1889 104.194 58.1776L104.416 57.444ZM103.994 48.1072C103.922 48.1152 103.852 48.138 103.788 48.1741C103.725 48.2103 103.67 48.259 103.626 48.3173C103.582 48.3757 103.551 48.4423 103.534 48.5133C103.517 48.5842 103.515 48.6578 103.527 48.7296C103.683 49.8856 103.816 51.086 103.883 52.2643C103.894 52.4038 103.958 52.534 104.061 52.6288C104.164 52.7236 104.299 52.776 104.439 52.7756C104.582 52.7642 104.716 52.6976 104.811 52.5898C104.906 52.482 104.956 52.3414 104.95 52.1976C104.95 52.0642 104.95 51.953 104.95 51.8196C104.95 51.5751 104.95 51.3528 104.95 51.1305C104.934 51.0009 104.87 50.8817 104.772 50.7957C104.674 50.7096 104.547 50.6626 104.416 50.6637L103.994 48.1072ZM101.771 39.0149H101.593C101.461 39.0736 101.355 39.1778 101.294 39.3084C101.233 39.4391 101.221 39.5874 101.26 39.7263C101.638 40.8378 101.993 41.9493 102.282 43.1275C102.316 43.243 102.386 43.3444 102.482 43.4165C102.579 43.4887 102.696 43.5277 102.816 43.5277H102.949C103.02 43.5122 103.088 43.4823 103.147 43.4399C103.206 43.3974 103.256 43.3433 103.294 43.2808C103.331 43.2183 103.355 43.1488 103.365 43.0766C103.375 43.0043 103.369 42.9309 103.349 42.8608C103.038 41.6826 102.682 40.5266 102.305 39.3928C102.267 39.2815 102.195 39.185 102.099 39.1171C102.003 39.0492 101.888 39.0134 101.771 39.0149ZM97.9474 30.5006C97.8595 30.4813 97.7685 30.4813 97.6806 30.5006C97.6189 30.5353 97.5647 30.5818 97.5211 30.6376C97.4776 30.6934 97.4456 30.7573 97.427 30.8255C97.4083 30.8938 97.4035 30.9651 97.4127 31.0353C97.4219 31.1054 97.445 31.1731 97.4805 31.2342C98.0585 32.2568 98.6365 33.3239 99.1478 34.391C99.1907 34.4845 99.2596 34.5636 99.3464 34.6188C99.4332 34.674 99.5341 34.703 99.6369 34.7022C99.7097 34.722 99.7864 34.722 99.8592 34.7022C99.9259 34.676 99.9863 34.6361 100.037 34.585C100.087 34.534 100.126 34.4729 100.151 34.4059C100.176 34.3388 100.187 34.2672 100.183 34.1957C100.178 34.1242 100.159 34.0544 100.126 33.9908L99.6591 33.0571H98.7032C98.6609 32.9695 98.5946 32.8958 98.5119 32.8446C98.4292 32.7935 98.3336 32.7669 98.2364 32.7681L97.9474 30.5006ZM92.5231 22.8978C92.3933 22.9026 92.2685 22.9494 92.1675 23.0312C92.0656 23.1351 92.0086 23.2747 92.0086 23.4202C92.0086 23.5657 92.0656 23.7054 92.1675 23.8092C92.9455 24.6985 93.6791 25.6321 94.3905 26.5658C94.4396 26.6376 94.5062 26.6957 94.584 26.7346C94.6618 26.7735 94.7482 26.792 94.8351 26.7881C94.9559 26.7917 95.074 26.7523 95.1686 26.677C95.2639 26.5742 95.3168 26.4392 95.3168 26.2991C95.3168 26.1589 95.2639 26.0239 95.1686 25.9211H94.8573L93.4568 24.1649H93.3012C93.1895 24.0521 93.0376 23.9882 92.8788 23.9871L92.5231 22.8978ZM85.854 16.451C85.7733 16.4516 85.6937 16.4699 85.6208 16.5044C85.5478 16.539 85.4833 16.589 85.4316 16.651C85.3298 16.7549 85.2728 16.8946 85.2728 17.0401C85.2728 17.1855 85.3298 17.3252 85.4316 17.4291C86.3653 18.1627 87.2767 18.9185 88.1437 19.6521C88.1926 19.7027 88.2515 19.7426 88.3165 19.7694C88.3815 19.7961 88.4514 19.8092 88.5217 19.8078C88.6727 19.801 88.8156 19.7375 88.9218 19.6299C89.0236 19.526 89.0807 19.3864 89.0807 19.2409C89.0807 19.0954 89.0236 18.9557 88.9218 18.8518C88.455 18.4072 87.9437 17.9849 87.4546 17.5625H86.7655L86.3208 17.2068C86.2123 17.1727 86.0959 17.1727 85.9874 17.2068L85.854 16.451ZM77.94 11.3824C77.8371 11.3816 77.7362 11.4106 77.6494 11.4658C77.5627 11.521 77.4937 11.6001 77.4509 11.6936C77.4161 11.7561 77.3943 11.825 77.3867 11.8961C77.3791 11.9672 77.3859 12.0391 77.4066 12.1075C77.4274 12.176 77.4616 12.2395 77.5074 12.2945C77.5532 12.3494 77.6096 12.3945 77.6732 12.4272C78.7402 12.9608 79.7851 13.561 80.7854 14.1612C80.8791 14.1934 80.9808 14.1934 81.0745 14.1612C81.1685 14.1599 81.2606 14.1347 81.3423 14.088C81.4239 14.0414 81.4924 13.9748 81.5413 13.8945C81.6108 13.7689 81.631 13.6219 81.5982 13.4822C81.5653 13.3425 81.4816 13.22 81.3634 13.1386L80.2297 12.4717H79.5183L78.1845 11.7381H77.94V11.3824ZM69.2478 7.93668C69.1245 7.94907 69.0089 8.00233 68.9193 8.088C68.8297 8.17366 68.7713 8.28681 68.7534 8.40946C68.7356 8.53211 68.7592 8.65722 68.8205 8.7649C68.8819 8.87258 68.9776 8.95665 69.0922 9.00375C70.226 9.3372 71.3153 9.71512 72.4712 10.1153H72.6713C72.7823 10.1138 72.8904 10.0792 72.9815 10.0158C73.0726 9.95239 73.1427 9.86316 73.1826 9.75958C73.2339 9.62385 73.23 9.47345 73.1718 9.34053C73.1137 9.20761 73.0059 9.1027 72.8714 9.04821L70.6483 8.27014H70.2927L69.4479 8.02561L69.2478 7.93668ZM60.1556 6.18048C60.0194 6.1855 59.8899 6.24035 59.7915 6.33461C59.6931 6.42887 59.6328 6.55597 59.622 6.69178C59.6159 6.76189 59.6238 6.83251 59.6451 6.89958C59.6664 6.96665 59.7008 7.02884 59.7463 7.08256C59.7917 7.13629 59.8474 7.18048 59.91 7.21261C59.9726 7.24474 60.041 7.26417 60.1111 7.26977C61.2819 7.37351 62.4601 7.52913 63.6457 7.73661C63.7731 7.73839 63.8969 7.69454 63.9948 7.613C64.0926 7.53146 64.1581 7.4176 64.1793 7.292C64.1996 7.14835 64.1652 7.00231 64.0828 6.88288C64.0004 6.76345 63.8762 6.67937 63.7347 6.64732C62.5342 6.46947 61.3338 6.31386 60.1111 6.18048H60.1556ZM55.7095 10.6266C55.6071 10.6083 55.5019 10.6126 55.4014 10.6394C55.3008 10.6661 55.2074 10.7146 55.1276 10.7813C55.0478 10.8481 54.9837 10.9315 54.9397 11.0258C54.8956 11.12 54.8728 11.2228 54.8728 11.3268C54.8728 11.4309 54.8956 11.5336 54.9397 11.6279C54.9837 11.7221 55.0478 11.8056 55.1276 11.8723C55.2074 11.9391 55.3008 11.9876 55.4014 12.0143C55.5019 12.041 55.6071 12.0454 55.7095 12.0271C55.8119 12.0454 55.917 12.041 56.0176 12.0143C56.1181 11.9876 56.2115 11.9391 56.2913 11.8723C56.3711 11.8056 56.4352 11.7221 56.4793 11.6279C56.5233 11.5336 56.5461 11.4309 56.5461 11.3268C56.5461 11.2228 56.5233 11.12 56.4793 11.0258C56.4352 10.9315 56.3711 10.8481 56.2913 10.7813C56.2115 10.7146 56.1181 10.6661 56.0176 10.6394C55.917 10.6126 55.8119 10.6083 55.7095 10.6266ZM50.8188 10.8933C50.726 10.9015 50.6359 10.9284 50.5538 10.9724C50.4717 11.0164 50.3994 11.0766 50.3412 11.1493C50.283 11.222 50.2402 11.3058 50.2153 11.3955C50.1904 11.4853 50.1839 11.5791 50.1963 11.6714C50.2125 11.8445 50.2916 12.0057 50.4186 12.1245C50.5456 12.2432 50.7116 12.3114 50.8855 12.3161C51.0704 12.2938 51.2393 12.1997 51.3556 12.0542C51.472 11.9087 51.5267 11.7234 51.5079 11.538C51.4861 11.3652 51.4017 11.2063 51.2705 11.0916C51.1394 10.9768 50.9708 10.9142 50.7965 10.9156L50.8188 10.8933ZM45.9947 11.6936H45.8169C45.6377 11.741 45.4831 11.8544 45.3841 12.0111C45.2851 12.1679 45.2491 12.3562 45.2834 12.5384C45.323 12.6971 45.4146 12.838 45.5435 12.9386C45.6723 13.0393 45.8312 13.0941 45.9947 13.0942H46.1504C46.3325 13.0517 46.4905 12.9393 46.5904 12.7812C46.6902 12.6231 46.7238 12.4321 46.6839 12.2494C46.6526 12.0906 46.5664 11.9478 46.4404 11.8462C46.3143 11.7446 46.1566 11.6906 45.9947 11.6936ZM41.3041 13.0275C41.2239 13.0068 41.1398 13.0068 41.0596 13.0275C40.9709 13.055 40.8887 13.1002 40.818 13.1604C40.7472 13.2205 40.6893 13.2943 40.6478 13.3773C40.6063 13.4604 40.582 13.551 40.5763 13.6437C40.5707 13.7363 40.5838 13.8292 40.615 13.9167C40.6613 14.0575 40.7505 14.1804 40.8701 14.2681C40.9896 14.3558 41.1336 14.4039 41.2819 14.4058H41.5042C41.6589 14.3486 41.7889 14.2396 41.872 14.0972C41.9552 13.9548 41.9863 13.7879 41.96 13.6252C41.9338 13.4624 41.8518 13.3138 41.7281 13.2047C41.6044 13.0957 41.4467 13.0331 41.2819 13.0275H41.3041ZM36.858 14.8726C36.7628 14.8522 36.6643 14.8522 36.569 14.8726C36.4818 14.9104 36.403 14.9652 36.3374 15.0339C36.2717 15.1026 36.2205 15.1838 36.1867 15.2726C36.153 15.3615 36.1373 15.4562 36.1408 15.5512C36.1442 15.6461 36.1667 15.7395 36.2068 15.8256C36.2469 15.9118 36.3038 15.989 36.3743 16.0528C36.4448 16.1166 36.5273 16.1656 36.617 16.197C36.7067 16.2283 36.8018 16.2414 36.8967 16.2354C36.9915 16.2293 37.0842 16.2044 37.1693 16.162C37.2535 16.1238 37.3293 16.0691 37.392 16.001C37.4547 15.933 37.503 15.853 37.5341 15.7659C37.5652 15.6788 37.5785 15.5863 37.5731 15.4939C37.5677 15.4015 37.5438 15.3112 37.5027 15.2283C37.444 15.1075 37.3522 15.0059 37.2382 14.9351C37.1241 14.8643 36.9923 14.8272 36.858 14.8281V14.8726ZM32.5675 17.0956C32.4433 17.0663 32.3139 17.0663 32.1896 17.0956C32.0316 17.1965 31.9182 17.3541 31.8727 17.536C31.8272 17.718 31.8531 17.9104 31.9451 18.0738C32.0089 18.1755 32.0973 18.2594 32.2023 18.3177C32.3072 18.376 32.4252 18.4068 32.5453 18.4072C32.6677 18.4496 32.8008 18.4496 32.9232 18.4072C33.082 18.3066 33.1945 18.1473 33.2361 17.964C33.2778 17.7807 33.2452 17.5884 33.1455 17.4291C33.0834 17.3259 32.9952 17.2408 32.8899 17.1823C32.7846 17.1238 32.6658 17.0939 32.5453 17.0956H32.5675ZM28.2548 20.0078C28.0929 20.0059 27.9355 20.061 27.8102 20.1634C27.6836 20.2993 27.6133 20.478 27.6133 20.6636C27.6133 20.8493 27.6836 21.028 27.8102 21.1638C27.8769 21.2471 27.9615 21.3144 28.0577 21.3605C28.1539 21.4067 28.2593 21.4307 28.366 21.4306C28.5278 21.4325 28.6853 21.3775 28.8106 21.275C28.938 21.1784 29.0292 21.0418 29.0695 20.8871C29.1098 20.7324 29.0967 20.5686 29.0325 20.4222C28.9683 20.2758 28.8566 20.1553 28.7155 20.0801C28.5744 20.0049 28.4122 19.9795 28.2548 20.0078ZM24.5868 23.1868C24.4961 23.1863 24.4063 23.2038 24.3223 23.2381C24.2384 23.2724 24.1621 23.323 24.0977 23.3869C23.966 23.52 23.8922 23.6998 23.8922 23.8871C23.8922 24.0743 23.966 24.2541 24.0977 24.3872C24.2358 24.5176 24.4191 24.5893 24.609 24.5873C24.6997 24.5878 24.7896 24.5703 24.8735 24.536C24.9574 24.5017 25.0337 24.4511 25.0981 24.3872C25.2247 24.2514 25.295 24.0727 25.295 23.8871C25.295 23.7014 25.2247 23.5227 25.0981 23.3869C25.0349 23.3139 24.9562 23.2561 24.8677 23.2176C24.7792 23.1791 24.6832 23.161 24.5868 23.1646V23.1868ZM21.2967 26.7881C21.1902 26.7896 21.0854 26.8142 20.9894 26.8603C20.8934 26.9064 20.8086 26.9728 20.7409 27.0549C20.6582 27.1581 20.6059 27.2823 20.5899 27.4135C20.5738 27.5448 20.5947 27.6779 20.6501 27.7979C20.7055 27.918 20.7933 28.0202 20.9035 28.0932C21.0138 28.1661 21.1423 28.2069 21.2745 28.2109C21.3817 28.2144 21.4882 28.192 21.585 28.1456C21.6818 28.0991 21.7659 28.03 21.8302 27.9441C21.8886 27.8712 21.9321 27.7874 21.9581 27.6976C21.9842 27.6078 21.9923 27.5138 21.982 27.4209C21.9716 27.328 21.9431 27.238 21.898 27.1562C21.8529 27.0743 21.7921 27.0021 21.7191 26.9437C21.5892 26.8496 21.4347 26.7955 21.2745 26.7881H21.2967ZM18.4067 30.7452C18.3014 30.7657 18.2023 30.8106 18.1174 30.8762C18.0325 30.9418 17.9641 31.0264 17.9176 31.1231C17.8214 31.2813 17.7885 31.47 17.8256 31.6514C17.8627 31.8329 17.9671 31.9935 18.1177 32.1012C18.2408 32.1686 18.3777 32.2066 18.5179 32.2124C18.6325 32.2127 18.7454 32.1843 18.8463 32.13C18.9472 32.0757 19.033 31.997 19.0959 31.9011C19.1921 31.743 19.225 31.5542 19.1879 31.3728C19.1508 31.1914 19.0464 31.0307 18.8958 30.923C18.777 30.8457 18.6373 30.8069 18.4956 30.8118L18.4067 30.7452ZM15.9836 34.9912C15.8517 34.9882 15.7215 35.0219 15.6076 35.0887C15.4938 35.1554 15.4007 35.2525 15.3389 35.3691C15.2593 35.5381 15.2472 35.7311 15.305 35.9087C15.3629 36.0864 15.4863 36.2353 15.6501 36.325H15.9614C16.0956 36.326 16.2274 36.2889 16.3415 36.2181C16.4556 36.1473 16.5473 36.0456 16.6061 35.9249C16.6649 35.8185 16.6946 35.6985 16.6921 35.5769C16.6896 35.4554 16.655 35.3366 16.5918 35.2328C16.5286 35.129 16.439 35.0437 16.3322 34.9856C16.2254 34.9276 16.1051 34.8988 15.9836 34.9023V34.9912ZM14.0273 39.4373C13.8817 39.4375 13.7397 39.4824 13.6205 39.5659C13.5012 39.6493 13.4104 39.7674 13.3604 39.9041C13.3016 40.0813 13.3126 40.2741 13.3911 40.4435C13.4696 40.6128 13.6096 40.7459 13.7828 40.8156H14.0273C14.1729 40.8153 14.3149 40.7705 14.4341 40.687C14.5534 40.6035 14.6442 40.4854 14.6942 40.3487C14.7588 40.1718 14.7506 39.9766 14.6714 39.8057C14.5922 39.6348 14.4486 39.5024 14.2718 39.4373H14.0273ZM12.6046 44.1057C12.4438 44.1068 12.2881 44.1624 12.163 44.2633C12.0378 44.3642 11.9506 44.5046 11.9154 44.6614C11.8923 44.7505 11.8872 44.8433 11.9005 44.9344C11.9138 45.0255 11.9452 45.113 11.9928 45.1917C12.0405 45.2704 12.1034 45.3388 12.178 45.3928C12.2525 45.4469 12.3371 45.4854 12.4267 45.5062H12.6046C12.7595 45.5052 12.9096 45.452 13.0306 45.3552C13.1516 45.2584 13.2365 45.1236 13.2715 44.9727C13.312 44.7872 13.2791 44.5932 13.1796 44.4316C13.0801 44.2699 12.9218 44.1531 12.7379 44.1057H12.6046ZM11.6709 48.9075C11.5 48.9054 11.334 48.9649 11.2034 49.0751C11.0728 49.1853 10.9862 49.3389 10.9595 49.5077C10.9471 49.6012 10.9534 49.6963 10.978 49.7874C11.0027 49.8784 11.0452 49.9637 11.1031 50.0382C11.1611 50.1126 11.2332 50.1749 11.3154 50.2212C11.3976 50.2675 11.4882 50.297 11.582 50.308C11.7537 50.3088 11.9196 50.2454 12.0471 50.1303C12.1746 50.0151 12.2545 49.8565 12.2711 49.6855C12.2835 49.592 12.2772 49.4969 12.2526 49.4058C12.2279 49.3148 12.1854 49.2295 12.1275 49.155C12.0695 49.0806 11.9974 49.0183 11.9152 48.972C11.833 48.9257 11.7424 48.8962 11.6487 48.8852L11.6709 48.9075ZM11.2485 53.8204C11.0657 53.8204 10.8904 53.893 10.7612 54.0222C10.632 54.1515 10.5594 54.3268 10.5594 54.5095C10.5564 54.6019 10.572 54.6939 10.6053 54.7801C10.6386 54.8663 10.6889 54.9449 10.7532 55.0113C10.8175 55.0776 10.8944 55.1304 10.9795 55.1664C11.0646 55.2024 11.1561 55.221 11.2485 55.2209C11.3409 55.2239 11.4329 55.2083 11.5191 55.175C11.6052 55.1417 11.6839 55.0914 11.7502 55.0271C11.8166 54.9628 11.8694 54.8858 11.9054 54.8007C11.9414 54.7156 11.9599 54.6242 11.9599 54.5318C11.9629 54.4394 11.9472 54.3474 11.9139 54.2612C11.8807 54.175 11.8304 54.0964 11.7661 54.03C11.7018 53.9637 11.6248 53.9109 11.5397 53.8749C11.4546 53.8389 11.3631 53.8203 11.2707 53.8204H11.2485ZM11.4263 58.7111C11.3338 58.7166 11.2432 58.7408 11.1602 58.7822C11.0772 58.8235 11.0033 58.8812 10.9431 58.9518C10.8829 59.0224 10.8376 59.1044 10.8099 59.1929C10.7821 59.2814 10.7725 59.3746 10.7817 59.4669C10.7983 59.6438 10.8806 59.8081 11.0122 59.9274C11.1439 60.0467 11.3154 60.1124 11.493 60.1116C11.5837 60.1033 11.6718 60.077 11.7523 60.0345C11.8327 59.9919 11.904 59.9337 11.9618 59.8635C12.0197 59.7932 12.0631 59.7121 12.0895 59.625C12.1158 59.5379 12.1247 59.4464 12.1155 59.3558C12.1042 59.1808 12.0266 59.0168 11.8986 58.897C11.7705 58.7772 11.6017 58.7107 11.4263 58.7111ZM12.1155 63.5351H11.9821C11.8908 63.551 11.8037 63.5852 11.7259 63.6355C11.6481 63.6859 11.5812 63.7514 11.5294 63.8282C11.4775 63.905 11.4416 63.9915 11.4239 64.0824C11.4062 64.1734 11.407 64.267 11.4263 64.3576C11.4571 64.5186 11.5424 64.6641 11.668 64.7694C11.7936 64.8747 11.9516 64.9334 12.1155 64.9356H12.2489C12.3416 64.9228 12.4307 64.8906 12.5102 64.8411C12.5897 64.7916 12.6578 64.726 12.7103 64.6484C12.7627 64.5708 12.7982 64.483 12.8144 64.3908C12.8307 64.2986 12.8274 64.2039 12.8046 64.1131C12.7739 63.9521 12.6886 63.8067 12.563 63.7014C12.4374 63.5961 12.2794 63.5373 12.1155 63.5351ZM13.4715 68.2702H13.2715C13.0918 68.3265 12.9418 68.4517 12.8543 68.6184C12.7668 68.785 12.749 68.9796 12.8046 69.1594C12.8551 69.3021 12.9484 69.4256 13.0717 69.5132C13.1951 69.6007 13.3425 69.648 13.4938 69.6485H13.6939C13.8735 69.5922 14.0235 69.467 14.111 69.3003C14.1985 69.1337 14.2164 68.9391 14.1607 68.7593C14.1103 68.6166 14.017 68.4931 13.8936 68.4055C13.7702 68.318 13.6228 68.2707 13.4715 68.2702ZM15.2278 72.8497C15.1326 72.8286 15.0339 72.8286 14.9388 72.8497C14.7687 72.9273 14.636 73.0688 14.5694 73.2436C14.5029 73.4183 14.5078 73.6122 14.5831 73.7834C14.6408 73.9066 14.7316 74.0114 14.8455 74.086C14.9593 74.1606 15.0917 74.2021 15.2278 74.2057C15.3228 74.2284 15.4218 74.2284 15.5167 74.2057C15.6382 74.1063 15.722 73.9683 15.7543 73.8147C15.7867 73.661 15.7656 73.501 15.6946 73.361C15.6359 73.2402 15.5441 73.1386 15.4301 73.0678C15.316 72.997 15.1842 72.9599 15.0499 72.9608L15.2278 72.8497ZM17.4508 77.1846C17.3346 77.1513 17.2113 77.1513 17.0951 77.1846C17.0147 77.2327 16.9445 77.2961 16.8887 77.3713C16.8328 77.4465 16.7924 77.532 16.7696 77.6229C16.7469 77.7138 16.7424 77.8083 16.7563 77.9009C16.7701 77.9936 16.8022 78.0825 16.8506 78.1628C16.9144 78.2645 17.0028 78.3484 17.1078 78.4067C17.2127 78.465 17.3308 78.4958 17.4508 78.4962C17.5746 78.5292 17.7049 78.5292 17.8287 78.4962C17.9092 78.4482 17.9793 78.3848 18.0352 78.3096C18.091 78.2343 18.1315 78.1488 18.1542 78.058C18.1769 77.9671 18.1815 77.8726 18.1676 77.7799C18.1537 77.6873 18.1216 77.5983 18.0733 77.5181C18.0158 77.4092 17.9293 77.3183 17.8234 77.2555C17.7174 77.1927 17.5962 77.1605 17.473 77.1624L17.4508 77.1846ZM20.1407 81.2528C19.9895 81.2527 19.842 81.2993 19.7183 81.3862C19.6436 81.4429 19.5809 81.5139 19.5337 81.595C19.4866 81.676 19.4559 81.7656 19.4435 81.8586C19.4311 81.9516 19.4372 82.0461 19.4615 82.1367C19.4858 82.2273 19.5277 82.3122 19.5849 82.3866C19.6539 82.4729 19.7421 82.5419 19.8424 82.5882C19.9428 82.6345 20.0525 82.6568 20.1629 82.6533C20.3137 82.6507 20.4604 82.6044 20.5853 82.5199C20.7313 82.4019 20.8265 82.2324 20.8514 82.0463C20.8762 81.8602 20.8287 81.6717 20.7187 81.5196C20.6583 81.4281 20.5755 81.3536 20.4783 81.303C20.381 81.2525 20.2725 81.2275 20.1629 81.2306L20.1407 81.2528ZM23.2752 84.9875C23.0993 84.99 22.9315 85.0619 22.8083 85.1876C22.6767 85.3208 22.6028 85.5005 22.6028 85.6878C22.6028 85.8751 22.6767 86.0548 22.8083 86.188C22.9442 86.3245 23.1271 86.404 23.3197 86.4103C23.4103 86.4107 23.5002 86.3933 23.5841 86.359C23.668 86.3246 23.7444 86.2741 23.8087 86.2102C23.9404 86.077 24.0143 85.8973 24.0143 85.71C24.0143 85.5227 23.9404 85.343 23.8087 85.2098C23.6636 85.0736 23.4741 84.9946 23.2752 84.9875ZM26.8098 88.3666C26.6675 88.3716 26.53 88.4193 26.4151 88.5034C26.3002 88.5875 26.2132 88.7041 26.1653 88.8382C26.1174 88.9723 26.1109 89.1177 26.1465 89.2555C26.1822 89.3934 26.2584 89.5174 26.3652 89.6115C26.4983 89.7155 26.6632 89.7705 26.8321 89.7671C26.934 89.7715 27.0355 89.7516 27.1283 89.709C27.221 89.6665 27.3024 89.6026 27.3656 89.5225C27.4973 89.3894 27.5711 89.2096 27.5711 89.0224C27.5711 88.8351 27.4973 88.6553 27.3656 88.5222C27.2366 88.4084 27.0708 88.3452 26.8988 88.3443L26.8098 88.3666ZM30.7002 91.3454C30.5855 91.3452 30.4727 91.3735 30.3717 91.4278C30.2708 91.4822 30.185 91.5608 30.1222 91.6567C30.0182 91.8106 29.9786 91.9992 30.0119 92.182C30.0451 92.3648 30.1485 92.5273 30.3 92.6348C30.4169 92.7187 30.5564 92.7652 30.7002 92.7682C30.8148 92.7685 30.9277 92.7402 31.0286 92.6858C31.1295 92.6315 31.2153 92.5528 31.2782 92.457C31.3821 92.303 31.4217 92.1145 31.3885 91.9317C31.3552 91.7489 31.2518 91.5864 31.1003 91.4788C30.969 91.4459 30.8315 91.4459 30.7002 91.4788V91.3454ZM34.9017 93.8575C34.7698 93.8545 34.6396 93.8882 34.5258 93.955C34.4119 94.0217 34.3189 94.1188 34.257 94.2354C34.1717 94.4035 34.1565 94.5985 34.2149 94.7777C34.2733 94.957 34.4003 95.1057 34.5683 95.1913C34.6784 95.2123 34.7916 95.2123 34.9017 95.1913C35.0309 95.1954 35.1586 95.1619 35.2691 95.0948C35.3796 95.0277 35.4682 94.9299 35.5242 94.8134C35.5703 94.7322 35.5995 94.6425 35.6099 94.5496C35.6203 94.4568 35.6117 94.3629 35.5847 94.2735C35.5577 94.1841 35.5127 94.1011 35.4527 94.0296C35.3926 93.9581 35.3186 93.8995 35.2352 93.8575C35.134 93.8252 35.0252 93.8252 34.924 93.8575H34.9017ZM39.3478 95.9027C39.2087 95.9056 39.0734 95.9493 38.9588 96.0283C38.8442 96.1073 38.7553 96.2182 38.7031 96.3473C38.6672 96.4348 38.649 96.5286 38.6497 96.6231C38.6504 96.7177 38.6699 96.8112 38.7072 96.8982C38.7444 96.9851 38.7987 97.0637 38.8667 97.1295C38.9347 97.1952 39.0151 97.2467 39.1033 97.281H39.3701C39.5124 97.2795 39.6512 97.2368 39.7696 97.1578C39.888 97.0789 39.9809 96.9672 40.037 96.8364C40.1027 96.6623 40.0977 96.4694 40.0229 96.299C39.9481 96.1286 39.8095 95.9943 39.6368 95.9249H39.3701L39.3478 95.9027ZM43.994 97.4366C43.8206 97.4363 43.6531 97.4993 43.5229 97.6137C43.3927 97.7282 43.3087 97.8863 43.2869 98.0584C43.265 98.2304 43.3068 98.4044 43.4042 98.5478C43.5017 98.6912 43.6482 98.7941 43.8162 98.8371H44.0162C44.199 98.8607 44.3837 98.8107 44.5296 98.6981C44.6755 98.5856 44.7707 98.4197 44.7943 98.2369C44.8179 98.0541 44.7679 97.8695 44.6553 97.7235C44.5428 97.5776 44.3768 97.4824 44.1941 97.4588H43.994V97.4366ZM48.7735 98.4592C48.6092 98.4886 48.4604 98.5749 48.3533 98.7029C48.2461 98.8309 48.1874 98.9925 48.1874 99.1595C48.1874 99.3264 48.2461 99.488 48.3533 99.616C48.4604 99.7441 48.6092 99.8303 48.7735 99.8597H48.9069C49.0713 99.8303 49.22 99.7441 49.3272 99.616C49.4343 99.488 49.493 99.3264 49.493 99.1595C49.493 98.9925 49.4343 98.8309 49.3272 98.7029C49.22 98.5749 49.0713 98.4886 48.9069 98.4592H48.7735ZM53.642 98.926C53.4534 98.926 53.2724 99.001 53.139 99.1344C53.0056 99.2678 52.9307 99.4487 52.9307 99.6374C52.9307 99.8261 53.0056 100.007 53.139 100.14C53.2724 100.274 53.4534 100.349 53.642 100.349C53.8307 100.349 54.0116 100.274 54.145 100.14C54.2785 100.007 54.3534 99.8261 54.3534 99.6374C54.3534 99.4487 54.2785 99.2678 54.145 99.1344C54.0116 99.001 53.8307 98.926 53.642 98.926ZM58.555 98.926C58.4625 98.9288 58.3715 98.9502 58.2875 98.9889C58.2034 99.0276 58.1281 99.0828 58.0658 99.1513C58.0036 99.2198 57.9558 99.3001 57.9252 99.3874C57.8947 99.4747 57.882 99.5673 57.8881 99.6597C57.8994 99.8405 57.9793 100.01 58.1115 100.134C58.2437 100.258 58.4182 100.327 58.5994 100.327C58.6929 100.321 58.7844 100.297 58.8685 100.256C58.9527 100.215 59.0279 100.157 59.0899 100.087C59.1518 100.017 59.1993 99.9351 59.2296 99.8465C59.2599 99.7579 59.2724 99.6642 59.2663 99.5707C59.2501 99.3917 59.1686 99.2249 59.0375 99.102C58.9064 98.979 58.7346 98.9085 58.555 98.9038V98.926ZM63.4012 98.348H63.2678C63.0822 98.3806 62.917 98.4855 62.8087 98.6397C62.7003 98.7939 62.6575 98.9849 62.6898 99.1706C62.7164 99.3335 62.8006 99.4814 62.9271 99.5875C63.0536 99.6936 63.2139 99.7507 63.379 99.7486H63.5346C63.6259 99.7327 63.713 99.6985 63.7908 99.6482C63.8686 99.5978 63.9355 99.5323 63.9874 99.4555C64.0392 99.3787 64.0751 99.2922 64.0928 99.2012C64.1105 99.1103 64.1097 99.0167 64.0903 98.926C64.0683 98.7611 63.9854 98.6103 63.8579 98.5034C63.7304 98.3964 63.5675 98.341 63.4012 98.348ZM68.1585 97.2143H67.9362C67.766 97.2574 67.6177 97.362 67.52 97.5079C67.4222 97.6537 67.3818 97.8306 67.4067 98.0045C67.4315 98.1783 67.5198 98.3369 67.6545 98.4495C67.7892 98.5622 67.9608 98.6211 68.1363 98.6148H68.3364C68.5151 98.563 68.6664 98.4432 68.7578 98.2811C68.8492 98.119 68.8735 97.9276 68.8255 97.7478C68.7788 97.601 68.6871 97.4727 68.5634 97.3809C68.4397 97.2891 68.2903 97.2386 68.1363 97.2365L68.1585 97.2143ZM72.7602 95.5692C72.6726 95.5476 72.5811 95.5476 72.4935 95.5692C72.3353 95.6277 72.2031 95.7405 72.1204 95.8875C72.0376 96.0345 72.0098 96.206 72.0419 96.3716C72.0739 96.5372 72.1637 96.686 72.2953 96.7915C72.4269 96.8969 72.5917 96.9523 72.7602 96.9475C72.8555 96.968 72.954 96.968 73.0492 96.9475C73.2193 96.8699 73.352 96.7284 73.4186 96.5536C73.4852 96.3789 73.4802 96.185 73.4049 96.0138C73.3518 95.8872 73.262 95.7794 73.1472 95.7041C73.0323 95.6289 72.8976 95.5896 72.7602 95.5915V95.5692ZM77.2063 93.3462C77.0973 93.3159 76.982 93.3159 76.8729 93.3462C76.7906 93.3924 76.7183 93.4544 76.6603 93.5288C76.6022 93.6032 76.5595 93.6884 76.5347 93.7794C76.5099 93.8704 76.5034 93.9655 76.5157 94.059C76.5279 94.1526 76.5587 94.2428 76.6061 94.3243C76.6708 94.4319 76.762 94.5211 76.8709 94.5834C76.9799 94.6457 77.1031 94.6789 77.2286 94.68C77.3388 94.7 77.4518 94.7 77.562 94.68C77.6436 94.636 77.7154 94.5761 77.7732 94.5037C77.831 94.4313 77.8737 94.348 77.8986 94.2588C77.9235 94.1695 77.9301 94.0762 77.9182 93.9843C77.9062 93.8925 77.8758 93.804 77.8288 93.7241C77.7658 93.615 77.675 93.5246 77.5656 93.4621C77.4563 93.3996 77.3323 93.3673 77.2063 93.3684V93.3462ZM81.3412 90.723C81.1905 90.7256 81.0437 90.7719 80.9188 90.8564C80.8414 90.9077 80.7752 90.9741 80.7241 91.0516C80.673 91.1291 80.6381 91.2162 80.6215 91.3075C80.6049 91.3989 80.6069 91.4927 80.6274 91.5832C80.648 91.6738 80.6866 91.7593 80.741 91.8345C80.7944 91.9126 80.8628 91.9793 80.9423 92.0307C81.0218 92.082 81.1107 92.117 81.2038 92.1336C81.297 92.1501 81.3925 92.1479 81.4848 92.1271C81.5771 92.1063 81.6643 92.0673 81.7414 92.0124C81.8893 91.9015 81.9883 91.7374 82.0174 91.5548C82.0464 91.3722 82.0032 91.1855 81.897 91.0342C81.833 90.941 81.7464 90.8656 81.6453 90.815C81.5442 90.7645 81.4319 90.7405 81.319 90.7452L81.3412 90.723ZM85.1426 87.6552C84.9713 87.6598 84.8067 87.7225 84.6758 87.833C84.6078 87.8974 84.5537 87.975 84.5168 88.061C84.4798 88.147 84.4607 88.2396 84.4607 88.3332C84.4607 88.4268 84.4798 88.5195 84.5168 88.6054C84.5537 88.6914 84.6078 88.769 84.6758 88.8334C84.8185 88.9733 85.0095 89.0529 85.2093 89.0557C85.3806 89.0511 85.5452 88.9883 85.6762 88.8779C85.8079 88.7447 85.8817 88.565 85.8817 88.3777C85.8817 88.1904 85.8079 88.0107 85.6762 87.8775C85.6086 87.804 85.5259 87.7461 85.4338 87.7077C85.3417 87.6693 85.2423 87.6514 85.1426 87.6552ZM88.6106 84.1872C88.5094 84.1877 88.4094 84.2097 88.3174 84.2519C88.2254 84.2941 88.1435 84.3554 88.077 84.4318C87.9505 84.5676 87.8801 84.7463 87.8801 84.932C87.8801 85.1176 87.9505 85.2963 88.077 85.4321C88.1391 85.4914 88.2124 85.5376 88.2925 85.5681C88.3727 85.5987 88.4581 85.6129 88.5439 85.61C88.6436 85.6138 88.743 85.5958 88.8351 85.5575C88.9272 85.5191 89.0099 85.4611 89.0774 85.3877C89.2091 85.2545 89.2829 85.0748 89.2829 84.8875C89.2829 84.7002 89.2091 84.5205 89.0774 84.3873C88.9465 84.2768 88.7819 84.2141 88.6106 84.2095V84.1872ZM91.6562 80.3636C91.5415 80.3633 91.4287 80.3916 91.3277 80.446C91.2268 80.5003 91.141 80.579 91.0782 80.6748C90.973 80.8323 90.9327 81.0243 90.9659 81.2108C90.999 81.3972 91.103 81.5636 91.256 81.6752C91.3714 81.7618 91.5119 81.8086 91.6562 81.8086C91.7708 81.8088 91.8837 81.7805 91.9846 81.7262C92.0855 81.6719 92.1713 81.5932 92.2342 81.4973C92.2885 81.4221 92.3272 81.3366 92.3477 81.2461C92.3682 81.1555 92.3703 81.0617 92.3536 80.9704C92.337 80.879 92.3021 80.792 92.251 80.7144C92.1999 80.6369 92.1337 80.5705 92.0563 80.5192C91.9409 80.4326 91.8005 80.3858 91.6562 80.3858V80.3636ZM94.2571 76.2287C94.1289 76.2298 94.0034 76.2655 93.8939 76.332C93.7843 76.3985 93.6947 76.4934 93.6347 76.6066C93.5872 76.6882 93.5565 76.7784 93.5442 76.8719C93.5319 76.9655 93.5384 77.0605 93.5632 77.1516C93.5881 77.2426 93.6307 77.3278 93.6888 77.4021C93.7469 77.4765 93.8192 77.5386 93.9014 77.5848C94.0191 77.6051 94.1394 77.6051 94.2571 77.5848C94.3853 77.5837 94.5108 77.548 94.6204 77.4815C94.7299 77.415 94.8195 77.3201 94.8796 77.2069C94.927 77.1253 94.9578 77.0351 94.97 76.9416C94.9823 76.848 94.9758 76.753 94.951 76.6619C94.9262 76.5709 94.8835 76.4857 94.8254 76.4113C94.7674 76.337 94.6951 76.2749 94.6128 76.2287C94.4953 76.2059 94.3746 76.2059 94.2571 76.2287ZM96.4802 71.7826C96.341 71.7855 96.2057 71.8292 96.0911 71.9082C95.9765 71.9873 95.8877 72.0982 95.8355 72.2272C95.7993 72.3118 95.7803 72.4027 95.7798 72.4946C95.7793 72.5865 95.7971 72.6777 95.8323 72.7626C95.8676 72.8475 95.9194 72.9246 95.9849 72.9892C96.0503 73.0537 96.128 73.1046 96.2134 73.1387C96.3012 73.1587 96.3924 73.1587 96.4802 73.1387C96.62 73.1388 96.7566 73.0963 96.8718 73.0168C96.987 72.9374 97.0752 72.8249 97.1248 72.6941C97.1919 72.5228 97.1901 72.3321 97.1196 72.1622C97.0491 71.9922 96.9156 71.8562 96.7469 71.7826C96.6517 71.7622 96.5532 71.7622 96.4579 71.7826H96.4802ZM98.1252 67.1809C97.9704 67.1795 97.8193 67.2287 97.6949 67.321C97.5705 67.4132 97.4796 67.5436 97.4361 67.6922C97.4092 67.7812 97.4006 67.8748 97.4108 67.9672C97.421 68.0597 97.4499 68.1491 97.4956 68.2301C97.5412 68.3111 97.6029 68.382 97.6767 68.4386C97.7505 68.4951 97.835 68.5362 97.9251 68.5592H98.1252C98.2763 68.5558 98.4223 68.5045 98.5423 68.4126C98.6622 68.3206 98.7497 68.1929 98.7921 68.0479C98.8227 67.9605 98.8348 67.8676 98.8275 67.7752C98.8202 67.6829 98.7938 67.5931 98.7498 67.5115C98.7059 67.4299 98.6455 67.3584 98.5724 67.3015C98.4993 67.2446 98.4151 67.2035 98.3253 67.1809H98.1252ZM99.2368 62.4236C99.0717 62.4214 98.9114 62.4786 98.7849 62.5847C98.6584 62.6907 98.5742 62.8387 98.5476 63.0016C98.5153 63.1873 98.558 63.3782 98.6664 63.5324C98.7748 63.6866 98.9399 63.7915 99.1256 63.8241H99.259C99.426 63.8209 99.5867 63.759 99.7127 63.6493C99.8387 63.5395 99.922 63.3889 99.9481 63.2239C99.964 63.1333 99.9615 63.0404 99.9408 62.9507C99.9202 62.861 99.8818 62.7764 99.8279 62.7018C99.7741 62.6272 99.7058 62.5642 99.6272 62.5164C99.5485 62.4686 99.4612 62.4371 99.3701 62.4236H99.2368ZM99.8147 57.5773C99.6335 57.577 99.459 57.6458 99.3268 57.7697C99.1946 57.8937 99.1147 58.0634 99.1034 58.2443C99.0973 58.3377 99.1098 58.4314 99.1401 58.5201C99.1704 58.6087 99.2179 58.6905 99.2798 58.7607C99.3418 58.8309 99.417 58.8882 99.5012 58.9293C99.5854 58.9704 99.6768 58.9944 99.7703 59.0001C99.9515 59.0005 100.126 58.9316 100.258 58.8077C100.39 58.6838 100.47 58.514 100.482 58.3332C100.488 58.2397 100.475 58.146 100.445 58.0574C100.415 57.9688 100.367 57.887 100.305 57.8168C100.243 57.7465 100.168 57.6892 100.084 57.6481C99.9997 57.6071 99.9082 57.583 99.8147 57.5773ZM99.8147 52.6866C99.7223 52.6894 99.6313 52.7108 99.5473 52.7495C99.4632 52.7882 99.3878 52.8434 99.3256 52.9119C99.2634 52.9804 99.2155 53.0607 99.185 53.148C99.1545 53.2353 99.1418 53.3279 99.1478 53.4202C99.1592 53.6011 99.2391 53.7708 99.3713 53.8948C99.5035 54.0187 99.678 54.0875 99.8592 54.0872C99.9526 54.0843 100.045 54.063 100.13 54.0246C100.215 53.9862 100.292 53.9313 100.356 53.8632C100.42 53.7951 100.47 53.715 100.503 53.6275C100.536 53.5401 100.551 53.447 100.548 53.3536C100.537 53.1727 100.457 53.003 100.325 52.879C100.193 52.7551 100.018 52.6863 99.837 52.6866H99.8147ZM99.3257 47.8182H99.2145C99.0275 47.8509 98.8604 47.9549 98.7485 48.1083C98.6365 48.2617 98.5884 48.4526 98.6143 48.6407C98.6363 48.8056 98.7193 48.9564 98.8468 49.0633C98.9743 49.1703 99.1372 49.2257 99.3034 49.2187C99.4846 49.186 99.6461 49.0844 99.7538 48.9351C99.8616 48.7859 99.9074 48.6006 99.8814 48.4184C99.8597 48.2514 99.7776 48.0982 99.6507 47.9876C99.5237 47.877 99.3606 47.8168 99.1923 47.8182H99.3257ZM98.3031 43.0386H97.9474C97.8573 43.0616 97.7728 43.1027 97.6989 43.1592C97.6251 43.2158 97.5635 43.2867 97.5178 43.3677C97.4721 43.4487 97.4433 43.5381 97.433 43.6306C97.4228 43.723 97.4314 43.8166 97.4583 43.9056C97.5019 44.0542 97.5927 44.1846 97.7171 44.2769C97.8415 44.3691 97.9926 44.4183 98.1474 44.4169H98.3253C98.4158 44.3936 98.5009 44.3527 98.5756 44.2965C98.6503 44.2403 98.7132 44.1699 98.7606 44.0894C98.8081 44.0089 98.8393 43.9198 98.8523 43.8272C98.8653 43.7346 98.86 43.6404 98.8366 43.5499C98.7974 43.4031 98.7107 43.2733 98.5901 43.1808C98.4695 43.0884 98.3217 43.0384 98.1697 43.0386H98.3031ZM96.7469 38.3924C96.6591 38.3724 96.568 38.3724 96.4802 38.3924C96.3075 38.4618 96.1689 38.5961 96.0941 38.7665C96.0193 38.9369 96.0143 39.1298 96.08 39.3039C96.1322 39.4329 96.2211 39.5439 96.3357 39.6229C96.4503 39.7019 96.5855 39.7456 96.7247 39.7485H96.9915C97.1658 39.6746 97.3047 39.5361 97.3793 39.3621C97.4539 39.1881 97.4583 38.992 97.3916 38.8148C97.342 38.684 97.2537 38.5715 97.1386 38.492C97.0234 38.4126 96.8868 38.3701 96.7469 38.3702V38.3924ZM94.6795 33.9463C94.5704 33.916 94.4551 33.916 94.346 33.9463C94.182 34.0358 94.0597 34.1862 94.0056 34.3651C93.9516 34.5439 93.97 34.7369 94.057 34.9023C94.113 35.0188 94.2016 35.1166 94.3121 35.1837C94.4226 35.2508 94.5503 35.2843 94.6795 35.2802C94.7897 35.3012 94.9028 35.3012 95.013 35.2802C95.1729 35.1868 95.2916 35.0363 95.3452 34.859C95.3988 34.6817 95.3834 34.4907 95.302 34.3243C95.246 34.2077 95.1574 34.1099 95.0469 34.0429C94.9364 33.9758 94.8087 33.9422 94.6795 33.9463ZM92.1452 29.767C92.0051 29.7728 91.8681 29.8108 91.7451 29.8782C91.592 29.9897 91.4881 30.1561 91.4549 30.3426C91.4218 30.529 91.462 30.7211 91.5672 30.8785C91.6301 30.9744 91.7159 31.0531 91.8168 31.1074C91.9177 31.1617 92.0306 31.19 92.1452 31.1898C92.2854 31.184 92.4223 31.146 92.5454 31.0786C92.6969 30.9711 92.8003 30.8086 92.8335 30.6258C92.8668 30.443 92.8272 30.2544 92.7232 30.1005C92.653 30.0068 92.5626 29.9301 92.4587 29.8763C92.3547 29.8224 92.24 29.7926 92.123 29.7892L92.1452 29.767ZM89.0552 25.9656C88.8933 25.9636 88.7359 26.0187 88.6106 26.1212C88.4789 26.2544 88.405 26.4341 88.405 26.6214C88.405 26.8087 88.4789 26.9884 88.6106 27.1216C88.677 27.198 88.7589 27.2593 88.851 27.3014C88.943 27.3436 89.0429 27.3657 89.1441 27.3661C89.3154 27.3615 89.48 27.2988 89.6109 27.1883C89.7375 27.0525 89.8079 26.8737 89.8079 26.6881C89.8079 26.5025 89.7375 26.3237 89.6109 26.1879C89.5477 26.1078 89.4664 26.0439 89.3736 26.0014C89.2809 25.9589 89.1794 25.939 89.0774 25.9434L89.0552 25.9656ZM85.6762 22.431C85.5797 22.4274 85.4837 22.4455 85.3952 22.484C85.3067 22.5225 85.228 22.5803 85.1649 22.6533C85.0332 22.7864 84.9593 22.9662 84.9593 23.1534C84.9593 23.3407 85.0332 23.5205 85.1649 23.6536C85.3026 23.7673 85.4753 23.8301 85.6539 23.8315C85.7501 23.8335 85.8457 23.8147 85.9339 23.7763C86.0222 23.7379 86.1011 23.6809 86.1652 23.6092C86.2969 23.476 86.3708 23.2963 86.3708 23.109C86.3708 22.9217 86.2969 22.742 86.1652 22.6088C86.0362 22.495 85.8704 22.4319 85.6984 22.431H85.6762ZM81.9192 19.2965C81.8078 19.3004 81.6985 19.3283 81.5988 19.3781C81.4991 19.428 81.4112 19.4987 81.3412 19.5855C81.2337 19.7403 81.1898 19.9305 81.2188 20.1168C81.2478 20.303 81.3473 20.471 81.4968 20.5858C81.6191 20.6756 81.7676 20.7224 81.9192 20.7192C82.0648 20.7149 82.2056 20.6659 82.3225 20.579C82.4394 20.492 82.5267 20.3713 82.5728 20.2331C82.6189 20.0949 82.6214 19.9459 82.58 19.8062C82.5387 19.6665 82.4555 19.5429 82.3416 19.4521C82.2179 19.3652 82.0704 19.3186 81.9192 19.3187V19.2965ZM77.851 16.6066C77.7246 16.603 77.5997 16.6344 77.4899 16.6971C77.3801 16.7598 77.2897 16.8516 77.2286 16.9623C77.1816 17.0421 77.1512 17.1306 77.1392 17.2225C77.1272 17.3143 77.1339 17.4077 77.1588 17.4969C77.1837 17.5861 77.2263 17.6694 77.2842 17.7418C77.342 17.8142 77.4138 17.8742 77.4953 17.9182C77.5747 17.9696 77.6638 18.0042 77.757 18.0198C77.8503 18.0354 77.9458 18.0316 78.0376 18.0086C78.1293 17.9857 78.2154 17.9441 78.2904 17.8865C78.3654 17.8288 78.4277 17.7564 78.4735 17.6736C78.5238 17.5947 78.5568 17.506 78.5706 17.4134C78.5843 17.3208 78.5785 17.2264 78.5533 17.1362C78.5281 17.046 78.4843 16.9622 78.4245 16.8901C78.3648 16.818 78.2906 16.7592 78.2067 16.7177C78.0901 16.6876 77.9677 16.6876 77.851 16.7177V16.6066ZM73.4049 14.3835C73.2676 14.3817 73.1329 14.4209 73.018 14.4962C72.9032 14.5714 72.8134 14.6793 72.7602 14.8059C72.6849 14.977 72.68 15.171 72.7466 15.3457C72.8132 15.5204 72.9458 15.6619 73.1159 15.7396C73.2108 15.7631 73.31 15.7631 73.4049 15.7396C73.5392 15.7405 73.671 15.7034 73.7851 15.6326C73.8992 15.5618 73.9909 15.4602 74.0496 15.3394C74.1249 15.1683 74.1298 14.9744 74.0633 14.7996C73.9967 14.6249 73.864 14.4834 73.6939 14.4058C73.5987 14.3853 73.5002 14.3853 73.4049 14.4058V14.3835ZM68.8255 12.6495C68.6744 12.6529 68.5283 12.7043 68.4084 12.7962C68.2885 12.8881 68.201 13.0158 68.1585 13.1608C68.1087 13.3406 68.1292 13.5327 68.2159 13.6979C68.3027 13.8631 68.4491 13.989 68.6254 14.0501H68.8477C69.0125 14.0445 69.1702 13.9818 69.2939 13.8728C69.4176 13.7638 69.4996 13.6152 69.5258 13.4524C69.5521 13.2896 69.521 13.1227 69.4378 12.9804C69.3547 12.838 69.2247 12.7289 69.07 12.6718H68.8477L68.8255 12.6495ZM64.0903 11.4491C63.9285 11.446 63.7708 11.5001 63.6447 11.6017C63.5187 11.7033 63.4325 11.846 63.4012 12.0049C63.3678 12.1901 63.4069 12.3811 63.5103 12.5383C63.6137 12.6955 63.7737 12.807 63.957 12.8496H64.1126C64.2764 12.8474 64.4345 12.7887 64.5601 12.6834C64.6857 12.578 64.771 12.4326 64.8017 12.2716C64.8245 12.1808 64.8278 12.0862 64.8115 11.9939C64.7953 11.9017 64.7598 11.814 64.7074 11.7364C64.6549 11.6588 64.5867 11.5931 64.5073 11.5436C64.4278 11.4941 64.3387 11.4619 64.246 11.4491H64.0903ZM59.2663 10.76C59.0777 10.76 58.8967 10.8349 58.7633 10.9683C58.6299 11.1017 58.555 11.2827 58.555 11.4713C58.555 11.66 58.6299 11.8409 58.7633 11.9743C58.8967 12.1078 59.0777 12.1827 59.2663 12.1827C59.455 12.1827 59.6359 12.1078 59.7694 11.9743C59.9028 11.8409 59.9777 11.66 59.9777 11.4713C59.9777 11.2827 59.9028 11.1017 59.7694 10.9683C59.6359 10.8349 59.455 10.76 59.2663 10.76Z" fill="white"/>
</g>
</g>
<defs>
<linearGradient id="paint0_linear_1154_7090" x1="55.1094" y1="1.22268" x2="55.8652" y2="111.53" gradientUnits="userSpaceOnUse">
<stop stop-color="#1F467D"/>
<stop offset="0.31" stop-color="#193262"/>
<stop offset="0.76" stop-color="#111A42"/>
<stop offset="1" stop-color="#0E1136"/>
</linearGradient>
<linearGradient id="paint1_linear_1154_7090" x1="-28.4102" y1="113.487" x2="100.727" y2="24.2098" gradientUnits="userSpaceOnUse">
<stop offset="0.02" stop-color="white"/>
<stop offset="0.11" stop-color="#F7F8F9"/>
<stop offset="0.25" stop-color="#E1E3E8"/>
<stop offset="0.41" stop-color="#BCC2CC"/>
<stop offset="0.6" stop-color="#8A95A5"/>
<stop offset="0.81" stop-color="#4A5B75"/>
<stop offset="1" stop-color="#0B2144"/>
</linearGradient>
</defs>
</svg>
