<svg width="177" height="177" viewBox="0 0 177 177" fill="none" xmlns="http://www.w3.org/2000/svg">
<g opacity="0.7">
<path d="M88.4873 176.975C137.357 176.975 176.975 137.357 176.975 88.4873C176.975 39.6171 137.357 0 88.4873 0C39.6171 0 0 39.6171 0 88.4873C0 137.357 39.6171 176.975 88.4873 176.975Z" fill="url(#paint0_linear_1154_7081)"/>
<g style="mix-blend-mode:overlay">
<path d="M90.0183 102.22C92.4807 97.393 95.4435 92.827 98.2355 88.1531C100.14 84.954 102.161 81.8307 104.025 78.6096C106.44 74.4159 108.852 70.2237 111.084 65.9432C112.826 62.5896 115.385 59.6879 115.908 55.6485C116.468 51.3705 113.507 47.0474 109.134 46.8917C104.321 46.7203 99.4969 46.7587 94.6661 46.7377C94.2899 46.7345 93.914 46.92 93.1826 47.1078C93.9263 49.002 94.6242 50.5623 95.1407 52.1782C96.1238 55.2569 96.1447 58.1599 94.3442 61.145C89.5309 69.173 84.9051 77.3378 80.229 85.458C75.8502 93.0567 71.4529 100.642 67.1637 108.286C65.2447 111.596 63.5082 115.009 61.9621 118.509C59.7654 123.668 63.9128 129.767 69.5238 129.939C70.1215 129.944 70.7425 129.862 71.3431 129.939C73.4556 130.185 74.7641 129.16 75.6846 127.373C80.1056 118.78 85.6169 110.822 90.0183 102.22Z" fill="white"/>
<path d="M113.772 127.622C114.638 126.152 115.42 124.634 116.254 123.144C119.645 117.089 123.011 111.016 126.439 104.982C129.356 99.8399 132.966 95.1033 134.694 89.297C135.992 84.9192 132.968 79.8761 128.391 79.6946C124.164 79.5315 119.926 79.6515 115.695 79.676C114.719 79.6829 113.745 79.8012 112.287 79.8941C112.736 81.157 112.932 81.9328 113.27 82.6402C115.479 87.2298 114.954 91.4662 112.33 95.8436C106.367 105.795 100.663 115.905 94.8831 125.968C94.3198 126.944 93.9465 128.031 93.4798 129.077C94.1345 129.399 94.4017 129.644 94.6709 129.649C99.9095 129.746 105.15 129.846 110.39 129.861C111.926 129.874 113.017 128.901 113.772 127.622Z" fill="white"/>
<path d="M69.677 72.1997C71.6819 68.7081 73.9577 65.3645 75.8296 61.8062C78.0844 57.523 79.7612 53.1115 76.0971 48.5956C75.2762 47.5859 74.4894 46.8293 73.1474 46.8202C71.2363 46.8073 69.3896 47.1787 67.5002 46.9608C65.682 47.2483 64.4696 47.2637 63.5591 48.8567C57.159 60.0579 50.6379 71.1891 44.2954 82.4235C43.2877 84.2056 42.7925 86.3602 42.4404 88.4112C42.2591 89.4852 42.6756 90.8369 43.2412 91.8226C44.8373 94.6174 46.6444 97.2869 48.3823 99.9999C49.1329 101.173 49.7784 102.473 51.6694 102.942C53.9012 99.3401 56.1533 95.8947 58.2154 92.3386C62.0939 85.6552 65.8276 78.8908 69.677 72.1997Z" fill="white"/>
</g>
<path style="mix-blend-mode:multiply" opacity="0.5" d="M88.4877 158.822C127.333 158.822 158.824 127.332 158.824 88.4864C158.824 49.6409 127.333 18.1504 88.4877 18.1504C49.6422 18.1504 18.1517 49.6409 18.1517 88.4864C18.1517 127.332 49.6422 158.822 88.4877 158.822Z" fill="url(#paint1_linear_1154_7081)"/>
<g style="mix-blend-mode:overlay">
<path d="M88.4871 5.03454C104.995 5.02502 121.134 9.91349 134.862 19.0811C148.59 28.2487 159.289 41.2833 165.605 56.5347C171.921 71.7862 173.57 88.5687 170.344 104.758C167.117 120.947 159.159 135.815 147.479 147.479C135.816 159.134 120.963 167.074 104.792 170.295C88.6222 173.517 71.86 171.876 56.6213 165.58C41.3827 159.285 28.3504 148.616 19.1692 134.921C9.98796 121.225 5.0693 105.117 5.0339 88.6295C5.0059 77.6557 7.14432 66.7844 11.3266 56.6388C15.5088 46.4932 21.6526 37.2729 29.4057 29.5067C37.1587 21.7404 46.3686 15.581 56.507 11.3815C66.6455 7.18206 77.5133 5.02517 88.4871 5.03454ZM88.4871 2.76563C71.5374 2.75865 54.966 7.77664 40.8676 17.1854C26.7691 26.5941 15.7763 39.9713 9.27859 55.626C2.78091 71.2808 1.07 88.5105 4.36212 105.137C7.65425 121.764 15.8016 137.042 27.7745 149.04C39.7473 161.037 55.0082 169.216 71.6283 172.543C88.2483 175.869 105.481 174.194 121.15 167.729C136.818 161.263 150.218 150.298 159.656 136.219C169.093 122.14 174.146 105.579 174.174 88.6295C174.188 77.3647 171.982 66.2075 167.683 55.7952C163.384 45.383 157.076 35.9197 149.119 27.9461C141.161 19.9724 131.711 13.6446 121.308 9.32405C110.905 5.00351 99.7519 2.77494 88.4871 2.76563ZM88.4871 9.53689H87.1044C85.6155 9.53689 84.1619 9.53689 82.7084 9.7496C82.4796 9.76775 82.2668 9.87397 82.1147 10.0459C81.9626 10.2178 81.8831 10.442 81.893 10.6713C81.9103 10.8879 82.0064 11.0906 82.1633 11.2409C82.3202 11.3913 82.5268 11.4787 82.7439 11.4867C84.6228 11.4867 86.5372 11.274 88.4161 11.274C88.5449 11.3002 88.6778 11.2974 88.8053 11.2658C88.9328 11.2343 89.0517 11.1748 89.1534 11.0917C89.2551 11.0086 89.3371 10.9039 89.3933 10.7852C89.4496 10.6665 89.4788 10.5368 89.4788 10.4055C89.4788 10.2741 89.4496 10.1444 89.3933 10.0257C89.3371 9.90704 89.2551 9.80235 89.1534 9.71923C89.0517 9.6361 88.9328 9.57662 88.8053 9.54509C88.6778 9.51356 88.5449 9.51076 88.4161 9.53689H88.4871ZM73.6683 10.955L71.7539 11.3449H71.1157L67.996 12.1249C67.7764 12.191 67.5893 12.3366 67.4713 12.5333C67.3533 12.7299 67.3129 12.9635 67.3579 13.1884C67.4116 13.3725 67.5235 13.5342 67.6769 13.6493C67.8303 13.7643 68.0169 13.8265 68.2087 13.8265H68.4569C70.2649 13.3657 72.002 12.9403 73.9519 12.5503C74.0643 12.5331 74.1721 12.4936 74.269 12.4341C74.3659 12.3746 74.4499 12.2962 74.516 12.2037C74.5821 12.1112 74.629 12.0063 74.6539 11.8953C74.6788 11.7844 74.6812 11.6695 74.6609 11.5576C74.6207 11.3604 74.5145 11.1827 74.3599 11.0539C74.2052 10.925 74.0113 10.8526 73.8101 10.8486L73.6683 10.955ZM59.4876 15.1383H59.1331L58.5659 15.3864H57.3251C56.4742 15.7409 55.6234 16.1309 54.7725 16.5563H53.8508C53.6466 16.6625 53.4918 16.844 53.419 17.0623C53.3462 17.2807 53.3612 17.5188 53.4608 17.7262C53.5292 17.8753 53.6391 18.0015 53.7775 18.0896C53.9159 18.1776 54.0768 18.2238 54.2408 18.2225H54.6307C56.297 17.4072 58.1759 16.6272 59.8067 15.9182C60.0147 15.8247 60.1787 15.6546 60.2645 15.4433C60.3504 15.2321 60.3515 14.9958 60.2676 14.7837C60.2148 14.6185 60.1107 14.4745 59.9704 14.3725C59.8302 14.2705 59.661 14.2158 59.4876 14.2165V15.1383ZM46.2996 22.0159C46.1382 21.9643 45.9647 21.9643 45.8033 22.0159L44.8815 22.6185H42.7544L41.0527 23.8594C40.9734 23.9384 40.9105 24.0323 40.8676 24.1357C40.8246 24.2392 40.8025 24.3501 40.8025 24.462C40.8025 24.574 40.8246 24.6849 40.8676 24.7883C40.9105 24.8917 40.9734 24.9857 41.0527 25.0647C41.1353 25.1748 41.2424 25.2641 41.3654 25.3257C41.4885 25.3872 41.6242 25.4192 41.7618 25.4192C41.9362 25.4643 42.1192 25.4643 42.2936 25.4192C43.7825 24.2848 45.3424 23.1858 46.9377 22.1577C46.7509 22.0308 46.5226 21.9801 46.2996 22.0159ZM34.6006 31.2687C34.4884 31.2664 34.3771 31.2873 34.2734 31.33C34.1697 31.3727 34.0759 31.4363 33.9979 31.5169H33.7852H31.9417H31.6226H30.5236C30.3612 31.6826 30.2703 31.9053 30.2703 32.1373C30.2703 32.3693 30.3612 32.592 30.5236 32.7577C30.6819 32.893 30.8827 32.9684 31.0908 32.9704C31.2171 32.9762 31.3431 32.9537 31.4596 32.9046C31.5762 32.8556 31.6803 32.7812 31.7644 32.6868C33.0052 31.3042 34.3524 29.9216 35.6996 28.6099C35.7789 28.5308 35.8418 28.4369 35.8848 28.3335C35.9277 28.2301 35.9498 28.1192 35.9498 28.0072C35.9498 27.8952 35.9277 27.7843 35.8848 27.6809C35.8418 27.5775 35.7789 27.4836 35.6996 27.4045C35.5302 27.233 35.3023 27.1317 35.0614 27.1209L34.6006 31.2687ZM24.7805 42.5424C24.6414 42.5327 24.5022 42.5605 24.3775 42.6228C24.2528 42.6852 24.1471 42.7798 24.0714 42.8969C23.7169 43.3578 23.3978 43.8541 23.0788 44.3149H22.5824C22.0861 45.0594 21.6253 45.8039 21.1644 46.5484C21.045 46.7466 21.0078 46.9836 21.0608 47.2088C21.1138 47.434 21.2527 47.6296 21.448 47.7538C21.5999 47.7863 21.757 47.7863 21.9089 47.7538C22.0588 47.7516 22.2058 47.7115 22.336 47.6371C22.4662 47.5627 22.5754 47.4564 22.6534 47.3283C23.6106 45.733 24.6741 44.1377 25.7731 42.5778C25.8653 42.4495 25.92 42.2979 25.931 42.1402C25.9419 41.9825 25.9087 41.8249 25.8351 41.685C25.7615 41.5451 25.6503 41.4285 25.5141 41.3483C25.378 41.268 25.2221 41.2273 25.0641 41.2307L24.7805 42.5424ZM17.3711 55.4468C17.1981 55.4462 17.0287 55.4962 16.8838 55.5907C16.7389 55.6852 16.6249 55.82 16.5557 55.9785L16.2366 56.6876H15.6339L14.7831 58.8501C14.7125 59.0714 14.728 59.3112 14.8266 59.5216C14.9252 59.7319 15.0996 59.8973 15.3149 59.9846H15.5985C15.7804 59.9846 15.9584 59.9307 16.1098 59.8298C16.2612 59.7288 16.3793 59.5853 16.4493 59.4173C17.0875 57.6448 17.7965 55.8722 18.5764 54.1705C18.6735 53.9587 18.6833 53.7172 18.6037 53.4983C18.5241 53.2793 18.3614 53.1006 18.151 53.0006H17.7965L17.3711 55.4468ZM12.5497 69.6274C12.3548 69.6353 12.1675 69.7047 12.0146 69.8257C11.8617 69.9468 11.7511 70.1132 11.6988 70.301C11.3443 71.8609 11.0252 73.4207 10.7416 74.9806C10.7214 75.0925 10.7237 75.2073 10.7486 75.3183C10.7735 75.4293 10.8204 75.5341 10.8865 75.6267C10.9526 75.7192 11.0366 75.7976 11.1335 75.8571C11.2304 75.9166 11.3382 75.9561 11.4506 75.9733C11.657 75.9676 11.8549 75.8902 12.0102 75.7543C12.1655 75.6184 12.2686 75.4325 12.3015 75.2288C12.5851 73.3853 12.9751 71.5063 13.4005 69.6629C13.4268 69.5534 13.431 69.4399 13.4131 69.3288C13.3952 69.2177 13.3554 69.1112 13.2961 69.0156C13.2367 68.92 13.159 68.8371 13.0673 68.7717C12.9757 68.7063 12.8721 68.6598 12.7624 68.6348L12.5497 69.6274ZM10.5289 84.4107C10.4189 84.406 10.309 84.4235 10.206 84.4623C10.1029 84.5012 10.0088 84.5605 9.92927 84.6367C9.84976 84.7129 9.78653 84.8044 9.74335 84.9057C9.70017 85.007 9.67795 85.116 9.67806 85.2261C9.67806 85.8997 9.67806 86.5733 9.67806 87.2469C9.67806 87.7787 9.67806 88.3104 9.67806 88.8422C9.67806 89.0679 9.76771 89.2843 9.92727 89.4438C10.0868 89.6034 10.3033 89.693 10.5289 89.693C10.6453 89.6885 10.7597 89.661 10.8655 89.6122C10.9713 89.5634 11.0664 89.4942 11.1454 89.4086C11.2245 89.323 11.2858 89.2226 11.326 89.1133C11.3662 89.0039 11.3845 88.8877 11.3797 88.7713C11.3797 87.9559 11.3797 87.1405 11.3797 86.3251C11.3797 85.5097 11.3797 84.1626 11.3797 83.099C11.3799 82.87 11.2914 82.6498 11.1328 82.4845C10.9742 82.3193 10.7578 82.2219 10.5289 82.2127V84.4107ZM11.3443 99.265C11.115 99.3001 10.9086 99.4237 10.7694 99.6093C10.6302 99.7949 10.5693 100.028 10.5998 100.258C10.8834 102.172 11.2379 104.086 11.6634 105.965C11.7157 106.153 11.8263 106.32 11.9791 106.441C12.132 106.562 12.3194 106.631 12.5142 106.639H12.7269C12.8366 106.614 12.9403 106.567 13.0319 106.502C13.1235 106.437 13.2013 106.354 13.2606 106.258C13.32 106.162 13.3597 106.056 13.3777 105.945C13.3956 105.834 13.3913 105.72 13.365 105.611C12.9751 103.767 12.6205 101.888 12.3369 100.009C12.304 99.8057 12.201 99.6199 12.0456 99.4839C11.8903 99.348 11.6924 99.2706 11.4861 99.265H11.3443ZM14.8895 113.729H14.6058C14.4978 113.765 14.398 113.822 14.3124 113.897C14.2268 113.972 14.1572 114.064 14.1076 114.166C14.058 114.269 14.0295 114.38 14.0237 114.494C14.018 114.608 14.0351 114.721 14.0741 114.828C14.1767 115.141 14.295 115.449 14.4286 115.75C14.7831 116.719 15.1731 117.676 15.5985 118.622H15.8112C15.8779 118.775 15.9865 118.906 16.1245 119C16.2625 119.094 16.4242 119.147 16.5911 119.153H16.9457C17.1561 119.053 17.3187 118.875 17.3983 118.656C17.4779 118.437 17.4681 118.195 17.3711 117.983C16.6266 116.282 15.9176 114.438 15.2794 112.737C15.2215 112.565 15.1122 112.415 14.9664 112.307C14.8206 112.199 14.6453 112.139 14.464 112.134L14.8895 113.729ZM21.1998 127.236H20.7744C20.5732 127.355 20.4268 127.548 20.3671 127.773C20.3074 127.999 20.3391 128.239 20.4554 128.442C20.8808 129.186 21.3417 129.895 21.7671 130.604H22.6179L23.256 131.561C23.3368 131.676 23.4426 131.771 23.5655 131.838C23.6883 131.906 23.825 131.945 23.9651 131.951C24.1451 131.946 24.3189 131.884 24.4614 131.774C24.6508 131.644 24.7825 131.446 24.8288 131.222C24.8751 130.997 24.8323 130.763 24.7096 130.569C23.5988 129.009 22.5706 127.414 21.6253 125.783C21.5563 125.647 21.449 125.534 21.3167 125.459C21.1844 125.383 21.0329 125.348 20.8808 125.357L21.1998 127.236ZM29.9564 139.29C29.7482 139.292 29.5474 139.367 29.3892 139.503C29.2268 139.668 29.1358 139.891 29.1358 140.123C29.1358 140.355 29.2268 140.578 29.3892 140.743H29.7791C30.949 142.055 32.1544 143.296 33.3243 144.537C33.4883 144.69 33.7026 144.778 33.927 144.785C34.1571 144.772 34.3733 144.671 34.5297 144.501C34.6135 144.425 34.6805 144.332 34.7263 144.228C34.7722 144.124 34.7958 144.012 34.7958 143.899C34.7958 143.785 34.7722 143.673 34.7263 143.569C34.6805 143.465 34.6135 143.372 34.5297 143.296C33.1825 141.949 31.8708 140.566 30.63 139.148C30.4518 138.968 30.2096 138.866 29.9564 138.864V139.29ZM40.84 149.464C40.709 149.472 40.5811 149.508 40.465 149.569C40.3488 149.63 40.247 149.715 40.1665 149.819C40.0826 149.895 40.0156 149.988 39.9698 150.092C39.924 150.196 39.9003 150.308 39.9003 150.422C39.9003 150.535 39.924 150.647 39.9698 150.751C40.0156 150.855 40.0826 150.948 40.1665 151.024L40.9819 151.662H41.3718H43.1799L44.4916 152.549C44.6551 152.584 44.8243 152.584 44.9879 152.549C45.1298 152.551 45.2698 152.516 45.3942 152.448C45.5185 152.38 45.6229 152.28 45.6969 152.159C45.7677 152.066 45.8178 151.959 45.8437 151.846C45.8697 151.732 45.871 151.614 45.8475 151.5C45.8239 151.385 45.7762 151.277 45.7074 151.183C45.6386 151.089 45.5504 151.011 45.4488 150.953C43.8889 149.89 42.329 148.791 40.84 147.656C40.6962 147.521 40.5061 147.445 40.3083 147.444L40.84 149.464ZM53.3899 157.37C53.2259 157.369 53.065 157.415 52.9267 157.503C52.7883 157.591 52.6783 157.717 52.61 157.867C52.5104 158.074 52.4954 158.312 52.5681 158.53C52.6409 158.749 52.7958 158.93 53 159.036L54.2408 159.639H58.2822H58.6013C58.7743 159.64 58.9437 159.59 59.0886 159.495C59.2334 159.401 59.3475 159.266 59.4167 159.107C59.4621 159.001 59.4853 158.886 59.4847 158.77C59.4841 158.654 59.4598 158.539 59.4134 158.433C59.3669 158.327 59.2992 158.231 59.2144 158.152C59.1296 158.073 59.0296 158.012 58.9204 157.973C57.1832 157.228 55.3752 156.448 53.7799 155.598C53.6518 155.566 53.518 155.566 53.3899 155.598V157.37ZM67.5706 162.759C67.3802 162.764 67.1962 162.829 67.0438 162.943C66.8915 163.057 66.7783 163.216 66.7197 163.397C66.6872 163.509 66.6769 163.626 66.6895 163.741C66.7022 163.857 66.7375 163.969 66.7935 164.071C66.8494 164.173 66.9249 164.263 67.0157 164.336C67.1065 164.409 67.2107 164.463 67.3224 164.496H67.5706C69.2368 164.957 70.903 165.347 72.6047 165.701H72.9592C73.1596 165.661 73.3397 165.552 73.4691 165.394C73.5985 165.235 73.6692 165.037 73.6692 164.833C73.6692 164.628 73.5985 164.43 73.4691 164.272C73.3397 164.114 73.1596 164.005 72.9592 163.964C71.1157 163.574 69.4141 163.149 67.4288 162.617L67.5706 162.759ZM82.2121 165.418C81.9982 165.417 81.7919 165.497 81.6342 165.641C81.4766 165.786 81.3791 165.985 81.3613 166.198C81.3413 166.427 81.4115 166.656 81.5571 166.834C81.7028 167.013 81.9123 167.128 82.1412 167.155H83.0984H87.9553C88.084 167.181 88.2169 167.178 88.3444 167.147C88.4719 167.115 88.5908 167.056 88.6925 166.973C88.7942 166.889 88.8762 166.785 88.9325 166.666C88.9887 166.547 89.0179 166.418 89.0179 166.286C89.0179 166.155 88.9887 166.025 88.9325 165.907C88.8762 165.788 88.7942 165.683 88.6925 165.6C88.5908 165.517 88.4719 165.457 88.3444 165.426C88.2169 165.394 88.084 165.392 87.9553 165.418C86.0763 165.418 84.1619 165.418 82.283 165.17L82.2121 165.418ZM102.81 164.39C100.931 164.709 99.0516 164.992 97.1727 165.205C96.9437 165.232 96.7342 165.347 96.5886 165.525C96.443 165.704 96.3727 165.933 96.3928 166.162C96.4259 166.375 96.5327 166.57 96.6947 166.713C96.8566 166.855 97.0634 166.936 97.279 166.942H98.1299H98.5553C99.867 166.942 101.143 166.588 102.455 166.375H103.058C103.169 166.358 103.276 166.319 103.371 166.259C103.467 166.199 103.549 166.12 103.612 166.026C103.675 165.933 103.719 165.828 103.739 165.717C103.76 165.606 103.757 165.492 103.731 165.382C103.698 165.179 103.595 164.993 103.44 164.857C103.285 164.721 103.087 164.643 102.88 164.638L102.81 164.39ZM116.99 160.348H116.671C114.934 161.057 113.126 161.66 111.318 162.227C111.134 162.304 110.981 162.441 110.885 162.616C110.788 162.791 110.754 162.993 110.786 163.19C110.819 163.387 110.918 163.567 111.065 163.701C111.213 163.835 111.402 163.915 111.602 163.929H111.85L113.197 163.503H114.048L116.671 162.546H117.203C117.312 162.507 117.412 162.446 117.497 162.367C117.582 162.288 117.649 162.192 117.696 162.086C117.742 161.98 117.767 161.865 117.767 161.749C117.768 161.633 117.745 161.518 117.699 161.412C117.63 161.253 117.516 161.118 117.371 161.024C117.226 160.929 117.057 160.879 116.884 160.88L116.99 160.348ZM130.285 153.612C130.133 153.58 129.976 153.58 129.824 153.612C128.24 154.652 126.609 155.609 124.931 156.484C124.83 156.536 124.74 156.608 124.667 156.696C124.594 156.783 124.539 156.885 124.506 156.994C124.473 157.103 124.462 157.218 124.475 157.331C124.487 157.444 124.521 157.554 124.577 157.654C124.647 157.799 124.758 157.921 124.897 158.003C125.036 158.085 125.196 158.124 125.357 158.115H125.747L126.917 157.477H127.838L130.816 155.669C131.012 155.544 131.151 155.349 131.204 155.124C131.257 154.898 131.219 154.661 131.1 154.463C131.016 154.344 130.904 154.246 130.775 154.178C130.645 154.111 130.502 154.075 130.355 154.073L130.285 153.612ZM142.019 144.466C141.912 144.462 141.805 144.482 141.707 144.525C141.609 144.568 141.521 144.632 141.452 144.714C140.069 145.99 138.616 147.231 137.162 148.259C137.01 148.423 136.926 148.638 136.926 148.862C136.926 149.085 137.01 149.301 137.162 149.464C137.247 149.573 137.354 149.661 137.477 149.722C137.599 149.783 137.734 149.816 137.871 149.819C138.068 149.812 138.256 149.737 138.403 149.606C139.892 148.401 141.381 147.125 142.764 145.778C142.847 145.701 142.914 145.608 142.96 145.504C143.006 145.4 143.03 145.288 143.03 145.175C143.03 145.061 143.006 144.949 142.96 144.845C142.914 144.742 142.847 144.649 142.764 144.572C142.686 144.479 142.589 144.404 142.478 144.355C142.367 144.306 142.246 144.283 142.125 144.289L142.019 144.466ZM151.875 133.263C151.736 133.257 151.598 133.286 151.474 133.348C151.35 133.41 151.244 133.503 151.166 133.618C150.067 135.142 148.897 136.666 147.62 138.085C147.466 138.254 147.38 138.475 147.38 138.705C147.38 138.934 147.466 139.156 147.62 139.325C147.781 139.456 147.98 139.53 148.188 139.538C148.316 139.537 148.443 139.508 148.56 139.453C148.676 139.398 148.779 139.318 148.861 139.219L150.137 137.659H151.13L152.655 134.717C152.722 134.624 152.769 134.519 152.795 134.408C152.821 134.297 152.824 134.181 152.804 134.069C152.784 133.956 152.742 133.849 152.68 133.753C152.617 133.657 152.536 133.575 152.442 133.511C152.282 133.448 152.105 133.448 151.945 133.511L151.875 133.263ZM159.39 120.536C159.228 120.543 159.071 120.592 158.934 120.679C158.797 120.766 158.685 120.888 158.61 121.032C157.83 122.769 156.944 124.577 156.022 126.102C155.918 126.31 155.897 126.551 155.962 126.774C156.028 126.998 156.176 127.188 156.377 127.307C156.517 127.339 156.662 127.339 156.802 127.307C156.957 127.305 157.107 127.261 157.238 127.18C157.37 127.099 157.476 126.983 157.547 126.846C158.362 125.393 159.142 123.868 159.851 122.344C160.091 122.33 160.315 122.221 160.475 122.042C160.634 121.862 160.716 121.627 160.702 121.387C160.688 121.147 160.579 120.923 160.4 120.763C160.22 120.604 159.985 120.522 159.745 120.536C159.617 120.504 159.483 120.504 159.355 120.536H159.39ZM164.354 106.355C164.16 106.349 163.971 106.409 163.816 106.525C163.661 106.641 163.551 106.806 163.503 106.993C163.042 108.837 162.51 110.539 161.943 112.453C161.904 112.56 161.887 112.674 161.892 112.787C161.898 112.901 161.927 113.012 161.976 113.115C162.026 113.217 162.096 113.309 162.181 113.384C162.267 113.459 162.367 113.516 162.475 113.552H162.758C162.936 113.555 163.111 113.501 163.257 113.4C163.404 113.298 163.514 113.153 163.574 112.985C164.176 111.141 164.708 109.262 165.169 107.383C165.201 107.272 165.209 107.154 165.194 107.039C165.178 106.924 165.14 106.813 165.08 106.714C165.02 106.614 164.941 106.528 164.846 106.46C164.752 106.392 164.644 106.345 164.531 106.32L164.354 106.355ZM166.516 91.6074C166.293 91.6067 166.078 91.6903 165.913 91.8415C165.749 91.9926 165.648 92.2003 165.63 92.4228C165.63 94.3018 165.382 96.2161 165.133 98.0951C165.113 98.3247 165.184 98.5531 165.329 98.7318C165.475 98.9105 165.684 99.0255 165.913 99.0523C166.12 99.0467 166.318 98.9692 166.473 98.8333C166.628 98.6974 166.731 98.5115 166.764 98.3078C166.764 97.8469 166.764 97.386 166.764 96.9252L166.977 94.479C166.977 94.1954 166.977 93.9472 166.977 93.6991C166.987 93.4698 166.907 93.2455 166.755 93.0736C166.603 92.9017 166.39 92.7955 166.162 92.7773L166.516 91.6074ZM165.843 76.7177C165.727 76.7305 165.615 76.7669 165.514 76.8245C165.413 76.8822 165.325 76.9599 165.255 77.0529C165.186 77.1459 165.136 77.2523 165.109 77.3653C165.082 77.4784 165.078 77.5959 165.098 77.7104C165.346 79.5539 165.559 81.4683 165.665 83.3472C165.683 83.5698 165.784 83.7774 165.949 83.9286C166.113 84.0797 166.328 84.1633 166.552 84.1626C166.78 84.1444 166.993 84.0382 167.145 83.8663C167.297 83.6944 167.377 83.4702 167.367 83.2408C167.367 83.0281 167.367 82.8509 167.367 82.6382C167.367 82.2482 167.367 81.8937 167.367 81.5392C167.341 81.3324 167.24 81.1424 167.083 81.0052C166.926 80.8679 166.724 80.7931 166.516 80.7947L165.843 76.7177ZM162.297 62.218H162.014C161.804 62.3116 161.634 62.4778 161.536 62.6862C161.439 62.8945 161.419 63.131 161.482 63.3525C162.085 65.1251 162.652 66.8976 163.113 68.7766C163.166 68.9607 163.278 69.1224 163.432 69.2374C163.585 69.3525 163.772 69.4147 163.964 69.4147H164.176C164.29 69.3901 164.397 69.3424 164.492 69.2747C164.586 69.207 164.666 69.1206 164.725 69.021C164.785 68.9213 164.824 68.8105 164.839 68.6953C164.855 68.5801 164.846 68.463 164.814 68.3512C164.318 66.4722 163.751 64.6287 163.148 62.8207C163.088 62.6432 162.974 62.4893 162.821 62.381C162.668 62.2727 162.485 62.2157 162.297 62.218ZM156.2 48.6401C156.06 48.6093 155.914 48.6093 155.774 48.6401C155.676 48.6953 155.589 48.7695 155.52 48.8585C155.45 48.9474 155.399 49.0493 155.37 49.1582C155.34 49.2671 155.332 49.3808 155.347 49.4927C155.362 49.6046 155.398 49.7124 155.455 49.81C156.377 51.4407 157.299 53.1424 158.114 54.8441C158.182 54.9932 158.292 55.1194 158.431 55.2074C158.569 55.2955 158.73 55.3417 158.894 55.3404C159.01 55.3721 159.132 55.3721 159.249 55.3404C159.355 55.2986 159.451 55.235 159.531 55.1535C159.611 55.0721 159.674 54.9748 159.714 54.8679C159.754 54.7609 159.771 54.6467 159.764 54.5327C159.757 54.4187 159.727 54.3073 159.674 54.206L158.929 52.717H157.405C157.338 52.5773 157.232 52.4598 157.1 52.3781C156.968 52.2965 156.816 52.2542 156.661 52.2561L156.2 48.6401ZM147.549 36.5156C147.342 36.5232 147.143 36.5979 146.982 36.7283C146.82 36.894 146.729 37.1167 146.729 37.3487C146.729 37.5807 146.82 37.8034 146.982 37.9691C148.223 39.3872 149.393 40.8761 150.527 42.3651C150.606 42.4796 150.712 42.5723 150.836 42.6343C150.96 42.6964 151.098 42.7257 151.236 42.7196C151.429 42.7252 151.617 42.6624 151.768 42.5424C151.92 42.3785 152.005 42.1632 152.005 41.9397C152.005 41.7162 151.92 41.5009 151.768 41.337H151.272L149.038 38.5363H148.79C148.612 38.3564 148.37 38.2544 148.117 38.2527L147.549 36.5156ZM136.914 26.2346C136.785 26.2357 136.658 26.2648 136.542 26.3199C136.426 26.375 136.323 26.4548 136.24 26.5537C136.078 26.7194 135.987 26.9421 135.987 27.1741C135.987 27.4061 136.078 27.6288 136.24 27.7945C137.729 28.9644 139.183 30.1697 140.565 31.3397C140.643 31.4202 140.737 31.4839 140.841 31.5266C140.945 31.5693 141.056 31.5901 141.168 31.5878C141.409 31.577 141.637 31.4757 141.806 31.3042C141.969 31.1385 142.06 30.9158 142.06 30.6838C142.06 30.4518 141.969 30.2291 141.806 30.0634C141.062 29.3544 140.246 28.6808 139.466 28.0072H138.368L137.658 27.44C137.485 27.3855 137.3 27.3855 137.127 27.44L136.914 26.2346ZM124.293 18.1516C124.129 18.1504 123.968 18.1966 123.83 18.2846C123.692 18.3727 123.582 18.4989 123.513 18.648C123.458 18.7476 123.423 18.8574 123.411 18.9708C123.399 19.0842 123.41 19.1989 123.443 19.308C123.476 19.4171 123.53 19.5185 123.603 19.6061C123.676 19.6937 123.766 19.7657 123.868 19.8179C125.569 20.6687 127.236 21.6259 128.831 22.5831C128.98 22.6344 129.143 22.6344 129.292 22.5831C129.442 22.581 129.589 22.5408 129.719 22.4664C129.849 22.392 129.958 22.2858 130.036 22.1577C130.147 21.9574 130.18 21.7231 130.127 21.5003C130.075 21.2775 129.941 21.0822 129.753 20.9523L127.945 19.8888H126.81L124.683 18.7189H124.293V18.1516ZM110.432 12.6566C110.235 12.6764 110.051 12.7613 109.908 12.8979C109.765 13.0346 109.672 13.215 109.643 13.4106C109.615 13.6062 109.652 13.8057 109.75 13.9774C109.848 14.1491 110.001 14.2832 110.183 14.3583C111.991 14.8901 113.729 15.4928 115.572 16.1309H115.891C116.068 16.1286 116.24 16.0733 116.386 15.9722C116.531 15.8711 116.643 15.7288 116.707 15.5637C116.788 15.3472 116.782 15.1074 116.689 14.8954C116.597 14.6834 116.425 14.5161 116.21 14.4292L112.665 13.1884H112.098L110.751 12.7984L110.432 12.6566ZM95.9319 9.85596C95.7148 9.86397 95.5082 9.95144 95.3513 10.1018C95.1945 10.2521 95.0983 10.4548 95.0811 10.6713C95.0713 10.7832 95.0838 10.8958 95.1178 11.0027C95.1518 11.1097 95.2067 11.2089 95.2792 11.2945C95.3517 11.3802 95.4404 11.4507 95.5403 11.5019C95.6401 11.5532 95.7491 11.5842 95.861 11.5931C97.7281 11.7585 99.607 12.0067 101.498 12.3376C101.701 12.3404 101.898 12.2705 102.054 12.1405C102.21 12.0104 102.315 11.8288 102.349 11.6285C102.381 11.3995 102.326 11.1666 102.195 10.9761C102.063 10.7857 101.865 10.6516 101.64 10.6004C99.7252 10.3168 97.8108 10.0687 95.861 9.85596H95.9319ZM88.8416 16.9463C88.6783 16.9171 88.5105 16.924 88.3502 16.9667C88.1899 17.0093 88.0409 17.0866 87.9137 17.1931C87.7865 17.2995 87.6841 17.4326 87.6139 17.5829C87.5437 17.7332 87.5073 17.8971 87.5073 18.063C87.5073 18.2289 87.5437 18.3928 87.6139 18.5431C87.6841 18.6934 87.7865 18.8265 87.9137 18.933C88.0409 19.0394 88.1899 19.1167 88.3502 19.1594C88.5105 19.202 88.6783 19.209 88.8416 19.1797C89.0049 19.209 89.1726 19.202 89.3329 19.1594C89.4932 19.1167 89.6422 19.0394 89.7695 18.933C89.8967 18.8265 89.999 18.6934 90.0692 18.5431C90.1394 18.3928 90.1758 18.2289 90.1758 18.063C90.1758 17.8971 90.1394 17.7332 90.0692 17.5829C89.999 17.4326 89.8967 17.2995 89.7695 17.1931C89.6422 17.0866 89.4932 17.0093 89.3329 16.9667C89.1726 16.924 89.0049 16.9171 88.8416 16.9463ZM81.0422 17.3717C80.8943 17.3848 80.7505 17.4277 80.6196 17.4978C80.4887 17.568 80.3734 17.6639 80.2806 17.7799C80.1879 17.8959 80.1196 18.0294 80.0798 18.1726C80.0401 18.3157 80.0298 18.4653 80.0495 18.6125C80.0754 18.8886 80.2015 19.1456 80.404 19.335C80.6065 19.5245 80.8714 19.6332 81.1486 19.6406C81.4436 19.605 81.7128 19.4551 81.8984 19.223C82.084 18.991 82.1712 18.6954 82.1412 18.3998C82.1065 18.1241 81.9718 17.8708 81.7627 17.6878C81.5536 17.5048 81.2846 17.405 81.0068 17.4072L81.0422 17.3717ZM73.3492 18.648H73.0656C72.7798 18.7235 72.5332 18.9044 72.3754 19.1543C72.2175 19.4042 72.1601 19.7046 72.2147 19.9951C72.278 20.2482 72.424 20.4728 72.6295 20.6334C72.8351 20.794 73.0884 20.8813 73.3492 20.8814H73.5974C73.8878 20.8138 74.1399 20.6345 74.2991 20.3824C74.4583 20.1302 74.5119 19.8256 74.4482 19.5343C74.3983 19.281 74.2608 19.0534 74.0598 18.8913C73.8589 18.7292 73.6073 18.6431 73.3492 18.648ZM65.8689 20.7751C65.741 20.742 65.6068 20.742 65.4789 20.7751C65.3375 20.819 65.2065 20.8911 65.0936 20.987C64.9808 21.0829 64.8885 21.2006 64.8223 21.333C64.756 21.4655 64.7173 21.6099 64.7083 21.7577C64.6993 21.9055 64.7202 22.0536 64.7699 22.1931C64.8438 22.4178 64.986 22.6137 65.1767 22.7535C65.3674 22.8934 65.597 22.9701 65.8335 22.9731H66.188C66.4346 22.882 66.642 22.708 66.7746 22.481C66.9072 22.2539 66.9568 21.9878 66.9149 21.7282C66.8731 21.4686 66.7423 21.2316 66.5451 21.0578C66.3478 20.8839 66.0963 20.784 65.8335 20.7751H65.8689ZM58.7786 23.7176C58.6267 23.685 58.4696 23.685 58.3177 23.7176C58.1786 23.7778 58.053 23.8653 57.9483 23.9748C57.8436 24.0844 57.7619 24.2138 57.7081 24.3555C57.6542 24.4972 57.6293 24.6482 57.6348 24.7997C57.6402 24.9511 57.676 25.1 57.74 25.2374C57.804 25.3748 57.8948 25.498 58.0072 25.5997C58.1195 25.7014 58.2511 25.7796 58.3942 25.8296C58.5373 25.8795 58.6889 25.9004 58.8402 25.8908C58.9915 25.8812 59.1393 25.8414 59.2749 25.7737C59.4093 25.7129 59.5301 25.6256 59.6301 25.5171C59.7301 25.4086 59.8072 25.2811 59.8568 25.1421C59.9064 25.0032 59.9275 24.8556 59.9189 24.7083C59.9103 24.5611 59.8721 24.417 59.8067 24.2848C59.713 24.0922 59.5667 23.9301 59.3848 23.8172C59.2029 23.7043 58.9927 23.6451 58.7786 23.6466V23.7176ZM51.9364 27.2627C51.7382 27.2159 51.5319 27.2159 51.3337 27.2627C51.0817 27.4236 50.9008 27.6749 50.8283 27.965C50.7558 28.2551 50.7971 28.562 50.9438 28.8226C51.0455 28.9848 51.1866 29.1186 51.354 29.2116C51.5213 29.3046 51.7095 29.3537 51.901 29.3544C52.0962 29.4219 52.3084 29.4219 52.5036 29.3544C52.7568 29.1939 52.9362 28.9398 53.0026 28.6475C53.069 28.3553 53.0171 28.0486 52.8581 27.7945C52.759 27.6299 52.6184 27.4942 52.4505 27.4009C52.2825 27.3076 52.0931 27.2599 51.901 27.2627H51.9364ZM45.0588 31.9069C44.8006 31.9037 44.5496 31.9916 44.3498 32.155C44.1479 32.3716 44.0357 32.6567 44.0357 32.9527C44.0357 33.2488 44.1479 33.5338 44.3498 33.7504C44.4561 33.8832 44.591 33.9904 44.7444 34.0641C44.8978 34.1377 45.0659 34.1759 45.236 34.1758C45.4942 34.1789 45.7452 34.0911 45.9451 33.9276C46.1483 33.7737 46.2938 33.5558 46.358 33.309C46.4222 33.0623 46.4014 32.8011 46.299 32.5677C46.1966 32.3342 46.0185 32.142 45.7935 32.0221C45.5685 31.9022 45.3097 31.8616 45.0588 31.9069ZM39.2093 36.9765C39.0647 36.9757 38.9214 37.0035 38.7875 37.0583C38.6537 37.113 38.532 37.1936 38.4293 37.2955C38.2193 37.5079 38.1015 37.7945 38.1015 38.0932C38.1015 38.3919 38.2193 38.6785 38.4293 38.8909C38.6496 39.0987 38.9419 39.2131 39.2447 39.2099C39.3893 39.2107 39.5326 39.1829 39.6665 39.1281C39.8003 39.0734 39.9221 38.9927 40.0247 38.8909C40.2265 38.6743 40.3387 38.3892 40.3387 38.0932C40.3387 37.7971 40.2265 37.5121 40.0247 37.2955C39.924 37.1792 39.7984 37.0869 39.6573 37.0256C39.5161 36.9642 39.3631 36.9353 39.2093 36.941V36.9765ZM33.9624 42.7196C33.7927 42.722 33.6255 42.7613 33.4724 42.8347C33.3194 42.9082 33.1841 43.0141 33.0761 43.145C32.9442 43.3096 32.8608 43.5076 32.8352 43.7169C32.8097 43.9262 32.8429 44.1385 32.9313 44.33C33.0196 44.5215 33.1596 44.6845 33.3355 44.8008C33.5114 44.9172 33.7162 44.9821 33.927 44.9885C34.098 44.9942 34.2679 44.9584 34.4222 44.8844C34.5765 44.8103 34.7107 44.7001 34.8133 44.5631C34.9065 44.4468 34.9758 44.3132 35.0173 44.17C35.0588 44.0268 35.0717 43.8769 35.0553 43.7287C35.0388 43.5806 34.9933 43.4371 34.9214 43.3065C34.8494 43.176 34.7525 43.0609 34.636 42.9678C34.4289 42.8177 34.1825 42.7315 33.927 42.7196H33.9624ZM29.3537 49.03C29.1858 49.0628 29.0278 49.1344 28.8924 49.239C28.757 49.3436 28.6479 49.4785 28.5738 49.6327C28.4203 49.885 28.3678 50.186 28.427 50.4753C28.4862 50.7646 28.6526 51.0208 28.8928 51.1926C29.0891 51.3 29.3074 51.3606 29.531 51.3698C29.7138 51.3703 29.8938 51.3251 30.0547 51.2385C30.2157 51.1518 30.3525 51.0264 30.4527 50.8735C30.6062 50.6212 30.6587 50.3202 30.5995 50.0309C30.5403 49.7416 30.3739 49.4854 30.1337 49.3136C29.9442 49.1903 29.7214 49.1284 29.4955 49.1364L29.3537 49.03ZM25.4895 55.8013C25.2791 55.7965 25.0715 55.8503 24.8899 55.9567C24.7084 56.0632 24.56 56.218 24.4614 56.404C24.3345 56.6735 24.3152 56.9813 24.4074 57.2645C24.4996 57.5478 24.6965 57.7852 24.9577 57.9284H25.4541C25.6682 57.9299 25.8783 57.8708 26.0603 57.7578C26.2422 57.6449 26.3885 57.4828 26.4822 57.2902C26.576 57.1206 26.6234 56.9292 26.6194 56.7354C26.6154 56.5415 26.5602 56.3522 26.4594 56.1866C26.3586 56.021 26.2158 55.885 26.0454 55.7924C25.8751 55.6999 25.6833 55.654 25.4895 55.6595V55.8013ZM22.3697 62.8916C22.1376 62.892 21.9111 62.9635 21.721 63.0967C21.5308 63.2298 21.386 63.4181 21.3062 63.6361C21.2125 63.9186 21.23 64.2262 21.3552 64.4962C21.4803 64.7663 21.7037 64.9785 21.9798 65.0896H22.3697C22.6019 65.0892 22.8283 65.0177 23.0185 64.8845C23.2087 64.7514 23.3535 64.5631 23.4333 64.3451C23.5363 64.063 23.5232 63.7516 23.3969 63.4791C23.2707 63.2067 23.0415 62.9954 22.7597 62.8916H22.3697ZM20.1008 70.3364C19.8445 70.3383 19.5962 70.4268 19.3967 70.5878C19.1971 70.7487 19.0579 70.9726 19.0019 71.2227C18.9649 71.3648 18.9568 71.5128 18.978 71.658C18.9992 71.8033 19.0493 71.9428 19.1253 72.0684C19.2013 72.1939 19.3017 72.303 19.4205 72.3891C19.5394 72.4753 19.6742 72.5367 19.8172 72.5699H20.1008C20.348 72.5683 20.5873 72.4835 20.7803 72.3291C20.9733 72.1747 21.1086 71.9598 21.1644 71.7191C21.229 71.4233 21.1765 71.114 21.0178 70.8562C20.8591 70.5983 20.6067 70.412 20.3135 70.3364H20.1008ZM18.6119 77.994C18.3393 77.9907 18.0747 78.0856 17.8664 78.2613C17.6581 78.4371 17.52 78.682 17.4774 78.9512C17.4576 79.1004 17.4676 79.252 17.507 79.3972C17.5463 79.5424 17.6141 79.6784 17.7065 79.7972C17.7989 79.916 17.914 80.0152 18.0451 80.089C18.1761 80.1629 18.3206 80.21 18.4701 80.2275C18.744 80.2287 19.0086 80.1277 19.2119 79.944C19.4152 79.7604 19.5426 79.5075 19.5691 79.2348C19.5889 79.0857 19.5789 78.934 19.5395 78.7888C19.5002 78.6436 19.4324 78.5076 19.34 78.3888C19.2476 78.27 19.1325 78.1708 19.0014 78.097C18.8704 78.0231 18.7259 77.976 18.5764 77.9585L18.6119 77.994ZM17.9383 85.8288C17.6468 85.8288 17.3673 85.9446 17.1612 86.1507C16.9551 86.3568 16.8393 86.6363 16.8393 86.9278C16.8345 87.0751 16.8594 87.2218 16.9125 87.3593C16.9656 87.4967 17.0458 87.6221 17.1484 87.7279C17.2509 87.8338 17.3737 87.9179 17.5094 87.9753C17.6451 88.0328 17.7909 88.0623 17.9383 88.0623C18.0856 88.067 18.2323 88.0421 18.3698 87.989C18.5072 87.9359 18.6326 87.8557 18.7384 87.7532C18.8442 87.6507 18.9284 87.5279 18.9858 87.3922C19.0433 87.2565 19.0728 87.1106 19.0727 86.9633C19.0775 86.816 19.0526 86.6693 18.9995 86.5318C18.9464 86.3943 18.8662 86.269 18.7637 86.1631C18.6611 86.0573 18.5384 85.9732 18.4027 85.9157C18.267 85.8583 18.1211 85.8287 17.9738 85.8288H17.9383ZM18.2219 93.6282C18.0742 93.637 17.9299 93.6755 17.7975 93.7415C17.665 93.8075 17.5473 93.8995 17.4513 94.012C17.3553 94.1246 17.283 94.2554 17.2388 94.3965C17.1945 94.5377 17.1792 94.6863 17.1938 94.8335C17.2204 95.1156 17.3515 95.3775 17.5615 95.5678C17.7714 95.7581 18.0449 95.8629 18.3283 95.8616C18.4728 95.8483 18.6133 95.8065 18.7417 95.7386C18.87 95.6706 18.9836 95.578 19.0759 95.4659C19.1682 95.3538 19.2374 95.2246 19.2794 95.0856C19.3215 94.9466 19.3356 94.8007 19.3209 94.6563C19.3029 94.3773 19.1792 94.1156 18.975 93.9246C18.7708 93.7336 18.5015 93.6276 18.2219 93.6282ZM19.3209 101.321H19.1082C18.9626 101.347 18.8236 101.401 18.6995 101.481C18.5755 101.562 18.4689 101.666 18.3862 101.789C18.3034 101.911 18.2462 102.049 18.218 102.194C18.1898 102.339 18.1911 102.488 18.2219 102.633C18.2709 102.89 18.407 103.122 18.6073 103.289C18.8075 103.457 19.0596 103.551 19.3209 103.555H19.5336C19.6815 103.534 19.8235 103.483 19.9503 103.404C20.0771 103.325 20.1858 103.22 20.2694 103.097C20.353 102.973 20.4096 102.833 20.4356 102.686C20.4615 102.539 20.4561 102.388 20.4199 102.243C20.3709 101.986 20.2348 101.754 20.0346 101.586C19.8343 101.418 19.5822 101.325 19.3209 101.321ZM21.4835 108.872H21.1644C20.8779 108.962 20.6387 109.162 20.4992 109.428C20.3596 109.693 20.3311 110.004 20.4199 110.29C20.5003 110.518 20.6491 110.715 20.8458 110.855C21.0426 110.994 21.2777 111.07 21.5189 111.07H21.838C22.1244 110.981 22.3637 110.781 22.5032 110.515C22.6427 110.249 22.6712 109.939 22.5824 109.652C22.502 109.425 22.3533 109.228 22.1565 109.088C21.9598 108.949 21.7247 108.873 21.4835 108.872ZM24.2841 116.175C24.1324 116.142 23.9751 116.142 23.8233 116.175C23.552 116.299 23.3404 116.525 23.2343 116.804C23.1281 117.082 23.1359 117.391 23.256 117.664C23.348 117.861 23.493 118.028 23.6745 118.147C23.8561 118.266 24.0672 118.332 24.2841 118.338C24.4356 118.374 24.5935 118.374 24.745 118.338C24.9386 118.179 25.0723 117.959 25.1239 117.714C25.1755 117.469 25.1419 117.214 25.0286 116.991C24.9349 116.798 24.7887 116.636 24.6068 116.523C24.4248 116.41 24.2146 116.351 24.0005 116.353L24.2841 116.175ZM27.8293 123.088C27.644 123.035 27.4474 123.035 27.2621 123.088C27.1338 123.165 27.0219 123.266 26.9328 123.386C26.8438 123.506 26.7793 123.642 26.743 123.787C26.7068 123.932 26.6995 124.083 26.7217 124.231C26.7438 124.379 26.7949 124.52 26.8721 124.648C26.9738 124.811 27.1149 124.944 27.2823 125.037C27.4497 125.13 27.6378 125.179 27.8293 125.18C28.0267 125.233 28.2345 125.233 28.432 125.18C28.5603 125.104 28.6721 125.002 28.7612 124.882C28.8503 124.762 28.9148 124.626 28.951 124.481C28.9872 124.336 28.9945 124.186 28.9724 124.038C28.9502 123.89 28.8991 123.748 28.8219 123.62C28.7303 123.447 28.5924 123.302 28.4234 123.201C28.2545 123.101 28.0611 123.05 27.8648 123.053L27.8293 123.088ZM32.1189 129.576C31.8779 129.576 31.6426 129.65 31.4454 129.789C31.3262 129.879 31.2262 129.992 31.151 130.122C31.0758 130.251 31.0269 130.394 31.0071 130.542C30.9874 130.691 30.9971 130.841 31.0358 130.986C31.0745 131.13 31.1414 131.266 31.2327 131.384C31.3427 131.522 31.4833 131.632 31.6433 131.706C31.8033 131.78 31.9783 131.815 32.1544 131.81C32.3948 131.805 32.6288 131.732 32.828 131.597C33.0608 131.409 33.2127 131.138 33.2523 130.842C33.2918 130.545 33.2161 130.244 33.0407 130.002C32.9443 129.856 32.8124 129.737 32.6573 129.656C32.5022 129.576 32.3291 129.536 32.1544 129.541L32.1189 129.576ZM37.1176 135.532C36.8371 135.536 36.5695 135.651 36.3731 135.851C36.1631 136.063 36.0454 136.35 36.0454 136.649C36.0454 136.947 36.1631 137.234 36.3731 137.446C36.5898 137.664 36.8815 137.791 37.1885 137.801C37.3331 137.802 37.4764 137.774 37.6103 137.719C37.7441 137.664 37.8659 137.584 37.9685 137.482C38.1785 137.269 38.2963 136.983 38.2963 136.684C38.2963 136.386 38.1785 136.099 37.9685 135.887C37.7371 135.669 37.4348 135.543 37.1176 135.532ZM42.7544 140.921C42.5275 140.929 42.3082 141.005 42.125 141.139C41.9417 141.273 41.803 141.459 41.7266 141.673C41.6502 141.887 41.6398 142.119 41.6966 142.338C41.7535 142.558 41.875 142.756 42.0454 142.906C42.2576 143.072 42.5206 143.16 42.7899 143.154C42.9525 143.161 43.1143 143.129 43.2623 143.062C43.4102 142.994 43.5399 142.892 43.6407 142.764C43.8507 142.552 43.9685 142.265 43.9685 141.966C43.9685 141.668 43.8507 141.381 43.6407 141.169C43.435 140.987 43.1705 140.887 42.8962 140.885L42.7544 140.921ZM48.9585 145.671C48.7757 145.671 48.5956 145.716 48.4347 145.803C48.2738 145.889 48.137 146.015 48.0367 146.167C47.871 146.413 47.8078 146.714 47.8608 147.005C47.9138 147.297 48.0787 147.556 48.3203 147.727C48.5067 147.861 48.7292 147.935 48.9585 147.94C49.1413 147.941 49.3213 147.895 49.4822 147.809C49.6432 147.722 49.78 147.597 49.8802 147.444C50.046 147.198 50.1091 146.898 50.0561 146.606C50.0031 146.315 49.8382 146.055 49.5966 145.884C49.3871 145.831 49.1679 145.831 48.9585 145.884V145.671ZM55.6588 149.677C55.4484 149.672 55.2408 149.726 55.0593 149.833C54.8777 149.939 54.7293 150.094 54.6307 150.28C54.4946 150.548 54.4705 150.859 54.5635 151.145C54.6566 151.431 54.8592 151.668 55.1271 151.804C55.3027 151.838 55.4832 151.838 55.6588 151.804C55.8649 151.811 56.0684 151.757 56.2447 151.65C56.4209 151.543 56.5622 151.387 56.6515 151.202C56.7251 151.072 56.7716 150.929 56.7882 150.781C56.8048 150.633 56.7911 150.483 56.748 150.341C56.7049 150.198 56.6332 150.066 56.5374 149.952C56.4416 149.838 56.3236 149.744 56.1906 149.677C56.0292 149.626 55.8557 149.626 55.6943 149.677H55.6588ZM62.7492 152.939C62.5272 152.943 62.3115 153.013 62.1288 153.139C61.946 153.265 61.8043 153.442 61.7211 153.648C61.6637 153.787 61.6347 153.937 61.6358 154.088C61.6369 154.239 61.6681 154.388 61.7275 154.526C61.7869 154.665 61.8734 154.79 61.9818 154.895C62.0903 155 62.2186 155.082 62.3592 155.137H62.7846C63.0116 155.134 63.2329 155.066 63.4218 154.94C63.6106 154.814 63.7588 154.636 63.8481 154.428C63.953 154.15 63.945 153.842 63.8257 153.571C63.7064 153.299 63.4854 153.085 63.21 152.974H62.7846L62.7492 152.939ZM70.1586 155.385C69.8821 155.384 69.6149 155.485 69.4072 155.667C69.1996 155.85 69.0657 156.102 69.0309 156.376C68.9961 156.651 69.0626 156.928 69.218 157.157C69.3735 157.386 69.6071 157.55 69.8749 157.618H70.194C70.4855 157.656 70.7799 157.576 71.0126 157.397C71.2453 157.217 71.3972 156.953 71.4348 156.661C71.4724 156.37 71.3927 156.075 71.2132 155.843C71.0337 155.61 70.7691 155.458 70.4776 155.42H70.1586V155.385ZM77.7806 157.016C77.5186 157.063 77.2813 157.2 77.1105 157.404C76.9396 157.608 76.846 157.866 76.846 158.132C76.846 158.399 76.9396 158.656 77.1105 158.861C77.2813 159.065 77.5186 159.202 77.7806 159.249H77.9934C78.2554 159.202 78.4927 159.065 78.6636 158.861C78.8344 158.656 78.928 158.399 78.928 158.132C78.928 157.866 78.8344 157.608 78.6636 157.404C78.4927 157.2 78.2554 157.063 77.9934 157.016H77.7806ZM85.5446 157.76C85.2437 157.76 84.9551 157.88 84.7424 158.092C84.5296 158.305 84.4101 158.594 84.4101 158.895C84.4101 159.196 84.5296 159.484 84.7424 159.697C84.9551 159.91 85.2437 160.029 85.5446 160.029C85.8454 160.029 86.134 159.91 86.3467 159.697C86.5595 159.484 86.679 159.196 86.679 158.895C86.679 158.594 86.5595 158.305 86.3467 158.092C86.134 157.88 85.8454 157.76 85.5446 157.76ZM93.3794 157.76C93.2319 157.765 93.0868 157.799 92.9528 157.86C92.8188 157.922 92.6986 158.01 92.5993 158.119C92.5001 158.229 92.4238 158.357 92.3751 158.496C92.3264 158.635 92.3062 158.783 92.3158 158.93C92.3339 159.219 92.4613 159.489 92.6722 159.687C92.883 159.884 93.1613 159.994 93.4503 159.994C93.5994 159.985 93.7452 159.946 93.8794 159.881C94.0136 159.815 94.1336 159.724 94.2324 159.612C94.3312 159.5 94.4069 159.369 94.4552 159.228C94.5035 159.087 94.5234 158.937 94.5138 158.788C94.4879 158.503 94.358 158.237 94.1489 158.041C93.9397 157.845 93.6659 157.732 93.3794 157.725V157.76ZM101.108 156.838H100.895C100.599 156.89 100.336 157.058 100.163 157.304C99.99 157.55 99.9219 157.854 99.9734 158.15C100.016 158.41 100.15 158.646 100.352 158.815C100.553 158.984 100.809 159.075 101.072 159.072H101.321C101.466 159.047 101.605 158.992 101.729 158.912C101.853 158.831 101.96 158.727 102.043 158.604C102.125 158.482 102.183 158.344 102.211 158.199C102.239 158.054 102.238 157.905 102.207 157.76C102.172 157.497 102.039 157.257 101.836 157.086C101.633 156.916 101.373 156.827 101.108 156.838ZM108.694 155.03H108.34C108.068 155.099 107.832 155.266 107.676 155.499C107.52 155.731 107.456 156.013 107.495 156.291C107.535 156.568 107.676 156.821 107.891 157C108.105 157.18 108.379 157.274 108.659 157.264H108.978C109.263 157.181 109.504 156.99 109.65 156.732C109.796 156.473 109.835 156.168 109.758 155.881C109.684 155.647 109.537 155.442 109.34 155.296C109.143 155.15 108.905 155.069 108.659 155.066L108.694 155.03ZM116.033 152.407C115.893 152.372 115.747 152.372 115.608 152.407C115.355 152.5 115.144 152.68 115.013 152.915C114.881 153.149 114.836 153.423 114.887 153.687C114.938 153.951 115.082 154.188 115.292 154.356C115.501 154.524 115.764 154.613 116.033 154.605C116.185 154.638 116.342 154.638 116.494 154.605C116.765 154.481 116.977 154.255 117.083 153.977C117.189 153.698 117.181 153.389 117.061 153.116C116.976 152.914 116.833 152.742 116.65 152.622C116.467 152.502 116.252 152.44 116.033 152.442V152.407ZM123.123 148.862C122.949 148.813 122.765 148.813 122.592 148.862C122.46 148.935 122.345 149.034 122.252 149.153C122.16 149.272 122.092 149.408 122.052 149.553C122.013 149.698 122.002 149.849 122.022 149.999C122.041 150.148 122.09 150.292 122.166 150.422C122.269 150.593 122.415 150.736 122.588 150.835C122.762 150.934 122.959 150.987 123.159 150.989C123.335 151.021 123.515 151.021 123.691 150.989C123.821 150.919 123.935 150.823 124.027 150.708C124.12 150.592 124.188 150.459 124.227 150.317C124.267 150.175 124.278 150.026 124.258 149.879C124.239 149.733 124.191 149.592 124.116 149.464C124.016 149.291 123.871 149.146 123.696 149.047C123.522 148.947 123.324 148.895 123.123 148.897V148.862ZM129.717 144.679C129.477 144.683 129.243 144.757 129.044 144.891C128.92 144.973 128.815 145.079 128.733 145.203C128.652 145.326 128.596 145.465 128.57 145.611C128.543 145.756 128.546 145.906 128.579 146.05C128.612 146.195 128.673 146.331 128.76 146.451C128.845 146.576 128.954 146.682 129.081 146.764C129.208 146.846 129.35 146.902 129.498 146.928C129.647 146.954 129.799 146.951 129.946 146.918C130.093 146.885 130.233 146.822 130.355 146.735C130.591 146.558 130.749 146.296 130.796 146.005C130.842 145.714 130.773 145.416 130.604 145.175C130.502 145.026 130.363 144.906 130.202 144.825C130.041 144.745 129.862 144.706 129.682 144.714L129.717 144.679ZM135.78 139.786C135.506 139.794 135.244 139.894 135.035 140.07C134.927 140.173 134.84 140.296 134.781 140.433C134.722 140.57 134.692 140.718 134.692 140.867C134.692 141.017 134.722 141.164 134.781 141.302C134.84 141.439 134.927 141.562 135.035 141.665C135.263 141.888 135.567 142.015 135.886 142.02C136.159 142.012 136.422 141.912 136.63 141.736C136.84 141.524 136.958 141.237 136.958 140.938C136.958 140.64 136.84 140.353 136.63 140.141C136.523 140.024 136.391 139.931 136.244 139.87C136.097 139.809 135.939 139.78 135.78 139.786ZM141.31 134.256C141.149 134.256 140.989 134.292 140.842 134.359C140.696 134.426 140.565 134.524 140.459 134.646C140.257 134.862 140.145 135.147 140.145 135.443C140.145 135.739 140.257 136.024 140.459 136.241C140.558 136.335 140.675 136.409 140.803 136.458C140.931 136.507 141.067 136.529 141.204 136.525C141.363 136.531 141.521 136.502 141.668 136.441C141.815 136.38 141.947 136.287 142.054 136.17C142.264 135.958 142.382 135.671 142.382 135.372C142.382 135.074 142.264 134.787 142.054 134.575C141.846 134.399 141.583 134.299 141.31 134.291V134.256ZM146.167 128.158C145.984 128.158 145.804 128.203 145.643 128.289C145.482 128.376 145.345 128.502 145.245 128.654C145.077 128.906 145.013 129.212 145.066 129.509C145.119 129.806 145.285 130.072 145.529 130.25C145.713 130.388 145.937 130.462 146.167 130.462C146.35 130.463 146.53 130.418 146.691 130.331C146.852 130.244 146.988 130.119 147.089 129.966C147.175 129.846 147.237 129.71 147.27 129.565C147.302 129.421 147.306 129.271 147.279 129.126C147.253 128.98 147.197 128.841 147.116 128.718C147.034 128.594 146.928 128.488 146.805 128.406C146.621 128.268 146.397 128.194 146.167 128.194V128.158ZM150.315 121.564C150.11 121.566 149.91 121.623 149.735 121.729C149.561 121.835 149.418 121.986 149.322 122.167C149.246 122.297 149.197 122.441 149.178 122.59C149.158 122.739 149.169 122.891 149.208 123.036C149.248 123.181 149.316 123.317 149.408 123.435C149.501 123.554 149.616 123.653 149.747 123.727C149.935 123.759 150.127 123.759 150.315 123.727C150.519 123.725 150.719 123.668 150.894 123.562C151.069 123.456 151.212 123.305 151.307 123.124C151.383 122.994 151.432 122.85 151.452 122.701C151.471 122.552 151.461 122.4 151.421 122.255C151.382 122.11 151.314 121.974 151.221 121.855C151.128 121.737 151.013 121.638 150.882 121.564C150.695 121.528 150.502 121.528 150.315 121.564ZM153.86 114.474C153.638 114.478 153.422 114.548 153.239 114.674C153.057 114.8 152.915 114.977 152.832 115.183C152.774 115.318 152.744 115.463 152.743 115.609C152.742 115.756 152.771 115.901 152.827 116.037C152.883 116.172 152.966 116.295 153.07 116.398C153.174 116.501 153.298 116.582 153.434 116.636C153.574 116.668 153.72 116.668 153.86 116.636C154.083 116.636 154.301 116.569 154.484 116.442C154.668 116.315 154.809 116.136 154.888 115.927C154.995 115.654 154.992 115.35 154.88 115.079C154.767 114.808 154.554 114.591 154.285 114.474C154.133 114.441 153.976 114.441 153.824 114.474H153.86ZM156.483 107.135C156.236 107.133 155.995 107.211 155.797 107.359C155.599 107.506 155.454 107.714 155.384 107.951C155.341 108.093 155.328 108.242 155.344 108.389C155.36 108.537 155.406 108.679 155.479 108.808C155.552 108.938 155.65 109.051 155.768 109.141C155.886 109.231 156.021 109.297 156.164 109.333H156.483C156.724 109.328 156.957 109.246 157.148 109.099C157.34 108.953 157.479 108.749 157.547 108.518C157.596 108.378 157.615 108.23 157.603 108.083C157.592 107.936 157.549 107.793 157.479 107.662C157.409 107.532 157.313 107.418 157.196 107.328C157.08 107.237 156.946 107.171 156.802 107.135H156.483ZM158.256 99.5486C157.993 99.5452 157.737 99.6363 157.535 99.8055C157.334 99.9746 157.199 100.211 157.157 100.47C157.105 100.766 157.174 101.071 157.346 101.317C157.519 101.563 157.783 101.73 158.079 101.782H158.291C158.558 101.777 158.814 101.678 159.015 101.503C159.216 101.328 159.349 101.088 159.39 100.825C159.416 100.68 159.412 100.532 159.379 100.389C159.346 100.246 159.285 100.111 159.199 99.9923C159.113 99.8734 159.004 99.7728 158.878 99.6966C158.753 99.6204 158.614 99.5701 158.469 99.5486H158.256ZM159.178 91.8201C158.889 91.8196 158.61 91.9293 158.399 92.127C158.189 92.3246 158.061 92.5953 158.043 92.8837C158.034 93.0327 158.053 93.1822 158.102 93.3235C158.15 93.4649 158.226 93.5953 158.325 93.7072C158.423 93.8192 158.543 93.9106 158.678 93.9761C158.812 94.0416 158.958 94.08 159.107 94.0891C159.396 94.0896 159.674 93.9799 159.885 93.7822C160.096 93.5846 160.223 93.3139 160.241 93.0255C160.251 92.8765 160.231 92.727 160.183 92.5857C160.134 92.4443 160.059 92.3139 159.96 92.2019C159.861 92.09 159.741 91.9986 159.607 91.9331C159.473 91.8675 159.327 91.8292 159.178 91.8201ZM159.178 84.0208C159.03 84.0252 158.885 84.0593 158.751 84.121C158.617 84.1828 158.497 84.2708 158.398 84.38C158.298 84.4892 158.222 84.6172 158.173 84.7565C158.125 84.8958 158.104 85.0435 158.114 85.1907C158.132 85.4791 158.26 85.7498 158.47 85.9474C158.681 86.1451 158.96 86.2548 159.249 86.2542C159.398 86.2497 159.544 86.2157 159.68 86.1545C159.816 86.0932 159.938 86.0057 160.04 85.897C160.143 85.7884 160.222 85.6607 160.275 85.5212C160.328 85.3818 160.352 85.2333 160.348 85.0843C160.329 84.7959 160.202 84.5252 159.991 84.3276C159.78 84.1299 159.502 84.0202 159.213 84.0208H159.178ZM158.398 76.2569H158.22C157.922 76.3091 157.656 76.475 157.477 76.7196C157.299 76.9642 157.222 77.2686 157.263 77.5686C157.298 77.8316 157.431 78.0721 157.634 78.2426C157.837 78.4131 158.097 78.5015 158.362 78.4903C158.651 78.4382 158.909 78.2761 159.08 78.0381C159.252 77.8001 159.325 77.5047 159.284 77.2141C159.249 76.9478 159.118 76.7034 158.916 76.5271C158.713 76.3508 158.453 76.2546 158.185 76.2569H158.398ZM156.767 68.6348H156.2C156.056 68.6715 155.921 68.7369 155.803 68.8271C155.686 68.9173 155.587 69.0304 155.515 69.1596C155.442 69.2888 155.396 69.4314 155.379 69.5788C155.363 69.7262 155.377 69.8754 155.42 70.0174C155.489 70.2544 155.634 70.4623 155.832 70.6094C156.031 70.7566 156.272 70.835 156.519 70.8328H156.802C156.947 70.7956 157.082 70.7303 157.201 70.6407C157.321 70.5511 157.421 70.4389 157.497 70.3105C157.572 70.1821 157.622 70.04 157.643 69.8924C157.664 69.7447 157.655 69.5945 157.618 69.4502C157.555 69.216 157.417 69.0091 157.225 68.8616C157.032 68.7141 156.797 68.6344 156.554 68.6348H156.767ZM154.285 61.2254C154.145 61.1935 154 61.1935 153.86 61.2254C153.585 61.3361 153.364 61.5502 153.244 61.8219C153.125 62.0936 153.117 62.4013 153.222 62.6789C153.305 62.8847 153.447 63.0616 153.629 63.1876C153.812 63.3137 154.028 63.3833 154.25 63.3879H154.675C154.953 63.27 155.175 63.0493 155.294 62.7718C155.413 62.4943 155.42 62.1815 155.313 61.899C155.234 61.6904 155.093 61.5109 154.91 61.3842C154.726 61.2576 154.508 61.1898 154.285 61.1899V61.2254ZM150.988 54.1351C150.814 54.0867 150.63 54.0867 150.456 54.1351C150.195 54.2777 150 54.5176 149.914 54.8028C149.827 55.088 149.857 55.3958 149.996 55.6595C150.085 55.8453 150.226 56.0013 150.402 56.1082C150.579 56.2152 150.782 56.2687 150.988 56.2621C151.164 56.2957 151.344 56.2957 151.52 56.2621C151.775 56.1132 151.964 55.8732 152.05 55.5905C152.135 55.3077 152.111 55.0031 151.981 54.7377C151.892 54.5519 151.75 54.396 151.574 54.289C151.398 54.182 151.194 54.1285 150.988 54.1351ZM146.947 47.4701C146.723 47.4793 146.505 47.54 146.309 47.6474C146.065 47.8253 145.899 48.0907 145.846 48.388C145.793 48.6854 145.857 48.9916 146.025 49.2427C146.125 49.3956 146.262 49.521 146.423 49.6077C146.584 49.6944 146.764 49.7395 146.947 49.739C147.17 49.7299 147.389 49.6692 147.585 49.5618C147.827 49.3903 147.991 49.1311 148.044 48.8396C148.097 48.5481 148.034 48.2475 147.869 48.0019C147.757 47.8525 147.612 47.7303 147.447 47.6444C147.281 47.5584 147.098 47.511 146.911 47.5056L146.947 47.4701ZM142.019 41.4079C141.761 41.4048 141.51 41.4926 141.31 41.6561C141.1 41.8685 140.982 42.1551 140.982 42.4537C140.982 42.7524 141.1 43.039 141.31 43.2514C141.416 43.3732 141.547 43.471 141.693 43.5382C141.84 43.6055 141.999 43.6406 142.161 43.6414C142.434 43.6339 142.696 43.5339 142.905 43.3578C143.107 43.1412 143.219 42.8561 143.219 42.5601C143.219 42.264 143.107 41.979 142.905 41.7624C142.804 41.6347 142.675 41.5328 142.527 41.465C142.379 41.3972 142.217 41.3655 142.054 41.3725L142.019 41.4079ZM136.63 35.7711C136.477 35.7654 136.323 35.7943 136.182 35.8557C136.041 35.917 135.916 36.0093 135.815 36.1256C135.605 36.338 135.487 36.6246 135.487 36.9233C135.487 37.222 135.605 37.5086 135.815 37.7209C136.035 37.9022 136.31 38.0023 136.595 38.0046C136.748 38.0078 136.901 37.9778 137.041 37.9166C137.182 37.8554 137.308 37.7645 137.41 37.65C137.62 37.4377 137.738 37.1511 137.738 36.8524C137.738 36.5537 137.62 36.2671 137.41 36.0547C137.205 35.8733 136.94 35.7725 136.666 35.7711H136.63ZM130.639 30.7724C130.461 30.7787 130.287 30.8231 130.128 30.9026C129.969 30.9822 129.829 31.0949 129.717 31.2333C129.546 31.4802 129.476 31.7836 129.522 32.0806C129.568 32.3777 129.727 32.6455 129.965 32.8286C130.16 32.9717 130.397 33.0465 130.639 33.0413C130.871 33.0344 131.096 32.9563 131.282 32.8177C131.469 32.679 131.608 32.4865 131.681 32.2661C131.755 32.0457 131.759 31.8081 131.693 31.5854C131.627 31.3626 131.494 31.1655 131.313 31.0206C131.115 30.882 130.88 30.8077 130.639 30.8079V30.7724ZM124.151 26.4828C123.95 26.4772 123.751 26.5271 123.576 26.6272C123.4 26.7272 123.256 26.8735 123.159 27.05C123.084 27.1773 123.035 27.3185 123.016 27.465C122.997 27.6115 123.008 27.7603 123.047 27.9026C123.087 28.0449 123.155 28.1778 123.247 28.2932C123.34 28.4086 123.454 28.5043 123.584 28.5744C123.711 28.6565 123.853 28.7117 124.002 28.7365C124.15 28.7613 124.303 28.7553 124.449 28.7187C124.595 28.6821 124.732 28.6158 124.852 28.5239C124.972 28.432 125.071 28.3164 125.144 28.1845C125.224 28.0585 125.277 27.9171 125.299 27.7695C125.321 27.6218 125.311 27.4712 125.271 27.3274C125.231 27.1836 125.161 27.0498 125.066 26.9349C124.971 26.8199 124.852 26.7263 124.719 26.66C124.533 26.612 124.337 26.612 124.151 26.66V26.4828ZM117.061 22.9376C116.842 22.9347 116.627 22.9972 116.444 23.1172C116.261 23.2373 116.118 23.4093 116.033 23.6112C115.913 23.8841 115.905 24.1934 116.011 24.472C116.117 24.7507 116.329 24.9763 116.6 25.1002C116.752 25.1377 116.91 25.1377 117.061 25.1002C117.275 25.1017 117.485 25.0425 117.667 24.9296C117.849 24.8167 117.995 24.6546 118.089 24.462C118.209 24.1891 118.217 23.8799 118.111 23.6012C118.005 23.3226 117.793 23.0969 117.522 22.9731C117.37 22.9405 117.213 22.9405 117.061 22.9731V22.9376ZM109.758 20.1724C109.517 20.1777 109.284 20.2596 109.093 20.4062C108.902 20.5529 108.762 20.7565 108.694 20.9878C108.615 21.2745 108.648 21.5807 108.786 21.8442C108.924 22.1076 109.158 22.3085 109.439 22.4058H109.793C110.056 22.3969 110.308 22.297 110.505 22.1231C110.702 21.9493 110.833 21.7123 110.875 21.4527C110.917 21.1931 110.867 20.927 110.735 20.6999C110.602 20.4729 110.395 20.2989 110.148 20.2078H109.793L109.758 20.1724ZM102.207 18.258C101.949 18.2531 101.697 18.3393 101.496 18.5013C101.295 18.6634 101.158 18.891 101.108 19.1443C101.055 19.4397 101.117 19.7442 101.282 19.995C101.447 20.2457 101.702 20.4235 101.994 20.4915H102.242C102.504 20.4879 102.756 20.3943 102.956 20.2263C103.156 20.0584 103.292 19.8264 103.341 19.5697C103.378 19.4248 103.383 19.274 103.357 19.1269C103.331 18.9798 103.274 18.8399 103.191 18.7161C103.107 18.5924 102.998 18.4876 102.872 18.4087C102.745 18.3298 102.603 18.2784 102.455 18.258H102.207ZM94.5138 17.159C94.2129 17.159 93.9244 17.2785 93.7116 17.4913C93.4989 17.704 93.3794 17.9926 93.3794 18.2934C93.3794 18.5943 93.4989 18.8829 93.7116 19.0956C93.9244 19.3084 94.2129 19.4279 94.5138 19.4279C94.8147 19.4279 95.1032 19.3084 95.316 19.0956C95.5287 18.8829 95.6483 18.5943 95.6483 18.2934C95.6483 17.9926 95.5287 17.704 95.316 17.4913C95.1032 17.2785 94.8147 17.159 94.5138 17.159Z" fill="white"/>
</g>
</g>
<defs>
<linearGradient id="paint0_linear_1154_7081" x1="87.8846" y1="1.94984" x2="89.09" y2="177.861" gradientUnits="userSpaceOnUse">
<stop stop-color="#1F467D"/>
<stop offset="0.31" stop-color="#193262"/>
<stop offset="0.76" stop-color="#111A42"/>
<stop offset="1" stop-color="#0E1136"/>
</linearGradient>
<linearGradient id="paint1_linear_1154_7081" x1="-45.3068" y1="180.98" x2="160.632" y2="38.606" gradientUnits="userSpaceOnUse">
<stop offset="0.02" stop-color="white"/>
<stop offset="0.11" stop-color="#F7F8F9"/>
<stop offset="0.25" stop-color="#E1E3E8"/>
<stop offset="0.41" stop-color="#BCC2CC"/>
<stop offset="0.6" stop-color="#8A95A5"/>
<stop offset="0.81" stop-color="#4A5B75"/>
<stop offset="1" stop-color="#0B2144"/>
</linearGradient>
</defs>
</svg>
